<svg version="1.1" id="Layer_1" xmlns="http://www.w3.org/2000/svg" xmlns:xlink="http://www.w3.org/1999/xlink" x="0px" y="0px"
	 width="100%" viewBox="0 0 756 842" enable-background="new 0 0 756 842" xml:space="preserve">
<path fill="#FFFFFF" opacity="1.000000" stroke="none" 
	d="
M1.000000,305.000000 
	C1.000000,203.333328 1.000000,102.166664 1.000000,1.000000 
	C253.000000,1.000000 505.000000,1.000000 757.000000,1.000000 
	C757.000000,281.666656 757.000000,562.333313 757.000000,843.000000 
	C505.000000,843.000000 253.000000,843.000000 1.000000,843.000000 
	C1.000000,663.833313 1.000000,484.666656 1.000000,305.000000 
M513.639526,540.405457 
	C506.112122,547.610901 498.584686,554.816345 490.411896,562.236816 
	C480.503571,568.771118 470.595245,575.305481 459.989319,581.958618 
	C445.250610,589.262756 429.882751,594.832153 413.049835,598.728638 
	C404.318268,599.895508 395.602448,601.874878 386.851532,602.044983 
	C372.579559,602.322205 358.284668,601.418762 343.271759,600.705261 
	C342.791534,600.569458 342.318878,600.391113 341.829987,600.303894 
	C291.001282,591.238708 250.301147,565.891663 219.682678,524.333801 
	C208.549988,509.223724 201.255493,492.135681 194.161362,474.129242 
	C191.745087,464.126160 189.327042,454.123505 186.912979,444.119904 
	C183.478867,429.889282 175.045547,419.976868 160.976044,415.709503 
	C147.645294,411.666168 135.345917,414.014648 124.242073,423.998199 
	C116.078987,431.726746 111.566910,441.233643 112.138206,452.444916 
	C112.491669,459.381348 114.378761,466.239624 115.757668,473.927521 
	C120.150917,487.292053 124.544174,500.656586 128.983185,514.763672 
	C146.990189,559.009766 175.380890,595.472046 213.016586,624.525574 
	C249.021606,652.320312 289.890564,669.213196 335.833649,675.901367 
	C349.889648,676.613281 363.945618,677.325195 378.926025,678.205383 
	C396.199463,678.144653 413.251190,676.282532 430.799866,671.985474 
	C448.595795,668.445740 465.588715,662.513550 482.686340,654.725952 
	C495.817749,647.218933 508.949188,639.711914 522.754761,632.023254 
	C531.861694,624.743225 540.968567,617.463135 550.700684,609.916016 
	C558.330017,602.015869 565.959351,594.115784 574.131714,585.894592 
	C581.175781,576.302368 588.219910,566.710144 595.806274,556.732239 
	C601.904114,545.210571 608.001953,533.688904 614.633301,521.701599 
	C619.545959,507.490601 624.458618,493.279633 629.787109,478.487030 
	C632.046448,467.490417 636.010559,456.708313 633.995667,445.172791 
	C631.287842,429.669800 619.623169,417.889679 603.644043,414.513245 
	C589.346375,411.492157 573.598450,418.270752 564.801514,431.580200 
	C563.114502,435.836914 561.020508,439.982605 559.822571,444.372772 
	C557.052856,454.523132 554.717285,464.791962 551.905762,475.692352 
	C546.276672,487.796600 540.647583,499.900818 534.483093,512.412170 
	C527.727112,521.624573 520.971130,530.837036 513.639526,540.405457 
M489.068451,215.876892 
	C473.707428,215.986801 458.346375,216.096710 442.232208,216.177612 
	C436.136993,218.966049 429.089142,220.615906 424.131470,224.763931 
	C411.097504,235.669220 407.717133,251.937820 413.736176,267.743011 
	C419.142303,281.938782 432.855011,291.032715 449.334259,291.081604 
	C474.114044,291.155090 498.894409,291.112640 523.674133,291.022522 
	C526.451782,291.012451 529.227112,290.374390 532.777100,290.056183 
	C544.070007,287.772125 551.593628,280.591248 557.869995,270.670471 
	C558.789185,268.367615 559.906494,266.122528 560.596985,263.752991 
	C567.479736,240.133957 550.003601,216.316467 525.396729,215.920746 
	C513.601990,215.731064 501.800964,215.939209 489.068451,215.876892 
M517.800476,457.547241 
	C522.010071,443.529297 524.630005,429.297058 523.949402,414.163086 
	C502.062531,414.163086 480.527649,414.163086 458.084808,414.043701 
	C455.143402,414.043701 452.202026,414.043701 448.858459,414.043701 
	C448.493561,427.399078 445.078827,439.540344 438.800812,451.560303 
	C432.147095,462.484161 423.431427,471.422821 412.154663,478.823029 
	C404.648193,481.794281 397.275848,485.198212 389.587158,487.581665 
	C384.622894,489.120544 379.195068,489.163971 373.149231,489.729431 
	C362.796417,489.153625 352.611420,487.731110 343.077881,483.351288 
	C317.490326,471.596100 302.810394,451.506561 297.976562,423.126007 
	C297.694183,407.414886 297.411804,391.703766 297.301025,375.068848 
	C297.243591,360.043579 297.186157,345.018280 297.294342,329.067810 
	C297.237091,312.374786 297.179840,295.681793 297.277679,278.062653 
	C297.229126,260.382538 297.180573,242.702393 297.530975,224.317429 
	C297.590057,222.333817 297.658997,220.350433 297.706665,218.366547 
	C298.091797,202.330048 298.472961,186.293472 299.353882,169.869186 
	C302.458588,158.395721 307.369873,147.843002 315.183350,138.764389 
	C317.334351,136.265137 319.458923,133.743149 322.231781,131.085159 
	C334.923340,120.366531 349.466125,113.859779 366.918518,111.962547 
	C373.210663,112.288101 379.633270,111.913918 385.772614,113.058846 
	C414.194153,118.359177 433.937927,134.536285 443.875519,161.788589 
	C446.781097,169.756729 447.940002,178.361832 449.970276,186.975098 
	C471.452881,186.975098 493.225708,186.975098 515.910217,187.078995 
	C518.478760,187.078995 521.047241,187.078995 524.858093,187.078995 
	C523.747437,177.506287 522.732422,168.757996 521.756775,159.248123 
	C517.966003,147.444611 515.059448,135.261322 510.188995,123.921501 
	C501.673126,104.093971 488.468719,87.430626 472.019104,73.409767 
	C440.871613,46.861130 405.013672,34.285290 363.111847,36.954468 
	C353.400696,38.601112 343.689514,40.247757 333.176086,41.919552 
	C320.533020,44.917538 308.703003,49.850349 297.068817,56.984447 
	C293.287506,59.377640 289.186981,61.390312 285.789246,64.240746 
	C277.954468,70.813545 270.460938,77.793098 262.269897,85.013908 
	C251.271912,96.876343 241.687225,109.685432 235.174606,125.382401 
	C228.879608,139.991013 224.077026,154.996902 222.809280,171.807175 
	C222.580719,189.208145 222.352158,206.609116 221.995087,224.938416 
	C222.038651,241.295181 222.082214,257.651947 221.992523,274.936707 
	C222.036972,290.293976 222.081421,305.651215 221.989822,321.936005 
	C222.035034,336.959991 222.080246,351.983978 221.986542,367.935211 
	C222.032883,380.957916 222.079224,393.980652 221.982101,407.930634 
	C222.389816,416.289581 222.797531,424.648499 223.125244,433.810272 
	C226.856049,459.197571 235.333939,482.720551 251.162201,503.160767 
	C286.627075,548.959290 333.049469,569.734863 391.822845,563.950989 
	C399.547577,562.271606 407.272339,560.592285 415.761536,558.943176 
	C424.835297,555.219177 433.909088,551.495117 443.653168,547.644470 
	C453.663330,540.530823 463.673523,533.417175 474.287262,526.097778 
	C482.969635,515.774292 491.652039,505.450775 500.858093,494.733154 
	C508.310089,483.407074 513.832642,471.210602 517.800476,457.547241 
M357.070038,716.266541 
	C340.707306,716.334045 324.344543,716.401550 307.068298,716.268799 
	C289.045288,716.559814 271.022247,716.850830 252.238312,717.066956 
	C245.989853,720.328979 238.700851,722.463379 233.700180,727.077698 
	C221.693283,738.156860 218.669724,752.424133 224.547226,767.679382 
	C230.525208,783.195374 242.700470,791.473206 259.160706,791.749451 
	C287.097412,792.218506 315.049103,791.793640 343.920013,791.906616 
	C361.944305,791.853271 379.968597,791.799927 398.918518,791.909424 
	C415.610168,791.853943 432.301788,791.798462 449.919128,791.905396 
	C455.377075,791.915344 460.837921,792.043396 466.292267,791.908203 
	C474.863739,791.695679 483.430786,791.305603 492.812469,791.112061 
	C508.473053,788.351379 517.976196,778.784241 523.092285,763.236206 
	C528.432556,742.214355 514.062561,719.470154 493.290741,717.124695 
	C483.616150,716.032288 473.750488,716.632324 463.057404,716.276001 
	C443.373138,716.342041 423.688904,716.408081 403.086761,716.271179 
	C388.052277,716.337036 373.017822,716.402832 357.070038,716.266541 
M549.705444,374.863098 
	C556.641174,369.251709 560.189392,361.498566 561.697388,353.151123 
	C565.216980,333.668457 550.596375,312.800049 530.868774,311.196228 
	C511.010956,309.581787 490.951263,310.450348 470.054077,310.100647 
	C460.621674,310.370209 451.119324,310.018768 441.775177,311.071625 
	C430.888428,312.298309 422.581360,318.342682 416.327057,328.228760 
	C415.388458,330.166260 414.307312,332.048615 413.533051,334.049683 
	C404.569031,357.216217 419.248505,381.989502 441.849640,384.678833 
	C457.385010,386.527374 473.296783,385.212677 489.800293,385.614441 
	C503.171356,385.435760 516.566650,385.679260 529.903931,384.912842 
	C537.361145,384.484283 544.352966,381.664886 549.705444,374.863098 
z"/>
<path fill="#FC4150" opacity="1.000000" stroke="none" 
	d="
M429.995270,671.920410 
	C413.251190,676.282532 396.199463,678.144653 378.430664,677.772400 
	C376.270844,675.549744 374.809875,673.499329 372.907257,672.014893 
	C363.903870,664.990234 354.721436,658.195068 345.715271,651.173828 
	C336.842255,644.256470 328.156708,637.098877 319.292542,630.169922 
	C309.797577,622.747864 300.179565,615.483459 290.635803,608.123596 
	C284.735962,603.573853 278.915588,598.920288 272.983368,594.413574 
	C267.880463,590.536743 262.536407,586.968628 257.534180,582.969727 
	C247.219086,574.723511 237.124542,566.201416 226.809570,557.955017 
	C222.158737,554.236938 217.044067,551.097412 212.408936,547.361572 
	C203.020050,539.794312 193.979904,531.788574 184.491180,524.352478 
	C172.944443,515.303650 160.992310,506.773560 149.388306,497.795776 
	C140.490143,490.911469 131.938202,483.580048 123.053314,476.677856 
	C120.926773,475.025818 118.088387,474.290100 115.577385,473.132965 
	C114.378761,466.239624 112.491669,459.381348 112.138206,452.444916 
	C111.566910,441.233643 116.078987,431.726746 124.763260,424.164673 
	C128.822418,426.352142 132.581833,428.071167 135.846527,430.464874 
	C140.771225,434.075836 145.270432,438.260559 150.092514,442.019226 
	C161.563583,450.960449 173.081070,459.843323 184.663605,468.639435 
	C187.691315,470.938751 191.026001,472.833801 194.219696,474.914520 
	C201.255493,492.135681 208.549988,509.223724 219.682678,524.333801 
	C250.301147,565.891663 291.001282,591.238708 341.829987,600.303894 
	C342.318878,600.391113 342.791534,600.569458 343.672058,601.206970 
	C345.029541,602.796631 345.845215,604.064819 346.965759,604.944641 
	C358.252930,613.807434 369.629303,622.556702 380.903290,631.436096 
	C395.321503,642.791809 409.701019,654.197388 424.011932,665.687683 
	C426.238892,667.475647 428.012207,669.828674 429.995270,671.920410 
z"/>
<path fill="#FB3D4B" opacity="1.000000" stroke="none" 
	d="
M115.667526,473.530243 
	C118.088387,474.290100 120.926773,475.025818 123.053314,476.677856 
	C131.938202,483.580048 140.490143,490.911469 149.388306,497.795776 
	C160.992310,506.773560 172.944443,515.303650 184.491180,524.352478 
	C193.979904,531.788574 203.020050,539.794312 212.408936,547.361572 
	C217.044067,551.097412 222.158737,554.236938 226.809570,557.955017 
	C237.124542,566.201416 247.219086,574.723511 257.534180,582.969727 
	C262.536407,586.968628 267.880463,590.536743 272.983368,594.413574 
	C278.915588,598.920288 284.735962,603.573853 290.635803,608.123596 
	C300.179565,615.483459 309.797577,622.747864 319.292542,630.169922 
	C328.156708,637.098877 336.842255,644.256470 345.715271,651.173828 
	C354.721436,658.195068 363.903870,664.990234 372.907257,672.014893 
	C374.809875,673.499329 376.270844,675.549744 377.968445,677.688232 
	C363.945618,677.325195 349.889648,676.613281 335.414520,675.403198 
	C332.995026,672.765747 331.202911,670.372437 328.957916,668.531433 
	C319.650269,660.898682 310.293671,653.319702 300.784943,645.940063 
	C292.566223,639.561584 284.016754,633.609314 275.799194,627.229431 
	C267.747803,620.978577 260.013794,614.320129 251.993332,608.028137 
	C236.392319,595.789246 220.636444,583.747681 205.048630,571.492188 
	C197.115128,565.254700 189.522659,558.582581 181.572830,552.366821 
	C165.934784,540.139771 150.183807,528.056152 134.385864,516.036377 
	C132.911896,514.914917 130.769485,514.671936 128.937424,514.021118 
	C124.544174,500.656586 120.150917,487.292053 115.667526,473.530243 
z"/>
<path fill="#FE4A5A" opacity="1.000000" stroke="none" 
	d="
M390.993561,563.854187 
	C333.049469,569.734863 286.627075,548.959290 251.162201,503.160767 
	C235.333939,482.720551 226.856049,459.197571 223.541016,433.408081 
	C225.792969,433.662018 227.906326,433.939606 229.414429,435.043793 
	C234.355179,438.661377 239.099777,442.549744 243.875977,446.388580 
	C253.163071,453.852966 262.294922,461.517059 271.725098,468.795166 
	C281.278809,476.168701 291.251404,483.000000 300.795746,490.385132 
	C314.669464,501.120148 328.283813,512.189636 342.083405,523.021362 
	C354.580353,532.830627 367.294159,542.367310 379.664886,552.331482 
	C383.831604,555.687561 387.239075,559.986267 390.993561,563.854187 
z"/>
<path fill="#FA3C47" opacity="1.000000" stroke="none" 
	d="
M128.960297,514.392395 
	C130.769485,514.671936 132.911896,514.914917 134.385864,516.036377 
	C150.183807,528.056152 165.934784,540.139771 181.572830,552.366821 
	C189.522659,558.582581 197.115128,565.254700 205.048630,571.492188 
	C220.636444,583.747681 236.392319,595.789246 251.993332,608.028137 
	C260.013794,614.320129 267.747803,620.978577 275.799194,627.229431 
	C284.016754,633.609314 292.566223,639.561584 300.784943,645.940063 
	C310.293671,653.319702 319.650269,660.898682 328.957916,668.531433 
	C331.202911,670.372437 332.995026,672.765747 334.998169,675.266846 
	C289.890564,669.213196 249.021606,652.320312 213.016586,624.525574 
	C175.380890,595.472046 146.990189,559.009766 128.960297,514.392395 
z"/>
<path fill="#FF5263" opacity="1.000000" stroke="none" 
	d="
M297.876953,424.006531 
	C302.810394,451.506561 317.490326,471.596100 343.077881,483.351288 
	C352.611420,487.731110 362.796417,489.153625 373.572998,490.182190 
	C374.548370,491.785522 374.818970,493.255554 375.700500,494.031189 
	C379.417053,497.301300 383.217682,500.494049 387.165283,503.480133 
	C402.554443,515.120911 418.080872,526.581604 433.390808,538.324829 
	C436.924377,541.035217 439.802917,544.599670 442.982880,547.771118 
	C433.909088,551.495117 424.835297,555.219177 415.375092,558.564331 
	C414.395935,557.054138 414.082764,555.569885 413.167938,554.845032 
	C402.314575,546.245605 391.411743,537.707275 380.441803,529.256836 
	C366.821106,518.764343 353.030548,508.490479 339.492096,497.893890 
	C328.547943,489.327881 317.993286,480.263947 307.041809,471.707672 
	C291.558624,459.610809 275.804260,447.861450 260.289001,435.805023 
	C248.794373,426.872833 237.516144,417.662537 226.077133,408.657898 
	C224.995834,407.806732 223.453751,407.540894 222.125580,407.003357 
	C222.079224,393.980652 222.032883,380.957916 222.400024,367.509430 
	C224.347946,368.028381 225.987320,368.838470 227.400055,369.939331 
	C237.691620,377.959625 247.948685,386.024384 258.195099,394.102417 
	C269.989014,403.400482 281.740356,412.752838 293.573090,422.001190 
	C294.787964,422.950775 296.432037,423.351257 297.876953,424.006531 
z"/>
<path fill="#FF969C" opacity="1.000000" stroke="none" 
	d="
M297.727264,56.816017 
	C308.703003,49.850349 320.533020,44.917538 333.614624,42.263649 
	C334.579865,43.430618 334.935272,44.470306 335.659821,45.042656 
	C342.545593,50.481819 349.470551,55.872200 356.430298,61.216644 
	C365.216461,67.963646 374.094910,74.591171 382.843628,81.386009 
	C393.435822,89.612595 403.922424,97.974899 414.475372,106.252174 
	C430.234863,118.613266 445.991760,130.977859 461.788116,143.291794 
	C477.567383,155.592438 493.441040,167.772781 509.147858,180.164841 
	C511.453766,181.984100 513.065552,184.683136 514.998535,186.975098 
	C493.225708,186.975098 471.452881,186.975098 449.970276,186.975098 
	C447.940002,178.361832 446.781097,169.756729 443.875519,161.788589 
	C433.937927,134.536285 414.194153,118.359177 385.772614,113.058846 
	C379.633270,111.913918 373.210663,112.288101 366.451630,111.552223 
	C364.897095,109.566826 364.114014,107.601433 362.674042,106.477875 
	C350.174133,96.724503 337.570038,87.104225 324.968842,77.481110 
	C315.910583,70.563614 306.809326,63.702362 297.727264,56.816017 
z"/>
<path fill="#FF9FA3" opacity="1.000000" stroke="none" 
	d="
M363.998016,37.032394 
	C405.013672,34.285290 440.871613,46.861130 472.019104,73.409767 
	C488.468719,87.430626 501.673126,104.093971 510.188995,123.921501 
	C515.059448,135.261322 517.966003,147.444611 521.376343,159.626007 
	C518.564758,158.735748 515.918945,157.757309 513.742676,156.145020 
	C507.228516,151.319061 500.905975,146.234848 494.494141,141.270126 
	C481.671722,131.341660 468.750275,121.538597 456.035431,111.474365 
	C441.893890,100.280846 428.078339,88.672966 413.860443,77.579178 
	C399.285553,66.206795 384.336365,55.314808 369.704620,44.013687 
	C367.387390,42.223919 365.879883,39.385811 363.998016,37.032394 
z"/>
<path fill="#FF838D" opacity="1.000000" stroke="none" 
	d="
M532.003540,290.027557 
	C529.227112,290.374390 526.451782,291.012451 523.674133,291.022522 
	C498.894409,291.112640 474.114044,291.155090 449.334259,291.081604 
	C432.855011,291.032715 419.142303,281.938782 413.736176,267.743011 
	C407.717133,251.937820 411.097504,235.669220 424.131470,224.763931 
	C429.089142,220.615906 436.136993,218.966049 442.657959,216.521347 
	C443.931885,217.845993 444.649902,218.991440 445.649048,219.781342 
	C452.634338,225.303894 459.687225,230.740845 466.700775,236.227859 
	C486.345551,251.596817 506.029449,266.916656 525.563232,282.425476 
	C528.114014,284.450653 529.876160,287.469147 532.003540,290.027557 
z"/>
<path fill="#F8373A" opacity="1.000000" stroke="none" 
	d="
M342.994507,791.744507 
	C315.049103,791.793640 287.097412,792.218506 259.160706,791.749451 
	C242.700470,791.473206 230.525208,783.195374 224.547226,767.679382 
	C218.669724,752.424133 221.693283,738.156860 233.700180,727.077698 
	C238.700851,722.463379 245.989853,720.328979 252.676758,717.431519 
	C259.399323,723.306946 265.506042,729.040039 272.031097,734.249146 
	C276.240143,737.609253 281.321564,739.870361 285.565582,743.193970 
	C303.867218,757.526611 322.036499,772.029358 340.137207,786.615112 
	C341.549988,787.753601 342.063202,790.008423 342.994507,791.744507 
z"/>
<path fill="#FF7985" opacity="1.000000" stroke="none" 
	d="
M416.905853,327.811523 
	C422.581360,318.342682 430.888428,312.298309 441.775177,311.071625 
	C451.119324,310.018768 460.621674,310.370209 470.528137,310.513733 
	C473.329010,313.614960 475.334900,316.693695 478.042480,318.918427 
	C486.343231,325.738922 494.866394,332.292847 503.391388,338.835297 
	C512.302490,345.674103 521.429565,352.235535 530.247253,359.190765 
	C536.712524,364.290466 542.830566,369.830170 549.103394,375.173798 
	C544.352966,381.664886 537.361145,384.484283 529.903931,384.912842 
	C516.566650,385.679260 503.171356,385.435760 489.383545,385.085876 
	C483.710144,379.883392 478.617706,375.006622 473.155853,370.586212 
	C466.104889,364.879608 458.767273,359.526520 451.537476,354.041779 
	C440.000366,345.289459 428.450378,336.554077 416.905853,327.811523 
z"/>
<path fill="#FF9BA0" opacity="1.000000" stroke="none" 
	d="
M363.554932,36.993431 
	C365.879883,39.385811 367.387390,42.223919 369.704620,44.013687 
	C384.336365,55.314808 399.285553,66.206795 413.860443,77.579178 
	C428.078339,88.672966 441.893890,100.280846 456.035431,111.474365 
	C468.750275,121.538597 481.671722,131.341660 494.494141,141.270126 
	C500.905975,146.234848 507.228516,151.319061 513.742676,156.145020 
	C515.918945,157.757309 518.564758,158.735748 521.356689,160.006805 
	C522.732422,168.757996 523.747437,177.506287 524.858093,187.078995 
	C521.047241,187.078995 518.478760,187.078995 515.454346,187.027039 
	C513.065552,184.683136 511.453766,181.984100 509.147858,180.164841 
	C493.441040,167.772781 477.567383,155.592438 461.788116,143.291794 
	C445.991760,130.977859 430.234863,118.613266 414.475372,106.252174 
	C403.922424,97.974899 393.435822,89.612595 382.843628,81.386009 
	C374.094910,74.591171 365.216461,67.963646 356.430298,61.216644 
	C349.470551,55.872200 342.545593,50.481819 335.659821,45.042656 
	C334.935272,44.470306 334.579865,43.430618 334.015747,42.251076 
	C343.689514,40.247757 353.400696,38.601112 363.554932,36.993431 
z"/>
<path fill="#FD4757" opacity="1.000000" stroke="none" 
	d="
M430.397583,671.952942 
	C428.012207,669.828674 426.238892,667.475647 424.011932,665.687683 
	C409.701019,654.197388 395.321503,642.791809 380.903290,631.436096 
	C369.629303,622.556702 358.252930,613.807434 346.965759,604.944641 
	C345.845215,604.064819 345.029541,602.796631 344.035919,601.361084 
	C358.284668,601.418762 372.579559,602.322205 386.851532,602.044983 
	C395.602448,601.874878 404.318268,599.895508 413.605896,599.038574 
	C415.543610,600.767273 416.777588,602.377380 418.329498,603.575745 
	C436.586945,617.673889 454.946564,631.640503 473.134430,645.827393 
	C476.420044,648.390259 479.051880,651.791260 481.985535,654.805298 
	C465.588715,662.513550 448.595795,668.445740 430.397583,671.952942 
z"/>
<path fill="#FE4E5F" opacity="1.000000" stroke="none" 
	d="
M222.053833,407.466980 
	C223.453751,407.540894 224.995834,407.806732 226.077133,408.657898 
	C237.516144,417.662537 248.794373,426.872833 260.289001,435.805023 
	C275.804260,447.861450 291.558624,459.610809 307.041809,471.707672 
	C317.993286,480.263947 328.547943,489.327881 339.492096,497.893890 
	C353.030548,508.490479 366.821106,518.764343 380.441803,529.256836 
	C391.411743,537.707275 402.314575,546.245605 413.167938,554.845032 
	C414.082764,555.569885 414.395935,557.054138 414.992859,558.549194 
	C407.272339,560.592285 399.547577,562.271606 391.408203,563.902588 
	C387.239075,559.986267 383.831604,555.687561 379.664886,552.331482 
	C367.294159,542.367310 354.580353,532.830627 342.083405,523.021362 
	C328.283813,512.189636 314.669464,501.120148 300.795746,490.385132 
	C291.251404,483.000000 281.278809,476.168701 271.725098,468.795166 
	C262.294922,461.517059 253.163071,453.852966 243.875977,446.388580 
	C239.099777,442.549744 234.355179,438.661377 229.414429,435.043793 
	C227.906326,433.939606 225.792969,433.662018 223.581024,433.006653 
	C222.797531,424.648499 222.389816,416.289581 222.053833,407.466980 
z"/>
<path fill="#F9373E" opacity="1.000000" stroke="none" 
	d="
M343.457275,791.825562 
	C342.063202,790.008423 341.549988,787.753601 340.137207,786.615112 
	C322.036499,772.029358 303.867218,757.526611 285.565582,743.193970 
	C281.321564,739.870361 276.240143,737.609253 272.031097,734.249146 
	C265.506042,729.040039 259.399323,723.306946 253.057220,717.468994 
	C271.022247,716.850830 289.045288,716.559814 307.537903,716.706665 
	C308.553467,718.127136 308.869385,719.394226 309.679901,720.049561 
	C321.492737,729.600464 333.264893,739.207153 345.261993,748.523376 
	C360.122803,760.063416 375.265900,771.240662 390.089661,782.827087 
	C393.167572,785.232788 395.381012,788.744568 397.992889,791.746582 
	C379.968597,791.799927 361.944305,791.853271 343.457275,791.825562 
z"/>
<path fill="#FF707D" opacity="1.000000" stroke="none" 
	d="
M222.123596,224.010086 
	C222.352158,206.609116 222.580719,189.208145 223.288681,171.408997 
	C225.401886,171.738678 227.272766,172.166031 228.633636,173.239777 
	C246.798737,187.572372 264.814514,202.095383 283.061188,216.322540 
	C287.384338,219.693329 292.422668,222.146820 297.132019,225.022263 
	C297.180573,242.702393 297.229126,260.382538 296.816711,278.525391 
	C294.587036,278.174103 292.645905,277.603729 291.083527,276.498108 
	C287.172150,273.730255 283.396790,270.765045 279.630310,267.798462 
	C266.384094,257.365326 253.241058,246.799301 239.899078,236.490509 
	C234.176147,232.068634 228.060715,228.154770 222.123596,224.010086 
z"/>
<path fill="#FB3D4B" opacity="1.000000" stroke="none" 
	d="
M404.004639,716.474182 
	C423.688904,716.408081 443.373138,716.342041 463.577515,716.689209 
	C465.016785,718.232788 465.767151,719.575500 466.881073,720.460876 
	C478.921967,730.031738 490.991547,739.567078 503.113800,749.034668 
	C509.605194,754.104431 516.213989,759.023865 522.769775,764.011169 
	C517.976196,778.784241 508.473053,788.351379 492.371399,790.706238 
	C490.679016,788.786072 489.647675,786.994507 488.142395,785.800232 
	C472.720581,773.564575 457.273163,761.359680 441.724884,749.285278 
	C432.649170,742.237366 423.114136,735.756226 414.314240,728.388855 
	C410.365692,725.083130 404.492950,722.951172 404.004639,716.474182 
z"/>
<path fill="#FF7985" opacity="1.000000" stroke="none" 
	d="
M297.331482,224.669846 
	C292.422668,222.146820 287.384338,219.693329 283.061188,216.322540 
	C264.814514,202.095383 246.798737,187.572372 228.633636,173.239777 
	C227.272766,172.166031 225.401886,171.738678 223.399506,171.006775 
	C224.077026,154.996902 228.879608,139.991013 235.792236,125.159225 
	C237.941437,125.499329 239.732559,125.726295 240.964844,126.677338 
	C254.920349,137.447754 268.724609,148.414734 282.717316,159.136002 
	C287.896454,163.104279 293.464600,166.564819 298.855347,170.256912 
	C298.472961,186.293472 298.091797,202.330048 297.706665,218.366547 
	C297.658997,220.350433 297.590057,222.333817 297.331482,224.669846 
z"/>
<path fill="#FF6876" opacity="1.000000" stroke="none" 
	d="
M222.059357,224.474243 
	C228.060715,228.154770 234.176147,232.068634 239.899078,236.490509 
	C253.241058,246.799301 266.384094,257.365326 279.630310,267.798462 
	C283.396790,270.765045 287.172150,273.730255 291.083527,276.498108 
	C292.645905,277.603729 294.587036,278.174103 296.739166,278.988464 
	C297.179840,295.681793 297.237091,312.374786 296.847290,329.503296 
	C292.082550,326.931915 287.609131,324.123749 283.474213,320.883636 
	C265.779419,307.018188 248.215332,292.985931 230.518692,279.122833 
	C227.957443,277.116394 224.934860,275.698792 222.125763,274.008728 
	C222.082214,257.651947 222.038651,241.295181 222.059357,224.474243 
z"/>
<path fill="#FA3944" opacity="1.000000" stroke="none" 
	d="
M398.455688,791.828003 
	C395.381012,788.744568 393.167572,785.232788 390.089661,782.827087 
	C375.265900,771.240662 360.122803,760.063416 345.261993,748.523376 
	C333.264893,739.207153 321.492737,729.600464 309.679901,720.049561 
	C308.869385,719.394226 308.553467,718.127136 307.994690,716.806885 
	C324.344543,716.401550 340.707306,716.334045 357.540161,716.708069 
	C359.375244,719.116882 360.366241,721.564148 362.169312,722.969177 
	C370.384003,729.370544 378.957214,735.312500 387.158813,741.729797 
	C401.131134,752.662231 414.838684,763.933411 428.827850,774.843811 
	C434.617065,779.358826 440.915070,783.217041 446.813843,787.599915 
	C447.943146,788.438904 448.287170,790.334717 448.993439,791.743042 
	C432.301788,791.798462 415.610168,791.853943 398.455688,791.828003 
z"/>
<path fill="#FE4E5F" opacity="1.000000" stroke="none" 
	d="
M482.335938,654.765625 
	C479.051880,651.791260 476.420044,648.390259 473.134430,645.827393 
	C454.946564,631.640503 436.586945,617.673889 418.329498,603.575745 
	C416.777588,602.377380 415.543610,600.767273 414.025909,599.013428 
	C429.882751,594.832153 445.250610,589.262756 460.667389,582.051758 
	C462.826752,583.198730 464.353363,584.194702 465.782471,585.315002 
	C482.253754,598.227234 498.770538,611.082886 515.111267,624.158569 
	C517.835876,626.338867 519.777283,629.498047 522.080627,632.204895 
	C508.949188,639.711914 495.817749,647.218933 482.335938,654.765625 
z"/>
<path fill="#FF8D95" opacity="1.000000" stroke="none" 
	d="
M297.398041,56.900230 
	C306.809326,63.702362 315.910583,70.563614 324.968842,77.481110 
	C337.570038,87.104225 350.174133,96.724503 362.674042,106.477875 
	C364.114014,107.601433 364.897095,109.566826 365.985901,111.497772 
	C349.466125,113.859779 334.923340,120.366531 321.564880,130.994385 
	C319.811157,129.656586 318.891724,128.195053 317.611298,127.196289 
	C306.790314,118.755722 295.886688,110.421280 285.042145,102.010727 
	C277.609436,96.246223 270.231445,90.411163 262.828979,84.607635 
	C270.460938,77.793098 277.954468,70.813545 285.789246,64.240746 
	C289.186981,61.390312 293.287506,59.377640 297.398041,56.900230 
z"/>
<path fill="#FF838D" opacity="1.000000" stroke="none" 
	d="
M262.549438,84.810776 
	C270.231445,90.411163 277.609436,96.246223 285.042145,102.010727 
	C295.886688,110.421280 306.790314,118.755722 317.611298,127.196289 
	C318.891724,128.195053 319.811157,129.656586 321.246796,131.067596 
	C319.458923,133.743149 317.334351,136.265137 315.183350,138.764389 
	C307.369873,147.843002 302.458588,158.395721 299.104614,170.063049 
	C293.464600,166.564819 287.896454,163.104279 282.717316,159.136002 
	C268.724609,148.414734 254.920349,137.447754 240.964844,126.677338 
	C239.732559,125.726295 237.941437,125.499329 236.003555,124.885674 
	C241.687225,109.685432 251.271912,96.876343 262.549438,84.810776 
z"/>
<path fill="#FF5969" opacity="1.000000" stroke="none" 
	d="
M297.926758,423.566284 
	C296.432037,423.351257 294.787964,422.950775 293.573090,422.001190 
	C281.740356,412.752838 269.989014,403.400482 258.195099,394.102417 
	C247.948685,386.024384 237.691620,377.959625 227.400055,369.939331 
	C225.987320,368.838470 224.347946,368.028381 222.469482,367.045807 
	C222.080246,351.983978 222.035034,336.959991 222.404633,321.511139 
	C228.815262,325.165131 235.063019,328.922424 240.758636,333.384552 
	C256.365417,345.611420 271.678589,358.212708 287.261017,370.471222 
	C290.187347,372.773315 293.821777,374.175293 297.129395,375.992645 
	C297.411804,391.703766 297.694183,407.414886 297.926758,423.566284 
z"/>
<path fill="#FF606F" opacity="1.000000" stroke="none" 
	d="
M297.215210,375.530762 
	C293.821777,374.175293 290.187347,372.773315 287.261017,370.471222 
	C271.678589,358.212708 256.365417,345.611420 240.758636,333.384552 
	C235.063019,328.922424 228.815262,325.165131 222.472656,321.047363 
	C222.081421,305.651215 222.036972,290.293976 222.059143,274.472717 
	C224.934860,275.698792 227.957443,277.116394 230.518692,279.122833 
	C248.215332,292.985931 265.779419,307.018188 283.474213,320.883636 
	C287.609131,324.123749 292.082550,326.931915 296.764465,329.965912 
	C297.186157,345.018280 297.243591,360.043579 297.215210,375.530762 
z"/>
<path fill="#FA3C47" opacity="1.000000" stroke="none" 
	d="
M449.456299,791.824219 
	C448.287170,790.334717 447.943146,788.438904 446.813843,787.599915 
	C440.915070,783.217041 434.617065,779.358826 428.827850,774.843811 
	C414.838684,763.933411 401.131134,752.662231 387.158813,741.729797 
	C378.957214,735.312500 370.384003,729.370544 362.169312,722.969177 
	C360.366241,721.564148 359.375244,719.116882 357.996796,716.809082 
	C373.017822,716.402832 388.052277,716.337036 403.545715,716.372681 
	C404.492950,722.951172 410.365692,725.083130 414.314240,728.388855 
	C423.114136,735.756226 432.649170,742.237366 441.724884,749.285278 
	C457.273163,761.359680 472.720581,773.564575 488.142395,785.800232 
	C489.647675,786.994507 490.679016,788.786072 491.965027,790.645630 
	C483.430786,791.305603 474.863739,791.695679 466.292267,791.908203 
	C460.837921,792.043396 455.377075,791.915344 449.456299,791.824219 
z"/>
<path fill="#FF707D" opacity="1.000000" stroke="none" 
	d="
M629.371277,479.068665 
	C624.458618,493.279633 619.545959,507.490601 614.211914,521.620422 
	C612.032715,519.787842 610.433044,517.834106 608.492188,516.316956 
	C592.499268,503.815399 576.489990,491.333252 560.354126,479.017700 
	C557.993896,477.216278 554.939087,476.325073 552.205688,475.012726 
	C554.717285,464.791962 557.052856,454.523132 559.822571,444.372772 
	C561.020508,439.982605 563.114502,435.836914 565.362549,431.348145 
	C569.736816,433.715149 573.716736,436.102570 577.333618,438.950989 
	C590.835571,449.584290 604.171326,460.428711 617.677063,471.057068 
	C621.382202,473.972778 625.462891,476.411224 629.371277,479.068665 
z"/>
<path fill="#FF606F" opacity="1.000000" stroke="none" 
	d="
M500.334412,495.127258 
	C491.652039,505.450775 482.969635,515.774292 473.621033,526.043457 
	C456.240295,513.069763 439.499573,500.184143 422.832794,487.203583 
	C419.356323,484.495941 416.153320,481.437195 412.824280,478.540283 
	C423.431427,471.422821 432.147095,462.484161 439.408264,451.285126 
	C443.381256,452.545624 447.183105,453.513733 450.040558,455.710297 
	C466.926880,468.690979 483.593719,481.957153 500.334412,495.127258 
z"/>
<path fill="#FF6876" opacity="1.000000" stroke="none" 
	d="
M500.596252,494.930206 
	C483.593719,481.957153 466.926880,468.690979 450.040558,455.710297 
	C447.183105,453.513733 443.381256,452.545624 439.629883,451.013336 
	C445.078827,439.540344 448.493561,427.399078 448.858459,414.043701 
	C452.202026,414.043701 455.143402,414.043701 458.608887,414.440735 
	C462.507751,416.805939 466.136292,418.442413 469.214874,420.797791 
	C485.344727,433.138336 501.335205,445.661072 517.374146,458.120453 
	C513.832642,471.210602 508.310089,483.407074 500.596252,494.930206 
z"/>
<path fill="#FF6876" opacity="1.000000" stroke="none" 
	d="
M552.055664,475.352539 
	C554.939087,476.325073 557.993896,477.216278 560.354126,479.017700 
	C576.489990,491.333252 592.499268,503.815399 608.492188,516.316956 
	C610.433044,517.834106 612.032715,519.787842 613.945129,521.853271 
	C608.001953,533.688904 601.904114,545.210571 595.199829,556.785339 
	C591.006531,554.198181 587.337585,551.661621 583.848083,548.898499 
	C572.857300,540.195679 562.035706,531.275818 550.938477,522.712341 
	C545.886169,518.813599 540.340454,515.554321 535.018494,512.005066 
	C540.647583,499.900818 546.276672,487.796600 552.055664,475.352539 
z"/>
<path fill="#FF8D95" opacity="1.000000" stroke="none" 
	d="
M532.390320,290.041870 
	C529.876160,287.469147 528.114014,284.450653 525.563232,282.425476 
	C506.029449,266.916656 486.345551,251.596817 466.700775,236.227859 
	C459.687225,230.740845 452.634338,225.303894 445.649048,219.781342 
	C444.649902,218.991440 443.931885,217.845993 443.034546,216.535858 
	C458.346375,216.096710 473.707428,215.986801 489.570251,216.271225 
	C494.888214,220.870926 499.573395,225.238892 504.548431,229.246994 
	C514.196228,237.019760 524.028076,244.563629 533.743774,252.252731 
	C541.647095,258.507477 549.492188,264.835754 557.363098,271.131439 
	C551.593628,280.591248 544.070007,287.772125 532.390320,290.041870 
z"/>
<path fill="#FF838D" opacity="1.000000" stroke="none" 
	d="
M549.404419,375.018433 
	C542.830566,369.830170 536.712524,364.290466 530.247253,359.190765 
	C521.429565,352.235535 512.302490,345.674103 503.391388,338.835297 
	C494.866394,332.292847 486.343231,325.738922 478.042480,318.918427 
	C475.334900,316.693695 473.329010,313.614960 470.991119,310.578857 
	C490.951263,310.450348 511.010956,309.581787 530.868774,311.196228 
	C550.596375,312.800049 565.216980,333.668457 561.697388,353.151123 
	C560.189392,361.498566 556.641174,369.251709 549.404419,375.018433 
z"/>
<path fill="#FF5969" opacity="1.000000" stroke="none" 
	d="
M412.489471,478.681641 
	C416.153320,481.437195 419.356323,484.495941 422.832794,487.203583 
	C439.499573,500.184143 456.240295,513.069763 473.319214,526.146301 
	C463.673523,533.417175 453.663330,540.530823 443.318024,547.707764 
	C439.802917,544.599670 436.924377,541.035217 433.390808,538.324829 
	C418.080872,526.581604 402.554443,515.120911 387.165283,503.480133 
	C383.217682,500.494049 379.417053,497.301300 375.700500,494.031189 
	C374.818970,493.255554 374.548370,491.785522 373.985870,490.256256 
	C379.195068,489.163971 384.622894,489.120544 389.587158,487.581665 
	C397.275848,485.198212 404.648193,481.794281 412.489471,478.681641 
z"/>
<path fill="#FF5263" opacity="1.000000" stroke="none" 
	d="
M522.417725,632.114075 
	C519.777283,629.498047 517.835876,626.338867 515.111267,624.158569 
	C498.770538,611.082886 482.253754,598.227234 465.782471,585.315002 
	C464.353363,584.194702 462.826752,583.198730 461.016174,581.992371 
	C470.595245,575.305481 480.503571,568.771118 491.081543,562.165039 
	C494.030090,563.434631 496.485748,564.547668 498.559662,566.153748 
	C513.732300,577.903931 528.919128,589.640198 543.863464,601.676392 
	C546.504700,603.803589 548.033142,607.312317 550.075500,610.183105 
	C540.968567,617.463135 531.861694,624.743225 522.417725,632.114075 
z"/>
<path fill="#FF606F" opacity="1.000000" stroke="none" 
	d="
M534.750793,512.208618 
	C540.340454,515.554321 545.886169,518.813599 550.938477,522.712341 
	C562.035706,531.275818 572.857300,540.195679 583.848083,548.898499 
	C587.337585,551.661621 591.006531,554.198181 594.928711,556.978149 
	C588.219910,566.710144 581.175781,576.302368 573.500793,585.920349 
	C557.277710,573.526855 541.711060,561.075256 526.075134,548.711365 
	C522.237976,545.677124 518.174561,542.929077 514.215149,540.049438 
	C520.971130,530.837036 527.727112,521.624573 534.750793,512.208618 
z"/>
<path fill="#FF7985" opacity="1.000000" stroke="none" 
	d="
M629.579224,478.777832 
	C625.462891,476.411224 621.382202,473.972778 617.677063,471.057068 
	C604.171326,460.428711 590.835571,449.584290 577.333618,438.950989 
	C573.716736,436.102570 569.736816,433.715149 565.596802,431.073639 
	C573.598450,418.270752 589.346375,411.492157 603.644043,414.513245 
	C619.623169,417.889679 631.287842,429.669800 633.995667,445.172791 
	C636.010559,456.708313 632.046448,467.490417 629.579224,478.777832 
z"/>
<path fill="#FF5969" opacity="1.000000" stroke="none" 
	d="
M513.927368,540.227417 
	C518.174561,542.929077 522.237976,545.677124 526.075134,548.711365 
	C541.711060,561.075256 557.277710,573.526855 573.229248,586.080872 
	C565.959351,594.115784 558.330017,602.015869 550.388062,610.049561 
	C548.033142,607.312317 546.504700,603.803589 543.863464,601.676392 
	C528.919128,589.640198 513.732300,577.903931 498.559662,566.153748 
	C496.485748,564.547668 494.030090,563.434631 491.404236,562.057556 
	C498.584686,554.816345 506.112122,547.610901 513.927368,540.227417 
z"/>
<path fill="#FF707D" opacity="1.000000" stroke="none" 
	d="
M416.616455,328.020142 
	C428.450378,336.554077 440.000366,345.289459 451.537476,354.041779 
	C458.767273,359.526520 466.104889,364.879608 473.155853,370.586212 
	C478.617706,375.006622 483.710144,379.883392 489.003540,384.934570 
	C473.296783,385.212677 457.385010,386.527374 441.849640,384.678833 
	C419.248505,381.989502 404.569031,357.216217 413.533051,334.049683 
	C414.307312,332.048615 415.388458,330.166260 416.616455,328.020142 
z"/>
<path fill="#FF969C" opacity="1.000000" stroke="none" 
	d="
M557.616577,270.900940 
	C549.492188,264.835754 541.647095,258.507477 533.743774,252.252731 
	C524.028076,244.563629 514.196228,237.019760 504.548431,229.246994 
	C499.573395,225.238892 494.888214,220.870926 490.037415,216.316376 
	C501.800964,215.939209 513.601990,215.731064 525.396729,215.920746 
	C550.003601,216.316467 567.479736,240.133957 560.596985,263.752991 
	C559.906494,266.122528 558.789185,268.367615 557.616577,270.900940 
z"/>
<path fill="#FD4757" opacity="1.000000" stroke="none" 
	d="
M194.190521,474.521881 
	C191.026001,472.833801 187.691315,470.938751 184.663605,468.639435 
	C173.081070,459.843323 161.563583,450.960449 150.092514,442.019226 
	C145.270432,438.260559 140.771225,434.075836 135.846527,430.464874 
	C132.581833,428.071167 128.822418,426.352142 125.074097,424.017090 
	C135.345917,414.014648 147.645294,411.666168 160.976044,415.709503 
	C175.045547,419.976868 183.478867,429.889282 186.912979,444.119904 
	C189.327042,454.123505 191.745087,464.126160 194.190521,474.521881 
z"/>
<path fill="#FF707D" opacity="1.000000" stroke="none" 
	d="
M517.587280,457.833862 
	C501.335205,445.661072 485.344727,433.138336 469.214874,420.797791 
	C466.136292,418.442413 462.507751,416.805939 459.062866,414.500427 
	C480.527649,414.163086 502.062531,414.163086 523.949402,414.163086 
	C524.630005,429.297058 522.010071,443.529297 517.587280,457.833862 
z"/>
<path fill="#FD4757" opacity="1.000000" stroke="none" 
	d="
M522.931030,763.623657 
	C516.213989,759.023865 509.605194,754.104431 503.113800,749.034668 
	C490.991547,739.567078 478.921967,730.031738 466.881073,720.460876 
	C465.767151,719.575500 465.016785,718.232788 464.034515,716.783813 
	C473.750488,716.632324 483.616150,716.032288 493.290741,717.124695 
	C514.062561,719.470154 528.432556,742.214355 522.931030,763.623657 
z"/>
</svg>