<svg version="1.1" id="Layer_1" xmlns="http://www.w3.org/2000/svg" xmlns:xlink="http://www.w3.org/1999/xlink" x="0px" y="0px"
	 width="100%" viewBox="0 0 1000 588" enable-background="new 0 0 1000 588" xml:space="preserve">
<path fill="#FFFFFF" opacity="1.000000" stroke="none" 
	d="
M665.000000,589.000000 
	C443.333344,589.000000 222.166672,589.000000 1.000000,589.000000 
	C1.000000,393.000000 1.000000,197.000000 1.000000,1.000000 
	C334.333344,1.000000 667.666687,1.000000 1001.000000,1.000000 
	C1001.000000,197.000000 1001.000000,393.000000 1001.000000,589.000000 
	C889.166687,589.000000 777.333313,589.000000 665.000000,589.000000 
M410.132385,28.893806 
	C401.059326,30.440971 391.986237,31.988136 382.064270,33.630817 
	C369.004150,36.663277 355.944031,39.695736 342.093048,42.787014 
	C330.380951,46.148891 318.668854,49.510773 306.178955,52.907806 
	C296.443787,56.247852 286.708618,59.587898 276.211914,62.958294 
	C265.144684,67.315491 254.077438,71.672691 242.275818,76.071541 
	C230.165466,81.644318 218.055099,87.217102 205.226730,92.919319 
	C192.123947,99.868019 179.021179,106.816719 165.241516,113.945930 
	C146.800781,125.859291 141.484238,146.505829 151.928207,165.647568 
	C160.737152,181.792648 182.796326,188.898849 200.193848,180.659302 
	C209.381027,176.308228 218.085953,170.938889 227.729874,165.961823 
	C241.479721,159.527603 255.229553,153.093384 269.659393,146.516342 
	C283.103729,141.295364 296.548065,136.074402 310.742981,130.853653 
	C322.159271,127.174675 333.575562,123.495697 345.759064,119.833191 
	C356.168945,117.141670 366.578796,114.450150 377.763092,111.780792 
	C391.171936,109.117577 404.580750,106.454361 418.822174,103.875938 
	C420.952454,103.570770 423.079254,103.238708 425.213562,102.964867 
	C437.516418,101.386345 449.821045,99.821594 463.038147,98.310753 
	C472.690186,97.745415 482.342194,97.180084 492.901276,96.790466 
	C503.599274,96.505318 514.297302,96.220169 525.904236,96.092056 
	C538.274353,96.472481 550.644531,96.852905 563.757568,97.573463 
	C579.676331,99.174713 595.595032,100.775963 612.237976,102.765892 
	C636.819153,107.774338 661.400269,112.782776 686.716980,118.061028 
	C709.475098,125.657249 732.233154,133.253479 755.705872,141.055405 
	C779.214600,152.060486 802.722656,163.067001 826.232483,174.069702 
	C832.483765,176.995316 838.740540,179.909225 845.816833,183.026566 
	C851.916565,182.824203 858.016235,182.621826 864.879211,182.286453 
	C869.955505,179.274567 875.031799,176.262680 880.702332,172.892807 
	C886.384766,167.044861 889.782471,160.057999 891.598755,151.385010 
	C893.233337,134.232391 886.594299,121.192741 871.565491,112.914368 
	C857.177368,104.988869 842.602478,97.369408 827.842224,90.163200 
	C817.137390,84.936905 805.996155,80.604454 794.574280,75.363029 
	C774.046448,67.961548 753.518555,60.560062 732.272156,52.914299 
	C717.847229,48.967003 703.422241,45.019707 688.282776,40.720150 
	C679.521667,38.825993 670.760559,36.931839 661.254639,34.799744 
	C645.835083,32.243061 630.415527,29.686380 614.116699,26.972855 
	C609.555237,26.545078 604.990051,26.153109 600.433044,25.682304 
	C589.945007,24.598732 579.460815,23.476816 568.074951,22.168036 
	C550.050537,21.761053 532.026184,21.354071 513.069031,20.838837 
	C499.377716,21.288855 485.686432,21.738871 471.137604,22.095270 
	C460.006134,23.177197 448.874664,24.259121 436.872925,25.401739 
	C428.243164,26.584000 419.613403,27.766260 410.132385,28.893806 
M593.326050,329.525787 
	C578.883179,327.726898 564.440369,325.928040 549.106689,323.963531 
	C530.404297,323.980286 511.701843,323.997009 492.106659,323.877869 
	C483.365143,324.620300 474.606842,325.209961 465.888641,326.165192 
	C461.020721,326.698578 456.219391,327.839203 450.580109,328.569489 
	C434.370087,332.339600 418.160034,336.109741 401.162201,339.885803 
	C395.988403,341.547272 390.816589,343.214996 385.640320,344.868683 
	C377.913361,347.337311 371.913910,352.033722 367.048859,359.265533 
	C358.209717,373.375122 358.606720,389.697449 368.105347,402.703430 
	C377.068176,414.975769 393.022614,420.776764 407.909821,416.777008 
	C416.050446,414.589874 424.024902,411.784027 432.903809,409.230377 
	C446.934784,406.460358 460.965729,403.690338 475.874939,401.023438 
	C496.312408,400.254822 516.749878,399.486206 537.918945,398.900391 
	C544.203613,399.442230 550.524780,399.719696 556.765015,400.582764 
	C568.534668,402.210571 580.257629,404.175598 592.657532,406.394653 
	C604.634521,409.690887 616.632996,412.911224 628.582031,416.305817 
	C639.370178,419.370544 649.554321,418.343903 659.805054,412.141937 
	C666.642639,408.214996 670.828979,402.066132 674.609924,394.621979 
	C677.970276,386.494263 678.436707,378.182709 675.941406,369.770172 
	C672.860535,359.383392 666.806824,350.966492 656.782043,346.783356 
	C636.656555,338.385345 615.567078,333.173218 593.326050,329.525787 
M706.501465,203.456604 
	C686.332397,197.691757 666.163269,191.926910 645.248108,185.916000 
	C630.499695,183.250305 615.751282,180.584610 600.248474,177.641281 
	C584.498901,176.097000 568.749329,174.552734 552.180359,172.820557 
	C537.785400,172.577774 523.390381,172.334991 508.066925,171.958038 
	C493.007721,172.857758 477.948486,173.757477 461.991272,174.644424 
	C450.659943,176.140076 439.328644,177.635727 427.168396,179.055725 
	C413.108978,182.029160 399.049591,185.002594 384.182404,187.947952 
	C372.772003,191.234131 361.361572,194.520325 349.172791,197.857697 
	C335.421844,202.826263 321.670929,207.794830 307.172424,212.874298 
	C299.709717,216.036819 292.137512,218.968018 284.818268,222.433563 
	C278.732147,225.315247 272.943390,228.825043 266.375824,232.236053 
	C262.800720,236.742493 258.349945,240.808823 255.820862,245.840988 
	C249.220612,258.973511 252.214767,276.544830 261.900177,286.664276 
	C273.528412,298.813568 289.374725,302.725555 304.214661,296.631409 
	C312.946869,293.045502 321.409027,288.801941 330.712860,284.811401 
	C345.138458,279.474945 359.564087,274.138519 374.740387,268.800018 
	C390.157074,264.804199 405.573792,260.808380 421.779388,256.861694 
	C423.064484,256.580109 424.339294,256.234528 425.636230,256.026917 
	C437.762817,254.085709 449.893219,252.168152 462.931946,250.314285 
	C468.876404,249.820724 474.815216,249.240585 480.766571,248.852982 
	C490.841919,248.196777 500.925140,247.662216 511.930389,247.236771 
	C525.287415,247.498093 538.644409,247.759415 552.766235,248.324219 
	C557.386353,248.732971 562.023254,249.006378 566.623535,249.575729 
	C580.756531,251.324905 594.875549,253.187424 609.678345,255.380447 
	C618.711304,257.439819 627.793274,259.307983 636.765137,261.605957 
	C648.535583,264.620728 660.219238,267.974396 672.459106,271.676971 
	C692.190918,279.597076 711.830750,287.760193 731.712280,295.284729 
	C737.450378,297.456421 743.883606,297.791504 750.849121,299.082550 
	C760.203125,298.620178 768.230469,295.220734 775.222412,288.027313 
	C781.602234,282.519592 783.456177,274.768158 785.877502,266.386169 
	C787.200256,247.850861 779.848389,234.912201 763.302368,226.815765 
	C758.822266,224.623520 754.336121,222.403442 749.706177,220.565155 
	C735.515015,214.930588 721.252808,209.475281 706.501465,203.456604 
M493.162781,474.806458 
	C475.123505,477.855438 461.535645,494.601257 462.300110,512.841980 
	C463.104492,532.035156 477.691498,548.011292 496.320160,549.028687 
	C510.265533,549.790344 524.278931,549.704834 538.251648,549.444214 
	C549.895813,549.227173 559.988464,545.094421 567.716187,534.936768 
	C576.879150,522.656677 578.565613,509.357147 572.020813,495.564240 
	C565.555359,481.938507 554.231934,474.659729 539.199707,474.127716 
	C525.755493,473.651917 512.281006,473.996948 498.820282,474.064636 
	C497.204010,474.072754 495.590454,474.611725 493.162781,474.806458 
z"/>
<path fill="#FD4959" opacity="1.000000" stroke="none" 
	d="
M659.136414,412.360016 
	C649.554321,418.343903 639.370178,419.370544 628.582031,416.305817 
	C616.632996,412.911224 604.634521,409.690887 592.294312,405.843109 
	C587.282043,400.726105 582.978333,395.729523 577.918457,391.677032 
	C563.483093,380.115631 548.759766,368.912872 534.111206,357.618988 
	C524.442139,350.164276 514.596741,342.933685 505.050751,335.326111 
	C500.756104,331.903595 496.999908,327.805359 492.999420,324.013733 
	C511.701843,323.997009 530.404297,323.980286 549.595825,324.383606 
	C550.431152,325.355591 550.659180,326.057007 551.140686,326.437805 
	C568.514893,340.176697 585.836914,353.983368 603.330627,367.568848 
	C618.095337,379.034943 633.141785,390.138641 647.889893,401.625610 
	C651.957825,404.794067 655.404602,408.760010 659.136414,412.360016 
z"/>
<path fill="#F8383C" opacity="1.000000" stroke="none" 
	d="
M567.113037,535.290649 
	C559.988464,545.094421 549.895813,549.227173 538.251648,549.444214 
	C524.278931,549.704834 510.265533,549.790344 496.320160,549.028687 
	C477.691498,548.011292 463.104492,532.035156 462.300110,512.841980 
	C461.535645,494.601257 475.123505,477.855438 493.608887,475.209839 
	C494.788300,476.450531 495.396454,477.460602 496.275116,478.097412 
	C502.434601,482.561798 508.808655,486.744415 514.815430,491.402313 
	C528.780518,502.231293 542.750977,513.068542 556.331665,524.368286 
	C560.197388,527.584717 566.470520,528.792358 567.113037,535.290649 
z"/>
<path fill="#FF8F96" opacity="1.000000" stroke="none" 
	d="
M844.994751,182.828537 
	C838.740540,179.909225 832.483765,176.995316 826.232483,174.069702 
	C802.722656,163.067001 779.214600,152.060486 755.346436,140.598511 
	C753.320923,137.960724 752.025940,135.304138 749.932495,133.670929 
	C722.274536,112.093582 694.490173,90.678467 666.768127,69.183128 
	C653.035583,58.535061 639.308472,47.878246 625.705383,37.066307 
	C621.904236,34.045120 618.553345,30.457493 614.995972,27.129707 
	C630.415527,29.686380 645.835083,32.243061 661.663208,35.261112 
	C663.749329,37.499107 665.236572,39.518364 667.137939,41.009670 
	C674.689148,46.932396 682.441284,52.599163 689.985535,58.530476 
	C701.273926,67.405403 712.382263,76.509712 723.691162,85.358017 
	C736.984009,95.758568 750.450684,105.936722 763.766174,116.308586 
	C778.508179,127.791611 793.131714,139.426727 807.869080,150.915817 
	C818.699097,159.358719 829.712952,167.568253 840.440002,176.138199 
	C842.454285,177.747421 843.501343,180.567307 844.994751,182.828537 
z"/>
<path fill="#FF7F89" opacity="1.000000" stroke="none" 
	d="
M685.981445,117.791222 
	C661.400269,112.782776 636.819153,107.774338 612.181152,102.363602 
	C611.018311,100.275513 610.256042,98.150246 608.751831,96.973557 
	C596.929749,87.725670 584.924622,78.712257 573.055298,69.524101 
	C556.872375,56.996750 540.678345,44.480701 524.674622,31.726994 
	C520.747498,28.597391 517.540039,24.564640 514.001770,20.947090 
	C532.026184,21.354071 550.050537,21.761053 568.584351,22.583134 
	C569.451538,23.550436 569.694885,24.248587 570.184570,24.632586 
	C576.032837,29.218784 581.945007,33.723625 587.787354,38.317307 
	C600.009399,47.927185 612.195068,57.583256 624.404358,67.209412 
	C634.280334,74.995880 644.126526,82.821106 654.065735,90.526184 
	C661.772339,96.500572 669.754395,102.129463 677.306824,108.288582 
	C680.594849,110.969994 683.113403,114.594841 685.981445,117.791222 
z"/>
<path fill="#FF6876" opacity="1.000000" stroke="none" 
	d="
M749.998108,298.968628 
	C743.883606,297.791504 737.450378,297.456421 731.712280,295.284729 
	C711.830750,287.760193 692.190918,279.597076 672.216919,271.031677 
	C671.083069,268.790985 670.563782,266.725800 669.239502,265.676300 
	C660.540039,258.781647 651.598267,252.193604 642.866028,245.339264 
	C628.403259,233.986832 614.106262,222.422729 599.612610,211.110352 
	C587.346741,201.536804 574.812683,192.305771 562.590576,182.677856 
	C559.051086,179.889603 556.178223,176.255051 552.999756,173.008469 
	C568.749329,174.552734 584.498901,176.097000 600.655273,178.132797 
	C602.526123,180.391373 603.731079,182.487808 605.494202,183.874588 
	C623.182556,197.787216 640.957642,211.589691 658.718750,225.409714 
	C669.429993,233.744232 680.152954,242.063797 690.882874,250.374298 
	C706.181519,262.223419 721.602478,273.918762 736.731873,285.980011 
	C741.546021,289.817810 745.597595,294.612030 749.998108,298.968628 
z"/>
<path fill="#FF8992" opacity="1.000000" stroke="none" 
	d="
M686.349243,117.926125 
	C683.113403,114.594841 680.594849,110.969994 677.306824,108.288582 
	C669.754395,102.129463 661.772339,96.500572 654.065735,90.526184 
	C644.126526,82.821106 634.280334,74.995880 624.404358,67.209412 
	C612.195068,57.583256 600.009399,47.927185 587.787354,38.317307 
	C581.945007,33.723625 576.032837,29.218784 570.184570,24.632586 
	C569.694885,24.248587 569.451538,23.550436 569.034424,22.684349 
	C579.460815,23.476816 589.945007,24.598732 600.433044,25.682304 
	C604.990051,26.153109 609.555237,26.545078 614.556335,27.051285 
	C618.553345,30.457493 621.904236,34.045120 625.705383,37.066307 
	C639.308472,47.878246 653.035583,58.535061 666.768127,69.183128 
	C694.490173,90.678467 722.274536,112.093582 749.932495,133.670929 
	C752.025940,135.304138 753.320923,137.960724 754.989136,140.495651 
	C732.233154,133.253479 709.475098,125.657249 686.349243,117.926125 
z"/>
<path fill="#FB3D4A" opacity="1.000000" stroke="none" 
	d="
M537.187317,398.717590 
	C516.749878,399.486206 496.312408,400.254822 475.436249,400.591125 
	C474.260132,398.595093 473.899872,396.604370 472.709778,395.553070 
	C469.901855,393.072571 466.683563,391.059967 463.658447,388.821381 
	C456.745789,383.705933 449.713074,378.740448 442.977356,373.400940 
	C431.956055,364.664154 421.126434,355.685364 410.229248,346.792389 
	C407.444031,344.519440 404.708435,342.185669 401.950012,339.879852 
	C418.160034,336.109741 434.370087,332.339600 451.340088,328.796814 
	C461.374573,336.458405 470.560089,344.007111 479.943024,351.301849 
	C496.899750,364.484863 514.043640,377.428162 530.926636,390.703979 
	C533.514099,392.738647 535.124817,396.015350 537.187317,398.717590 
z"/>
<path fill="#FF6D7B" opacity="1.000000" stroke="none" 
	d="
M750.423584,299.025574 
	C745.597595,294.612030 741.546021,289.817810 736.731873,285.980011 
	C721.602478,273.918762 706.181519,262.223419 690.882874,250.374298 
	C680.152954,242.063797 669.429993,233.744232 658.718750,225.409714 
	C640.957642,211.589691 623.182556,197.787216 605.494202,183.874588 
	C603.731079,182.487808 602.526123,180.391373 601.032471,178.271622 
	C615.751282,180.584610 630.499695,183.250305 645.665222,186.373077 
	C647.005859,187.975754 647.751465,189.348618 648.879944,190.232574 
	C663.560059,201.731461 678.296692,213.158188 693.014709,224.608749 
	C709.702209,237.591629 726.394226,250.568802 743.067078,263.570465 
	C753.619751,271.799530 764.140991,280.068817 774.676331,288.320068 
	C768.230469,295.220734 760.203125,298.620178 750.423584,299.025574 
z"/>
<path fill="#FF6271" opacity="1.000000" stroke="none" 
	d="
M552.590088,172.914520 
	C556.178223,176.255051 559.051086,179.889603 562.590576,182.677856 
	C574.812683,192.305771 587.346741,201.536804 599.612610,211.110352 
	C614.106262,222.422729 628.403259,233.986832 642.866028,245.339264 
	C651.598267,252.193604 660.540039,258.781647 669.239502,265.676300 
	C670.563782,266.725800 671.083069,268.790985 671.957397,270.784363 
	C660.219238,267.974396 648.535583,264.620728 636.765137,261.605957 
	C627.793274,259.307983 618.711304,257.439819 609.335022,254.824646 
	C607.647522,252.506363 606.599976,250.366119 604.912354,249.041077 
	C591.121826,238.213226 577.187561,227.568802 563.344788,216.807129 
	C548.195374,205.029633 533.031494,193.268646 518.026794,181.308640 
	C514.688538,178.647751 511.989014,175.185486 508.995392,172.092224 
	C523.390381,172.334991 537.785400,172.577774 552.590088,172.914520 
z"/>
<path fill="#FF5B6B" opacity="1.000000" stroke="none" 
	d="
M508.531158,172.025131 
	C511.989014,175.185486 514.688538,178.647751 518.026794,181.308640 
	C533.031494,193.268646 548.195374,205.029633 563.344788,216.807129 
	C577.187561,227.568802 591.121826,238.213226 604.912354,249.041077 
	C606.599976,250.366119 607.647522,252.506363 608.995850,254.637360 
	C594.875549,253.187424 580.756531,251.324905 566.623535,249.575729 
	C562.023254,249.006378 557.386353,248.732971 552.350342,247.825684 
	C550.350220,245.446869 549.028503,243.234467 547.138916,241.740509 
	C535.217468,232.315262 523.154724,223.069000 511.167877,213.726059 
	C495.535370,201.541550 479.921692,189.332794 464.340942,177.082306 
	C463.649139,176.538361 463.363892,175.477371 462.889282,174.657196 
	C477.948486,173.757477 493.007721,172.857758 508.531158,172.025131 
z"/>
<path fill="#FF959C" opacity="1.000000" stroke="none" 
	d="
M688.997314,41.072426 
	C703.422241,45.019707 717.847229,48.967003 732.639404,53.389595 
	C734.458130,55.789101 735.581238,58.132526 737.415039,59.568527 
	C748.224365,68.033195 759.287720,76.173569 770.097412,84.637764 
	C786.388611,97.394066 802.449097,110.445702 818.777039,123.154106 
	C838.242859,138.304672 857.916382,153.188293 877.392639,168.325653 
	C878.752319,169.382462 879.223572,171.582413 880.108032,173.250793 
	C875.031799,176.262680 869.955505,179.274567 864.463318,181.944107 
	C863.278564,180.213120 862.837646,178.413422 861.690857,177.498489 
	C847.848328,166.454605 833.947510,155.482269 819.971191,144.607834 
	C798.023438,127.531082 775.999939,110.551727 754.020752,93.515297 
	C733.353943,77.496147 712.685059,61.479424 692.086609,45.372746 
	C690.752014,44.329163 690.013245,42.523567 688.997314,41.072426 
z"/>
<path fill="#FC4252" opacity="1.000000" stroke="none" 
	d="
M420.990479,256.812592 
	C405.573792,260.808380 390.157074,264.804199 374.321533,268.468384 
	C373.571014,267.570923 373.366150,266.848206 372.888947,266.462372 
	C362.589569,258.134888 352.306000,249.786667 341.922882,241.564285 
	C331.409454,233.238693 320.758667,225.086349 310.267883,216.732773 
	C309.144165,215.837997 308.686584,214.106644 307.919983,212.763382 
	C321.670929,207.794830 335.421844,202.826263 349.615234,198.190918 
	C359.243225,205.949402 368.353455,213.470352 377.632080,220.777435 
	C391.402466,231.621841 405.315186,242.285599 419.082794,253.133530 
	C420.071289,253.912399 420.370697,255.565811 420.990479,256.812592 
z"/>
<path fill="#FC4252" opacity="1.000000" stroke="none" 
	d="
M537.553101,398.809021 
	C535.124817,396.015350 533.514099,392.738647 530.926636,390.703979 
	C514.043640,377.428162 496.899750,364.484863 479.943024,351.301849 
	C470.560089,344.007111 461.374573,336.458405 451.744080,328.865173 
	C456.219391,327.839203 461.020721,326.698578 465.888641,326.165192 
	C474.606842,325.209961 483.365143,324.620300 492.553040,323.945801 
	C496.999908,327.805359 500.756104,331.903595 505.050751,335.326111 
	C514.596741,342.933685 524.442139,350.164276 534.111206,357.618988 
	C548.759766,368.912872 563.483093,380.115631 577.918457,391.677032 
	C582.978333,395.729523 587.282043,400.726105 591.965576,405.645996 
	C580.257629,404.175598 568.534668,402.210571 556.765015,400.582764 
	C550.524780,399.719696 544.203613,399.442230 537.553101,398.809021 
z"/>
<path fill="#FE4F60" opacity="1.000000" stroke="none" 
	d="
M511.005066,247.076508 
	C500.925140,247.662216 490.841919,248.196777 480.766571,248.852982 
	C474.815216,249.240585 468.876404,249.820724 462.443756,249.912659 
	C461.668762,248.928925 461.531372,248.161652 461.073212,247.791916 
	C450.944977,239.618851 440.890656,231.348145 430.595062,223.389999 
	C419.116516,214.517517 407.368134,205.994965 395.831940,197.195847 
	C392.065247,194.322861 388.595642,191.060379 384.990173,187.976028 
	C399.049591,185.002594 413.108978,182.029160 427.640411,179.420197 
	C442.242584,190.949966 456.372192,202.115891 470.503021,213.280334 
	C482.068451,222.417908 493.681366,231.496460 505.161438,240.739990 
	C507.374939,242.522263 509.070526,244.947739 511.005066,247.076508 
z"/>
<path fill="#FF9A9F" opacity="1.000000" stroke="none" 
	d="
M880.405151,173.071793 
	C879.223572,171.582413 878.752319,169.382462 877.392639,168.325653 
	C857.916382,153.188293 838.242859,138.304672 818.777039,123.154106 
	C802.449097,110.445702 786.388611,97.394066 770.097412,84.637764 
	C759.287720,76.173569 748.224365,68.033195 737.415039,59.568527 
	C735.581238,58.132526 734.458130,55.789101 732.998718,53.511734 
	C753.518555,60.560062 774.046448,67.961548 794.825073,75.977402 
	C798.220764,79.398438 801.253174,82.344810 804.531860,84.985527 
	C814.305176,92.857056 824.163574,100.623085 834.010498,108.402817 
	C843.215637,115.675529 852.368958,123.017120 861.691101,130.137329 
	C871.403137,137.555344 881.289734,144.744812 891.100037,152.034210 
	C889.782471,160.057999 886.384766,167.044861 880.405151,173.071793 
z"/>
<path fill="#FC4252" opacity="1.000000" stroke="none" 
	d="
M165.918396,113.765411 
	C179.021179,106.816719 192.123947,99.868019 205.627090,93.215256 
	C208.159195,95.747627 210.067398,98.267365 212.468719,100.162186 
	C217.650162,104.250755 223.202164,107.869171 228.391556,111.948349 
	C239.303101,120.525475 250.158630,129.178757 260.859100,138.016388 
	C263.882721,140.513641 266.289642,143.757660 268.979401,146.659180 
	C255.229553,153.093384 241.479721,159.527603 227.362946,165.625168 
	C226.074371,163.793304 225.479050,161.881348 224.181915,160.865631 
	C205.839066,146.502167 187.382462,132.284012 169.024536,117.939651 
	C167.706589,116.909859 166.940872,115.173340 165.918396,113.765411 
z"/>
<path fill="#FB3D4A" opacity="1.000000" stroke="none" 
	d="
M307.546204,212.818848 
	C308.686584,214.106644 309.144165,215.837997 310.267883,216.732773 
	C320.758667,225.086349 331.409454,233.238693 341.922882,241.564285 
	C352.306000,249.786667 362.589569,258.134888 372.888947,266.462372 
	C373.366150,266.848206 373.571014,267.570923 373.946198,268.469421 
	C359.564087,274.138519 345.138458,279.474945 330.353271,284.457855 
	C328.958618,282.385895 328.300232,280.185516 326.823883,279.031799 
	C320.098267,273.775757 313.064209,268.916412 306.288879,263.721588 
	C296.987854,256.590210 287.775696,249.340591 278.616180,242.028030 
	C274.635406,238.849945 270.880432,235.389069 267.022919,232.056641 
	C272.943390,228.825043 278.732147,225.315247 284.818268,222.433563 
	C292.137512,218.968018 299.709717,216.036819 307.546204,212.818848 
z"/>
<path fill="#FF7984" opacity="1.000000" stroke="none" 
	d="
M513.535400,20.892963 
	C517.540039,24.564640 520.747498,28.597391 524.674622,31.726994 
	C540.678345,44.480701 556.872375,56.996750 573.055298,69.524101 
	C584.924622,78.712257 596.929749,87.725670 608.751831,96.973557 
	C610.256042,98.150246 611.018311,100.275513 611.819092,102.169258 
	C595.595032,100.775963 579.676331,99.174713 563.378906,97.012512 
	C561.562073,94.582695 560.433411,92.318504 558.634644,90.910385 
	C548.491089,82.970055 538.117310,75.324394 527.953308,67.409607 
	C512.854309,55.651867 497.826416,43.801601 482.855530,31.881105 
	C479.065704,28.863461 475.606354,25.430819 471.995117,22.188881 
	C485.686432,21.738871 499.377716,21.288855 513.535400,20.892963 
z"/>
<path fill="#FB3D4A" opacity="1.000000" stroke="none" 
	d="
M165.579956,113.855667 
	C166.940872,115.173340 167.706589,116.909859 169.024536,117.939651 
	C187.382462,132.284012 205.839066,146.502167 224.181915,160.865631 
	C225.479050,161.881348 226.074371,163.793304 227.002319,165.658905 
	C218.085953,170.938889 209.381027,176.308228 200.193848,180.659302 
	C182.796326,188.898849 160.737152,181.792648 151.928207,165.647568 
	C141.484238,146.505829 146.800781,125.859291 165.579956,113.855667 
z"/>
<path fill="#FD4959" opacity="1.000000" stroke="none" 
	d="
M269.319397,146.587769 
	C266.289642,143.757660 263.882721,140.513641 260.859100,138.016388 
	C250.158630,129.178757 239.303101,120.525475 228.391556,111.948349 
	C223.202164,107.869171 217.650162,104.250755 212.468719,100.162186 
	C210.067398,98.267365 208.159195,95.747627 205.986099,93.150543 
	C218.055099,87.217102 230.165466,81.644318 242.796753,76.350403 
	C246.426498,78.808861 249.629822,80.866417 252.628616,83.188126 
	C270.252136,96.832359 287.876587,110.476768 305.353638,124.306976 
	C307.366333,125.899696 308.468231,128.643387 309.992401,130.853439 
	C296.548065,136.074402 283.103729,141.295364 269.319397,146.587769 
z"/>
<path fill="#FF7380" opacity="1.000000" stroke="none" 
	d="
M774.949341,288.173706 
	C764.140991,280.068817 753.619751,271.799530 743.067078,263.570465 
	C726.394226,250.568802 709.702209,237.591629 693.014709,224.608749 
	C678.296692,213.158188 663.560059,201.731461 648.879944,190.232574 
	C647.751465,189.348618 647.005859,187.975754 646.038269,186.496109 
	C666.163269,191.926910 686.332397,197.691757 706.786194,204.053131 
	C713.759583,210.455917 720.259521,216.498871 727.178467,222.016342 
	C739.448792,231.801300 751.968445,241.273941 764.393799,250.864182 
	C771.443420,256.305298 778.513062,261.720490 785.573669,267.147369 
	C783.456177,274.768158 781.602234,282.519592 774.949341,288.173706 
z"/>
<path fill="#FF6271" opacity="1.000000" stroke="none" 
	d="
M462.125092,98.252174 
	C449.821045,99.821594 437.516418,101.386345 425.213562,102.964867 
	C423.079254,103.238708 420.952454,103.570770 418.362915,103.502121 
	C416.552002,101.726692 415.329559,100.164780 413.825317,98.952621 
	C408.682129,94.808105 403.431671,90.796989 398.237061,86.715958 
	C384.731445,76.105515 371.213776,65.510223 357.743286,54.855354 
	C352.729523,50.889599 347.833588,46.774956 342.883911,42.728203 
	C355.944031,39.695736 369.004150,36.663277 382.534607,33.963093 
	C383.483154,34.931606 383.851257,35.707733 384.455658,36.183784 
	C404.296509,51.810692 424.198608,67.360100 443.997375,83.040016 
	C450.178772,87.935463 456.090118,93.171852 462.125092,98.252174 
z"/>
<path fill="#FA3943" opacity="1.000000" stroke="none" 
	d="
M401.556091,339.882812 
	C404.708435,342.185669 407.444031,344.519440 410.229248,346.792389 
	C421.126434,355.685364 431.956055,364.664154 442.977356,373.400940 
	C449.713074,378.740448 456.745789,383.705933 463.658447,388.821381 
	C466.683563,391.059967 469.901855,393.072571 472.709778,395.553070 
	C473.899872,396.604370 474.260132,398.595093 474.997131,400.539581 
	C460.965729,403.690338 446.934784,406.460358 432.443237,408.876801 
	C431.081085,407.396118 430.335388,406.082855 429.250732,405.174286 
	C424.704926,401.366455 420.097382,397.629242 415.438385,393.960175 
	C407.541107,387.740875 399.622406,381.547607 391.647003,375.429108 
	C385.400940,370.637329 379.099182,365.914734 372.722260,361.299500 
	C371.205658,360.201874 369.289642,359.656250 367.557343,358.856720 
	C371.913910,352.033722 377.913361,347.337311 385.640320,344.868683 
	C390.816589,343.214996 395.988403,341.547272 401.556091,339.882812 
z"/>
<path fill="#FA3943" opacity="1.000000" stroke="none" 
	d="
M266.699371,232.146332 
	C270.880432,235.389069 274.635406,238.849945 278.616180,242.028030 
	C287.775696,249.340591 296.987854,256.590210 306.288879,263.721588 
	C313.064209,268.916412 320.098267,273.775757 326.823883,279.031799 
	C328.300232,280.185516 328.958618,282.385895 329.993164,284.479218 
	C321.409027,288.801941 312.946869,293.045502 304.214661,296.631409 
	C289.374725,302.725555 273.528412,298.813568 261.900177,286.664276 
	C252.214767,276.544830 249.220612,258.973511 255.820862,245.840988 
	C258.349945,240.808823 262.800720,236.742493 266.699371,232.146332 
z"/>
<path fill="#FF5B6B" opacity="1.000000" stroke="none" 
	d="
M342.488464,42.757610 
	C347.833588,46.774956 352.729523,50.889599 357.743286,54.855354 
	C371.213776,65.510223 384.731445,76.105515 398.237061,86.715958 
	C403.431671,90.796989 408.682129,94.808105 413.825317,98.952621 
	C415.329559,100.164780 416.552002,101.726692 417.946594,103.459717 
	C404.580750,106.454361 391.171936,109.117577 377.331390,111.433289 
	C375.815887,109.448120 375.049835,107.421432 373.597412,106.235184 
	C363.236786,97.773369 352.802826,89.397652 342.261841,81.161430 
	C331.081055,72.425308 319.745972,63.886883 308.519226,55.209137 
	C307.816345,54.665852 307.469330,53.662155 306.956757,52.872658 
	C318.668854,49.510773 330.380951,46.148891 342.488464,42.757610 
z"/>
<path fill="#FD4959" opacity="1.000000" stroke="none" 
	d="
M384.586304,187.961990 
	C388.595642,191.060379 392.065247,194.322861 395.831940,197.195847 
	C407.368134,205.994965 419.116516,214.517517 430.595062,223.389999 
	C440.890656,231.348145 450.944977,239.618851 461.073212,247.791916 
	C461.531372,248.161652 461.668762,248.928925 461.989014,249.877380 
	C449.893219,252.168152 437.762817,254.085709 425.636230,256.026917 
	C424.339294,256.234528 423.064484,256.580109 421.384949,256.837158 
	C420.370697,255.565811 420.071289,253.912399 419.082794,253.133530 
	C405.315186,242.285599 391.402466,231.621841 377.632080,220.777435 
	C368.353455,213.470352 359.243225,205.949402 350.004425,198.165314 
	C361.361572,194.520325 372.772003,191.234131 384.586304,187.961990 
z"/>
<path fill="#FF9299" opacity="1.000000" stroke="none" 
	d="
M688.640015,40.896294 
	C690.013245,42.523567 690.752014,44.329163 692.086609,45.372746 
	C712.685059,61.479424 733.353943,77.496147 754.020752,93.515297 
	C775.999939,110.551727 798.023438,127.531082 819.971191,144.607834 
	C833.947510,155.482269 847.848328,166.454605 861.690857,177.498489 
	C862.837646,178.413422 863.278564,180.213120 864.081665,182.010620 
	C858.016235,182.621826 851.916565,182.824203 845.405762,182.927551 
	C843.501343,180.567307 842.454285,177.747421 840.440002,176.138199 
	C829.712952,167.568253 818.699097,159.358719 807.869080,150.915817 
	C793.131714,139.426727 778.508179,127.791611 763.766174,116.308586 
	C750.450684,105.936722 736.984009,95.758568 723.691162,85.358017 
	C712.382263,76.509712 701.273926,67.405403 689.985535,58.530476 
	C682.441284,52.599163 674.689148,46.932396 667.137939,41.009670 
	C665.236572,39.518364 663.749329,37.499107 662.035645,35.380081 
	C670.760559,36.931839 679.521667,38.825993 688.640015,40.896294 
z"/>
<path fill="#FF5565" opacity="1.000000" stroke="none" 
	d="
M511.467712,247.156631 
	C509.070526,244.947739 507.374939,242.522263 505.161438,240.739990 
	C493.681366,231.496460 482.068451,222.417908 470.503021,213.280334 
	C456.372192,202.115891 442.242584,190.949966 428.054871,179.458038 
	C439.328644,177.635727 450.659943,176.140076 462.440277,174.650818 
	C463.363892,175.477371 463.649139,176.538361 464.340942,177.082306 
	C479.921692,189.332794 495.535370,201.541550 511.167877,213.726059 
	C523.154724,223.069000 535.217468,232.315262 547.138916,241.740509 
	C549.028503,243.234467 550.350220,245.446869 551.967957,247.673920 
	C538.644409,247.759415 525.287415,247.498093 511.467712,247.156631 
z"/>
<path fill="#FE4C5D" opacity="1.000000" stroke="none" 
	d="
M659.470703,412.250977 
	C655.404602,408.760010 651.957825,404.794067 647.889893,401.625610 
	C633.141785,390.138641 618.095337,379.034943 603.330627,367.568848 
	C585.836914,353.983368 568.514893,340.176697 551.140686,326.437805 
	C550.659180,326.057007 550.431152,325.355591 550.041260,324.466431 
	C564.440369,325.928040 578.883179,327.726898 593.696045,330.071838 
	C594.590576,331.438629 594.941101,332.482208 595.665039,333.047607 
	C614.536621,347.787140 633.494385,362.416565 652.326904,377.205566 
	C659.710632,383.003967 666.828796,389.140625 674.067871,395.123230 
	C670.828979,402.066132 666.642639,408.214996 659.470703,412.250977 
z"/>
<path fill="#FF7380" opacity="1.000000" stroke="none" 
	d="
M471.566345,22.142073 
	C475.606354,25.430819 479.065704,28.863461 482.855530,31.881105 
	C497.826416,43.801601 512.854309,55.651867 527.953308,67.409607 
	C538.117310,75.324394 548.491089,82.970055 558.634644,90.910385 
	C560.433411,92.318504 561.562073,94.582695 563.007446,96.842453 
	C550.644531,96.852905 538.274353,96.472481 525.412842,95.670982 
	C523.954407,94.169571 523.123962,92.913689 521.998291,92.037155 
	C514.168579,85.940582 506.243622,79.966370 498.413086,73.870865 
	C480.283203,59.758083 462.169342,45.624493 444.106262,31.426409 
	C441.809723,29.621246 439.855835,27.380178 437.743164,25.341053 
	C448.874664,24.259121 460.006134,23.177197 471.566345,22.142073 
z"/>
<path fill="#FE4F60" opacity="1.000000" stroke="none" 
	d="
M310.367676,130.853546 
	C308.468231,128.643387 307.366333,125.899696 305.353638,124.306976 
	C287.876587,110.476768 270.252136,96.832359 252.628616,83.188126 
	C249.629822,80.866417 246.426498,78.808861 243.163940,76.329575 
	C254.077438,71.672691 265.144684,67.315491 276.729553,63.263985 
	C279.543823,65.593971 281.772827,67.701752 284.149109,69.627800 
	C293.359436,77.093063 302.553833,84.580414 311.873199,91.908081 
	C322.230408,100.051758 332.748016,107.991501 343.098694,116.143311 
	C344.083344,116.918800 344.377258,118.571350 344.991852,119.816727 
	C333.575562,123.495697 322.159271,127.174675 310.367676,130.853546 
z"/>
<path fill="#FF5565" opacity="1.000000" stroke="none" 
	d="
M345.375458,119.824951 
	C344.377258,118.571350 344.083344,116.918800 343.098694,116.143311 
	C332.748016,107.991501 322.230408,100.051758 311.873199,91.908081 
	C302.553833,84.580414 293.359436,77.093063 284.149109,69.627800 
	C281.772827,67.701752 279.543823,65.593971 277.110321,63.248810 
	C286.708618,59.587898 296.443787,56.247852 306.567871,52.890236 
	C307.469330,53.662155 307.816345,54.665852 308.519226,55.209137 
	C319.745972,63.886883 331.081055,72.425308 342.261841,81.161430 
	C352.802826,89.397652 363.236786,97.773369 373.597412,106.235184 
	C375.049835,107.421432 375.815887,109.448120 376.944183,111.422203 
	C366.578796,114.450150 356.168945,117.141670 345.375458,119.824951 
z"/>
<path fill="#F93941" opacity="1.000000" stroke="none" 
	d="
M567.414612,535.113708 
	C566.470520,528.792358 560.197388,527.584717 556.331665,524.368286 
	C542.750977,513.068542 528.780518,502.231293 514.815430,491.402313 
	C508.808655,486.744415 502.434601,482.561798 496.275116,478.097412 
	C495.396454,477.460602 494.788300,476.450531 494.015289,475.258911 
	C495.590454,474.611725 497.204010,474.072754 498.820282,474.064636 
	C512.281006,473.996948 525.755493,473.651917 539.199707,474.127716 
	C554.231934,474.659729 565.555359,481.938507 572.020813,495.564240 
	C578.565613,509.357147 576.879150,522.656677 567.414612,535.113708 
z"/>
<path fill="#FF6D7B" opacity="1.000000" stroke="none" 
	d="
M437.308044,25.371399 
	C439.855835,27.380178 441.809723,29.621246 444.106262,31.426409 
	C462.169342,45.624493 480.283203,59.758083 498.413086,73.870865 
	C506.243622,79.966370 514.168579,85.940582 521.998291,92.037155 
	C523.123962,92.913689 523.954407,94.169571 524.958374,95.592468 
	C514.297302,96.220169 503.599274,96.505318 492.439301,96.362846 
	C490.833679,94.391426 489.962036,92.498787 488.502136,91.360596 
	C479.264618,84.158760 469.866913,77.162865 460.578888,70.025124 
	C446.016693,58.834278 431.436371,47.664776 417.024750,36.282375 
	C414.595612,34.363781 412.976837,31.419115 410.983643,28.948528 
	C419.613403,27.766260 428.243164,26.584000 437.308044,25.371399 
z"/>
<path fill="#F93941" opacity="1.000000" stroke="none" 
	d="
M367.303101,359.061127 
	C369.289642,359.656250 371.205658,360.201874 372.722260,361.299500 
	C379.099182,365.914734 385.400940,370.637329 391.647003,375.429108 
	C399.622406,381.547607 407.541107,387.740875 415.438385,393.960175 
	C420.097382,397.629242 424.704926,401.366455 429.250732,405.174286 
	C430.335388,406.082855 431.081085,407.396118 432.028473,408.890228 
	C424.024902,411.784027 416.050446,414.589874 407.909821,416.777008 
	C393.022614,420.776764 377.068176,414.975769 368.105347,402.703430 
	C358.606720,389.697449 358.209717,373.375122 367.303101,359.061127 
z"/>
<path fill="#FF6876" opacity="1.000000" stroke="none" 
	d="
M410.558014,28.921169 
	C412.976837,31.419115 414.595612,34.363781 417.024750,36.282375 
	C431.436371,47.664776 446.016693,58.834278 460.578888,70.025124 
	C469.866913,77.162865 479.264618,84.158760 488.502136,91.360596 
	C489.962036,92.498787 490.833679,94.391426 491.985779,96.274986 
	C482.342194,97.180084 472.690186,97.745415 462.581604,98.281464 
	C456.090118,93.171852 450.178772,87.935463 443.997375,83.040016 
	C424.198608,67.360100 404.296509,51.810692 384.455658,36.183784 
	C383.851257,35.707733 383.483154,34.931606 382.959045,33.915337 
	C391.986237,31.988136 401.059326,30.440971 410.558014,28.921169 
z"/>
<path fill="#FF5565" opacity="1.000000" stroke="none" 
	d="
M674.338867,394.872620 
	C666.828796,389.140625 659.710632,383.003967 652.326904,377.205566 
	C633.494385,362.416565 614.536621,347.787140 595.665039,333.047607 
	C594.941101,332.482208 594.590576,331.438629 594.036072,330.263489 
	C615.567078,333.173218 636.656555,338.385345 656.782043,346.783356 
	C666.806824,350.966492 672.860535,359.383392 675.941406,369.770172 
	C678.436707,378.182709 677.970276,386.494263 674.338867,394.872620 
z"/>
<path fill="#FFA0A4" opacity="1.000000" stroke="none" 
	d="
M891.349365,151.709610 
	C881.289734,144.744812 871.403137,137.555344 861.691101,130.137329 
	C852.368958,123.017120 843.215637,115.675529 834.010498,108.402817 
	C824.163574,100.623085 814.305176,92.857056 804.531860,84.985527 
	C801.253174,82.344810 798.220764,79.398438 795.062622,76.232605 
	C805.996155,80.604454 817.137390,84.936905 827.842224,90.163200 
	C842.602478,97.369408 857.177368,104.988869 871.565491,112.914368 
	C886.594299,121.192741 893.233337,134.232391 891.349365,151.709610 
z"/>
<path fill="#FF7984" opacity="1.000000" stroke="none" 
	d="
M785.725586,266.766785 
	C778.513062,261.720490 771.443420,256.305298 764.393799,250.864182 
	C751.968445,241.273941 739.448792,231.801300 727.178467,222.016342 
	C720.259521,216.498871 713.759583,210.455917 707.044556,204.299973 
	C721.252808,209.475281 735.515015,214.930588 749.706177,220.565155 
	C754.336121,222.403442 758.822266,224.623520 763.302368,226.815765 
	C779.848389,234.912201 787.200256,247.850861 785.725586,266.766785 
z"/>
</svg>