<svg version="1.1" id="Layer_1" xmlns="http://www.w3.org/2000/svg" xmlns:xlink="http://www.w3.org/1999/xlink" x="0px" y="0px"
	 width="100%" viewBox="0 0 1100 810" enable-background="new 0 0 1100 810" xml:space="preserve">
<path fill="#FFFFFF" opacity="1.000000" stroke="none" 
	d="
M680.000000,811.000000 
	C453.362915,811.000000 227.225815,811.000000 1.044365,811.000000 
	C1.044365,541.064880 1.044365,271.129761 1.044365,1.097328 
	C367.553802,1.097328 734.107666,1.097328 1100.830811,1.097328 
	C1100.830811,270.999908 1100.830811,540.999939 1100.830811,811.000000 
	C960.796326,811.000000 820.648132,811.000000 680.000000,811.000000 
M277.056763,142.166855 
	C268.611969,151.247040 260.167206,160.327209 251.160461,169.806519 
	C241.760071,182.532349 232.359680,195.258179 222.410278,208.370041 
	C214.505417,222.544434 206.600571,236.718826 198.213852,251.367950 
	C192.404099,266.217224 186.594345,281.066528 180.301651,296.457886 
	C176.216431,312.639465 172.131226,328.821014 167.707611,345.717224 
	C165.847137,362.146576 163.986679,378.575958 161.957047,395.927612 
	C162.782791,417.260803 163.608536,438.593994 164.430481,460.847260 
	C164.952545,464.774536 165.173325,468.770386 166.048874,472.617188 
	C169.807632,489.131561 173.758957,505.602112 177.735687,522.874084 
	C177.935150,523.682312 178.089691,524.504822 178.340485,525.296814 
	C205.435944,610.865967 256.324554,678.659607 330.800323,728.645813 
	C370.615936,755.369019 414.012360,773.916321 461.099182,783.357544 
	C474.828827,786.110474 486.748840,781.952637 496.694763,770.890930 
	C510.018707,755.540344 508.769135,731.638733 493.273254,718.493713 
	C478.127136,705.645508 466.443298,689.970337 455.299194,673.860657 
	C449.879333,666.025879 445.726410,657.314514 440.942017,648.278442 
	C429.969879,626.633850 421.128723,604.130371 413.842682,580.239014 
	C409.175476,559.494202 404.508301,538.749451 399.922211,517.171631 
	C397.878235,500.117767 395.834229,483.063934 393.904633,465.134125 
	C393.648895,460.749847 393.393158,456.365601 393.117340,451.637390 
	C397.146851,451.637390 400.452484,451.663513 403.757599,451.632996 
	C419.508392,451.487549 435.259003,451.326721 451.780762,451.452484 
	C459.552002,451.513824 467.332642,451.823425 475.090454,451.530121 
	C478.880768,451.386810 480.178741,452.855316 481.094025,456.236145 
	C483.460388,464.976990 486.214905,473.612732 488.839111,483.066315 
	C493.493378,499.161377 498.147644,515.256470 502.853149,532.123596 
	C509.482941,555.110901 516.112732,578.098267 522.800903,601.892822 
	C524.881226,609.345154 526.899536,616.815491 529.054626,624.246155 
	C533.674683,640.175293 538.365234,656.083984 543.001648,672.788696 
	C551.039001,701.099365 558.676025,729.532288 567.272949,757.671997 
	C571.972351,773.054199 583.371826,782.049744 599.426086,783.754639 
	C614.896301,785.397583 627.081116,778.803162 635.482666,765.932678 
	C639.077148,760.426147 641.400757,754.090088 644.808899,747.671692 
	C651.044189,735.184998 657.279480,722.698242 663.945984,709.708252 
	C670.330505,696.813232 676.715088,683.918274 683.635620,670.629700 
	C684.364563,669.412720 685.093567,668.195740 685.982666,666.711365 
	C687.499084,668.147400 688.715698,669.247070 689.874329,670.404663 
	C705.186096,685.702515 720.439880,701.058838 735.812561,716.295227 
	C746.401733,726.790466 758.862000,734.298767 773.202087,738.452454 
	C787.757935,742.668579 802.492859,743.902954 818.175293,740.282898 
	C828.911133,738.556702 838.427795,733.801575 848.343994,728.303589 
	C861.045288,720.512268 870.975525,710.045288 878.910156,696.724976 
	C886.529480,683.146973 890.736206,668.640991 890.948364,652.098633 
	C891.001892,635.659424 887.262146,620.217468 878.692505,605.348572 
	C874.379761,599.656738 870.634583,593.404602 865.660950,588.365051 
	C836.192322,558.505981 806.514343,528.852112 776.740540,499.296600 
	C766.173828,488.807343 748.413879,486.445618 734.315674,493.224915 
	C724.377808,498.301788 717.602173,505.939606 714.680298,517.703979 
	C711.057312,532.247925 715.169556,544.550659 725.578247,554.970825 
	C753.181519,582.604553 780.874390,610.149353 808.339539,637.919373 
	C811.375061,640.988525 813.168152,645.286621 815.429199,649.870117 
	C815.506897,657.026611 812.663940,662.649109 805.965210,665.433167 
	C798.952393,668.347717 792.787170,666.447449 787.406738,661.047974 
	C759.106934,632.648010 730.745300,604.309692 702.359741,575.995422 
	C688.015564,561.687378 664.272095,561.178162 650.010620,575.030090 
	C642.290833,581.719360 639.103210,591.144348 634.417542,600.418884 
	C630.577576,608.208130 626.737610,615.997375 622.304932,624.185974 
	C619.399963,630.007751 616.494995,635.829529 613.084595,642.664124 
	C609.128174,629.348572 605.511658,617.176819 601.929138,604.233459 
	C597.251770,588.156860 592.574402,572.080261 587.931030,555.224609 
	C583.449951,539.762085 578.968872,524.299622 574.336914,508.046021 
	C570.549866,495.031158 566.762756,482.016266 563.008057,468.217010 
	C557.363281,448.810272 551.718445,429.403503 546.077515,409.200714 
	C544.743530,404.180237 543.409546,399.159760 541.872192,393.374023 
	C546.180115,394.544128 549.527222,395.442780 552.868469,396.362732 
	C563.565430,399.307953 574.260254,402.261047 585.492432,405.691193 
	C601.638306,410.199066 617.784180,414.706909 634.482361,419.689575 
	C658.985779,426.738922 683.489136,433.788300 708.765747,440.999542 
	C712.727295,442.142883 716.793640,443.011414 720.633362,444.474396 
	C744.787598,453.677460 769.888245,452.131470 795.834412,451.585602 
	C802.297241,451.633118 808.760681,451.760712 815.222778,451.710510 
	C826.476257,451.623108 837.728821,451.426025 849.862183,451.601257 
	C858.489258,451.654083 867.116272,451.702759 875.743347,451.760681 
	C891.479492,451.866272 903.980530,446.037415 912.570007,431.563690 
	C918.825684,419.916595 916.976196,407.380188 916.767273,394.175201 
	C916.503540,390.390106 916.481750,386.569519 915.933228,382.826141 
	C913.789490,368.195953 911.479248,353.590179 909.210266,338.118683 
	C905.116821,323.080933 901.023376,308.043152 896.910706,292.253357 
	C895.293213,287.722046 893.753113,283.161346 892.044556,278.664612 
	C884.958313,260.014130 876.926453,241.814392 866.003845,224.241806 
	C852.574402,200.140182 836.078613,178.249817 817.374084,158.065872 
	C783.171448,121.158081 743.769226,91.136421 697.469116,71.006218 
	C679.089172,63.015041 659.847229,57.006577 640.307129,49.768764 
	C638.875671,49.362091 637.449097,48.937267 636.012024,48.551468 
	C615.348694,43.004040 594.334045,39.540268 572.174927,37.822258 
	C564.944641,37.253365 557.719055,36.301414 550.482849,36.212563 
	C541.443176,36.101570 532.395264,36.717339 523.349915,36.986435 
	C518.895874,37.118938 514.439697,37.177387 509.165222,37.164524 
	C503.927856,37.758015 498.671661,38.221306 493.457581,38.975754 
	C485.798187,40.084019 478.168854,41.400314 469.737030,42.697105 
	C466.966461,43.142986 464.121246,43.323460 461.437592,44.078377 
	C445.566528,48.542969 429.733032,53.140938 413.124939,57.818417 
	C395.966370,65.465759 378.807831,73.113106 360.987640,80.937614 
	C351.984467,86.287445 342.981323,91.637283 333.322113,97.185081 
	C323.492371,104.429474 313.662628,111.673874 303.215302,119.161346 
	C294.683533,126.723663 286.151794,134.285980 277.056763,142.166855 
z"/>
<path fill="#F8373B" opacity="1.000000" stroke="none" 
	d="
M496.075317,771.191040 
	C486.748840,781.952637 474.828827,786.110474 461.099182,783.357544 
	C414.012360,773.916321 370.615936,755.369019 330.800323,728.645813 
	C256.324554,678.659607 205.435944,610.865967 178.340485,525.296814 
	C178.089691,524.504822 177.935150,523.682312 178.074249,522.481323 
	C185.014282,526.631592 191.763351,530.976990 198.178452,535.769470 
	C205.577789,541.297241 212.609085,547.315002 219.939697,552.938232 
	C225.194962,556.969543 230.835327,560.504578 236.031891,564.605652 
	C250.448502,575.983032 264.696899,587.573181 279.063507,599.014343 
	C287.462860,605.703369 296.004791,612.213501 304.402893,618.904114 
	C312.921265,625.690491 321.233276,632.739624 329.837463,639.413452 
	C337.351471,645.241760 345.261627,650.558594 352.789734,656.369629 
	C364.150177,665.138794 375.346924,674.120544 386.581207,683.052307 
	C393.361816,688.443237 400.031952,693.973999 406.847046,699.320496 
	C411.139282,702.687744 415.669098,705.751038 419.985565,709.088867 
	C432.504578,718.769531 444.992432,728.491028 457.437378,738.266663 
	C460.021790,740.296753 462.224274,742.823364 464.856232,744.780273 
	C469.703247,748.384155 474.864075,751.570618 479.659668,755.237732 
	C484.516541,758.951477 489.165710,762.950989 493.732758,767.019714 
	C494.858704,768.022766 495.312531,769.780334 496.075317,771.191040 
z"/>
<path fill="#F93840" opacity="1.000000" stroke="none" 
	d="
M496.385040,771.041016 
	C495.312531,769.780334 494.858704,768.022766 493.732758,767.019714 
	C489.165710,762.950989 484.516541,758.951477 479.659668,755.237732 
	C474.864075,751.570618 469.703247,748.384155 464.856232,744.780273 
	C462.224274,742.823364 460.021790,740.296753 457.437378,738.266663 
	C444.992432,728.491028 432.504578,718.769531 419.985565,709.088867 
	C415.669098,705.751038 411.139282,702.687744 406.847046,699.320496 
	C400.031952,693.973999 393.361816,688.443237 386.581207,683.052307 
	C375.346924,674.120544 364.150177,665.138794 352.789734,656.369629 
	C345.261627,650.558594 337.351471,645.241760 329.837463,639.413452 
	C321.233276,632.739624 312.921265,625.690491 304.402893,618.904114 
	C296.004791,612.213501 287.462860,605.703369 279.063507,599.014343 
	C264.696899,587.573181 250.448502,575.983032 236.031891,564.605652 
	C230.835327,560.504578 225.194962,556.969543 219.939697,552.938232 
	C212.609085,547.315002 205.577789,541.297241 198.178452,535.769470 
	C191.763351,530.976990 185.014282,526.631592 178.026459,522.088623 
	C173.758957,505.602112 169.807632,489.131561 166.048874,472.617188 
	C165.173325,468.770386 164.952545,464.774536 164.849457,460.412659 
	C166.479660,460.427704 167.880585,460.624084 168.872208,461.366882 
	C177.175232,467.586182 185.487518,473.798859 193.629715,480.225494 
	C201.760971,486.643494 209.665421,493.347900 217.730286,499.851166 
	C228.794220,508.772797 239.830063,517.733887 251.075821,526.421997 
	C253.707779,528.455322 257.134125,529.460388 260.455292,531.178833 
	C266.172668,542.416443 271.179535,553.666199 277.174805,564.361816 
	C292.554626,591.799622 312.228119,615.913269 335.693726,636.831360 
	C343.730530,643.995728 352.480438,650.360107 360.920776,657.385498 
	C361.146545,657.983887 361.356110,658.286804 361.565674,658.589661 
	C361.501221,657.944214 361.436737,657.298767 361.277222,656.293396 
	C359.739410,652.261780 358.313599,648.583374 356.851074,644.919556 
	C346.966675,620.157776 338.940857,594.829529 333.768188,568.373291 
	C336.130432,569.042297 338.530548,569.716003 340.455048,571.067139 
	C344.368286,573.814636 347.999603,576.960510 351.792053,579.883911 
	C359.767914,586.031921 367.838867,592.058472 375.746887,598.292053 
	C383.406616,604.329895 390.851898,610.639465 398.499542,616.693054 
	C406.913208,623.353027 415.412750,629.906311 423.946899,636.411499 
	C429.565308,640.694214 435.311157,644.809631 440.999939,649.000000 
	C445.726410,657.314514 449.879333,666.025879 455.299194,673.860657 
	C466.443298,689.970337 478.127136,705.645508 493.273254,718.493713 
	C508.769135,731.638733 510.018707,755.540344 496.385040,771.041016 
z"/>
<path fill="#FF9A9F" opacity="1.000000" stroke="none" 
	d="
M896.929932,293.005402 
	C901.023376,308.043152 905.116821,323.080933 908.847290,338.529602 
	C900.438232,332.910126 892.306091,326.990631 884.364624,320.825439 
	C869.492371,309.279694 854.700500,297.629700 839.932068,285.951141 
	C827.288208,275.952637 814.767273,265.797943 802.053101,255.890457 
	C800.867615,254.966644 798.682373,255.325775 796.689148,254.886658 
	C781.317810,230.362671 763.131287,208.532013 741.785706,189.549957 
	C730.916870,179.884552 718.739563,171.690460 707.042786,162.653137 
	C706.708069,162.518784 706.484375,162.562592 706.260620,162.606384 
	C706.414429,162.827332 706.568298,163.048279 706.746948,163.646973 
	C707.387817,165.739197 707.959229,167.471329 708.627441,169.165283 
	C713.077393,180.447021 717.548096,191.720581 721.644836,202.993652 
	C715.679382,198.987991 709.933044,195.175339 704.513184,190.944336 
	C692.369568,181.464462 680.472290,171.668915 668.317322,162.203964 
	C656.427063,152.945084 644.223145,144.087723 632.370117,134.782532 
	C615.433289,121.486320 598.830688,107.762497 581.828857,94.551491 
	C561.425537,78.697395 540.691833,63.268875 520.250732,47.462692 
	C516.464905,44.535278 513.388367,40.690647 509.984467,37.269348 
	C514.439697,37.177387 518.895874,37.118938 523.349915,36.986435 
	C532.395264,36.717339 541.443176,36.101570 550.482849,36.212563 
	C557.719055,36.301414 564.944641,37.253365 572.620178,38.234352 
	C574.180969,40.059387 575.071960,41.757034 576.446716,42.841446 
	C591.005737,54.326157 605.620117,65.741104 620.263245,77.118645 
	C632.416565,86.561630 644.696960,95.842201 656.790466,105.360626 
	C664.728577,111.608467 672.318542,118.299278 680.272339,124.526184 
	C691.076172,132.984314 702.139587,141.110016 712.980225,149.521973 
	C726.445740,159.970749 739.758667,170.615921 753.208496,181.085175 
	C768.370422,192.887146 783.664062,204.520218 798.802124,216.352478 
	C812.632019,227.162216 826.313232,238.161880 840.091675,249.037735 
	C856.460510,261.958344 872.847778,274.855743 889.267700,287.711334 
	C891.707764,289.621643 894.370300,291.247772 896.929932,293.005402 
z"/>
<path fill="#FFA2A6" opacity="1.000000" stroke="none" 
	d="
M896.920288,292.629395 
	C894.370300,291.247772 891.707764,289.621643 889.267700,287.711334 
	C872.847778,274.855743 856.460510,261.958344 840.091675,249.037735 
	C826.313232,238.161880 812.632019,227.162216 798.802124,216.352478 
	C783.664062,204.520218 768.370422,192.887146 753.208496,181.085175 
	C739.758667,170.615921 726.445740,159.970749 712.980225,149.521973 
	C702.139587,141.110016 691.076172,132.984314 680.272339,124.526184 
	C672.318542,118.299278 664.728577,111.608467 656.790466,105.360626 
	C644.696960,95.842201 632.416565,86.561630 620.263245,77.118645 
	C605.620117,65.741104 591.005737,54.326157 576.446716,42.841446 
	C575.071960,41.757034 574.180969,40.059387 573.035400,38.294640 
	C594.334045,39.540268 615.348694,43.004040 636.012024,48.551468 
	C637.449097,48.937267 638.875671,49.362091 640.708740,50.261971 
	C642.210388,51.727806 643.256042,52.771389 644.418762,53.662052 
	C655.329285,62.019360 666.303345,70.294334 677.172180,78.705299 
	C687.644592,86.809494 697.986572,95.082024 708.436462,103.215538 
	C720.577026,112.664970 732.826782,121.974602 744.932068,131.468719 
	C764.603821,146.897186 784.172119,162.457504 803.830444,177.903229 
	C819.933594,190.555603 836.048950,203.193893 852.281128,215.679474 
	C856.678223,219.061584 861.518860,221.866913 866.155884,224.937012 
	C876.926453,241.814392 884.958313,260.014130 892.044556,278.664612 
	C893.753113,283.161346 895.293213,287.722046 896.920288,292.629395 
z"/>
<path fill="#FF848D" opacity="1.000000" stroke="none" 
	d="
M912.014954,432.005096 
	C903.980530,446.037415 891.479492,451.866272 875.743347,451.760681 
	C867.116272,451.702759 858.489258,451.654083 849.410278,451.133057 
	C848.020752,449.353577 847.313782,447.757629 846.106323,446.779602 
	C840.372009,442.134949 834.493896,437.668152 828.680725,433.120483 
	C814.759705,422.230011 800.815002,411.369354 786.943909,400.415558 
	C780.600098,395.405975 774.522095,390.056335 768.121094,385.123535 
	C756.614075,376.255920 744.860352,367.707703 733.381409,358.804565 
	C717.576660,346.546326 701.958618,334.047241 686.152161,321.791199 
	C685.173279,321.032166 683.249634,321.491608 681.535522,321.072357 
	C676.853455,305.553711 672.546753,290.302185 667.898071,275.155640 
	C664.808777,265.089966 661.230957,255.174255 658.069702,244.917053 
	C660.569336,245.654327 663.106445,246.331177 665.122620,247.748962 
	C669.035522,250.500504 672.610718,253.726547 676.405151,256.653229 
	C688.956055,266.333801 701.593811,275.902313 714.100769,285.639130 
	C727.389648,295.984589 740.548706,306.496796 753.824219,316.859680 
	C755.064697,317.827972 756.734314,318.246613 758.430115,319.221802 
	C762.067200,338.126099 765.478821,356.729065 769.004456,375.953705 
	C791.986633,375.953705 815.438049,375.953705 839.253052,375.998291 
	C841.904175,377.346283 844.344421,378.442505 846.449402,379.993744 
	C851.774170,383.917877 856.917297,388.087494 862.189880,392.083893 
	C870.753723,398.574921 879.522583,404.806732 887.907593,411.519318 
	C896.136353,418.106903 903.994263,425.157623 912.014954,432.005096 
z"/>
<path fill="#FD4655" opacity="1.000000" stroke="none" 
	d="
M393.790222,466.010071 
	C395.834229,483.063934 397.878235,500.117767 399.542938,517.543701 
	C397.388123,516.726013 395.505554,515.667725 393.855133,514.324280 
	C385.667847,507.659851 377.643341,500.791992 369.371765,494.235138 
	C354.647827,482.563446 339.833252,471.004150 324.924805,459.569611 
	C323.105347,458.174133 320.475342,457.835388 318.130920,456.567383 
	C317.893860,454.728149 317.746887,453.328430 317.552826,451.480316 
	C313.120056,451.480316 309.055542,451.480316 304.979889,451.143921 
	C304.851715,450.328217 304.898804,449.649109 304.593872,449.398651 
	C295.055878,441.564850 285.571442,433.661652 275.890808,426.006866 
	C266.942902,418.931549 257.703796,412.225250 248.728989,405.183014 
	C236.502060,395.588867 224.457703,385.762115 212.235367,376.162018 
	C201.188858,367.485443 190.109070,358.843506 178.822876,350.484802 
	C175.629028,348.119415 171.659683,346.801117 168.046005,345.002594 
	C172.131226,328.821014 176.216431,312.639465 180.949432,296.211182 
	C184.060455,296.845245 186.947815,297.175690 188.919174,298.694794 
	C203.449493,309.891876 217.758652,321.375397 232.225708,332.655457 
	C236.513885,335.998962 241.084717,338.979980 245.454987,342.528656 
	C243.122269,353.778442 240.860580,364.626648 238.459579,376.143158 
	C253.385452,376.143158 267.189270,376.143158 281.039551,376.486023 
	C284.714752,380.043427 288.211975,383.422760 291.995636,386.443237 
	C306.194000,397.777618 320.482269,408.999359 334.743591,420.254791 
	C349.006073,431.511139 363.242065,442.801514 377.561432,453.985046 
	C382.865936,458.127930 388.374634,462.009399 393.790222,466.010071 
z"/>
<path fill="#FF9399" opacity="1.000000" stroke="none" 
	d="
M509.574829,37.216938 
	C513.388367,40.690647 516.464905,44.535278 520.250732,47.462692 
	C540.691833,63.268875 561.425537,78.697395 581.828857,94.551491 
	C598.830688,107.762497 615.433289,121.486320 632.370117,134.782532 
	C644.223145,144.087723 656.427063,152.945084 668.317322,162.203964 
	C680.472290,171.668915 692.369568,181.464462 704.513184,190.944336 
	C709.933044,195.175339 715.679382,198.987991 721.897217,203.242767 
	C727.716492,217.973465 733.095093,232.390930 738.053406,246.951477 
	C741.420654,256.839508 744.198792,266.928131 746.863159,276.922913 
	C744.320923,275.739380 741.936890,274.838257 740.026489,273.335205 
	C728.090454,263.944122 716.347107,254.307114 704.374695,244.963257 
	C685.646179,230.346588 666.846558,215.818481 647.907715,201.476593 
	C645.475037,199.634430 642.029907,199.129410 638.855713,197.709076 
	C635.074219,189.368759 631.438110,181.347244 627.918518,173.274963 
	C621.134888,157.716812 612.596619,143.489670 599.141418,132.578903 
	C586.953918,122.696075 572.974731,117.008308 557.904419,113.206932 
	C556.692200,110.775322 555.878784,108.222893 554.140076,106.804932 
	C544.805786,99.192497 535.260010,91.838287 525.750549,84.442078 
	C517.291931,77.863152 508.834137,71.281418 500.287354,64.818085 
	C490.417816,57.354412 480.451202,50.019062 470.526733,42.627987 
	C478.168854,41.400314 485.798187,40.084019 493.457581,38.975754 
	C498.671661,38.221306 503.927856,37.758015 509.574829,37.216938 
z"/>
<path fill="#FF5161" opacity="1.000000" stroke="none" 
	d="
M574.487793,508.837097 
	C578.968872,524.299622 583.449951,539.762085 587.574219,555.573730 
	C586.770386,555.713379 586.261292,555.581909 585.885376,555.283081 
	C571.378174,543.749817 556.905518,532.172974 542.378418,520.664856 
	C532.788391,513.067749 523.145020,505.537567 513.482788,498.032379 
	C506.820221,492.857147 500.146698,487.690216 493.316498,482.742584 
	C492.260651,481.977783 490.336853,482.411194 488.814423,482.290466 
	C486.214905,473.612732 483.460388,464.976990 481.094025,456.236145 
	C480.178741,452.855316 478.880768,451.386810 475.090454,451.530121 
	C467.332642,451.823425 459.552002,451.513824 451.363770,450.949951 
	C447.070618,447.230316 443.259247,443.931213 439.307587,440.809723 
	C415.844177,422.275635 392.325043,403.812042 368.872162,385.264587 
	C355.400146,374.610382 342.067932,363.778534 328.531342,353.207733 
	C326.857697,351.900818 324.311096,351.711700 322.106232,350.598877 
	C324.031738,340.128845 326.020020,330.064545 328.407593,320.000366 
	C330.623962,320.582855 332.733185,320.763000 334.199677,321.828064 
	C337.674927,324.352020 340.776520,327.382629 344.151245,330.054230 
	C355.694763,339.192841 367.180756,348.410492 378.917419,357.295837 
	C384.134369,361.245361 389.897552,364.473389 395.461365,368.422943 
	C395.287720,371.043762 395.065521,373.270508 394.777802,376.153870 
	C398.509766,376.153870 401.752563,376.153870 405.041840,376.490875 
	C405.439270,377.376801 405.672699,378.078461 406.158386,378.452271 
	C417.165771,386.924438 428.248169,395.299744 439.217468,403.820679 
	C450.318604,412.444061 461.304169,421.216095 472.356354,429.902679 
	C486.400787,440.941132 500.490417,451.922333 514.502930,463.001099 
	C521.764893,468.742706 528.832458,474.731049 536.114685,480.446198 
	C544.807190,487.268066 553.585327,493.983734 562.428040,500.609711 
	C566.318604,503.524902 570.460205,506.104919 574.487793,508.837097 
z"/>
<path fill="#FF727F" opacity="1.000000" stroke="none" 
	d="
M794.942017,451.235535 
	C769.888245,452.131470 744.787598,453.677460 720.633362,444.474396 
	C716.793640,443.011414 712.727295,442.142883 708.375854,440.561584 
	C705.119690,437.059631 702.589783,433.568085 699.330261,431.003998 
	C683.219421,418.330353 666.902222,405.919250 650.683899,393.381744 
	C637.609619,383.274658 624.569153,373.123749 611.519775,362.984467 
	C594.408386,349.689056 577.286438,336.406860 560.236328,323.033264 
	C559.238159,322.250305 558.839905,320.702423 558.555298,319.595825 
	C566.767395,321.852051 574.615356,323.925690 582.399902,326.214508 
	C597.630920,330.692688 612.795959,335.396942 628.045715,339.809082 
	C642.656738,344.036346 657.340454,348.012054 672.035889,352.437866 
	C680.739197,359.861816 689.282959,367.094086 698.086853,373.994476 
	C709.925049,383.273102 722.018127,392.225922 733.904236,401.444397 
	C751.786865,415.313690 769.630859,429.234070 787.372314,443.282959 
	C790.213257,445.532623 792.434387,448.564972 794.942017,451.235535 
z"/>
<path fill="#FD4655" opacity="1.000000" stroke="none" 
	d="
M522.742493,601.085571 
	C516.112732,578.098267 509.482941,555.110901 503.023865,531.430847 
	C503.955719,530.606140 505.000702,530.083984 505.435669,530.400391 
	C512.516968,535.551941 519.586792,540.724487 526.520813,546.071716 
	C531.631104,550.012634 536.486694,554.282166 541.550964,558.284851 
	C555.957031,569.670959 570.379333,581.037048 584.863831,592.323059 
	C590.445740,596.672424 596.212524,600.784729 601.895081,605.005066 
	C605.511658,617.176819 609.128174,629.348572 613.084595,642.664124 
	C616.494995,635.829529 619.399963,630.007751 622.746582,624.305847 
	C629.962891,630.194641 636.619934,636.109619 643.547485,641.688721 
	C649.698730,646.642578 656.123047,651.260315 662.476501,655.959412 
	C669.320801,661.021423 676.222839,666.005310 683.099609,671.023315 
	C676.715088,683.918274 670.330505,696.813232 663.396362,709.784668 
	C660.893616,707.440552 659.301697,704.565552 656.925842,702.676819 
	C645.546265,693.630371 633.916992,684.899231 622.446838,675.965576 
	C604.179138,661.737549 585.928040,647.487610 567.746948,633.149231 
	C557.231201,624.856018 547.042664,616.137085 536.343140,608.093506 
	C532.328125,605.075073 529.031189,599.952332 522.742493,601.085571 
z"/>
<path fill="#FF606F" opacity="1.000000" stroke="none" 
	d="
M890.798340,653.007935 
	C890.736206,668.640991 886.529480,683.146973 878.335999,696.778748 
	C872.377197,692.002747 867.213440,686.895142 861.560913,682.402283 
	C850.610779,673.698608 839.463318,665.236267 828.232727,656.895996 
	C824.247803,653.936584 819.783081,651.623108 815.537415,649.014709 
	C813.168152,645.286621 811.375061,640.988525 808.339539,637.919373 
	C780.874390,610.149353 753.181519,582.604553 725.578247,554.970825 
	C715.169556,544.550659 711.057312,532.247925 715.215027,517.391296 
	C727.388489,525.782288 739.129211,534.353760 750.638855,543.224854 
	C763.477905,553.120605 776.090698,563.309387 788.831665,573.332947 
	C805.864075,586.732666 822.942871,600.073486 839.966797,613.483948 
	C849.842041,621.263062 859.594910,629.198181 869.504395,636.932861 
	C876.514160,642.404236 883.694275,647.657410 890.798340,653.007935 
z"/>
<path fill="#FF5666" opacity="1.000000" stroke="none" 
	d="
M815.483276,649.442383 
	C819.783081,651.623108 824.247803,653.936584 828.232727,656.895996 
	C839.463318,665.236267 850.610779,673.698608 861.560913,682.402283 
	C867.213440,686.895142 872.377197,692.002747 878.085022,696.999634 
	C870.975525,710.045288 861.045288,720.512268 847.668823,728.144287 
	C841.597229,723.732300 836.198853,719.482117 830.804810,715.226624 
	C817.852539,705.008423 804.946228,694.731384 791.940430,684.581848 
	C774.361328,670.863342 756.686096,657.268127 739.090393,643.570740 
	C725.391907,632.907104 711.729675,622.196533 698.094238,611.452393 
	C689.524963,604.700134 681.110229,597.749878 672.485962,591.069580 
	C665.298889,585.502563 657.907471,580.199219 650.606567,574.779114 
	C664.272095,561.178162 688.015564,561.687378 702.359741,575.995422 
	C730.745300,604.309692 759.106934,632.648010 787.406738,661.047974 
	C792.787170,666.447449 798.952393,668.347717 805.965210,665.433167 
	C812.663940,662.649109 815.506897,657.026611 815.483276,649.442383 
z"/>
<path fill="#FF5161" opacity="1.000000" stroke="none" 
	d="
M650.308594,574.904602 
	C657.907471,580.199219 665.298889,585.502563 672.485962,591.069580 
	C681.110229,597.749878 689.524963,604.700134 698.094238,611.452393 
	C711.729675,622.196533 725.391907,632.907104 739.090393,643.570740 
	C756.686096,657.268127 774.361328,670.863342 791.940430,684.581848 
	C804.946228,694.731384 817.852539,705.008423 830.804810,715.226624 
	C836.198853,719.482117 841.597229,723.732300 847.339722,728.194458 
	C838.427795,733.801575 828.911133,738.556702 817.435730,740.085693 
	C805.365051,731.325439 793.922485,722.904968 782.732361,714.161499 
	C770.097351,704.289124 757.741699,694.060181 745.165466,684.111572 
	C735.570007,676.520935 725.788879,669.165283 716.146179,661.633728 
	C703.245544,651.557251 690.406921,641.401306 677.526062,631.299438 
	C668.820312,624.471924 660.193115,617.537231 651.327148,610.923401 
	C646.071899,607.003113 640.420837,603.613342 634.947754,599.985046 
	C639.103210,591.144348 642.290833,581.719360 650.308594,574.904602 
z"/>
<path fill="#FC404F" opacity="1.000000" stroke="none" 
	d="
M522.771729,601.489197 
	C529.031189,599.952332 532.328125,605.075073 536.343140,608.093506 
	C547.042664,616.137085 557.231201,624.856018 567.746948,633.149231 
	C585.928040,647.487610 604.179138,661.737549 622.446838,675.965576 
	C633.916992,684.899231 645.546265,693.630371 656.925842,702.676819 
	C659.301697,704.565552 660.893616,707.440552 663.180786,710.036255 
	C657.279480,722.698242 651.044189,735.184998 644.219604,747.764282 
	C641.145996,745.933899 638.689087,743.974304 636.172791,742.094177 
	C625.033081,733.771118 613.761414,725.619629 602.758850,717.119568 
	C592.301086,709.040161 582.138367,700.579590 571.807861,692.334229 
	C563.918945,686.037659 556.021912,679.748352 547.997620,673.627441 
	C546.688721,672.629028 544.700928,672.520752 543.026917,672.001038 
	C538.365234,656.083984 533.674683,640.175293 529.054626,624.246155 
	C526.899536,616.815491 524.881226,609.345154 522.771729,601.489197 
z"/>
<path fill="#FE4D5D" opacity="1.000000" stroke="none" 
	d="
M322.169037,351.004578 
	C324.311096,351.711700 326.857697,351.900818 328.531342,353.207733 
	C342.067932,363.778534 355.400146,374.610382 368.872162,385.264587 
	C392.325043,403.812042 415.844177,422.275635 439.307587,440.809723 
	C443.259247,443.931213 447.070618,447.230316 450.978241,450.809387 
	C435.259003,451.326721 419.508392,451.487549 403.757599,451.632996 
	C400.452484,451.663513 397.146851,451.637390 393.117340,451.637390 
	C393.393158,456.365601 393.648895,460.749847 393.847412,465.572083 
	C388.374634,462.009399 382.865936,458.127930 377.561432,453.985046 
	C363.242065,442.801514 349.006073,431.511139 334.743591,420.254791 
	C320.482269,408.999359 306.194000,397.777618 291.995636,386.443237 
	C288.211975,383.422760 284.714752,380.043427 281.503418,376.410522 
	C294.170502,375.992218 306.420166,375.992218 318.593719,375.992218 
	C319.839661,367.284393 321.004364,359.144501 322.169037,351.004578 
z"/>
<path fill="#FF6675" opacity="1.000000" stroke="none" 
	d="
M890.873352,652.553284 
	C883.694275,647.657410 876.514160,642.404236 869.504395,636.932861 
	C859.594910,629.198181 849.842041,621.263062 839.966797,613.483948 
	C822.942871,600.073486 805.864075,586.732666 788.831665,573.332947 
	C776.090698,563.309387 763.477905,553.120605 750.638855,543.224854 
	C739.129211,534.353760 727.388489,525.782288 715.403809,517.041382 
	C717.602173,505.939606 724.377808,498.301788 734.698730,493.510803 
	C738.164551,496.736664 741.021057,499.968231 744.369080,502.566406 
	C759.504395,514.311890 774.854065,525.781067 789.981567,537.536377 
	C804.985291,549.195496 819.767883,561.138855 834.737671,572.842163 
	C845.665588,581.385498 856.714050,589.775635 867.763550,598.161865 
	C871.364014,600.894592 875.137207,603.399658 878.831421,606.008789 
	C887.262146,620.217468 891.001892,635.659424 890.873352,652.553284 
z"/>
<path fill="#FF7A85" opacity="1.000000" stroke="none" 
	d="
M795.388184,451.410553 
	C792.434387,448.564972 790.213257,445.532623 787.372314,443.282959 
	C769.630859,429.234070 751.786865,415.313690 733.904236,401.444397 
	C722.018127,392.225922 709.925049,383.273102 698.086853,373.994476 
	C689.282959,367.094086 680.739197,359.861816 672.422058,352.428436 
	C677.959351,353.553772 683.154175,355.028015 689.162109,356.733032 
	C686.611938,344.545807 684.188721,332.964996 681.765503,321.384155 
	C683.249634,321.491608 685.173279,321.032166 686.152161,321.791199 
	C701.958618,334.047241 717.576660,346.546326 733.381409,358.804565 
	C744.860352,367.707703 756.614075,376.255920 768.121094,385.123535 
	C774.522095,390.056335 780.600098,395.405975 786.943909,400.415558 
	C800.815002,411.369354 814.759705,422.230011 828.680725,433.120483 
	C834.493896,437.668152 840.372009,442.134949 846.106323,446.779602 
	C847.313782,447.757629 848.020752,449.353577 848.970093,450.969910 
	C837.728821,451.426025 826.476257,451.623108 815.222778,451.710510 
	C808.760681,451.760712 802.297241,451.633118 795.388184,451.410553 
z"/>
<path fill="#FC404F" opacity="1.000000" stroke="none" 
	d="
M167.876801,345.359924 
	C171.659683,346.801117 175.629028,348.119415 178.822876,350.484802 
	C190.109070,358.843506 201.188858,367.485443 212.235367,376.162018 
	C224.457703,385.762115 236.502060,395.588867 248.728989,405.183014 
	C257.703796,412.225250 266.942902,418.931549 275.890808,426.006866 
	C285.571442,433.661652 295.055878,441.564850 304.593872,449.398651 
	C304.898804,449.649109 304.851715,450.328217 304.514404,451.184143 
	C299.094849,451.575806 294.129517,451.575958 289.164429,451.608521 
	C272.625061,451.716949 256.085815,451.837006 239.275406,451.769287 
	C236.990448,450.488800 234.803909,449.620026 232.994827,448.252075 
	C227.350479,443.984039 221.834335,439.545563 216.295166,435.139618 
	C205.345673,426.430145 194.581924,417.475464 183.412521,409.058594 
	C176.635468,403.951660 169.242493,399.662079 162.126205,395.005310 
	C163.986679,378.575958 165.847137,362.146576 167.876801,345.359924 
z"/>
<path fill="#FE4D5D" opacity="1.000000" stroke="none" 
	d="
M634.682617,600.201965 
	C640.420837,603.613342 646.071899,607.003113 651.327148,610.923401 
	C660.193115,617.537231 668.820312,624.471924 677.526062,631.299438 
	C690.406921,641.401306 703.245544,651.557251 716.146179,661.633728 
	C725.788879,669.165283 735.570007,676.520935 745.165466,684.111572 
	C757.741699,694.060181 770.097351,704.289124 782.732361,714.161499 
	C793.922485,722.904968 805.365051,731.325439 817.042114,740.027222 
	C802.492859,743.902954 787.757935,742.668579 773.202087,738.452454 
	C758.862000,734.298767 746.401733,726.790466 735.812561,716.295227 
	C720.439880,701.058838 705.186096,685.702515 689.874329,670.404663 
	C688.715698,669.247070 687.499084,668.147400 685.982666,666.711365 
	C685.093567,668.195740 684.364563,669.412720 683.367676,670.826538 
	C676.222839,666.005310 669.320801,661.021423 662.476501,655.959412 
	C656.123047,651.260315 649.698730,646.642578 643.547485,641.688721 
	C636.619934,636.109619 629.962891,630.194641 623.042969,624.106201 
	C626.737610,615.997375 630.577576,608.208130 634.682617,600.201965 
z"/>
<path fill="#FF727F" opacity="1.000000" stroke="none" 
	d="
M303.832886,118.918259 
	C313.662628,111.673874 323.492371,104.429474 333.952271,97.234421 
	C338.156586,100.239815 341.658325,103.289215 345.320190,106.132370 
	C352.771057,111.917397 360.374725,117.506630 367.790009,123.336121 
	C374.296906,128.451477 380.567017,133.867630 387.062592,138.997879 
	C393.171295,143.822556 399.467743,148.408691 405.629272,153.167480 
	C419.771423,164.090057 433.881714,175.053864 447.976501,186.371826 
	C442.679047,200.233398 437.410034,213.724045 431.947693,226.919952 
	C415.044952,213.466995 398.387817,200.241440 381.584045,187.204926 
	C378.033875,184.450684 373.946838,182.388489 370.116394,179.640991 
	C372.401459,172.504303 374.677216,165.734039 377.087921,158.954254 
	C377.152893,158.974136 377.082977,159.003555 376.687134,159.127594 
	C372.373199,161.870758 368.385132,164.519287 364.082123,166.983231 
	C362.461395,165.175598 361.401489,163.243011 359.810333,161.979233 
	C348.592834,153.069626 337.307709,144.243561 325.959290,135.500961 
	C318.658447,129.876511 311.213348,124.439354 303.832886,118.918259 
z"/>
<path fill="#FF6C7A" opacity="1.000000" stroke="none" 
	d="
M558.162415,319.510498 
	C558.839905,320.702423 559.238159,322.250305 560.236328,323.033264 
	C577.286438,336.406860 594.408386,349.689056 611.519775,362.984467 
	C624.569153,373.123749 637.609619,383.274658 650.683899,393.381744 
	C666.902222,405.919250 683.219421,418.330353 699.330261,431.003998 
	C702.589783,433.568085 705.119690,437.059631 707.989258,440.480652 
	C683.489136,433.788300 658.985779,426.738922 634.200928,419.087952 
	C632.663086,417.015961 631.598328,415.306213 630.115234,414.119171 
	C625.222534,410.203094 620.141846,406.522980 615.199463,402.667572 
	C600.348572,391.082977 585.503967,379.490021 570.705078,367.839172 
	C558.766174,358.439972 546.957886,348.874054 534.978943,339.526703 
	C524.312744,331.203796 513.379517,323.220642 502.785187,314.809143 
	C497.256561,310.419617 492.204315,305.430084 487.246399,300.561523 
	C491.455292,301.102875 495.446655,301.468842 499.238678,302.540283 
	C518.907898,308.097870 538.526306,313.835571 558.162415,319.510498 
z"/>
<path fill="#FFA7AA" opacity="1.000000" stroke="none" 
	d="
M866.079834,224.589401 
	C861.518860,221.866913 856.678223,219.061584 852.281128,215.679474 
	C836.048950,203.193893 819.933594,190.555603 803.830444,177.903229 
	C784.172119,162.457504 764.603821,146.897186 744.932068,131.468719 
	C732.826782,121.974602 720.577026,112.664970 708.436462,103.215538 
	C697.986572,95.082024 687.644592,86.809494 677.172180,78.705299 
	C666.303345,70.294334 655.329285,62.019360 644.418762,53.662052 
	C643.256042,52.771389 642.210388,51.727806 641.054077,50.425301 
	C659.847229,57.006577 679.089172,63.015041 697.469116,71.006218 
	C743.769226,91.136421 783.171448,121.158081 817.374084,158.065872 
	C836.078613,178.249817 852.574402,200.140182 866.079834,224.589401 
z"/>
<path fill="#FF848D" opacity="1.000000" stroke="none" 
	d="
M361.649261,80.760445 
	C378.807831,73.113106 395.966370,65.465759 413.648102,58.093689 
	C415.069397,59.338757 415.851471,60.459213 416.884033,61.254425 
	C424.813080,67.360840 432.844879,73.334534 440.741455,79.482124 
	C454.912872,90.514740 469.261383,101.344444 482.983795,112.913750 
	C486.904694,116.219406 493.374573,117.537132 493.840332,124.431076 
	C487.825531,128.943985 481.366180,132.551056 476.393494,137.617355 
	C470.299255,143.826309 465.449127,151.256317 459.921783,157.844818 
	C449.425476,148.822617 439.248260,139.888260 428.667206,131.460983 
	C414.599731,120.256973 400.273132,109.374908 385.948639,98.498398 
	C377.963196,92.435120 369.756348,86.663498 361.649261,80.760445 
z"/>
<path fill="#FB3C48" opacity="1.000000" stroke="none" 
	d="
M162.041626,395.466461 
	C169.242493,399.662079 176.635468,403.951660 183.412521,409.058594 
	C194.581924,417.475464 205.345673,426.430145 216.295166,435.139618 
	C221.834335,439.545563 227.350479,443.984039 232.994827,448.252075 
	C234.803909,449.620026 236.990448,450.488800 239.355255,452.216583 
	C240.973343,460.525726 241.561554,468.393738 243.641586,475.845306 
	C248.796082,494.311127 254.632507,512.586609 260.194977,530.938538 
	C257.134125,529.460388 253.707779,528.455322 251.075821,526.421997 
	C239.830063,517.733887 228.794220,508.772797 217.730286,499.851166 
	C209.665421,493.347900 201.760971,486.643494 193.629715,480.225494 
	C185.487518,473.798859 177.175232,467.586182 168.872208,461.366882 
	C167.880585,460.624084 166.479660,460.427704 164.851349,459.952637 
	C163.608536,438.593994 162.782791,417.260803 162.041626,395.466461 
z"/>
<path fill="#FB3C48" opacity="1.000000" stroke="none" 
	d="
M543.014282,672.394897 
	C544.700928,672.520752 546.688721,672.629028 547.997620,673.627441 
	C556.021912,679.748352 563.918945,686.037659 571.807861,692.334229 
	C582.138367,700.579590 592.301086,709.040161 602.758850,717.119568 
	C613.761414,725.619629 625.033081,733.771118 636.172791,742.094177 
	C638.689087,743.974304 641.145996,745.933899 643.966064,747.993958 
	C641.400757,754.090088 639.077148,760.426147 635.482666,765.932678 
	C627.081116,778.803162 614.896301,785.397583 599.426086,783.754639 
	C583.371826,782.049744 571.972351,773.054199 567.272949,757.671997 
	C558.676025,729.532288 551.039001,701.099365 543.014282,672.394897 
z"/>
<path fill="#FF8B93" opacity="1.000000" stroke="none" 
	d="
M494.054932,124.172241 
	C493.374573,117.537132 486.904694,116.219406 482.983795,112.913750 
	C469.261383,101.344444 454.912872,90.514740 440.741455,79.482124 
	C432.844879,73.334534 424.813080,67.360840 416.884033,61.254425 
	C415.851471,60.459213 415.069397,59.338757 414.029053,58.031498 
	C429.733032,53.140938 445.566528,48.542969 461.437592,44.078377 
	C464.121246,43.323460 466.966461,43.142986 470.131897,42.662552 
	C480.451202,50.019062 490.417816,57.354412 500.287354,64.818085 
	C508.834137,71.281418 517.291931,77.863152 525.750549,84.442078 
	C535.260010,91.838287 544.805786,99.192497 554.140076,106.804932 
	C555.878784,108.222893 556.692200,110.775322 557.455322,113.100571 
	C545.456299,112.498657 533.802551,111.128006 522.520142,114.226257 
	C512.850525,116.881638 503.529907,120.807999 494.054932,124.172241 
z"/>
<path fill="#FF9399" opacity="1.000000" stroke="none" 
	d="
M796.961304,255.089233 
	C798.682373,255.325775 800.867615,254.966644 802.053101,255.890457 
	C814.767273,265.797943 827.288208,275.952637 839.932068,285.951141 
	C854.700500,297.629700 869.492371,309.279694 884.364624,320.825439 
	C892.306091,326.990631 900.438232,332.910126 908.857544,338.957916 
	C911.479248,353.590179 913.789490,368.195953 915.933228,382.826141 
	C916.481750,386.569519 916.503540,390.390106 916.358276,394.534485 
	C915.056641,394.457794 914.054626,394.162170 913.287659,393.564819 
	C902.218323,384.943054 891.159058,376.307953 880.140747,367.621094 
	C867.190308,357.410950 854.348999,347.060730 841.310547,336.964874 
	C837.843262,334.280151 833.826965,332.304413 829.877197,329.682312 
	C825.832886,318.638306 822.616455,307.626709 817.959839,297.262115 
	C811.529175,282.948914 804.012695,269.123535 796.961304,255.089233 
z"/>
<path fill="#FF5C6C" opacity="1.000000" stroke="none" 
	d="
M546.073669,409.996765 
	C551.718445,429.403503 557.363281,448.810272 562.640015,468.572998 
	C557.357056,465.617126 552.224060,462.583740 547.569397,458.939331 
	C535.336304,449.361237 523.425781,439.370605 511.177551,429.812408 
	C491.240356,414.253845 471.092804,398.964813 451.159485,383.401306 
	C448.709900,381.488708 447.030121,378.590179 445.452332,376.075500 
	C449.809082,376.002441 453.707062,376.002441 458.066040,376.002441 
	C456.391235,370.117920 454.659973,364.957489 453.481628,359.673767 
	C451.806976,352.164398 450.538910,344.564301 449.458649,337.007141 
	C453.246216,339.209137 456.857025,341.168335 460.063049,343.650391 
	C469.063354,350.618225 477.852234,357.858337 486.805756,364.887512 
	C502.911316,377.531525 519.043884,390.141693 535.241943,402.666718 
	C538.683838,405.328186 542.454529,407.564514 546.073669,409.996765 
z"/>
<path fill="#FC404F" opacity="1.000000" stroke="none" 
	d="
M318.220947,457.006897 
	C320.475342,457.835388 323.105347,458.174133 324.924805,459.569611 
	C339.833252,471.004150 354.647827,482.563446 369.371765,494.235138 
	C377.643341,500.791992 385.667847,507.659851 393.855133,514.324280 
	C395.505554,515.667725 397.388123,516.726013 399.502380,517.960205 
	C404.508301,538.749451 409.175476,559.494202 413.479401,580.615967 
	C412.099030,580.515503 410.945282,580.211609 410.085388,579.534546 
	C397.112091,569.319946 384.172699,559.062317 371.235077,548.802429 
	C359.852417,539.775635 348.576996,530.609680 337.056244,521.763000 
	C332.816162,518.507019 328.009460,515.989136 323.315094,512.774536 
	C321.519653,493.945251 319.870300,475.476074 318.220947,457.006897 
z"/>
<path fill="#FB3C48" opacity="1.000000" stroke="none" 
	d="
M323.461182,513.134583 
	C328.009460,515.989136 332.816162,518.507019 337.056244,521.763000 
	C348.576996,530.609680 359.852417,539.775635 371.235077,548.802429 
	C384.172699,559.062317 397.112091,569.319946 410.085388,579.534546 
	C410.945282,580.211609 412.099030,580.515503 413.472290,580.999390 
	C421.128723,604.130371 429.969879,626.633850 440.970978,648.639221 
	C435.311157,644.809631 429.565308,640.694214 423.946899,636.411499 
	C415.412750,629.906311 406.913208,623.353027 398.499542,616.693054 
	C390.851898,610.639465 383.406616,604.329895 375.746887,598.292053 
	C367.838867,592.058472 359.767914,586.031921 351.792053,579.883911 
	C347.999603,576.960510 344.368286,573.814636 340.455048,571.067139 
	C338.530548,569.716003 336.130432,569.042297 333.568115,568.015320 
	C329.947510,549.690613 326.704346,531.412598 323.461182,513.134583 
z"/>
<path fill="#FF5666" opacity="1.000000" stroke="none" 
	d="
M444.993622,376.148529 
	C447.030121,378.590179 448.709900,381.488708 451.159485,383.401306 
	C471.092804,398.964813 491.240356,414.253845 511.177551,429.812408 
	C523.425781,439.370605 535.336304,449.361237 547.569397,458.939331 
	C552.224060,462.583740 557.357056,465.617126 562.623901,468.965210 
	C566.762756,482.016266 570.549866,495.031158 574.412354,508.441559 
	C570.460205,506.104919 566.318604,503.524902 562.428040,500.609711 
	C553.585327,493.983734 544.807190,487.268066 536.114685,480.446198 
	C528.832458,474.731049 521.764893,468.742706 514.502930,463.001099 
	C500.490417,451.922333 486.400787,440.941132 472.356354,429.902679 
	C461.304169,421.216095 450.318604,412.444061 439.217468,403.820679 
	C428.248169,395.299744 417.165771,386.924438 406.158386,378.452271 
	C405.672699,378.078461 405.439270,377.376801 405.505859,376.417419 
	C418.946777,376.054138 431.970215,376.101318 444.993622,376.148529 
z"/>
<path fill="#FF7A85" opacity="1.000000" stroke="none" 
	d="
M361.318451,80.849030 
	C369.756348,86.663498 377.963196,92.435120 385.948639,98.498398 
	C400.273132,109.374908 414.599731,120.256973 428.667206,131.460983 
	C439.248260,139.888260 449.425476,148.822617 459.765625,158.152039 
	C455.834167,167.848877 451.919556,176.924896 448.004944,186.000931 
	C433.881714,175.053864 419.771423,164.090057 405.629272,153.167480 
	C399.467743,148.408691 393.171295,143.822556 387.062592,138.997879 
	C380.567017,133.867630 374.296906,128.451477 367.790009,123.336121 
	C360.374725,117.506630 352.771057,111.917397 345.320190,106.132370 
	C341.658325,103.289215 338.156586,100.239815 334.280273,97.135437 
	C342.981323,91.637283 351.984467,86.287445 361.318451,80.849030 
z"/>
<path fill="#FF606F" opacity="1.000000" stroke="none" 
	d="
M546.075562,409.598724 
	C542.454529,407.564514 538.683838,405.328186 535.241943,402.666718 
	C519.043884,390.141693 502.911316,377.531525 486.805756,364.887512 
	C477.852234,357.858337 469.063354,350.618225 460.063049,343.650391 
	C456.857025,341.168335 453.246216,339.209137 449.391907,336.583618 
	C449.513733,325.621185 453.611206,316.814575 462.129761,309.974609 
	C464.764252,310.899445 467.237671,311.460510 469.171112,312.800568 
	C473.372070,315.712280 477.292389,319.028229 481.336395,322.167358 
	C498.175476,335.238403 515.035583,348.282532 531.853699,361.380463 
	C546.061707,372.445648 560.301453,383.472961 574.352722,394.734619 
	C578.208923,397.825256 581.438660,401.697540 584.955872,405.211121 
	C574.260254,402.261047 563.565430,399.307953 552.868469,396.362732 
	C549.527222,395.442780 546.180115,394.544128 541.872192,393.374023 
	C543.409546,399.159760 544.743530,404.180237 546.075562,409.598724 
z"/>
<path fill="#FE4D5D" opacity="1.000000" stroke="none" 
	d="
M601.912109,604.619263 
	C596.212524,600.784729 590.445740,596.672424 584.863831,592.323059 
	C570.379333,581.037048 555.957031,569.670959 541.550964,558.284851 
	C536.486694,554.282166 531.631104,550.012634 526.520813,546.071716 
	C519.586792,540.724487 512.516968,535.551941 505.435669,530.400391 
	C505.000702,530.083984 503.955719,530.606140 502.998260,531.044800 
	C498.147644,515.256470 493.493378,499.161377 488.826782,482.678406 
	C490.336853,482.411194 492.260651,481.977783 493.316498,482.742584 
	C500.146698,487.690216 506.820221,492.857147 513.482788,498.032379 
	C523.145020,505.537567 532.788391,513.067749 542.378418,520.664856 
	C556.905518,532.172974 571.378174,543.749817 585.885376,555.283081 
	C586.261292,555.581909 586.770386,555.713379 587.557251,555.963257 
	C592.574402,572.080261 597.251770,588.156860 601.912109,604.619263 
z"/>
<path fill="#FF5666" opacity="1.000000" stroke="none" 
	d="
M198.695709,250.893219 
	C206.600571,236.718826 214.505417,222.544434 223.036346,208.215454 
	C238.770905,219.536713 253.871643,231.022827 268.992554,242.482330 
	C273.685333,246.038773 278.432892,249.522949 283.072205,253.383636 
	C275.389221,268.166718 267.789398,282.606415 259.859497,296.917786 
	C256.228363,294.310455 252.883667,291.887115 249.634247,289.342102 
	C238.962982,280.984192 228.415207,272.465668 217.641937,264.242096 
	C211.505508,259.557983 205.022583,255.327820 198.695709,250.893219 
z"/>
<path fill="#FE4D5D" opacity="1.000000" stroke="none" 
	d="
M198.454773,251.130585 
	C205.022583,255.327820 211.505508,259.557983 217.641937,264.242096 
	C228.415207,272.465668 238.962982,280.984192 249.634247,289.342102 
	C252.883667,291.887115 256.228363,294.310455 259.805176,297.289001 
	C255.229309,312.568054 250.377655,327.347565 245.526016,342.127106 
	C241.084717,338.979980 236.513885,335.998962 232.225708,332.655457 
	C217.758652,321.375397 203.449493,309.891876 188.919174,298.694794 
	C186.947815,297.175690 184.060455,296.845245 181.190903,295.940125 
	C186.594345,281.066528 192.404099,266.217224 198.454773,251.130585 
z"/>
<path fill="#FF5C6C" opacity="1.000000" stroke="none" 
	d="
M283.155396,253.040222 
	C278.432892,249.522949 273.685333,246.038773 268.992554,242.482330 
	C253.871643,231.022827 238.770905,219.536713 223.310852,208.022446 
	C232.359680,195.258179 241.760071,182.532349 251.594666,169.966995 
	C259.727661,176.290863 267.378143,182.515808 275.136444,188.603302 
	C286.910797,197.841949 298.760010,206.985153 310.398071,216.475525 
	C301.197632,228.868164 292.176514,240.954178 283.155396,253.040222 
z"/>
<path fill="#FF6675" opacity="1.000000" stroke="none" 
	d="
M585.224121,405.451172 
	C581.438660,401.697540 578.208923,397.825256 574.352722,394.734619 
	C560.301453,383.472961 546.061707,372.445648 531.853699,361.380463 
	C515.035583,348.282532 498.175476,335.238403 481.336395,322.167358 
	C477.292389,319.028229 473.372070,315.712280 469.171112,312.800568 
	C467.237671,311.460510 464.764252,310.899445 462.306885,309.664703 
	C469.318756,303.455750 477.538300,300.386078 486.936890,300.711578 
	C492.204315,305.430084 497.256561,310.419617 502.785187,314.809143 
	C513.379517,323.220642 524.312744,331.203796 534.978943,339.526703 
	C546.957886,348.874054 558.766174,358.439972 570.705078,367.839172 
	C585.503967,379.490021 600.348572,391.082977 615.199463,402.667572 
	C620.141846,406.522980 625.222534,410.203094 630.115234,414.119171 
	C631.598328,415.306213 632.663086,417.015961 633.924744,418.850525 
	C617.784180,414.706909 601.638306,410.199066 585.224121,405.451172 
z"/>
<path fill="#FF8B93" opacity="1.000000" stroke="none" 
	d="
M830.062744,330.003174 
	C833.826965,332.304413 837.843262,334.280151 841.310547,336.964874 
	C854.348999,347.060730 867.190308,357.410950 880.140747,367.621094 
	C891.159058,376.307953 902.218323,384.943054 913.287659,393.564819 
	C914.054626,394.162170 915.056641,394.457794 916.265442,394.948578 
	C916.976196,407.380188 918.825684,419.916595 912.292480,431.784393 
	C903.994263,425.157623 896.136353,418.106903 887.907593,411.519318 
	C879.522583,404.806732 870.753723,398.574921 862.189880,392.083893 
	C856.917297,388.087494 851.774170,383.917877 846.449402,379.993744 
	C844.344421,378.442505 841.904175,377.346283 839.285278,375.575256 
	C835.990295,360.072815 833.026489,345.037994 830.062744,330.003174 
z"/>
<path fill="#FF6675" opacity="1.000000" stroke="none" 
	d="
M310.577423,216.168884 
	C298.760010,206.985153 286.910797,197.841949 275.136444,188.603302 
	C267.378143,182.515808 259.727661,176.290863 251.875641,169.767426 
	C260.167206,160.327209 268.611969,151.247040 277.719086,142.072144 
	C284.936340,146.659241 291.614899,151.178818 298.019043,156.058517 
	C309.416595,164.742996 320.712341,173.565338 331.891510,182.528488 
	C333.974762,184.198776 335.311066,186.800690 336.840210,189.270981 
	C327.984711,198.435822 319.281067,207.302353 310.577423,216.168884 
z"/>
<path fill="#FF6C7A" opacity="1.000000" stroke="none" 
	d="
M336.992096,188.972656 
	C335.311066,186.800690 333.974762,184.198776 331.891510,182.528488 
	C320.712341,173.565338 309.416595,164.742996 298.019043,156.058517 
	C291.614899,151.178818 284.936340,146.659241 278.000732,141.912857 
	C286.151794,134.285980 294.683533,126.723663 303.524109,119.039803 
	C311.213348,124.439354 318.658447,129.876511 325.959290,135.500961 
	C337.307709,144.243561 348.592834,153.069626 359.810333,161.979233 
	C361.401489,163.243011 362.461395,165.175598 363.860840,167.264221 
	C361.898376,169.055832 359.700043,170.206635 357.811462,171.739166 
	C350.816345,177.415482 343.923401,183.217728 336.992096,188.972656 
z"/>
<path fill="#FF6C7A" opacity="1.000000" stroke="none" 
	d="
M878.761963,605.678711 
	C875.137207,603.399658 871.364014,600.894592 867.763550,598.161865 
	C856.714050,589.775635 845.665588,581.385498 834.737671,572.842163 
	C819.767883,561.138855 804.985291,549.195496 789.981567,537.536377 
	C774.854065,525.781067 759.504395,514.311890 744.369080,502.566406 
	C741.021057,499.968231 738.164551,496.736664 735.040039,493.459167 
	C748.413879,486.445618 766.173828,488.807343 776.740540,499.296600 
	C806.514343,528.852112 836.192322,558.505981 865.660950,588.365051 
	C870.634583,593.404602 874.379761,599.656738 878.761963,605.678711 
z"/>
<path fill="#FFFFFF" opacity="1.000000" stroke="none" 
	d="
M323.315094,512.774536 
	C326.704346,531.412598 329.947510,549.690613 333.390747,568.326599 
	C338.940857,594.829529 346.966675,620.157776 356.851074,644.919556 
	C358.313599,648.583374 359.739410,652.261780 361.160034,656.402222 
	C361.137848,656.871033 360.904572,657.089966 360.904572,657.089966 
	C352.480438,650.360107 343.730530,643.995728 335.693726,636.831360 
	C312.228119,615.913269 292.554626,591.799622 277.174805,564.361816 
	C271.179535,553.666199 266.172668,542.416443 260.455292,531.178833 
	C254.632507,512.586609 248.796082,494.311127 243.641586,475.845306 
	C241.561554,468.393738 240.973343,460.525726 239.626373,452.399902 
	C256.085815,451.837006 272.625061,451.716949 289.164429,451.608521 
	C294.129517,451.575958 299.094849,451.575806 304.525574,451.520569 
	C309.055542,451.480316 313.120056,451.480316 317.552826,451.480316 
	C317.746887,453.328430 317.893860,454.728149 318.130890,456.567383 
	C319.870300,475.476074 321.519653,493.945251 323.315094,512.774536 
z"/>
<path fill="#FFFFFF" opacity="1.000000" stroke="none" 
	d="
M361.255066,656.762207 
	C361.436737,657.298767 361.501221,657.944214 361.565674,658.589661 
	C361.356110,658.286804 361.146545,657.983887 360.920776,657.385498 
	C360.904572,657.089966 361.137848,656.871033 361.255066,656.762207 
z"/>
<path fill="#FFFFFF" opacity="1.000000" stroke="none" 
	d="
M829.877197,329.682312 
	C833.026489,345.037994 835.990295,360.072815 838.921753,375.530670 
	C815.438049,375.953705 791.986633,375.953705 769.004456,375.953705 
	C765.478821,356.729065 762.067200,338.126099 758.410889,318.808044 
	C754.524231,304.371002 750.882263,290.649017 747.240356,276.927032 
	C744.198792,266.928131 741.420654,256.839508 738.053406,246.951477 
	C733.095093,232.390930 727.716492,217.973465 722.264526,203.245926 
	C717.548096,191.720581 713.077393,180.447021 708.627441,169.165283 
	C707.959229,167.471329 707.387817,165.739197 706.856018,163.538620 
	C706.940308,163.052521 707.153748,162.831299 707.153748,162.831299 
	C718.739563,171.690460 730.916870,179.884552 741.785706,189.549957 
	C763.131287,208.532013 781.317810,230.362671 796.689087,254.886658 
	C804.012695,269.123535 811.529175,282.948914 817.959839,297.262115 
	C822.616455,307.626709 825.832886,318.638306 829.877197,329.682312 
z"/>
<path fill="#FFFFFF" opacity="1.000000" stroke="none" 
	d="
M706.831238,163.160873 
	C706.568298,163.048279 706.414429,162.827332 706.260620,162.606384 
	C706.484375,162.562592 706.708069,162.518784 707.042786,162.653137 
	C707.153748,162.831299 706.940308,163.052521 706.831238,163.160873 
z"/>
<path fill="#FFFFFF" opacity="1.000000" stroke="none" 
	d="
M487.246399,300.561523 
	C477.538300,300.386078 469.318756,303.455750 461.900940,309.654175 
	C453.611206,316.814575 449.513733,325.621185 449.030365,336.579468 
	C450.538910,344.564301 451.806976,352.164398 453.481628,359.673767 
	C454.659973,364.957489 456.391235,370.117920 458.066040,376.002441 
	C453.707062,376.002441 449.809082,376.002441 445.452332,376.075500 
	C431.970215,376.101318 418.946777,376.054138 405.459351,376.080383 
	C401.752563,376.153870 398.509766,376.153870 394.777802,376.153870 
	C395.065521,373.270508 395.287720,371.043762 395.640320,368.017883 
	C397.049805,359.172089 398.328857,351.125458 399.752136,342.748260 
	C402.359863,330.758667 404.823425,319.099640 407.512207,307.125671 
	C411.348114,293.936188 414.958771,281.061646 418.742188,267.882935 
	C423.323669,254.124100 427.732361,240.669403 432.141052,227.214691 
	C437.410034,213.724045 442.679047,200.233398 447.976501,186.371826 
	C451.919556,176.924896 455.834167,167.848877 459.904938,158.465622 
	C465.449127,151.256317 470.299255,143.826309 476.393494,137.617355 
	C481.366180,132.551056 487.825531,128.943985 493.840332,124.431076 
	C503.529907,120.807999 512.850525,116.881638 522.520142,114.226257 
	C533.802551,111.128006 545.456299,112.498657 557.427124,113.503311 
	C572.974731,117.008308 586.953918,122.696075 599.141418,132.578903 
	C612.596619,143.489670 621.134888,157.716812 627.918518,173.274963 
	C631.438110,181.347244 635.074219,189.368759 638.883667,198.070862 
	C640.072571,201.017853 641.067139,203.294388 641.993042,205.598572 
	C647.294983,218.792557 652.580627,231.993088 657.871826,245.191406 
	C661.230957,255.174255 664.808777,265.089966 667.898071,275.155640 
	C672.546753,290.302185 676.853455,305.553711 681.535522,321.072388 
	C684.188721,332.964996 686.611938,344.545807 689.162109,356.733032 
	C683.154175,355.028015 677.959351,353.553772 672.378418,352.088928 
	C657.340454,348.012054 642.656738,344.036346 628.045715,339.809082 
	C612.795959,335.396942 597.630920,330.692688 582.399902,326.214508 
	C574.615356,323.925690 566.767395,321.852051 558.555298,319.595825 
	C538.526306,313.835571 518.907898,308.097870 499.238678,302.540283 
	C495.446655,301.468842 491.455292,301.102875 487.246399,300.561523 
z"/>
<path fill="#FF8B93" opacity="1.000000" stroke="none" 
	d="
M658.069702,244.917053 
	C652.580627,231.993088 647.294983,218.792557 641.993042,205.598572 
	C641.067139,203.294388 640.072571,201.017853 639.081726,198.366760 
	C642.029907,199.129410 645.475037,199.634430 647.907715,201.476593 
	C666.846558,215.818481 685.646179,230.346588 704.374695,244.963257 
	C716.347107,254.307114 728.090454,263.944122 740.026489,273.335205 
	C741.936890,274.838257 744.320923,275.739380 746.863159,276.922913 
	C750.882263,290.649017 754.524231,304.371002 758.185425,318.506714 
	C756.734314,318.246613 755.064697,317.827972 753.824219,316.859680 
	C740.548706,306.496796 727.389648,295.984589 714.100769,285.639130 
	C701.593811,275.902313 688.956055,266.333801 676.405151,256.653229 
	C672.610718,253.726547 669.035522,250.500504 665.122620,247.748962 
	C663.106445,246.331177 660.569336,245.654327 658.069702,244.917053 
z"/>
<path fill="#FFFFFF" opacity="1.000000" stroke="none" 
	d="
M336.840210,189.270966 
	C343.923401,183.217728 350.816345,177.415482 357.811462,171.739166 
	C359.700043,170.206635 361.898376,169.055832 364.175781,167.448822 
	C368.385132,164.519287 372.373199,161.870758 376.674469,159.108368 
	C376.987671,158.994522 376.953003,158.963791 376.953003,158.963791 
	C374.677216,165.734039 372.401459,172.504303 369.921417,179.949890 
	C364.887238,194.090637 360.057343,207.556061 355.081604,221.372955 
	C351.237579,233.710663 347.539398,245.696915 343.596252,257.977051 
	C340.083984,270.460602 336.816650,282.650208 333.368103,295.161591 
	C331.460693,303.655640 329.734528,311.827942 328.008331,320.000244 
	C326.020020,330.064545 324.031738,340.128845 322.106232,350.598877 
	C321.004364,359.144501 319.839661,367.284393 318.593719,375.992218 
	C306.420166,375.992218 294.170502,375.992218 281.456970,376.067688 
	C267.189270,376.143158 253.385452,376.143158 238.459579,376.143158 
	C240.860580,364.626648 243.122269,353.778442 245.454987,342.528656 
	C250.377655,327.347565 255.229309,312.568054 260.135284,297.417297 
	C267.789398,282.606415 275.389221,268.166718 283.072205,253.383621 
	C292.176514,240.954178 301.197632,228.868164 310.398071,216.475494 
	C319.281067,207.302353 327.984711,198.435822 336.840210,189.270966 
z"/>
<path fill="#FF5666" opacity="1.000000" stroke="none" 
	d="
M328.407593,320.000366 
	C329.734528,311.827942 331.460693,303.655640 333.772156,295.207764 
	C338.321442,297.227417 342.624634,299.091156 346.189606,301.893890 
	C360.340851,313.019287 374.204193,324.510254 388.307770,335.697388 
	C391.817719,338.481537 395.827759,340.635284 399.607941,343.078796 
	C398.328857,351.125458 397.049805,359.172089 395.591736,367.623840 
	C389.897552,364.473389 384.134369,361.245361 378.917419,357.295837 
	C367.180756,348.410492 355.694763,339.192841 344.151245,330.054230 
	C340.776520,327.382629 337.674927,324.352020 334.199677,321.828064 
	C332.733185,320.763000 330.623962,320.582855 328.407593,320.000366 
z"/>
<path fill="#FF6C7A" opacity="1.000000" stroke="none" 
	d="
M355.227448,221.021484 
	C360.057343,207.556061 364.887238,194.090637 369.912170,180.316315 
	C373.946838,182.388489 378.033875,184.450684 381.584045,187.204926 
	C398.387817,200.241440 415.044952,213.466995 431.947693,226.919952 
	C427.732361,240.669403 423.323669,254.124100 418.379883,267.752563 
	C412.727814,264.039734 407.545471,260.235687 402.507843,256.248810 
	C392.833252,248.592178 383.385162,240.641449 373.559509,233.186569 
	C367.728729,228.762650 361.356323,225.052551 355.227448,221.021484 
z"/>
<path fill="#FFFFFF" opacity="1.000000" stroke="none" 
	d="
M377.000366,159.013748 
	C377.082977,159.003555 377.152893,158.974136 377.087921,158.954254 
	C376.953003,158.963791 376.987671,158.994522 377.000366,159.013748 
z"/>
<path fill="#FF606F" opacity="1.000000" stroke="none" 
	d="
M355.081604,221.372955 
	C361.356323,225.052551 367.728729,228.762650 373.559509,233.186569 
	C383.385162,240.641449 392.833252,248.592178 402.507843,256.248810 
	C407.545471,260.235687 412.727814,264.039734 418.207092,268.056702 
	C414.958771,281.061646 411.348114,293.936188 407.336609,306.786011 
	C405.987366,305.856110 405.112518,304.855042 404.078430,304.061462 
	C397.797241,299.241058 391.450287,294.506226 385.180542,289.671173 
	C371.383301,279.031128 357.618958,268.348450 343.841187,257.683167 
	C347.539398,245.696915 351.237579,233.710663 355.081604,221.372955 
z"/>
<path fill="#FF5C6C" opacity="1.000000" stroke="none" 
	d="
M343.596252,257.977051 
	C357.618958,268.348450 371.383301,279.031128 385.180542,289.671173 
	C391.450287,294.506226 397.797241,299.241058 404.078430,304.061462 
	C405.112518,304.855042 405.987366,305.856110 407.111389,307.100922 
	C404.823425,319.099640 402.359863,330.758667 399.752136,342.748260 
	C395.827759,340.635284 391.817719,338.481537 388.307770,335.697388 
	C374.204193,324.510254 360.340851,313.019287 346.189606,301.893890 
	C342.624634,299.091156 338.321442,297.227417 333.953400,294.886017 
	C336.816650,282.650208 340.083984,270.460602 343.596252,257.977051 
z"/>
</svg>