<svg version="1.1" id="Layer_1" xmlns="http://www.w3.org/2000/svg" xmlns:xlink="http://www.w3.org/1999/xlink" x="0px" y="0px"
	 width="100%" viewBox="0 0 920 704" enable-background="new 0 0 920 704" xml:space="preserve">
<path fill="#FFFFFF" opacity="1.000000" stroke="none" 
	d="
M543.000000,705.000000 
	C362.000061,705.000000 181.500107,705.000000 1.000121,705.000000 
	C1.000081,470.333466 1.000081,235.666916 1.000040,1.000278 
	C307.666443,1.000186 614.332886,1.000186 920.999512,1.000093 
	C920.999634,235.666382 920.999634,470.332764 920.999817,704.999573 
	C795.166687,705.000000 669.333313,705.000000 543.000000,705.000000 
M383.020020,567.964966 
	C383.020020,567.964966 383.114929,567.918701 382.836029,567.298340 
	C381.584656,566.488281 380.333282,565.678223 379.023773,564.959534 
	C379.023773,564.959534 379.121552,564.913147 378.841888,564.297119 
	C376.911499,562.821350 374.981110,561.345642 372.768250,559.255310 
	C364.198364,550.829590 355.628510,542.403870 346.800476,533.357971 
	C321.303497,507.733734 295.966064,481.948029 270.254028,456.541412 
	C252.785736,439.280579 235.914307,421.627411 223.687180,399.326385 
	C214.552490,382.491882 207.302277,364.957123 203.939987,345.187378 
	C200.628189,328.607880 199.683228,311.871918 200.860565,294.145691 
	C203.640594,279.452972 206.420624,264.760284 209.698471,249.559052 
	C215.229004,237.074768 220.759521,224.590485 226.820267,211.713730 
	C232.766968,203.230057 238.713669,194.746384 245.216965,185.970474 
	C248.658081,182.258942 252.099197,178.547394 256.141418,174.187531 
	C257.750305,176.127365 258.812927,177.625397 260.087799,178.913361 
	C281.691040,200.738800 303.319427,222.539383 324.945892,244.341812 
	C327.752441,247.171173 330.724609,249.856323 333.304230,252.877914 
	C334.038513,253.737976 333.658539,255.549301 333.204712,257.211212 
	C328.065063,262.449158 322.925446,267.687103 317.197571,273.205505 
	C312.735413,277.769775 308.273254,282.334045 303.216461,287.184906 
	C296.173218,294.464264 289.129944,301.743622 281.466156,309.322296 
	C278.659271,314.548981 275.852386,319.775696 272.569092,325.652985 
	C270.810852,331.804382 270.492249,337.953186 272.791077,344.841949 
	C274.790070,354.342499 281.319611,360.898315 287.779419,367.371002 
	C339.558716,419.253143 391.299591,471.174683 443.314758,522.819763 
	C457.349670,536.754822 481.726501,537.434021 497.739716,520.017883 
	C501.209503,516.449585 504.679321,512.881348 508.757050,509.001923 
	C512.890320,504.772064 517.023560,500.542206 521.764038,496.001282 
	C528.285156,489.381378 534.806274,482.761475 541.907593,475.853851 
	C544.009827,473.286560 546.112000,470.719238 548.377869,467.952087 
	C550.734436,470.198853 552.058899,471.410339 553.327087,472.678223 
	C587.595520,506.936462 621.840149,541.218506 656.130615,575.454712 
	C669.714783,589.017273 691.139160,590.195923 706.770203,578.069031 
	C710.177917,573.379395 713.585632,568.689819 717.394043,563.343018 
	C722.442993,549.360596 721.949097,535.539001 711.600708,524.555725 
	C693.008362,504.822632 673.349976,486.093872 653.847717,466.335510 
	C627.588867,440.060242 601.525879,413.584564 574.967346,387.615784 
	C565.351746,378.213684 553.280090,375.219696 539.205383,378.919067 
	C538.562256,379.061768 537.903076,379.154449 537.278381,379.354645 
	C524.654480,383.400391 517.179382,393.762360 508.018158,403.043182 
	C505.028992,406.118988 502.039795,409.194824 498.469269,412.541382 
	C493.239807,417.880524 488.010345,423.219666 482.179718,428.885040 
	C478.206360,433.327179 474.233032,437.769348 470.053314,442.442261 
	C467.613312,440.155731 466.272247,438.967224 465.006775,437.703064 
	C441.822113,414.542175 418.646423,391.372284 395.469025,368.204132 
	C385.351013,358.090057 375.180450,348.027222 365.196381,337.782562 
	C364.179565,336.739227 364.284882,334.602295 364.495270,332.698181 
	C369.188385,327.872101 373.881500,323.046021 379.155701,317.963593 
	C384.092712,312.936310 389.029724,307.909027 394.576630,302.634460 
	C400.066193,296.794434 405.555756,290.954407 411.716064,284.959595 
	C417.499329,280.529388 421.935242,275.123047 424.518036,267.452667 
	C427.738129,258.105469 427.726868,248.892624 423.206818,239.153534 
	C420.918488,235.711945 419.125061,231.778839 416.267883,228.902252 
	C371.316345,183.644989 326.300446,138.450958 281.123260,93.419014 
	C268.795746,81.131134 247.788223,80.229332 233.262085,90.930626 
	C228.079086,96.066437 222.896072,101.202248 217.086182,106.644691 
	C212.601059,111.169518 208.115936,115.694336 203.046692,120.600769 
	C196.644150,127.715691 190.241608,134.830612 183.255569,142.251999 
	C177.454803,150.480240 171.654037,158.708481 165.271484,167.286011 
	C159.377579,178.585724 153.483658,189.885422 147.139832,201.786102 
	C142.354797,216.182831 137.569763,230.579544 132.348114,245.590027 
	C130.196793,259.391296 128.045471,273.192566 125.563812,287.753448 
	C125.575287,300.827087 125.586761,313.900757 125.496635,327.904785 
	C127.968575,342.610443 130.440506,357.316132 132.889801,372.839172 
	C137.428986,386.268097 141.968155,399.697021 146.745544,413.847931 
	C146.924652,414.483215 147.019226,415.158051 147.295013,415.748138 
	C159.697403,442.285309 174.876404,467.071777 195.472275,488.049072 
	C233.023209,526.295471 270.868652,564.254395 308.764648,602.159912 
	C338.556183,631.958923 373.507080,653.540283 413.659027,666.488098 
	C437.164215,674.067810 461.131500,679.196716 486.830841,679.220825 
	C497.274933,678.983154 507.719055,678.745544 519.063721,678.553101 
	C531.711060,676.411499 544.358398,674.269897 557.810486,672.163330 
	C567.547546,669.133667 577.284668,666.103943 587.782043,663.056946 
	C601.186768,656.701111 614.591492,650.345337 628.693054,643.902527 
	C637.151062,638.469971 645.609070,633.037415 653.730042,627.821350 
	C635.163025,609.186523 617.389954,591.348511 600.014587,573.909729 
	C588.008240,579.840088 575.858398,585.841309 562.955505,591.887390 
	C547.452271,597.708252 531.393311,601.177734 514.164734,603.127258 
	C507.469452,603.729858 500.773438,604.810425 494.079041,604.800659 
	C487.384674,604.790955 480.691895,603.690918 473.191101,602.820068 
	C468.484741,602.103699 463.763977,601.470032 459.074677,600.655579 
	C444.542480,598.131653 430.517395,593.749268 417.253601,587.430542 
	C406.913696,582.504700 397.122864,576.426392 387.026886,570.953613 
	C387.026886,570.953613 387.128174,570.906799 386.843842,570.287598 
	C385.588043,569.483643 384.332275,568.679688 383.020020,567.964966 
M431.216949,101.921593 
	C431.289978,108.623367 431.363007,115.325150 431.238129,122.938911 
	C431.307770,132.297241 431.377380,141.655563 431.240356,151.929886 
	C431.210480,158.422958 430.806946,164.942368 431.262360,171.401215 
	C431.667023,177.140091 432.180054,183.115906 434.105133,188.461365 
	C443.222504,213.777893 478.989105,220.814926 496.572021,200.613785 
	C502.975861,193.659241 506.470703,185.500076 506.914032,175.084747 
	C506.867096,168.725159 506.820129,162.365555 506.913818,155.078476 
	C506.869965,148.722290 506.826111,142.366119 506.920502,135.081039 
	C506.873444,124.724968 506.826416,114.368904 506.921936,103.082336 
	C506.880829,94.395393 506.839722,85.708458 506.937073,76.093178 
	C507.615936,64.914780 506.124054,54.398987 499.078918,45.057232 
	C488.395752,30.891443 466.382751,25.988859 451.279236,35.035820 
	C443.892242,38.785576 438.455139,44.389938 434.746857,52.642670 
	C430.436462,61.723011 430.795776,71.351601 431.212524,81.928055 
	C431.283661,88.286827 431.354767,94.645599 431.216949,101.921593 
M702.049316,297.156982 
	C689.026794,297.212097 676.004211,297.267212 662.060608,297.161530 
	C656.267273,297.136261 650.472046,297.006195 644.681213,297.114838 
	C638.773560,297.225677 632.870300,297.571045 626.100037,297.787750 
	C611.481750,298.596771 598.730652,308.280243 593.886719,322.746399 
	C586.065674,346.036224 600.712830,369.655334 625.075012,372.030975 
	C635.957336,373.092133 647.002136,372.487457 658.893799,372.835449 
	C678.253784,372.773956 697.613708,372.712463 717.898682,372.841888 
	C723.543274,372.861237 729.235596,373.343292 734.818665,372.766968 
	C740.159973,372.215576 745.387756,370.563904 751.300171,369.251617 
	C759.251709,366.054565 765.197388,360.682220 769.530457,352.523621 
	C773.544128,344.372925 774.898193,335.939117 772.997986,326.909973 
	C770.002869,312.678345 756.834961,299.098511 743.291931,298.155487 
	C729.896851,297.222717 716.414734,297.538055 702.049316,297.156982 
M661.695435,193.671326 
	C662.835815,191.483276 664.315918,189.404526 665.060913,187.089233 
	C669.595581,172.997604 666.876526,160.378403 657.342712,149.020172 
	C644.056213,133.191040 614.990295,133.107849 601.429932,149.307281 
	C592.862671,158.031204 584.295410,166.755142 575.123535,175.807236 
	C566.352295,184.688065 557.581055,193.568909 548.186096,202.774582 
	C541.024597,209.981384 533.863159,217.188171 526.107971,224.749069 
	C509.942139,239.377777 506.673981,259.291626 517.755066,275.645996 
	C529.748230,293.346680 552.766663,298.024170 570.247314,285.854919 
	C575.337769,282.311157 579.475647,277.398926 584.652283,272.815002 
	C592.299072,264.947601 599.945862,257.080200 608.214539,249.054245 
	C617.022583,240.142822 625.830627,231.231400 635.197876,222.074554 
	C637.474548,219.892441 639.888977,217.835236 642.002136,215.504883 
	C648.438171,208.407578 654.757996,201.204880 661.695435,193.671326 
z"/>
<path fill="#F8373B" opacity="1.000000" stroke="none" 
	d="
M486.000000,679.003052 
	C461.131500,679.196716 437.164215,674.067810 413.659027,666.488098 
	C373.507080,653.540283 338.556183,631.958923 308.764648,602.159912 
	C270.868652,564.254395 233.023209,526.295471 195.472275,488.049072 
	C174.876404,467.071777 159.697403,442.285309 147.295013,415.748138 
	C147.019226,415.158051 146.924652,414.483215 147.030548,413.457520 
	C148.633499,413.630463 150.140289,413.949768 151.237183,414.798737 
	C156.475403,418.852997 161.571762,423.089813 166.774841,427.190338 
	C180.730423,438.188690 194.706772,449.160767 208.690247,460.123657 
	C219.368881,468.495575 230.069519,476.839447 240.763062,485.192322 
	C263.481354,502.937897 286.201355,520.681274 308.920624,538.425537 
	C321.251770,548.056458 333.588745,557.679993 345.910278,567.323242 
	C349.400787,570.055054 352.809326,572.892151 356.318970,575.598694 
	C366.013336,583.074585 375.806396,590.423950 385.440521,597.976257 
	C399.488831,608.988831 413.388000,620.191772 427.439941,631.199646 
	C434.159332,636.463379 441.170563,641.354553 447.893219,646.614319 
	C456.002014,652.958557 463.901855,659.569214 471.977081,665.957153 
	C476.123199,669.236938 480.526001,672.193970 484.641907,675.508972 
	C485.485443,676.188416 485.567139,677.813721 486.000000,679.003052 
z"/>
<path fill="#F9373F" opacity="1.000000" stroke="none" 
	d="
M486.415405,679.111938 
	C485.567139,677.813721 485.485443,676.188416 484.641907,675.508972 
	C480.526001,672.193970 476.123199,669.236938 471.977081,665.957153 
	C463.901855,659.569214 456.002014,652.958557 447.893219,646.614319 
	C441.170563,641.354553 434.159332,636.463379 427.439941,631.199646 
	C413.388000,620.191772 399.488831,608.988831 385.440521,597.976257 
	C375.806396,590.423950 366.013336,583.074585 356.318970,575.598694 
	C352.809326,572.892151 349.400787,570.055054 345.910278,567.323242 
	C333.588745,557.679993 321.251770,548.056458 308.920624,538.425537 
	C286.201355,520.681274 263.481354,502.937897 240.763062,485.192322 
	C230.069519,476.839447 219.368881,468.495575 208.690247,460.123657 
	C194.706772,449.160767 180.730423,438.188690 166.774841,427.190338 
	C161.571762,423.089813 156.475403,418.852997 151.237183,414.798737 
	C150.140289,413.949768 148.633499,413.630463 146.911453,413.096527 
	C141.968155,399.697021 137.428986,386.268097 133.293045,372.424683 
	C135.917297,372.976685 138.425095,373.562897 140.305649,374.980927 
	C145.982162,379.261261 151.297958,384.019196 156.964691,388.313416 
	C174.079697,401.283142 191.407593,413.974152 208.428909,427.064545 
	C219.322525,435.442444 229.782288,444.382507 240.507385,452.982147 
	C250.440903,460.947144 260.441650,468.829041 270.463165,476.683258 
	C278.883057,483.282257 287.367218,489.799438 295.837830,496.333527 
	C307.177704,505.080963 318.540588,513.798523 329.874542,522.553650 
	C333.138336,525.074829 336.216064,527.856079 339.606720,530.187012 
	C341.883392,531.752258 344.560608,532.734863 347.058624,533.978149 
	C355.628510,542.403870 364.198364,550.829590 372.899658,559.948486 
	C373.360565,564.490295 376.176300,564.794067 379.121552,564.913147 
	C379.121552,564.913147 379.023773,564.959534 379.063751,565.286133 
	C380.440796,566.381409 381.777863,567.150024 383.114929,567.918701 
	C383.114929,567.918701 383.020020,567.964966 383.061279,568.292480 
	C384.444458,569.382263 385.786316,570.144531 387.128174,570.906799 
	C387.128174,570.906799 387.026886,570.953613 387.059998,571.263428 
	C388.577881,573.301147 389.843628,575.301758 391.589630,576.704468 
	C396.350403,580.529358 401.375702,584.023010 406.185974,587.788635 
	C422.215759,600.337158 438.147064,613.011780 454.210297,625.517151 
	C472.874451,640.047424 491.732910,654.330383 510.265930,669.024780 
	C513.392761,671.504028 518.392334,673.006470 518.163147,678.507874 
	C507.719055,678.745544 497.274933,678.983154 486.415405,679.111938 
z"/>
<path fill="#FF6170" opacity="1.000000" stroke="none" 
	d="
M654.137085,466.945435 
	C673.349976,486.093872 693.008362,504.822632 711.600708,524.555725 
	C721.949097,535.539001 722.442993,549.360596 716.844971,563.635498 
	C708.026733,557.614380 699.690979,551.385681 691.503967,544.967285 
	C679.267090,535.374084 667.219299,525.538635 654.933655,516.009033 
	C643.559998,507.186829 631.883911,498.754364 620.514587,489.926697 
	C606.414612,478.978760 592.504517,467.786682 578.491882,456.726013 
	C563.946838,445.245117 549.437073,433.718079 534.795654,422.361115 
	C526.177490,415.676270 517.333252,409.282898 508.590698,402.758423 
	C517.179382,393.762360 524.654480,383.400391 537.278381,379.354645 
	C537.903076,379.154449 538.562256,379.061768 539.734314,379.234070 
	C545.498047,383.856079 550.658813,388.257111 555.981445,392.452759 
	C572.886353,405.778412 589.877686,418.994263 606.784424,432.317566 
	C618.358582,441.438538 629.730225,450.821442 641.441223,459.761108 
	C645.270142,462.683929 649.882812,464.579865 654.137085,466.945435 
z"/>
<path fill="#FE5061" opacity="1.000000" stroke="none" 
	d="
M282.086700,309.022949 
	C289.129944,301.743622 296.173218,294.464264 303.840332,287.185303 
	C305.328979,287.675079 306.269684,288.066345 307.047333,288.668274 
	C323.472351,301.381561 339.884003,314.112183 356.283997,326.857758 
	C358.847961,328.850433 361.342712,330.932220 363.869446,332.972809 
	C364.284882,334.602295 364.179565,336.739227 365.196381,337.782562 
	C375.180450,348.027222 385.351013,358.090057 395.469025,368.204132 
	C418.646423,391.372284 441.822113,414.542175 465.006775,437.703064 
	C466.272247,438.967224 467.613312,440.155731 470.053314,442.442261 
	C474.233032,437.769348 478.206360,433.327179 482.632996,429.065125 
	C493.408539,437.505829 503.749023,445.743805 514.047668,454.033752 
	C523.165100,461.372955 532.235962,468.770020 541.327393,476.141541 
	C534.806274,482.761475 528.285156,489.381378 521.314453,495.819305 
	C519.981323,494.463531 519.298828,493.033661 518.182007,492.156921 
	C510.123688,485.830719 501.930298,479.676636 493.868805,473.354431 
	C476.553009,459.774506 459.319977,446.089111 441.996674,432.518921 
	C430.151031,423.239624 418.194183,414.102478 406.316772,404.863617 
	C395.749146,396.643646 385.231812,388.358948 374.674561,380.125549 
	C365.547363,373.007477 356.403473,365.910767 347.251587,358.824371 
	C339.011200,352.443695 330.687439,346.169006 322.514557,339.703339 
	C313.308868,332.420654 304.321808,324.859619 295.055573,317.656403 
	C290.966522,314.477722 286.423584,311.882874 282.086700,309.022949 
z"/>
<path fill="#FD4555" opacity="1.000000" stroke="none" 
	d="
M497.130005,520.336548 
	C481.726501,537.434021 457.349670,536.754822 443.314758,522.819763 
	C391.299591,471.174683 339.558716,419.253143 287.779419,367.371002 
	C281.319611,360.898315 274.790070,354.342499 273.095642,344.446716 
	C275.436951,345.048523 277.644348,345.804169 279.472382,347.096497 
	C282.573242,349.288483 285.402374,351.860596 288.402649,354.199982 
	C300.801239,363.867432 313.283417,373.428741 325.619049,383.175598 
	C345.467682,398.858704 365.152710,414.749268 385.040955,430.381592 
	C404.294983,445.515381 423.709808,460.444763 443.070068,475.443207 
	C457.419922,486.560150 471.943695,497.460175 486.066559,508.857666 
	C490.143127,512.147583 496.009033,514.072388 497.130005,520.336548 
z"/>
<path fill="#FA3A44" opacity="1.000000" stroke="none" 
	d="
M346.929565,533.668091 
	C344.560608,532.734863 341.883392,531.752258 339.606720,530.187012 
	C336.216064,527.856079 333.138336,525.074829 329.874542,522.553650 
	C318.540588,513.798523 307.177704,505.080963 295.837830,496.333527 
	C287.367218,489.799438 278.883057,483.282257 270.463165,476.683258 
	C260.441650,468.829041 250.440903,460.947144 240.507385,452.982147 
	C229.782288,444.382507 219.322525,435.442444 208.428909,427.064545 
	C191.407593,413.974152 174.079697,401.283142 156.964691,388.313416 
	C151.297958,384.019196 145.982162,379.261261 140.305649,374.980927 
	C138.425095,373.562897 135.917297,372.976685 133.304367,372.015991 
	C130.440506,357.316132 127.968575,342.610443 125.950424,327.450226 
	C131.909592,330.474152 137.683228,333.596893 142.865158,337.504333 
	C154.060806,345.946411 164.975067,354.763092 175.963776,363.477844 
	C190.730377,375.188721 205.444702,386.965637 220.235489,398.645782 
	C221.189468,399.399170 222.605988,399.566864 223.807343,400.007019 
	C235.914307,421.627411 252.785736,439.280579 270.254028,456.541412 
	C295.966064,481.948029 321.303497,507.733734 346.929565,533.668091 
z"/>
<path fill="#FF5666" opacity="1.000000" stroke="none" 
	d="
M541.617493,475.997681 
	C532.235962,468.770020 523.165100,461.372955 514.047668,454.033752 
	C503.749023,445.743805 493.408539,437.505829 482.933563,428.902039 
	C488.010345,423.219666 493.239807,417.880524 498.789978,412.732422 
	C499.449066,413.485901 499.664917,414.199432 500.144196,414.588257 
	C507.732544,420.745148 515.294250,426.937439 522.982178,432.968414 
	C537.184326,444.109528 551.478088,455.133698 565.709717,466.237183 
	C586.600403,482.536133 607.492981,498.832764 628.339905,515.187622 
	C640.199158,524.491577 651.909729,533.985535 663.796875,543.253357 
	C674.628479,551.698242 685.717285,559.816162 696.461060,568.369202 
	C700.049866,571.226135 702.923401,574.981567 706.123840,578.326355 
	C691.139160,590.195923 669.714783,589.017273 656.130615,575.454712 
	C621.840149,541.218506 587.595520,506.936462 553.327087,472.678223 
	C552.058899,471.410339 550.734436,470.198853 548.377869,467.952087 
	C546.112000,470.719238 544.009827,473.286560 541.617493,475.997681 
z"/>
<path fill="#FF6170" opacity="1.000000" stroke="none" 
	d="
M183.839081,141.945541 
	C190.241608,134.830612 196.644150,127.715691 203.493118,120.789566 
	C204.930740,122.092072 205.777252,123.391991 206.934937,124.291428 
	C222.889404,136.686874 238.968674,148.922913 254.852692,161.407516 
	C274.634094,176.955383 294.190643,192.789383 313.980774,208.326004 
	C329.735199,220.694336 345.698273,232.796829 361.561676,245.026428 
	C377.300812,257.160217 393.049194,269.282196 408.725372,281.496796 
	C409.791199,282.327271 410.285339,283.891418 411.045349,285.114380 
	C405.555756,290.954407 400.066193,296.794434 394.222229,302.429077 
	C390.384430,299.222931 387.018829,296.070862 383.396240,293.248657 
	C370.786377,283.425018 358.153046,273.628479 345.380493,264.018585 
	C341.777344,261.307617 337.667175,259.270569 333.789551,256.924408 
	C333.658539,255.549301 334.038513,253.737976 333.304230,252.877914 
	C330.724609,249.856323 327.752441,247.171173 324.945892,244.341812 
	C303.319427,222.539383 281.691040,200.738800 260.087799,178.913361 
	C258.812927,177.625397 257.750305,176.127365 256.141418,174.187531 
	C252.099197,178.547394 248.658081,182.258942 244.573456,185.971741 
	C239.192368,182.366837 234.418106,178.807678 229.724640,175.145004 
	C218.754822,166.584457 207.937042,157.823547 196.816467,149.464737 
	C192.848526,146.482239 188.185074,144.425064 183.839081,141.945541 
z"/>
<path fill="#FE4B5B" opacity="1.000000" stroke="none" 
	d="
M281.776428,309.172607 
	C286.423584,311.882874 290.966522,314.477722 295.055573,317.656403 
	C304.321808,324.859619 313.308868,332.420654 322.514557,339.703339 
	C330.687439,346.169006 339.011200,352.443695 347.251587,358.824371 
	C356.403473,365.910767 365.547363,373.007477 374.674561,380.125549 
	C385.231812,388.358948 395.749146,396.643646 406.316772,404.863617 
	C418.194183,414.102478 430.151031,423.239624 441.996674,432.518921 
	C459.319977,446.089111 476.553009,459.774506 493.868805,473.354431 
	C501.930298,479.676636 510.123688,485.830719 518.182007,492.156921 
	C519.298828,493.033661 519.981323,494.463531 521.010864,495.974854 
	C517.023560,500.542206 512.890320,504.772064 508.306580,508.830414 
	C497.564850,500.102844 487.425690,491.354828 476.937988,483.046814 
	C467.217377,475.346497 456.996338,468.280121 447.224121,460.642242 
	C431.188812,448.109161 415.382843,435.283081 399.395630,422.687866 
	C387.181213,413.064972 374.804352,403.648499 362.558868,394.064728 
	C351.872406,385.701141 341.304932,377.185608 330.619232,368.821075 
	C316.673096,357.904388 302.702026,347.018585 288.658173,336.228149 
	C283.577972,332.324799 278.256744,328.735168 273.045502,325.002380 
	C275.852386,319.775696 278.659271,314.548981 281.776428,309.172607 
z"/>
<path fill="#FF6B79" opacity="1.000000" stroke="none" 
	d="
M217.713058,106.338058 
	C222.896072,101.202248 228.079086,96.066437 233.637772,91.190941 
	C234.512878,92.290039 234.825638,93.362198 235.539368,93.933029 
	C248.845383,104.575226 262.134888,115.239952 275.560486,125.730255 
	C289.494568,136.617905 303.654114,147.217529 317.562897,158.136963 
	C335.909454,172.540421 354.050140,187.206055 372.388245,201.620377 
	C386.692413,212.863861 401.136383,223.930466 415.585114,234.988235 
	C418.005615,236.840668 420.767059,238.247604 423.370941,239.860382 
	C427.726868,248.892624 427.738129,258.105469 423.912811,267.692078 
	C419.005493,264.594604 414.718719,261.237823 410.398438,257.924652 
	C397.656097,248.152710 384.808533,238.515411 372.173401,228.606964 
	C356.283295,216.145950 340.619720,203.396240 324.751831,190.906555 
	C310.962708,180.053116 296.991455,169.431473 283.161560,158.629456 
	C263.722382,143.446228 244.322220,128.212845 224.953354,112.940056 
	C222.395218,110.922897 220.119553,108.547523 217.713058,106.338058 
z"/>
<path fill="#FF6674" opacity="1.000000" stroke="none" 
	d="
M217.399628,106.491379 
	C220.119553,108.547523 222.395218,110.922897 224.953354,112.940056 
	C244.322220,128.212845 263.722382,143.446228 283.161560,158.629456 
	C296.991455,169.431473 310.962708,180.053116 324.751831,190.906555 
	C340.619720,203.396240 356.283295,216.145950 372.173401,228.606964 
	C384.808533,238.515411 397.656097,248.152710 410.398438,257.924652 
	C414.718719,261.237823 419.005493,264.594604 423.655182,267.966125 
	C421.935242,275.123047 417.499329,280.529388 411.380707,285.036987 
	C410.285339,283.891418 409.791199,282.327271 408.725372,281.496796 
	C393.049194,269.282196 377.300812,257.160217 361.561676,245.026428 
	C345.698273,232.796829 329.735199,220.694336 313.980774,208.326004 
	C294.190643,192.789383 274.634094,176.955383 254.852692,161.407516 
	C238.968674,148.922913 222.889404,136.686874 206.934937,124.291428 
	C205.777252,123.391991 204.930740,122.092072 203.785187,120.598755 
	C208.115936,115.694336 212.601059,111.169518 217.399628,106.491379 
z"/>
<path fill="#FD4858" opacity="1.000000" stroke="none" 
	d="
M272.807312,325.327698 
	C278.256744,328.735168 283.577972,332.324799 288.658173,336.228149 
	C302.702026,347.018585 316.673096,357.904388 330.619232,368.821075 
	C341.304932,377.185608 351.872406,385.701141 362.558868,394.064728 
	C374.804352,403.648499 387.181213,413.064972 399.395630,422.687866 
	C415.382843,435.283081 431.188812,448.109161 447.224121,460.642242 
	C456.996338,468.280121 467.217377,475.346497 476.937988,483.046814 
	C487.425690,491.354828 497.564850,500.102844 508.002625,508.985962 
	C504.679321,512.881348 501.209503,516.449585 497.434875,520.177246 
	C496.009033,514.072388 490.143127,512.147583 486.066559,508.857666 
	C471.943695,497.460175 457.419922,486.560150 443.070068,475.443207 
	C423.709808,460.444763 404.294983,445.515381 385.040955,430.381592 
	C365.152710,414.749268 345.467682,398.858704 325.619049,383.175598 
	C313.283417,373.428741 300.801239,363.867432 288.402649,354.199982 
	C285.402374,351.860596 282.573242,349.288483 279.472382,347.096497 
	C277.644348,345.804169 275.436951,345.048523 273.001282,344.074585 
	C270.492249,337.953186 270.810852,331.804382 272.807312,325.327698 
z"/>
<path fill="#FF5A6A" opacity="1.000000" stroke="none" 
	d="
M706.447021,578.197693 
	C702.923401,574.981567 700.049866,571.226135 696.461060,568.369202 
	C685.717285,559.816162 674.628479,551.698242 663.796875,543.253357 
	C651.909729,533.985535 640.199158,524.491577 628.339905,515.187622 
	C607.492981,498.832764 586.600403,482.536133 565.709717,466.237183 
	C551.478088,455.133698 537.184326,444.109528 522.982178,432.968414 
	C515.294250,426.937439 507.732544,420.745148 500.144196,414.588257 
	C499.664917,414.199432 499.449066,413.485901 499.080627,412.597046 
	C502.039795,409.194824 505.028992,406.118988 508.304443,402.900818 
	C517.333252,409.282898 526.177490,415.676270 534.795654,422.361115 
	C549.437073,433.718079 563.946838,445.245117 578.491882,456.726013 
	C592.504517,467.786682 606.414612,478.978760 620.514587,489.926697 
	C631.883911,498.754364 643.559998,507.186829 654.933655,516.009033 
	C667.219299,525.538635 679.267090,535.374084 691.503967,544.967285 
	C699.690979,551.385681 708.026733,557.614380 716.644653,563.964050 
	C713.585632,568.689819 710.177917,573.379395 706.447021,578.197693 
z"/>
<path fill="#FF717E" opacity="1.000000" stroke="none" 
	d="
M423.288879,239.506958 
	C420.767059,238.247604 418.005615,236.840668 415.585114,234.988235 
	C401.136383,223.930466 386.692413,212.863861 372.388245,201.620377 
	C354.050140,187.206055 335.909454,172.540421 317.562897,158.136963 
	C303.654114,147.217529 289.494568,136.617905 275.560486,125.730255 
	C262.134888,115.239952 248.845383,104.575226 235.539368,93.933029 
	C234.825638,93.362198 234.512878,92.290039 233.966370,91.080177 
	C247.788223,80.229332 268.795746,81.131134 281.123260,93.419014 
	C326.300446,138.450958 371.316345,183.644989 416.267883,228.902252 
	C419.125061,231.778839 420.918488,235.711945 423.288879,239.506958 
z"/>
<path fill="#FF7E88" opacity="1.000000" stroke="none" 
	d="
M594.191589,322.019653 
	C598.730652,308.280243 611.481750,298.596771 626.569641,298.163696 
	C628.313171,300.003143 629.398376,301.704376 630.892456,302.890656 
	C639.165771,309.459747 647.564392,315.870636 655.872009,322.396881 
	C673.914917,336.570984 691.972046,350.727783 709.907593,365.036743 
	C712.584229,367.172150 714.633911,370.093323 716.973633,372.651001 
	C697.613708,372.712463 678.253784,372.773956 658.429688,372.398956 
	C656.262451,369.808990 654.894592,367.234497 652.802734,365.569519 
	C637.676208,353.529602 622.480896,341.572174 607.123901,329.828491 
	C603.147766,326.787933 598.520020,324.599487 594.191589,322.019653 
z"/>
<path fill="#FA3A44" opacity="1.000000" stroke="none" 
	d="
M518.613403,678.530518 
	C518.392334,673.006470 513.392761,671.504028 510.265930,669.024780 
	C491.732910,654.330383 472.874451,640.047424 454.210297,625.517151 
	C438.147064,613.011780 422.215759,600.337158 406.185974,587.788635 
	C401.375702,584.023010 396.350403,580.529358 391.589630,576.704468 
	C389.843628,575.301758 388.577881,573.301147 387.090546,571.216797 
	C397.122864,576.426392 406.913696,582.504700 417.253601,587.430542 
	C430.517395,593.749268 444.542480,598.131653 459.074677,600.655579 
	C463.763977,601.470032 468.484741,602.103699 473.632629,603.284912 
	C475.963257,605.790466 477.616974,608.134644 479.784607,609.816528 
	C486.952087,615.377808 494.416016,620.557922 501.564209,626.142883 
	C517.438843,638.545837 533.357300,650.905640 548.843140,663.781738 
	C551.709290,666.164856 557.171326,666.620422 557.005737,672.128235 
	C544.358398,674.269897 531.711060,676.411499 518.613403,678.530518 
z"/>
<path fill="#FC404F" opacity="1.000000" stroke="none" 
	d="
M514.997437,603.221863 
	C531.393311,601.177734 547.452271,597.708252 563.658936,592.022095 
	C574.704773,600.171204 585.040894,608.193787 595.391724,616.197388 
	C604.562500,623.288635 613.829407,630.259277 622.869751,637.512695 
	C624.963196,639.192322 626.307373,641.805786 627.996277,643.989563 
	C614.591492,650.345337 601.186768,656.701111 587.362549,662.713867 
	C582.278564,658.242615 577.779236,653.906677 572.910645,650.035034 
	C565.681152,644.285950 558.110291,638.967957 550.832031,633.278076 
	C542.628906,626.865295 534.523438,620.322876 526.506165,613.679077 
	C522.519226,610.375244 518.824402,606.718811 514.997437,603.221863 
z"/>
<path fill="#FD4858" opacity="1.000000" stroke="none" 
	d="
M132.784729,244.976273 
	C137.569763,230.579544 142.354797,216.182831 147.539886,201.853821 
	C168.360184,217.970200 188.780411,234.018875 209.200653,250.067566 
	C206.420624,264.760284 203.640594,279.452972 200.395538,294.571289 
	C198.575302,294.424255 197.011490,294.116730 195.896439,293.239014 
	C181.129028,281.614990 166.504761,269.807831 151.665802,258.276672 
	C145.593658,253.558090 139.091354,249.393097 132.784729,244.976273 
z"/>
<path fill="#FC404F" opacity="1.000000" stroke="none" 
	d="
M132.566422,245.283142 
	C139.091354,249.393097 145.593658,253.558090 151.665802,258.276672 
	C166.504761,269.807831 181.129028,281.614990 195.896439,293.239014 
	C197.011490,294.116730 198.575302,294.424255 200.276794,295.004089 
	C199.683228,311.871918 200.628189,328.607880 203.566132,345.552856 
	C198.800247,342.746735 194.299805,339.713745 190.035477,336.378845 
	C174.059753,323.885254 158.205719,311.235840 142.208557,298.769928 
	C136.921875,294.650238 131.340683,290.908417 125.894157,286.993835 
	C128.045471,273.192566 130.196793,259.391296 132.566422,245.283142 
z"/>
<path fill="#FB3D4A" opacity="1.000000" stroke="none" 
	d="
M125.728989,287.373657 
	C131.340683,290.908417 136.921875,294.650238 142.208557,298.769928 
	C158.205719,311.235840 174.059753,323.885254 190.035477,336.378845 
	C194.299805,339.713745 198.800247,342.746735 203.532471,345.960510 
	C207.302277,364.957123 214.552490,382.491882 223.747253,399.666687 
	C222.605988,399.566864 221.189468,399.399170 220.235489,398.645782 
	C205.444702,386.965637 190.730377,375.188721 175.963776,363.477844 
	C164.975067,354.763092 154.060806,345.946411 142.865158,337.504333 
	C137.683228,333.596893 131.909592,330.474152 126.001228,326.985046 
	C125.586761,313.900757 125.575287,300.827087 125.728989,287.373657 
z"/>
<path fill="#FE5061" opacity="1.000000" stroke="none" 
	d="
M209.449554,249.813309 
	C188.780411,234.018875 168.360184,217.970200 147.764832,201.553329 
	C153.483658,189.885422 159.377579,178.585724 165.926056,167.159668 
	C173.906967,172.375580 181.318512,177.605499 188.540771,183.084915 
	C201.185120,192.677948 213.713257,202.424149 226.290070,212.106201 
	C220.759521,224.590485 215.229004,237.074768 209.449554,249.813309 
z"/>
<path fill="#FF7E88" opacity="1.000000" stroke="none" 
	d="
M584.050171,273.113953 
	C579.475647,277.398926 575.337769,282.311157 570.247314,285.854919 
	C552.766663,298.024170 529.748230,293.346680 517.755066,275.645996 
	C506.673981,259.291626 509.942139,239.377777 526.563171,224.937927 
	C533.534241,230.673935 539.879272,236.438644 546.604187,241.719543 
	C558.011536,250.677368 569.706055,259.269104 581.143433,268.189606 
	C582.541931,269.280334 583.101746,271.446289 584.050171,273.113953 
z"/>
<path fill="#FF8F96" opacity="1.000000" stroke="none" 
	d="
M548.809814,202.449738 
	C557.581055,193.568909 566.352295,184.688065 575.610413,175.984940 
	C595.611084,191.548431 615.124939,206.934219 634.638733,222.320007 
	C625.830627,231.231400 617.022583,240.142822 607.540894,248.997528 
	C588.458801,234.566498 570.040405,220.204819 551.665955,205.787125 
	C550.536438,204.900848 549.753845,203.572449 548.809814,202.449738 
z"/>
<path fill="#FF9A9F" opacity="1.000000" stroke="none" 
	d="
M634.918335,222.197281 
	C615.124939,206.934219 595.611084,191.548431 575.912720,175.820862 
	C584.295410,166.755142 592.862671,158.031204 602.039307,149.298157 
	C603.750610,150.011230 604.905884,150.664108 605.946350,151.466003 
	C624.346863,165.647614 642.733459,179.847382 661.123047,194.043213 
	C654.757996,201.204880 648.438171,208.407578 642.002136,215.504883 
	C639.888977,217.835236 637.474548,219.892441 634.918335,222.197281 
z"/>
<path fill="#FF858F" opacity="1.000000" stroke="none" 
	d="
M717.436157,372.746460 
	C714.633911,370.093323 712.584229,367.172150 709.907593,365.036743 
	C691.972046,350.727783 673.914917,336.570984 655.872009,322.396881 
	C647.564392,315.870636 639.165771,309.459747 630.892456,302.890656 
	C629.398376,301.704376 628.313171,300.003143 627.002197,298.176666 
	C632.870300,297.571045 638.773560,297.225677 644.681213,297.114838 
	C650.472046,297.006195 656.267273,297.136261 662.533081,297.583557 
	C663.871704,299.356506 664.454956,301.066650 665.646118,302.004761 
	C684.860107,317.136078 704.196533,332.111847 723.405396,347.249603 
	C732.599609,354.495178 741.585266,362.005463 750.665405,369.395874 
	C745.387756,370.563904 740.159973,372.215576 734.818665,372.766968 
	C729.235596,373.343292 723.543274,372.861237 717.436157,372.746460 
z"/>
<path fill="#FD4858" opacity="1.000000" stroke="none" 
	d="
M628.344666,643.946045 
	C626.307373,641.805786 624.963196,639.192322 622.869751,637.512695 
	C613.829407,630.259277 604.562500,623.288635 595.391724,616.197388 
	C585.040894,608.193787 574.704773,600.171204 564.035400,591.999695 
	C575.858398,585.841309 588.008240,579.840088 600.014587,573.909729 
	C617.389954,591.348511 635.163025,609.186523 653.730042,627.821350 
	C645.609070,633.037415 637.151062,638.469971 628.344666,643.946045 
z"/>
<path fill="#FF8B93" opacity="1.000000" stroke="none" 
	d="
M750.982788,369.323730 
	C741.585266,362.005463 732.599609,354.495178 723.405396,347.249603 
	C704.196533,332.111847 684.860107,317.136078 665.646118,302.004761 
	C664.454956,301.066650 663.871704,299.356506 662.993652,297.663940 
	C676.004211,297.267212 689.026794,297.212097 702.524963,297.575256 
	C703.637085,299.099213 704.015320,300.538116 704.948303,301.261108 
	C721.232544,313.879608 737.681946,326.287079 753.867493,339.029968 
	C759.231873,343.253357 763.955627,348.290588 768.972229,352.955750 
	C765.197388,360.682220 759.251709,366.054565 750.982788,369.323730 
z"/>
<path fill="#FB3D4A" opacity="1.000000" stroke="none" 
	d="
M514.581055,603.174561 
	C518.824402,606.718811 522.519226,610.375244 526.506165,613.679077 
	C534.523438,620.322876 542.628906,626.865295 550.832031,633.278076 
	C558.110291,638.967957 565.681152,644.285950 572.910645,650.035034 
	C577.779236,653.906677 582.278564,658.242615 586.982422,662.722534 
	C577.284668,666.103943 567.547546,669.133667 557.408081,672.145752 
	C557.171326,666.620422 551.709290,666.164856 548.843140,663.781738 
	C533.357300,650.905640 517.438843,638.545837 501.564209,626.142883 
	C494.416016,620.557922 486.952087,615.377808 479.784607,609.816528 
	C477.616974,608.134644 475.963257,605.790466 474.036285,603.409241 
	C480.691895,603.690918 487.384674,604.790955 494.079041,604.800659 
	C500.773438,604.810425 507.469452,603.729858 514.581055,603.174561 
z"/>
<path fill="#FF5A6A" opacity="1.000000" stroke="none" 
	d="
M226.555176,211.909958 
	C213.713257,202.424149 201.185120,192.677948 188.540771,183.084915 
	C181.318512,177.605499 173.906967,172.375580 166.216949,166.985016 
	C171.654037,158.708481 177.454803,150.480240 183.547333,142.098770 
	C188.185074,144.425064 192.848526,146.482239 196.816467,149.464737 
	C207.937042,157.823547 218.754822,166.584457 229.724640,175.145004 
	C234.418106,178.807678 239.192368,182.366837 244.295151,186.117859 
	C238.713669,194.746384 232.766968,203.230057 226.555176,211.909958 
z"/>
<path fill="#FF858F" opacity="1.000000" stroke="none" 
	d="
M548.497925,202.612152 
	C549.753845,203.572449 550.536438,204.900848 551.665955,205.787125 
	C570.040405,220.204819 588.458801,234.566498 607.229980,249.076813 
	C599.945862,257.080200 592.299072,264.947601 584.351196,272.964478 
	C583.101746,271.446289 582.541931,269.280334 581.143433,268.189606 
	C569.706055,259.269104 558.011536,250.677368 546.604187,241.719543 
	C539.879272,236.438644 533.534241,230.673935 526.859985,224.760880 
	C533.863159,217.188171 541.024597,209.981384 548.497925,202.612152 
z"/>
<path fill="#FF949B" opacity="1.000000" stroke="none" 
	d="
M431.416290,81.010849 
	C430.795776,71.351601 430.436462,61.723011 435.296539,52.328720 
	C440.111938,54.732586 444.631592,57.125336 448.599060,60.224922 
	C465.088104,73.107170 481.361023,86.266006 497.844879,99.154984 
	C500.478851,101.214493 503.784332,102.415131 506.779358,104.012825 
	C506.826416,114.368904 506.873444,124.724968 506.501465,135.536621 
	C504.343048,135.086578 502.415161,134.422577 500.894836,133.236206 
	C490.857391,125.403343 480.919495,117.443146 470.926056,109.553696 
	C460.136749,101.035919 449.382172,92.471756 438.463898,84.122040 
	C436.481201,82.605736 433.783783,82.024017 431.416290,81.010849 
z"/>
<path fill="#FF858F" opacity="1.000000" stroke="none" 
	d="
M431.447021,151.013885 
	C431.377380,141.655563 431.307770,132.297241 431.689941,122.476120 
	C433.960815,122.702560 436.030334,123.044617 437.553741,124.143700 
	C442.910767,128.008514 448.100037,132.107849 453.316681,136.164856 
	C465.974579,146.009048 478.533661,155.982651 491.297424,165.687271 
	C496.221680,169.431320 501.592133,172.588577 506.759277,176.013168 
	C506.470703,185.500076 502.975861,193.659241 496.236938,200.412292 
	C493.399445,197.876358 491.051544,195.344940 488.368774,193.240372 
	C473.950134,181.929199 459.519470,170.630356 444.930328,159.541306 
	C440.712250,156.335220 435.956329,153.836761 431.447021,151.013885 
z"/>
<path fill="#FF7E88" opacity="1.000000" stroke="none" 
	d="
M431.343689,151.471893 
	C435.956329,153.836761 440.712250,156.335220 444.930328,159.541306 
	C459.519470,170.630356 473.950134,181.929199 488.368774,193.240372 
	C491.051544,195.344940 493.399445,197.876358 495.934814,200.548309 
	C478.989105,220.814926 443.222504,213.777893 434.105133,188.461365 
	C432.180054,183.115906 431.667023,177.140091 431.262360,171.401215 
	C430.806946,164.942368 431.210480,158.422958 431.343689,151.471893 
z"/>
<path fill="#FFA3A7" opacity="1.000000" stroke="none" 
	d="
M661.409241,193.857269 
	C642.733459,179.847382 624.346863,165.647614 605.946350,151.466003 
	C604.905884,150.664108 603.750610,150.011230 602.338867,149.153854 
	C614.990295,133.107849 644.056213,133.191040 657.342712,149.020172 
	C666.876526,160.378403 669.595581,172.997604 665.060913,187.089233 
	C664.315918,189.404526 662.835815,191.483276 661.409241,193.857269 
z"/>
<path fill="#FF949B" opacity="1.000000" stroke="none" 
	d="
M769.251343,352.739685 
	C763.955627,348.290588 759.231873,343.253357 753.867493,339.029968 
	C737.681946,326.287079 721.232544,313.879608 704.948303,301.261108 
	C704.015320,300.538116 703.637085,299.099213 702.985718,297.649719 
	C716.414734,297.538055 729.896851,297.222717 743.291931,298.155487 
	C756.834961,299.098511 770.002869,312.678345 772.997986,326.909973 
	C774.898193,335.939117 773.544128,344.372925 769.251343,352.739685 
z"/>
<path fill="#FF9A9F" opacity="1.000000" stroke="none" 
	d="
M506.850647,103.547577 
	C503.784332,102.415131 500.478851,101.214493 497.844879,99.154984 
	C481.361023,86.266006 465.088104,73.107170 448.599060,60.224922 
	C444.631592,57.125336 440.111938,54.732586 435.490967,52.011665 
	C438.455139,44.389938 443.892242,38.785576 451.769836,35.287781 
	C456.817047,39.348217 461.287720,43.265617 465.948120,46.942482 
	C475.666351,54.609734 485.415100,62.242424 495.298767,69.693695 
	C498.917023,72.421494 502.953125,74.595085 506.798615,77.021515 
	C506.839722,85.708458 506.880829,94.395393 506.850647,103.547577 
z"/>
<path fill="#FF5A6A" opacity="1.000000" stroke="none" 
	d="
M333.497131,257.067810 
	C337.667175,259.270569 341.777344,261.307617 345.380493,264.018585 
	C358.153046,273.628479 370.786377,283.425018 383.396240,293.248657 
	C387.018829,296.070862 390.384430,299.222931 393.917297,302.552734 
	C389.029724,307.909027 384.092712,312.936310 378.499512,317.956177 
	C375.574097,316.305115 373.250824,314.730682 371.044403,313.006744 
	C356.349518,301.525085 341.720276,289.958801 326.965881,278.554382 
	C324.142365,276.371948 320.857697,274.786133 317.785797,272.925049 
	C322.925446,267.687103 328.065063,262.449158 333.497131,257.067810 
z"/>
<path fill="#FF717E" opacity="1.000000" stroke="none" 
	d="
M594.039185,322.383026 
	C598.520020,324.599487 603.147766,326.787933 607.123901,329.828491 
	C622.480896,341.572174 637.676208,353.529602 652.802734,365.569519 
	C654.894592,367.234497 656.262451,369.808990 657.969360,372.300629 
	C647.002136,372.487457 635.957336,373.092133 625.075012,372.030975 
	C600.712830,369.655334 586.065674,346.036224 594.039185,322.383026 
z"/>
<path fill="#FF8F96" opacity="1.000000" stroke="none" 
	d="
M431.314392,81.469452 
	C433.783783,82.024017 436.481201,82.605736 438.463898,84.122040 
	C449.382172,92.471756 460.136749,101.035919 470.926056,109.553696 
	C480.919495,117.443146 490.857391,125.403343 500.894836,133.236206 
	C502.415161,134.422577 504.343048,135.086578 506.432312,136.001068 
	C506.826111,142.366119 506.869965,148.722290 506.477295,155.540222 
	C500.839630,152.637695 495.345978,149.646530 490.491241,145.840439 
	C474.862946,133.587982 459.546967,120.937347 443.931824,108.667740 
	C440.113464,105.667473 435.612823,103.535538 431.425873,101.004379 
	C431.354767,94.645599 431.283661,88.286827 431.314392,81.469452 
z"/>
<path fill="#FF5666" opacity="1.000000" stroke="none" 
	d="
M317.491699,273.065277 
	C320.857697,274.786133 324.142365,276.371948 326.965881,278.554382 
	C341.720276,289.958801 356.349518,301.525085 371.044403,313.006744 
	C373.250824,314.730682 375.574097,316.305115 378.208954,318.084351 
	C373.881500,323.046021 369.188385,327.872101 364.182373,332.835510 
	C361.342712,330.932220 358.847961,328.850433 356.283997,326.857758 
	C339.884003,314.112183 323.472351,301.381561 307.047333,288.668274 
	C306.269684,288.066345 305.328979,287.675079 304.137634,287.041992 
	C308.273254,282.334045 312.735413,277.769775 317.491699,273.065277 
z"/>
<path fill="#FF8B93" opacity="1.000000" stroke="none" 
	d="
M431.321411,101.462982 
	C435.612823,103.535538 440.113464,105.667473 443.931824,108.667740 
	C459.546967,120.937347 474.862946,133.587982 490.491241,145.840439 
	C495.345978,149.646530 500.839630,152.637695 506.406982,156.003967 
	C506.820129,162.365555 506.867096,168.725159 506.836670,175.548950 
	C501.592133,172.588577 496.221680,169.431320 491.297424,165.687271 
	C478.533661,155.982651 465.974579,146.009048 453.316681,136.164856 
	C448.100037,132.107849 442.910767,128.008514 437.553741,124.143700 
	C436.030334,123.044617 433.960815,122.702560 431.788879,122.020126 
	C431.363007,115.325150 431.289978,108.623367 431.321411,101.462982 
z"/>
<path fill="#FF6674" opacity="1.000000" stroke="none" 
	d="
M653.992432,466.640472 
	C649.882812,464.579865 645.270142,462.683929 641.441223,459.761108 
	C629.730225,450.821442 618.358582,441.438538 606.784424,432.317566 
	C589.877686,418.994263 572.886353,405.778412 555.981445,392.452759 
	C550.658813,388.257111 545.498047,383.856079 540.119263,379.240112 
	C553.280090,375.219696 565.351746,378.213684 574.967346,387.615784 
	C601.525879,413.584564 627.588867,440.060242 653.992432,466.640472 
z"/>
<path fill="#FFA3A7" opacity="1.000000" stroke="none" 
	d="
M506.867859,76.557343 
	C502.953125,74.595085 498.917023,72.421494 495.298767,69.693695 
	C485.415100,62.242424 475.666351,54.609734 465.948120,46.942482 
	C461.287720,43.265617 456.817047,39.348217 452.115356,35.226547 
	C466.382751,25.988859 488.395752,30.891443 499.078918,45.057232 
	C506.124054,54.398987 507.615936,64.914780 506.867859,76.557343 
z"/>
<path fill="#FA3A44" opacity="1.000000" stroke="none" 
	d="
M378.981720,564.605103 
	C376.176300,564.794067 373.360565,564.490295 373.040894,560.255737 
	C374.981110,561.345642 376.911499,562.821350 378.981720,564.605103 
z"/>
<path fill="#FA3A44" opacity="1.000000" stroke="none" 
	d="
M382.975464,567.608521 
	C381.777863,567.150024 380.440796,566.381409 379.092804,565.240479 
	C380.333282,565.678223 381.584656,566.488281 382.975464,567.608521 
z"/>
<path fill="#FA3A44" opacity="1.000000" stroke="none" 
	d="
M386.986023,570.597168 
	C385.786316,570.144531 384.444458,569.382263 383.089539,568.247864 
	C384.332275,568.679688 385.588043,569.483643 386.986023,570.597168 
z"/>
</svg>