<svg version="1.1" id="Layer_1" xmlns="http://www.w3.org/2000/svg" xmlns:xlink="http://www.w3.org/1999/xlink" x="0px" y="0px"
	 width="100%" viewBox="0 0 894 728" enable-background="new 0 0 894 728" xml:space="preserve">
<path fill="#FFFFFF" opacity="1.000000" stroke="none" 
	d="
M895.000000,246.000000 
	C895.000000,407.333252 895.000000,568.166504 895.000000,728.999878 
	C746.000183,729.000000 597.000305,729.000000 448.000458,729.000000 
	C299.000519,729.000000 150.000595,729.000000 1.000492,729.000000 
	C1.000328,486.333679 1.000328,243.667343 1.000164,1.000502 
	C1.332999,1.000000 1.665997,1.000000 1.998996,1.000000 
	C299.665527,1.000000 597.332092,1.000000 894.999268,1.000000 
	C895.000000,82.500000 895.000000,164.000000 895.000000,246.000000 
M826.973694,366.077240 
	C826.933472,354.054108 826.893188,342.031006 826.978943,329.077179 
	C826.985474,314.756500 827.713318,300.388519 826.778198,286.129608 
	C825.980469,273.965118 823.271301,261.925964 821.254272,249.047791 
	C814.748108,222.009995 800.287781,199.422867 780.526489,180.536499 
	C752.293579,153.553604 718.380981,139.124908 678.082458,138.323730 
	C664.427429,138.256927 650.770630,138.281921 637.119812,138.005539 
	C635.439575,137.971512 632.870422,136.730804 632.274536,135.367065 
	C627.372009,124.146378 623.956360,112.134842 617.991272,101.545235 
	C597.302917,64.817635 566.002197,41.171146 525.407043,29.993290 
	C499.973969,22.990301 473.894867,25.188541 447.058167,25.094090 
	C425.036011,25.138018 403.013855,25.181946 380.063934,25.089926 
	C364.039978,25.135246 348.016022,25.180569 331.064362,25.088793 
	C319.705902,25.137665 308.347473,25.186537 296.062836,25.097275 
	C281.372650,25.143744 266.682465,25.190212 251.065140,25.096495 
	C238.043533,25.394186 225.021927,25.691877 211.114288,25.882162 
	C208.195801,26.240635 205.285187,26.690533 202.357559,26.943016 
	C180.285858,28.846527 160.361374,36.711025 141.227310,48.889660 
	C127.601288,57.707317 115.414047,68.111359 105.073105,81.596100 
	C92.120659,97.020828 83.038605,114.470108 77.177361,134.418808 
	C71.010330,155.920212 71.135490,177.930084 71.701439,200.915314 
	C71.761002,225.274017 71.820572,249.632721 71.693283,274.915039 
	C71.754944,297.274414 71.816605,319.633820 71.680145,342.914673 
	C71.746162,362.941376 71.812172,382.968109 71.673492,403.914856 
	C71.741013,424.608429 71.808525,445.302032 71.665466,466.914459 
	C71.647011,496.071930 71.417542,525.231384 71.694603,554.386047 
	C71.844528,570.162354 79.518875,581.854126 93.901222,588.260620 
	C108.017960,594.548828 122.120468,592.995605 133.586975,582.692078 
	C147.061401,570.584167 159.312485,557.114868 172.712967,543.950256 
	C183.840378,532.713806 194.967789,521.477417 206.713547,509.953064 
	C211.316635,505.366821 216.002029,500.858429 220.466064,496.140625 
	C221.608887,494.932892 222.707596,493.066650 222.715775,491.497192 
	C222.800156,475.341187 222.656067,459.183960 222.782425,442.106873 
	C222.782425,429.185089 222.782425,416.263306 222.782425,403.000275 
	C208.455414,402.946747 198.467361,409.893005 189.543320,420.342682 
	C175.718674,434.236786 161.894028,448.130890 147.393616,461.792786 
	C147.222717,460.863129 147.051819,459.933441 147.043198,458.078064 
	C146.988693,438.053101 146.934174,418.028107 147.041351,397.077606 
	C146.987671,374.386932 146.933990,351.696289 147.044128,328.080078 
	C146.989822,303.722534 146.935516,279.364960 147.042511,254.080978 
	C146.988297,230.722549 146.934067,207.364120 147.037338,183.083084 
	C146.189514,163.286896 151.074036,145.202438 163.701019,128.909576 
	C174.668823,115.631592 188.360809,106.600288 205.976959,102.278580 
	C214.075409,101.748138 222.170105,100.840729 230.273041,100.759857 
	C252.191208,100.541084 274.112915,100.685669 296.033112,100.646339 
	C298.004517,100.642799 299.975372,100.351212 302.837646,100.546928 
	C315.559875,100.435326 328.282135,100.323723 341.877411,100.547043 
	C356.901825,100.441086 371.926270,100.335129 387.842377,100.576790 
	C399.228760,100.467987 410.615143,100.359184 422.878693,100.576096 
	C438.919037,100.472893 454.959412,100.369690 471.878754,100.588257 
	C478.024597,100.678543 484.170715,100.755287 490.316284,100.861710 
	C507.643951,101.161758 522.817627,107.413437 535.736633,118.593475 
	C541.872742,123.903625 546.810974,130.597931 552.291870,136.665176 
	C551.939758,137.077057 551.587708,137.488937 551.235596,137.900818 
	C548.154602,138.076080 545.073547,138.251328 541.074219,138.223160 
	C529.374329,138.295517 517.674500,138.367874 505.062531,138.241837 
	C483.040161,138.304062 461.017792,138.366287 438.076782,138.227341 
	C430.283539,138.200867 422.483398,137.961456 414.699097,138.212463 
	C407.959015,138.429779 401.236847,139.203522 393.667938,139.617416 
	C381.111603,142.744049 368.555237,145.870667 355.271057,149.045868 
	C345.121185,154.664459 334.971283,160.283051 324.171661,166.072723 
	C316.310303,173.092285 308.448914,180.111847 300.009521,187.529053 
	C287.778046,200.515045 278.382111,215.278610 271.732178,232.625717 
	C265.521423,248.166275 261.233368,264.132385 260.833069,281.922424 
	C260.843414,300.944397 260.853760,319.966370 260.684326,339.913635 
	C260.743774,359.272919 260.803223,378.632202 260.669098,398.914124 
	C260.752808,414.608215 260.836548,430.302338 260.766449,446.912170 
	C260.839691,459.747375 263.117340,472.226288 267.040558,484.404816 
	C283.088928,534.222534 315.850189,567.749268 365.405487,584.601440 
	C391.303833,593.408569 418.213440,592.029053 445.906128,591.791565 
	C462.598328,591.726746 479.290527,591.661865 496.904022,591.792847 
	C516.932007,591.729553 536.960022,591.666260 557.906006,591.803101 
	C579.602844,591.737915 601.299744,591.672668 623.914612,591.801025 
	C634.394409,591.816895 644.878235,592.004761 655.351746,591.755859 
	C659.032898,591.668396 661.490540,592.907349 664.014709,595.442871 
	C696.876465,628.453003 729.803223,661.398438 762.783752,694.289978 
	C778.054504,709.519653 804.103821,708.424011 817.927551,691.794800 
	C824.067810,683.548584 827.112671,674.309021 826.989136,663.078186 
	C826.941650,647.387695 826.894104,631.697144 826.989441,615.077759 
	C826.942383,599.053711 826.895325,583.029724 826.988892,566.077087 
	C826.942810,546.388672 826.896729,526.700195 826.992615,506.082001 
	C826.945129,487.723602 826.897644,469.365204 826.982117,450.076355 
	C826.936707,435.385925 826.891296,420.695496 826.978210,405.075012 
	C826.933350,392.386078 826.888489,379.697144 826.973694,366.077240 
z"/>
<path fill="#FF8E96" opacity="1.000000" stroke="none" 
	d="
M821.407654,249.831390 
	C823.271301,261.925964 825.980469,273.965118 826.778198,286.129608 
	C827.713318,300.388519 826.985474,314.756500 826.579407,329.497009 
	C823.808411,328.132599 821.385437,326.412384 819.074463,324.552948 
	C809.911804,317.180603 800.868347,309.657623 791.621094,302.393555 
	C781.387085,294.354279 771.070312,286.412537 760.590942,278.698090 
	C757.388489,276.340576 753.530518,274.873413 749.791016,272.671783 
	C743.211060,248.305099 729.130859,230.457779 706.249390,220.406937 
	C698.956482,217.203506 690.771240,216.031647 682.989380,213.571945 
	C681.998291,211.983765 681.196411,210.525009 679.997314,209.559402 
	C668.393799,200.215347 656.757629,190.910950 645.064819,181.678741 
	C624.785828,165.667084 604.515076,149.644104 584.135925,133.760483 
	C568.598389,121.650452 552.822205,109.846573 537.294189,97.724579 
	C523.867859,87.243294 510.728882,76.393867 497.302063,65.913246 
	C483.854004,55.416016 470.111694,45.294624 456.713715,34.735214 
	C453.378052,32.106251 450.872589,28.423899 447.985535,25.225723 
	C473.894867,25.188541 499.973969,22.990301 525.407043,29.993290 
	C566.002197,41.171146 597.302917,64.817635 617.991272,101.545235 
	C623.956360,112.134842 627.372009,124.146378 632.274536,135.367065 
	C632.870422,136.730804 635.439575,137.971512 637.119812,138.005539 
	C650.770630,138.281921 664.427429,138.256927 678.605286,138.744873 
	C680.218506,140.410904 681.148682,141.857727 682.423950,142.869583 
	C696.097717,153.718979 709.738831,164.612839 723.567749,175.262283 
	C734.051208,183.335464 744.933167,190.892685 755.380981,199.010071 
	C766.225220,207.435410 776.735107,216.289993 787.438293,224.898300 
	C797.228333,232.772217 807.047058,240.611664 816.951965,248.339600 
	C818.116333,249.248077 819.907227,249.353622 821.407654,249.831390 
z"/>
<path fill="#FF868F" opacity="1.000000" stroke="none" 
	d="
M447.521851,25.159906 
	C450.872589,28.423899 453.378052,32.106251 456.713715,34.735214 
	C470.111694,45.294624 483.854004,55.416016 497.302063,65.913246 
	C510.728882,76.393867 523.867859,87.243294 537.294189,97.724579 
	C552.822205,109.846573 568.598389,121.650452 584.135925,133.760483 
	C604.515076,149.644104 624.785828,165.667084 645.064819,181.678741 
	C656.757629,190.910950 668.393799,200.215347 679.997314,209.559402 
	C681.196411,210.525009 681.998291,211.983765 682.522583,213.612305 
	C665.370605,213.920029 648.680481,213.829132 631.985840,213.385651 
	C631.251648,211.792038 630.780273,210.249146 629.745972,209.364151 
	C625.994385,206.154053 622.107178,203.094681 618.173462,200.106918 
	C610.812500,194.515976 603.301758,189.119995 595.998840,183.455200 
	C579.060669,170.316269 562.172668,157.111481 545.382874,143.784012 
	C543.820007,142.543427 543.102478,140.237747 541.992493,138.426590 
	C545.073547,138.251328 548.154602,138.076080 551.235596,137.900818 
	C551.587708,137.488937 551.939758,137.077057 552.291870,136.665176 
	C546.810974,130.597931 541.872742,123.903625 535.736633,118.593475 
	C522.817627,107.413437 507.643951,101.161758 490.316284,100.861710 
	C484.170715,100.755287 478.024597,100.678543 471.422485,100.123749 
	C469.606415,98.086960 468.461456,96.239159 466.853424,94.985222 
	C451.642181,83.123711 436.307892,71.419983 421.098816,59.555782 
	C409.006042,50.122570 396.986542,40.593018 385.072479,30.936028 
	C383.320465,29.515936 382.332916,27.152727 380.991699,25.225878 
	C403.013855,25.181946 425.036011,25.138018 447.521851,25.159906 
z"/>
<path fill="#FF5464" opacity="1.000000" stroke="none" 
	d="
M817.357056,692.147461 
	C804.103821,708.424011 778.054504,709.519653 762.783752,694.289978 
	C729.803223,661.398438 696.876465,628.453003 664.014709,595.442871 
	C661.490540,592.907349 659.032898,591.668396 655.351746,591.755859 
	C644.878235,592.004761 634.394409,591.816895 623.445679,591.361694 
	C621.838196,589.630798 620.861450,588.135559 619.534302,587.081543 
	C612.033325,581.124146 604.373779,575.365051 596.911926,569.359924 
	C588.813049,562.841980 581.020264,555.937744 572.825867,549.545776 
	C560.971619,540.298950 548.814087,531.441101 536.950562,522.205933 
	C535.172913,520.822144 534.290283,518.288635 533.456116,516.203369 
	C554.610962,516.179077 575.303284,516.238403 596.005737,516.644653 
	C600.508545,520.992493 604.858643,525.168945 609.522705,528.959106 
	C620.445740,537.835693 631.444397,546.623291 642.551208,555.268555 
	C655.612915,565.435364 668.898315,575.315002 681.945496,585.500122 
	C696.652283,596.980835 711.125854,608.760620 725.845703,620.224426 
	C736.123779,628.228882 746.720825,635.822937 757.033081,643.784668 
	C764.469910,649.526367 771.651855,655.597168 778.984131,661.475464 
	C791.760193,671.718079 804.564575,681.925354 817.357056,692.147461 
z"/>
<path fill="#FC3F4E" opacity="1.000000" stroke="none" 
	d="
M444.985291,591.596741 
	C418.213440,592.029053 391.303833,593.408569 365.405487,584.601440 
	C315.850189,567.749268 283.088928,534.222534 267.040558,484.404816 
	C263.117340,472.226288 260.839691,459.747375 261.202057,446.486511 
	C265.017151,448.668976 268.367645,451.315735 271.781342,453.878296 
	C283.146637,462.409790 294.647644,470.765015 305.883698,479.462860 
	C318.442596,489.184753 330.738770,499.245270 343.205719,509.086914 
	C354.488068,517.993469 365.857880,526.789185 377.166351,535.662781 
	C382.755859,540.048767 388.242706,544.566711 393.867065,548.906982 
	C403.021851,555.971558 412.259705,562.928467 421.446533,569.951721 
	C428.011169,574.970276 434.681854,579.864807 441.017029,585.159546 
	C442.851593,586.692810 443.690125,589.417969 444.985291,591.596741 
z"/>
<path fill="#FC4352" opacity="1.000000" stroke="none" 
	d="
M445.445709,591.694153 
	C443.690125,589.417969 442.851593,586.692810 441.017029,585.159546 
	C434.681854,579.864807 428.011169,574.970276 421.446533,569.951721 
	C412.259705,562.928467 403.021851,555.971558 393.867065,548.906982 
	C388.242706,544.566711 382.755859,540.048767 377.166351,535.662781 
	C365.857880,526.789185 354.488068,517.993469 343.205719,509.086914 
	C330.738770,499.245270 318.442596,489.184753 305.883698,479.462860 
	C294.647644,470.765015 283.146637,462.409790 271.781342,453.878296 
	C268.367645,451.315735 265.017151,448.668976 261.278961,446.028625 
	C260.836548,430.302338 260.752808,414.608215 261.126892,398.485413 
	C262.308014,398.440094 263.112915,398.721069 263.742310,399.222443 
	C271.753967,405.604248 279.720459,412.042847 287.738068,418.417114 
	C299.263916,427.580566 310.722839,436.833160 322.417084,445.777344 
	C326.936035,449.233643 332.020325,451.950775 336.969910,455.374268 
	C339.559937,465.830597 343.207550,475.378845 349.352112,483.889069 
	C363.110443,502.944458 381.825867,513.359985 405.039520,516.467529 
	C405.406830,517.376831 405.597168,518.117310 406.074554,518.491333 
	C413.881744,524.608154 421.704102,530.706055 429.565887,536.752563 
	C438.992157,544.002258 448.469574,551.185486 457.905334,558.422852 
	C467.219299,565.566772 476.700745,572.511658 485.720337,580.010925 
	C489.641510,583.271240 492.591583,587.699341 495.982727,591.597046 
	C479.290527,591.661865 462.598328,591.726746 445.445709,591.694153 
z"/>
<path fill="#F8373B" opacity="1.000000" stroke="none" 
	d="
M172.094116,544.236023 
	C159.312485,557.114868 147.061401,570.584167 133.586975,582.692078 
	C122.120468,592.995605 108.017960,594.548828 93.901222,588.260620 
	C79.518875,581.854126 71.844528,570.162354 71.694603,554.386047 
	C71.417542,525.231384 71.647011,496.071930 72.156723,466.460693 
	C75.756310,467.498322 79.238327,468.505432 81.907990,470.565338 
	C93.171059,479.255859 104.132843,488.335419 115.318443,497.128174 
	C125.978897,505.508118 136.770905,513.721008 147.523300,521.983643 
	C154.332855,527.216370 161.304520,532.249817 167.922409,537.713074 
	C169.816864,539.277039 170.730667,542.028870 172.094116,544.236023 
z"/>
<path fill="#F93841" opacity="1.000000" stroke="none" 
	d="
M172.403549,544.093140 
	C170.730667,542.028870 169.816864,539.277039 167.922409,537.713074 
	C161.304520,532.249817 154.332855,527.216370 147.523300,521.983643 
	C136.770905,513.721008 125.978897,505.508118 115.318443,497.128174 
	C104.132843,488.335419 93.171059,479.255859 81.907990,470.565338 
	C79.238327,468.505432 75.756310,467.498322 72.262009,466.001251 
	C71.808525,445.302032 71.741013,424.608429 72.150826,403.459656 
	C76.774139,405.860382 81.056641,408.539032 85.039955,411.606201 
	C96.073029,420.101807 107.000488,428.735168 117.930603,437.363586 
	C123.071953,441.422272 128.017410,445.735748 133.248657,449.671906 
	C137.644531,452.979523 142.325928,455.907654 146.880920,459.003784 
	C147.051819,459.933441 147.222717,460.863129 148.075897,461.943024 
	C157.476852,468.535248 166.301727,474.839539 174.884521,481.457764 
	C183.592743,488.172668 191.922119,495.383759 200.713089,501.983704 
	C203.711990,504.235138 206.973206,505.716675 206.095200,510.240997 
	C194.967789,521.477417 183.840378,532.713806 172.403549,544.093140 
z"/>
<path fill="#FF5D6D" opacity="1.000000" stroke="none" 
	d="
M826.846558,616.006653 
	C826.894104,631.697144 826.941650,647.387695 826.558228,663.534546 
	C815.970459,656.711731 805.650452,649.647583 795.702942,642.092773 
	C785.840881,634.602905 776.436096,626.514038 766.677979,618.883179 
	C758.226379,612.273987 749.489868,606.029907 741.008911,599.457153 
	C731.882568,592.384155 722.937622,585.077454 713.857422,577.944153 
	C704.263794,570.407410 694.555115,563.016541 684.987854,555.446716 
	C676.870850,549.024353 668.974854,542.320557 660.809570,535.961670 
	C654.416382,530.982788 647.671326,526.455444 641.286865,521.465881 
	C639.768738,520.279358 639.067566,518.047424 638.453064,516.210815 
	C650.712280,516.112732 662.509705,516.013428 674.305542,516.112183 
	C685.944763,516.209595 695.886841,520.235840 704.164062,528.695190 
	C718.223755,543.064453 732.552856,557.170349 746.778320,571.377319 
	C747.984741,572.582092 749.263367,573.714539 751.518372,575.826477 
	C751.518372,569.248230 751.518372,564.128174 751.854370,559.018921 
	C753.070435,559.440430 754.064453,559.704041 754.813171,560.284180 
	C763.306946,566.866272 771.782776,573.471985 780.224670,580.120544 
	C790.477661,588.195496 800.641357,596.384705 810.947571,604.390686 
	C816.128662,608.415405 821.539551,612.144104 826.846558,616.006653 
z"/>
<path fill="#FF5767" opacity="1.000000" stroke="none" 
	d="
M637.990601,516.296326 
	C639.067566,518.047424 639.768738,520.279358 641.286865,521.465881 
	C647.671326,526.455444 654.416382,530.982788 660.809570,535.961670 
	C668.974854,542.320557 676.870850,549.024353 684.987854,555.446716 
	C694.555115,563.016541 704.263794,570.407410 713.857422,577.944153 
	C722.937622,585.077454 731.882568,592.384155 741.008911,599.457153 
	C749.489868,606.029907 758.226379,612.273987 766.677979,618.883179 
	C776.436096,626.514038 785.840881,634.602905 795.702942,642.092773 
	C805.650452,649.647583 815.970459,656.711731 826.486206,663.998657 
	C827.112671,674.309021 824.067810,683.548584 817.642334,691.971130 
	C804.564575,681.925354 791.760193,671.718079 778.984131,661.475464 
	C771.651855,655.597168 764.469910,649.526367 757.033081,643.784668 
	C746.720825,635.822937 736.123779,628.228882 725.845703,620.224426 
	C711.125854,608.760620 696.652283,596.980835 681.945496,585.500122 
	C668.898315,575.315002 655.612915,565.435364 642.551208,555.268555 
	C631.444397,546.623291 620.445740,537.835693 609.522705,528.959106 
	C604.858643,525.168945 600.508545,520.992493 596.468018,516.560791 
	C610.610413,516.185425 624.300537,516.240906 637.990601,516.296326 
z"/>
<path fill="#FF6B78" opacity="1.000000" stroke="none" 
	d="
M301.946503,100.193405 
	C299.975372,100.351212 298.004517,100.642799 296.033112,100.646339 
	C274.112915,100.685669 252.191208,100.541084 230.273041,100.759857 
	C222.170105,100.840729 214.075409,101.748138 205.491898,101.937012 
	C203.050812,99.419495 201.351196,96.918800 199.088013,95.131859 
	C193.532410,90.745270 187.598999,86.837936 182.032257,82.464554 
	C172.049316,74.621696 162.153900,66.663040 152.368835,58.575008 
	C148.665817,55.514202 145.369537,51.961327 141.887848,48.632744 
	C160.361374,36.711025 180.285858,28.846527 202.357559,26.943016 
	C205.285187,26.690533 208.195801,26.240635 211.593307,26.284218 
	C216.023361,30.112322 219.857925,33.684776 223.946854,36.937485 
	C237.241852,47.513580 250.609024,57.999371 263.988495,68.468712 
	C275.417175,77.411568 286.942230,86.231941 298.312256,95.248268 
	C299.858490,96.474434 300.751190,98.524704 301.946503,100.193405 
z"/>
<path fill="#FD4757" opacity="1.000000" stroke="none" 
	d="
M71.880142,273.991425 
	C71.820572,249.632721 71.761002,225.274017 72.182129,200.455994 
	C74.391090,200.780579 76.363861,201.256729 77.805283,202.401779 
	C84.017487,207.336700 89.966362,212.604919 96.209450,217.498779 
	C109.068703,227.579010 121.997398,237.573273 135.025009,247.434494 
	C138.752243,250.255829 142.917038,252.499084 146.881210,255.007416 
	C146.935516,279.364960 146.989822,303.722534 146.623322,328.500916 
	C136.042984,321.354950 125.742447,313.968811 115.759636,306.175659 
	C103.269096,296.424774 91.098801,286.264130 78.631554,276.482635 
	C76.835289,275.073303 74.152603,274.793793 71.880142,273.991425 
z"/>
<path fill="#FE4F60" opacity="1.000000" stroke="none" 
	d="
M146.961853,254.544189 
	C142.917038,252.499084 138.752243,250.255829 135.025009,247.434494 
	C121.997398,237.573273 109.068703,227.579010 96.209450,217.498779 
	C89.966362,212.604919 84.017487,207.336700 77.805283,202.401779 
	C76.363861,201.256729 74.391090,200.780579 72.270691,199.993286 
	C71.135490,177.930084 71.010330,155.920212 77.856644,134.185272 
	C80.765778,134.878265 83.283417,135.413986 85.171623,136.804459 
	C90.884636,141.011520 96.354462,145.548904 101.917412,149.959641 
	C110.849525,157.041718 119.688347,164.245834 128.744507,171.165512 
	C134.626114,175.659561 140.823776,179.739960 146.879837,184.005692 
	C146.934067,207.364120 146.988297,230.722549 146.961853,254.544189 
z"/>
<path fill="#FC3F4E" opacity="1.000000" stroke="none" 
	d="
M71.786713,274.453247 
	C74.152603,274.793793 76.835289,275.073303 78.631554,276.482635 
	C91.098801,286.264130 103.269096,296.424774 115.759636,306.175659 
	C125.742447,313.968811 136.042984,321.354950 146.541412,328.963684 
	C146.933990,351.696289 146.987671,374.386932 146.616333,397.499573 
	C138.045593,391.790436 129.845474,385.729797 121.776176,379.499695 
	C117.493721,376.193359 113.530518,372.474335 109.258232,369.153839 
	C103.186150,364.434479 97.013954,359.839142 90.788490,355.323212 
	C84.546455,350.795288 78.186516,346.429871 71.878250,341.993195 
	C71.816605,319.633820 71.754944,297.274414 71.786713,274.453247 
z"/>
<path fill="#FF7B86" opacity="1.000000" stroke="none" 
	d="
M438.995422,138.428513 
	C461.017792,138.366287 483.040161,138.304062 505.535065,138.678680 
	C507.426422,141.014877 508.514893,143.337738 510.318085,144.744354 
	C521.365601,153.362000 532.638367,161.690414 543.714478,170.272110 
	C557.417969,180.889481 571.121887,191.513702 584.565430,202.454620 
	C588.496216,205.653641 591.540344,209.942062 594.527832,213.805435 
	C572.707153,213.832718 551.349548,213.785721 529.986511,213.385513 
	C529.280823,212.002167 528.784241,210.707993 527.846924,209.985062 
	C522.082336,205.538574 516.160767,201.295288 510.400116,196.843781 
	C501.225098,189.753845 492.186646,182.486694 482.991302,175.423584 
	C476.700897,170.591812 470.119415,166.134918 463.891937,161.226364 
	C457.388031,156.099945 451.063934,150.733673 444.846649,145.261597 
	C442.617981,143.300049 440.930115,140.724060 438.995422,138.428513 
z"/>
<path fill="#FE4F60" opacity="1.000000" stroke="none" 
	d="
M532.993591,516.286987 
	C534.290283,518.288635 535.172913,520.822144 536.950562,522.205933 
	C548.814087,531.441101 560.971619,540.298950 572.825867,549.545776 
	C581.020264,555.937744 588.813049,562.841980 596.911926,569.359924 
	C604.373779,575.365051 612.033325,581.124146 619.534302,587.081543 
	C620.861450,588.135559 621.838196,589.630798 622.986694,591.264893 
	C601.299744,591.672668 579.602844,591.737915 557.445801,591.344727 
	C555.962219,589.366821 555.232605,587.478882 553.866333,586.389282 
	C546.640076,580.626038 539.189331,575.144836 531.937927,569.412170 
	C521.595459,561.235718 511.456604,552.799622 501.048096,544.709412 
	C491.012085,536.908752 480.675751,529.494141 470.655609,521.673828 
	C469.232727,520.563354 468.851410,518.118225 468.450378,516.203979 
	C490.273010,516.173706 511.633301,516.230347 532.993591,516.286987 
z"/>
<path fill="#FD4757" opacity="1.000000" stroke="none" 
	d="
M467.988037,516.290833 
	C468.851410,518.118225 469.232727,520.563354 470.655609,521.673828 
	C480.675751,529.494141 491.012085,536.908752 501.048096,544.709412 
	C511.456604,552.799622 521.595459,561.235718 531.937927,569.412170 
	C539.189331,575.144836 546.640076,580.626038 553.866333,586.389282 
	C555.232605,587.478882 555.962219,589.366821 556.986816,591.244629 
	C536.960022,591.666260 516.932007,591.729553 496.443359,591.694946 
	C492.591583,587.699341 489.641510,583.271240 485.720337,580.010925 
	C476.700745,572.511658 467.219299,565.566772 457.905334,558.422852 
	C448.469574,551.185486 438.992157,544.002258 429.565887,536.752563 
	C421.704102,530.706055 413.881744,524.608154 406.074554,518.491333 
	C405.597168,518.117310 405.406830,517.376831 405.505005,516.406616 
	C426.614105,516.101135 447.301056,516.195984 467.988037,516.290833 
z"/>
<path fill="#FA3B48" opacity="1.000000" stroke="none" 
	d="
M71.779198,342.453918 
	C78.186516,346.429871 84.546455,350.795288 90.788490,355.323212 
	C97.013954,359.839142 103.186150,364.434479 109.258232,369.153839 
	C113.530518,372.474335 117.493721,376.193359 121.776176,379.499695 
	C129.845474,385.729797 138.045593,391.790436 146.535492,397.962341 
	C146.934174,418.028107 146.988693,438.053101 146.962051,458.540955 
	C142.325928,455.907654 137.644531,452.979523 133.248657,449.671906 
	C128.017410,445.735748 123.071953,441.422272 117.930603,437.363586 
	C107.000488,428.735168 96.073029,420.101807 85.039955,411.606201 
	C81.056641,408.539032 76.774139,405.860382 72.253174,402.999634 
	C71.812172,382.968109 71.746162,362.941376 71.779198,342.453918 
z"/>
<path fill="#FF6B78" opacity="1.000000" stroke="none" 
	d="
M826.850647,507.011780 
	C826.896729,526.700195 826.942810,546.388672 826.580200,566.496460 
	C823.315308,564.985840 820.337769,563.211304 817.625427,561.096802 
	C809.483521,554.749573 801.429504,548.289001 793.370544,541.836060 
	C784.623230,534.831970 776.253235,527.285400 767.043091,520.958984 
	C762.019104,517.507996 758.537170,511.369598 751.433655,510.546753 
	C751.404907,490.394257 751.460144,470.703339 751.852295,451.022949 
	C753.057861,451.455688 754.036072,451.738556 754.778076,452.321808 
	C761.647644,457.721375 768.447632,463.209686 775.323181,468.601624 
	C790.276855,480.328522 805.231079,492.055389 820.276001,503.664581 
	C822.189270,505.140930 824.645752,505.913300 826.850647,507.011780 
z"/>
<path fill="#FD4757" opacity="1.000000" stroke="none" 
	d="
M336.847015,455.004700 
	C332.020325,451.950775 326.936035,449.233643 322.417084,445.777344 
	C310.722839,436.833160 299.263916,427.580566 287.738068,418.417114 
	C279.720459,412.042847 271.753967,405.604248 263.742310,399.222443 
	C263.112915,398.721069 262.308014,398.440094 261.223663,398.024078 
	C260.803223,378.632202 260.743774,359.272919 261.152069,339.458160 
	C265.313660,341.409607 269.216248,343.551300 272.666809,346.267273 
	C292.291687,361.714325 311.792786,377.318604 331.406525,392.779907 
	C332.453308,393.605072 334.140778,393.617554 335.625366,394.467773 
	C336.096191,414.953033 336.471619,434.978851 336.847015,455.004700 
z"/>
<path fill="#FE4F60" opacity="1.000000" stroke="none" 
	d="
M335.529968,394.008392 
	C334.140778,393.617554 332.453308,393.605072 331.406525,392.779907 
	C311.792786,377.318604 292.291687,361.714325 272.666809,346.267273 
	C269.216248,343.551300 265.313660,341.409607 261.241943,338.995514 
	C260.853760,319.966370 260.843414,300.944397 261.299988,281.466492 
	C263.520355,281.848938 265.499237,282.401428 266.988007,283.575470 
	C273.335144,288.580963 279.451447,293.879730 285.811554,298.868073 
	C296.833893,307.513092 307.911926,316.090271 319.092682,324.528870 
	C324.424500,328.552948 330.045837,332.193512 335.632080,336.467163 
	C335.662079,355.953796 335.596039,374.981110 335.529968,394.008392 
z"/>
<path fill="#FF5767" opacity="1.000000" stroke="none" 
	d="
M146.958588,183.544388 
	C140.823776,179.739960 134.626114,175.659561 128.744507,171.165512 
	C119.688347,164.245834 110.849525,157.041718 101.917412,149.959641 
	C96.354462,145.548904 90.884636,141.011520 85.171623,136.804459 
	C83.283417,135.413986 80.765778,134.878265 78.127937,133.919846 
	C83.038605,114.470108 92.120659,97.020828 105.501740,81.767464 
	C106.317139,82.474495 106.607368,83.130959 107.104652,83.528297 
	C122.812386,96.078842 138.568237,108.569351 154.241241,121.162994 
	C157.354721,123.664749 160.162460,126.547012 163.111191,129.253815 
	C151.074036,145.202438 146.189514,163.286896 146.958588,183.544388 
z"/>
<path fill="#FF7682" opacity="1.000000" stroke="none" 
	d="
M826.921631,506.546875 
	C824.645752,505.913300 822.189270,505.140930 820.276001,503.664581 
	C805.231079,492.055389 790.276855,480.328522 775.323181,468.601624 
	C768.447632,463.209686 761.647644,457.721375 754.778076,452.321808 
	C754.036072,451.738556 753.057861,451.455688 751.758240,450.562714 
	C751.389526,432.063690 751.451843,414.035431 751.858032,396.017578 
	C754.415771,397.110321 756.850830,397.892792 758.801453,399.331879 
	C764.382629,403.449585 769.755310,407.849152 775.231628,412.110077 
	C787.752625,421.852356 800.236877,431.643219 812.841797,441.275879 
	C817.354614,444.724518 822.171875,447.774750 826.850159,451.006836 
	C826.897644,469.365204 826.945129,487.723602 826.921631,506.546875 
z"/>
<path fill="#FF5767" opacity="1.000000" stroke="none" 
	d="
M335.536011,336.007782 
	C330.045837,332.193512 324.424500,328.552948 319.092682,324.528870 
	C307.911926,316.090271 296.833893,307.513092 285.811554,298.868073 
	C279.451447,293.879730 273.335144,288.580963 266.988007,283.575470 
	C265.499237,282.401428 263.520355,281.848938 261.396240,281.006042 
	C261.233368,264.132385 265.521423,248.166275 272.305695,232.315826 
	C275.078766,233.007187 277.474915,233.723816 279.432037,235.075974 
	C282.411652,237.134537 285.050232,239.679886 287.898407,241.936752 
	C298.250916,250.139923 308.580841,258.373016 319.019623,266.465363 
	C324.590027,270.783600 330.365967,274.836670 336.078979,279.476959 
	C336.006317,284.575684 335.849792,289.206390 335.811462,293.838104 
	C335.695099,307.894440 335.624451,321.951202 335.536011,336.007782 
z"/>
<path fill="#FF969C" opacity="1.000000" stroke="none" 
	d="
M821.330933,249.439590 
	C819.907227,249.353622 818.116333,249.248077 816.951965,248.339600 
	C807.047058,240.611664 797.228333,232.772217 787.438293,224.898300 
	C776.735107,216.289993 766.225220,207.435410 755.380981,199.010071 
	C744.933167,190.892685 734.051208,183.335464 723.567749,175.262283 
	C709.738831,164.612839 696.097717,153.718979 682.423950,142.869583 
	C681.148682,141.857727 680.218506,140.410904 679.051697,138.882309 
	C718.380981,139.124908 752.293579,153.553604 780.526489,180.536499 
	C800.287781,199.422867 814.748108,222.009995 821.330933,249.439590 
z"/>
<path fill="#FF606F" opacity="1.000000" stroke="none" 
	d="
M336.049133,279.009399 
	C330.365967,274.836670 324.590027,270.783600 319.019623,266.465363 
	C308.580841,258.373016 298.250916,250.139923 287.898407,241.936752 
	C285.050232,239.679886 282.411652,237.134537 279.432037,235.075974 
	C277.474915,233.723816 275.078766,233.007187 272.502014,232.007858 
	C278.382111,215.278610 287.778046,200.515045 300.466675,187.708542 
	C316.030090,199.632187 331.245789,211.239761 346.174988,223.204788 
	C350.577057,226.732849 354.169159,231.271515 357.983795,235.630966 
	C354.258514,240.456482 349.699554,244.539246 347.317749,249.638870 
	C342.891327,259.115997 339.734497,269.186127 336.049133,279.009399 
z"/>
<path fill="#FA3B48" opacity="1.000000" stroke="none" 
	d="
M206.404373,510.097046 
	C206.973206,505.716675 203.711990,504.235138 200.713089,501.983704 
	C191.922119,495.383759 183.592743,488.172668 174.884521,481.457764 
	C166.301727,474.839539 157.476852,468.535248 148.413788,462.059143 
	C161.894028,448.130890 175.718674,434.236786 190.182693,420.230652 
	C197.050674,425.071930 203.149368,430.201752 209.554642,434.914978 
	C213.661209,437.936737 218.219727,440.344238 222.575653,443.027100 
	C222.656067,459.183960 222.800156,475.341187 222.715775,491.497192 
	C222.707596,493.066650 221.608887,494.932892 220.466064,496.140625 
	C216.002029,500.858429 211.316635,505.366821 206.404373,510.097046 
z"/>
<path fill="#FF606F" opacity="1.000000" stroke="none" 
	d="
M163.406097,129.081696 
	C160.162460,126.547012 157.354721,123.664749 154.241241,121.162994 
	C138.568237,108.569351 122.812386,96.078842 107.104652,83.528297 
	C106.607368,83.130959 106.317139,82.474495 105.782669,81.554703 
	C115.414047,68.111359 127.601288,57.707317 141.557587,48.761204 
	C145.369537,51.961327 148.665817,55.514202 152.368835,58.575008 
	C162.153900,66.663040 172.049316,74.621696 182.032257,82.464554 
	C187.598999,86.837936 193.532410,90.745270 199.088013,95.131859 
	C201.351196,96.918800 203.050812,99.419495 205.061066,101.969254 
	C188.360809,106.600288 174.668823,115.631592 163.406097,129.081696 
z"/>
<path fill="#FF6472" opacity="1.000000" stroke="none" 
	d="
M751.517700,511.008331 
	C758.537170,511.369598 762.019104,517.507996 767.043091,520.958984 
	C776.253235,527.285400 784.623230,534.831970 793.370544,541.836060 
	C801.429504,548.289001 809.483521,554.749573 817.625427,561.096802 
	C820.337769,563.211304 823.315308,564.985840 826.509888,566.960693 
	C826.895325,583.029724 826.942383,599.053711 826.917969,615.542236 
	C821.539551,612.144104 816.128662,608.415405 810.947571,604.390686 
	C800.641357,596.384705 790.477661,588.195496 780.224670,580.120544 
	C771.782776,573.471985 763.306946,566.866272 754.813171,560.284180 
	C754.064453,559.704041 753.070435,559.440430 751.774048,558.556885 
	C751.411011,542.392090 751.464355,526.700195 751.517700,511.008331 
z"/>
<path fill="#FF808A" opacity="1.000000" stroke="none" 
	d="
M380.527832,25.157904 
	C382.332916,27.152727 383.320465,29.515936 385.072479,30.936028 
	C396.986542,40.593018 409.006042,50.122570 421.098816,59.555782 
	C436.307892,71.419983 451.642181,83.123711 466.853424,94.985222 
	C468.461456,96.239159 469.606415,98.086960 470.982971,99.962860 
	C454.959412,100.369690 438.919037,100.472893 422.421631,100.107124 
	C419.394501,96.970703 417.092621,93.961006 414.205292,91.698410 
	C404.604767,84.175133 394.715332,77.021194 385.088684,69.530304 
	C377.535187,63.652611 370.287292,57.383068 362.758362,51.472664 
	C353.152191,43.931561 343.362823,36.623756 333.766235,29.070759 
	C332.778198,28.293114 332.564880,26.531122 331.992065,25.225887 
	C348.016022,25.180569 364.039978,25.135246 380.527832,25.157904 
z"/>
<path fill="#FF7682" opacity="1.000000" stroke="none" 
	d="
M251.992264,25.236683 
	C266.682465,25.190212 281.372650,25.143744 296.537598,25.511675 
	C298.699158,27.629093 300.245056,29.506973 302.099854,31.001472 
	C307.125977,35.051277 312.335571,38.872856 317.377197,42.904057 
	C326.947083,50.555973 336.312469,58.470211 346.016510,65.946175 
	C358.197479,75.330399 370.710754,84.283516 382.878723,93.684029 
	C384.784241,95.156151 385.620178,98.012764 386.950684,100.229187 
	C371.926270,100.335129 356.901825,100.441086 341.421326,100.077820 
	C339.786530,98.061317 338.859009,96.202957 337.389221,95.016136 
	C325.962494,85.789246 314.502350,76.600487 302.914093,67.577744 
	C288.970428,56.721092 274.787109,46.169876 260.942291,35.190426 
	C257.495453,32.456955 254.951309,28.585224 251.992264,25.236683 
z"/>
<path fill="#FF707D" opacity="1.000000" stroke="none" 
	d="
M355.998901,148.997299 
	C368.555237,145.870667 381.111603,142.744049 394.418793,139.858459 
	C401.133118,145.076355 406.974823,150.208771 413.087311,154.995331 
	C423.482727,163.135773 434.082367,171.014832 444.533386,179.085068 
	C454.960815,187.137115 465.440735,195.131073 475.624542,203.483459 
	C479.166534,206.388489 481.892426,210.288620 484.527985,213.808136 
	C468.040375,213.832748 452.015839,213.783508 435.985931,213.380356 
	C433.553986,210.750092 431.270874,208.293610 428.677032,206.227188 
	C413.959930,194.502792 399.181396,182.855316 384.397736,171.214722 
	C374.954742,163.779343 365.466736,156.401138 355.998901,148.997299 
z"/>
<path fill="#FF7B86" opacity="1.000000" stroke="none" 
	d="
M826.916138,450.541595 
	C822.171875,447.774750 817.354614,444.724518 812.841797,441.275879 
	C800.236877,431.643219 787.752625,421.852356 775.231628,412.110077 
	C769.755310,407.849152 764.382629,403.449585 758.801453,399.331879 
	C756.850830,397.892792 754.415771,397.110321 751.763062,395.557495 
	C751.387207,380.393951 751.450195,365.700989 751.867432,351.008423 
	C753.567871,351.531494 755.117188,351.785126 756.225830,352.622345 
	C761.629395,356.703094 766.902100,360.956665 772.245483,365.117798 
	C783.313721,373.737183 794.310608,382.451660 805.506531,390.902283 
	C812.458740,396.149750 819.722168,400.984863 826.845947,406.005066 
	C826.891296,420.695496 826.936707,435.385925 826.916138,450.541595 
z"/>
<path fill="#FF7682" opacity="1.000000" stroke="none" 
	d="
M484.991028,213.734268 
	C481.892426,210.288620 479.166534,206.388489 475.624542,203.483459 
	C465.440735,195.131073 454.960815,187.137115 444.533386,179.085068 
	C434.082367,171.014832 423.482727,163.135773 413.087311,154.995331 
	C406.974823,150.208771 401.133118,145.076355 394.838196,139.915405 
	C401.236847,139.203522 407.959015,138.429779 414.699097,138.212463 
	C422.483398,137.961456 430.283539,138.200867 438.536102,138.327927 
	C440.930115,140.724060 442.617981,143.300049 444.846649,145.261597 
	C451.063934,150.733673 457.388031,156.099945 463.891937,161.226364 
	C470.119415,166.134918 476.700897,170.591812 482.991302,175.423584 
	C492.186646,182.486694 501.225098,189.753845 510.400116,196.843781 
	C516.160767,201.295288 522.082336,205.538574 527.846924,209.985062 
	C528.784241,210.707993 529.280823,212.002167 529.523315,213.458923 
	C514.374023,213.835114 499.682526,213.784683 484.991028,213.734268 
z"/>
<path fill="#FF6B78" opacity="1.000000" stroke="none" 
	d="
M355.634979,149.021576 
	C365.466736,156.401138 374.954742,163.779343 384.397736,171.214722 
	C399.181396,182.855316 413.959930,194.502792 428.677032,206.227188 
	C431.270874,208.293610 433.553986,210.750092 435.522919,213.454285 
	C419.019562,214.164185 402.852142,212.761795 387.085571,216.947754 
	C385.624207,214.514725 384.544464,212.058578 382.696838,210.531433 
	C378.008911,206.656647 372.911469,203.282761 368.094818,199.557281 
	C353.640411,188.377457 339.241791,177.125473 324.821411,165.901642 
	C334.971283,160.283051 345.121185,154.664459 355.634979,149.021576 
z"/>
<path fill="#FF707D" opacity="1.000000" stroke="none" 
	d="
M251.528702,25.166588 
	C254.951309,28.585224 257.495453,32.456955 260.942291,35.190426 
	C274.787109,46.169876 288.970428,56.721092 302.914093,67.577744 
	C314.502350,76.600487 325.962494,85.789246 337.389221,95.016136 
	C338.859009,96.202957 339.786530,98.061317 340.984802,99.910362 
	C328.282135,100.323723 315.559875,100.435326 302.392090,100.370163 
	C300.751190,98.524704 299.858490,96.474434 298.312256,95.248268 
	C286.942230,86.231941 275.417175,77.411568 263.988495,68.468712 
	C250.609024,57.999371 237.241852,47.513580 223.946854,36.937485 
	C219.857925,33.684776 216.023361,30.112322 212.036316,26.337921 
	C225.021927,25.691877 238.043533,25.394186 251.528702,25.166588 
z"/>
<path fill="#FF808A" opacity="1.000000" stroke="none" 
	d="
M826.912109,405.540039 
	C819.722168,400.984863 812.458740,396.149750 805.506531,390.902283 
	C794.310608,382.451660 783.313721,373.737183 772.245483,365.117798 
	C766.902100,360.956665 761.629395,356.703094 756.225830,352.622345 
	C755.117188,351.785126 753.567871,351.531494 751.771057,350.548401 
	C751.383789,337.394745 751.447205,324.701508 751.867188,312.008545 
	C754.270264,312.961182 756.586121,313.568665 758.318848,314.922546 
	C768.750549,323.073395 779.008484,331.446106 789.402649,339.645630 
	C799.535767,347.639221 809.716797,355.574280 819.987000,363.390259 
	C822.015503,364.934021 824.545105,365.819275 826.843628,367.008209 
	C826.888489,379.697144 826.933350,392.386078 826.912109,405.540039 
z"/>
<path fill="#FF868F" opacity="1.000000" stroke="none" 
	d="
M826.908691,366.542725 
	C824.545105,365.819275 822.015503,364.934021 819.987000,363.390259 
	C809.716797,355.574280 799.535767,347.639221 789.402649,339.645630 
	C779.008484,331.446106 768.750549,323.073395 758.318848,314.922546 
	C756.586121,313.568665 754.270264,312.961182 751.767212,311.548950 
	C750.864685,298.392212 750.418701,285.695343 749.972778,272.998505 
	C753.530518,274.873413 757.388489,276.340576 760.590942,278.698090 
	C771.070312,286.412537 781.387085,294.354279 791.621094,302.393555 
	C800.868347,309.657623 809.911804,317.180603 819.074463,324.552948 
	C821.385437,326.412384 823.808411,328.132599 826.516357,329.962341 
	C826.893188,342.031006 826.933472,354.054108 826.908691,366.542725 
z"/>
<path fill="#FF808A" opacity="1.000000" stroke="none" 
	d="
M594.990906,213.731171 
	C591.540344,209.942062 588.496216,205.653641 584.565430,202.454620 
	C571.121887,191.513702 557.417969,180.889481 543.714478,170.272110 
	C532.638367,161.690414 521.365601,153.362000 510.318085,144.744354 
	C508.514893,143.337738 507.426422,141.014877 505.991119,138.777878 
	C517.674500,138.367874 529.374329,138.295517 541.533325,138.324875 
	C543.102478,140.237747 543.820007,142.543427 545.382874,143.784012 
	C562.172668,157.111481 579.060669,170.316269 595.998840,183.455200 
	C603.301758,189.119995 610.812500,194.515976 618.173462,200.106918 
	C622.107178,203.094681 625.994385,206.154053 629.745972,209.364151 
	C630.780273,210.249146 631.251648,211.792038 631.522583,213.458557 
	C619.039551,213.833084 607.015259,213.782135 594.990906,213.731171 
z"/>
<path fill="#FF7B86" opacity="1.000000" stroke="none" 
	d="
M387.396545,100.402985 
	C385.620178,98.012764 384.784241,95.156151 382.878723,93.684029 
	C370.710754,84.283516 358.197479,75.330399 346.016510,65.946175 
	C336.312469,58.470211 326.947083,50.555973 317.377197,42.904057 
	C312.335571,38.872856 307.125977,35.051277 302.099854,31.001472 
	C300.245056,29.506973 298.699158,27.629093 297.000702,25.580742 
	C308.347473,25.186537 319.705902,25.137665 331.528198,25.157337 
	C332.564880,26.531122 332.778198,28.293114 333.766235,29.070759 
	C343.362823,36.623756 353.152191,43.931561 362.758362,51.472664 
	C370.287292,57.383068 377.535187,63.652611 385.088684,69.530304 
	C394.715332,77.021194 404.604767,84.175133 414.205292,91.698410 
	C417.092621,93.961006 419.394501,96.970703 421.983032,99.944260 
	C410.615143,100.359184 399.228760,100.467987 387.396545,100.402985 
z"/>
<path fill="#FF6472" opacity="1.000000" stroke="none" 
	d="
M324.496521,165.987183 
	C339.241791,177.125473 353.640411,188.377457 368.094818,199.557281 
	C372.911469,203.282761 378.008911,206.656647 382.696838,210.531433 
	C384.544464,212.058578 385.624207,214.514725 386.833649,217.188141 
	C375.808105,221.535217 366.673218,227.958160 358.132446,235.347015 
	C354.169159,231.271515 350.577057,226.732849 346.174988,223.204788 
	C331.245789,211.239761 316.030090,199.632187 300.755676,187.509735 
	C308.448914,180.111847 316.310303,173.092285 324.496521,165.987183 
z"/>
<path fill="#FC4352" opacity="1.000000" stroke="none" 
	d="
M222.679047,442.566986 
	C218.219727,440.344238 213.661209,437.936737 209.554642,434.914978 
	C203.149368,430.201752 197.050674,425.071930 190.486420,420.085754 
	C198.467361,409.893005 208.455414,402.946747 222.782425,403.000275 
	C222.782425,416.263306 222.782425,429.185089 222.679047,442.566986 
z"/>
<path fill="#FFFEFE" opacity="1.000000" stroke="none" 
	d="
M357.983795,235.630981 
	C366.673218,227.958160 375.808105,221.535217 386.865601,217.588043 
	C402.852142,212.761795 419.019562,214.164185 435.528259,213.808228 
	C452.015839,213.783508 468.040375,213.832748 484.527985,213.808136 
	C499.682526,213.784683 514.374023,213.835114 529.528687,213.812134 
	C551.349548,213.785721 572.707153,213.832718 594.527832,213.805435 
	C607.015259,213.782135 619.039551,213.833084 631.527100,213.811127 
	C648.680481,213.829132 665.370605,213.920029 682.527527,213.970551 
	C690.771240,216.031647 698.956482,217.203506 706.249390,220.406937 
	C729.130859,230.457779 743.211060,248.305099 749.791016,272.671783 
	C750.418701,285.695343 750.864685,298.392212 751.410583,311.548676 
	C751.447205,324.701508 751.383789,337.394745 751.416748,350.547974 
	C751.450195,365.700989 751.387207,380.393951 751.419189,395.547058 
	C751.451843,414.035431 751.389526,432.063690 751.421265,450.552185 
	C751.460144,470.703339 751.404907,490.394257 751.433716,510.546753 
	C751.464355,526.700195 751.411011,542.392090 751.437988,558.546021 
	C751.518372,564.128174 751.518372,569.248230 751.518372,575.826477 
	C749.263367,573.714539 747.984741,572.582092 746.778320,571.377319 
	C732.552856,557.170349 718.223755,543.064453 704.164062,528.695190 
	C695.886841,520.235840 685.944763,516.209595 674.305542,516.112183 
	C662.509705,516.013428 650.712280,516.112732 638.453125,516.210815 
	C624.300537,516.240906 610.610413,516.185425 596.457947,516.213867 
	C575.303284,516.238403 554.610962,516.179077 533.456116,516.203369 
	C511.633301,516.230347 490.273010,516.173706 468.450378,516.203979 
	C447.301056,516.195984 426.614105,516.101135 405.461609,516.067261 
	C381.825867,513.359985 363.110443,502.944458 349.352112,483.889069 
	C343.207550,475.378845 339.559937,465.830597 336.969910,455.374268 
	C336.471619,434.978851 336.096191,414.953033 335.625366,394.467773 
	C335.596039,374.981110 335.662079,355.953796 335.632050,336.467163 
	C335.624451,321.951202 335.695099,307.894440 335.811462,293.838104 
	C335.849792,289.206390 336.006317,284.575684 336.078949,279.476959 
	C339.734497,269.186127 342.891327,259.115997 347.317749,249.638870 
	C349.699554,244.539246 354.258514,240.456482 357.983795,235.630981 
M491.968262,459.312378 
	C504.314056,459.249664 516.659851,459.186951 529.928528,459.306000 
	C545.955750,459.243591 561.982910,459.181183 578.932251,459.296234 
	C591.623779,459.238617 604.315369,459.181000 617.931091,459.288452 
	C621.071838,459.301025 624.221069,459.467926 627.351501,459.294586 
	C634.238708,458.913116 641.116272,458.359772 648.735657,457.900299 
	C659.856262,454.652740 667.430603,447.395050 672.785522,436.567230 
	C682.489014,411.566711 666.516663,385.411255 640.408142,384.148254 
	C628.630920,383.578522 616.800476,384.106079 604.065796,384.004730 
	C590.043152,384.049316 576.020569,384.093933 561.069580,384.000519 
	C549.045654,384.045837 537.021729,384.091125 524.069885,383.997467 
	C511.378143,384.045197 498.686401,384.092896 485.066925,384.003510 
	C473.298737,383.989471 461.527954,383.832886 449.763824,384.044708 
	C446.035614,384.111786 442.325043,385.161682 437.878662,385.796906 
	C428.253357,388.341034 421.364105,394.309662 416.063416,403.325226 
	C403.970001,426.582458 416.611237,455.219696 441.823181,458.481628 
	C457.989990,460.573242 474.626221,459.036499 491.968262,459.312378 
M496.923279,346.023834 
	C511.279541,345.976074 525.635803,345.928284 540.920410,346.027008 
	C558.277893,345.979218 575.635376,345.931427 593.921814,346.025330 
	C608.575989,346.030792 623.231262,346.132812 637.883545,345.970215 
	C641.319641,345.932098 644.745789,344.998993 648.928345,344.319427 
	C661.111450,340.832397 668.892883,332.772430 673.575073,320.450134 
	C681.150085,300.694794 669.313599,276.634766 648.267578,272.386627 
	C636.236938,269.958191 623.449829,271.277618 610.071777,270.785706 
	C592.715759,270.824677 575.359741,270.863617 557.072693,270.773041 
	C538.716431,270.814575 520.360229,270.856110 501.073761,270.763519 
	C483.717346,270.813599 466.360901,270.863678 448.131256,270.812927 
	C436.059235,271.355286 426.022552,275.808502 418.392181,286.354340 
	C409.966064,298.671173 408.660095,311.798096 415.247711,325.097870 
	C421.550659,337.822906 432.271698,345.309662 446.550720,345.833954 
	C463.010590,346.438293 479.511932,345.912964 496.923279,346.023834 
z"/>
<path fill="#FF707D" opacity="1.000000" stroke="none" 
	d="
M648.176514,344.477661 
	C644.745789,344.998993 641.319641,345.932098 637.883545,345.970215 
	C623.231262,346.132812 608.575989,346.030792 593.420227,345.617859 
	C590.865601,343.100159 588.990845,340.770599 586.721802,338.926056 
	C582.236938,335.280243 577.459900,331.995819 572.935181,328.396637 
	C560.252014,318.307648 547.723145,308.023041 534.965088,298.030457 
	C524.950439,290.186584 514.649902,282.708374 504.578369,274.935547 
	C503.389557,274.018066 502.846436,272.263947 502.003998,270.897644 
	C520.360229,270.856110 538.716431,270.814575 557.570496,271.197205 
	C558.510620,272.293121 558.813843,273.145172 559.416077,273.609619 
	C568.958984,280.969269 578.595276,288.208649 588.096619,295.621033 
	C597.092957,302.639496 605.874817,309.933746 614.901123,316.912598 
	C624.977234,324.703217 635.265747,332.219177 645.341431,340.010345 
	C646.653442,341.024841 647.249084,342.965820 648.176514,344.477661 
z"/>
<path fill="#FF6B78" opacity="1.000000" stroke="none" 
	d="
M501.538879,270.830597 
	C502.846436,272.263947 503.389557,274.018066 504.578369,274.935547 
	C514.649902,282.708374 524.950439,290.186584 534.965088,298.030457 
	C547.723145,308.023041 560.252014,318.307648 572.935181,328.396637 
	C577.459900,331.995819 582.236938,335.280243 586.721802,338.926056 
	C588.990845,340.770599 590.865601,343.100159 592.955750,345.547028 
	C575.635376,345.931427 558.277893,345.979218 540.418457,345.616394 
	C535.369751,341.182556 531.013428,336.915619 526.237244,333.186249 
	C515.959473,325.161041 505.343811,317.567474 495.091858,309.510468 
	C483.001007,300.008209 471.096893,290.265381 459.223480,280.491180 
	C455.626587,277.530212 452.400452,274.118835 449.004486,270.913757 
	C466.360901,270.863678 483.717346,270.813599 501.538879,270.830597 
z"/>
<path fill="#FF5767" opacity="1.000000" stroke="none" 
	d="
M578.010132,459.118774 
	C561.982910,459.181183 545.955750,459.243591 529.436157,458.859131 
	C522.374512,452.537720 516.011047,446.410126 509.181488,440.855499 
	C501.388397,434.517090 493.085114,428.810516 485.172607,422.613495 
	C469.588806,410.408417 454.121765,398.054291 438.606415,385.761841 
	C442.325043,385.161682 446.035614,384.111786 449.763824,384.044708 
	C461.527954,383.832886 473.298737,383.989471 485.574463,384.409424 
	C486.916534,385.803711 487.606415,386.979767 488.607849,387.751587 
	C499.455688,396.112213 510.385651,404.366394 521.228333,412.733612 
	C538.861511,426.340942 556.478455,439.970032 574.000549,453.719543 
	C575.701782,455.054504 576.690613,457.297363 578.010132,459.118774 
z"/>
<path fill="#FF7682" opacity="1.000000" stroke="none" 
	d="
M648.552429,344.398560 
	C647.249084,342.965820 646.653442,341.024841 645.341431,340.010345 
	C635.265747,332.219177 624.977234,324.703217 614.901123,316.912598 
	C605.874817,309.933746 597.092957,302.639496 588.096619,295.621033 
	C578.595276,288.208649 568.958984,280.969269 559.416077,273.609619 
	C558.813843,273.145172 558.510620,272.293121 558.036011,271.261963 
	C575.359741,270.863617 592.715759,270.824677 610.566956,271.202026 
	C612.421021,273.244537 613.545654,275.168365 615.175049,276.450897 
	C631.645752,289.415497 648.184265,302.294281 664.743896,315.145294 
	C667.437622,317.235718 670.327759,319.072937 673.127136,321.027191 
	C668.892883,332.772430 661.111450,340.832397 648.552429,344.398560 
z"/>
<path fill="#FF6472" opacity="1.000000" stroke="none" 
	d="
M448.567871,270.863342 
	C452.400452,274.118835 455.626587,277.530212 459.223480,280.491180 
	C471.096893,290.265381 483.001007,300.008209 495.091858,309.510468 
	C505.343811,317.567474 515.959473,325.161041 526.237244,333.186249 
	C531.013428,336.915619 535.369751,341.182556 539.954224,345.543152 
	C525.635803,345.928284 511.279541,345.976074 496.420837,345.614624 
	C494.156586,343.256165 492.622284,341.020966 490.593719,339.406860 
	C481.571106,332.227600 472.426514,325.200806 463.289062,318.166870 
	C451.367615,308.989838 439.460052,299.793213 427.431061,290.758698 
	C424.864136,288.830780 421.801605,287.562744 418.967407,285.990692 
	C426.022552,275.808502 436.059235,271.355286 448.567871,270.863342 
z"/>
<path fill="#FF5D6D" opacity="1.000000" stroke="none" 
	d="
M578.471191,459.207520 
	C576.690613,457.297363 575.701782,455.054504 574.000549,453.719543 
	C556.478455,439.970032 538.861511,426.340942 521.228333,412.733612 
	C510.385651,404.366394 499.455688,396.112213 488.607849,387.751587 
	C487.606415,386.979767 486.916534,385.803711 486.038330,384.477966 
	C498.686401,384.092896 511.378143,384.045197 524.576843,384.405334 
	C525.777588,385.714630 526.318420,386.813446 527.188171,387.487976 
	C539.946289,397.381805 552.780212,407.177887 565.531677,417.080200 
	C581.837219,429.742493 598.103699,442.455475 614.317932,455.234344 
	C615.501038,456.166809 616.123657,457.810394 617.006897,459.123383 
	C604.315369,459.181000 591.623779,459.238617 578.471191,459.207520 
z"/>
<path fill="#FF6472" opacity="1.000000" stroke="none" 
	d="
M561.997925,384.138519 
	C576.020569,384.093933 590.043152,384.049316 604.572327,384.405334 
	C611.947632,390.913422 618.561584,397.341064 625.741699,403.057495 
	C638.244324,413.011475 651.053772,422.583191 663.836975,432.178833 
	C666.422180,434.119385 669.461670,435.454773 672.291687,437.069122 
	C667.430603,447.395050 659.856262,454.652740 648.404907,457.552856 
	C647.584961,455.506073 647.643921,453.144257 646.518860,452.213165 
	C638.240051,445.361633 629.784119,438.718536 621.262268,432.168182 
	C615.767151,427.944397 609.953247,424.133789 604.481201,419.882050 
	C593.963013,411.709625 583.491394,403.470764 573.198303,395.018555 
	C569.189758,391.726929 565.715515,387.784515 561.997925,384.138519 
z"/>
<path fill="#FF606F" opacity="1.000000" stroke="none" 
	d="
M561.533752,384.069519 
	C565.715515,387.784515 569.189758,391.726929 573.198303,395.018555 
	C583.491394,403.470764 593.963013,411.709625 604.481201,419.882050 
	C609.953247,424.133789 615.767151,427.944397 621.262268,432.168182 
	C629.784119,438.718536 638.240051,445.361633 646.518860,452.213165 
	C647.643921,453.144257 647.584961,455.506073 648.036011,457.541016 
	C641.116272,458.359772 634.238708,458.913116 627.351501,459.294586 
	C624.221069,459.467926 621.071838,459.301025 617.468994,459.205933 
	C616.123657,457.810394 615.501038,456.166809 614.317932,455.234344 
	C598.103699,442.455475 581.837219,429.742493 565.531677,417.080200 
	C552.780212,407.177887 539.946289,397.381805 527.188171,387.487976 
	C526.318420,386.813446 525.777588,385.714630 525.040771,384.474792 
	C537.021729,384.091125 549.045654,384.045837 561.533752,384.069519 
z"/>
<path fill="#FF5464" opacity="1.000000" stroke="none" 
	d="
M438.242554,385.779358 
	C454.121765,398.054291 469.588806,410.408417 485.172607,422.613495 
	C493.085114,428.810516 501.388397,434.517090 509.181488,440.855499 
	C516.011047,446.410126 522.374512,452.537720 528.974731,458.768250 
	C516.659851,459.186951 504.314056,459.249664 491.364197,458.904175 
	C490.326721,457.996521 489.961945,457.408783 489.449860,457.010559 
	C478.916321,448.820160 468.333221,440.693115 457.833588,432.459595 
	C453.038361,428.699341 448.464325,424.657410 443.676300,420.887573 
	C437.596985,416.101013 431.520935,411.292450 425.199249,406.840210 
	C422.642181,405.039307 419.440125,404.154266 416.531555,402.852478 
	C421.364105,394.309662 428.253357,388.341034 438.242554,385.779358 
z"/>
<path fill="#FF606F" opacity="1.000000" stroke="none" 
	d="
M418.679810,286.172516 
	C421.801605,287.562744 424.864136,288.830780 427.431061,290.758698 
	C439.460052,299.793213 451.367615,308.989838 463.289062,318.166870 
	C472.426514,325.200806 481.571106,332.227600 490.593719,339.406860 
	C492.622284,341.020966 494.156586,343.256165 495.956848,345.541809 
	C479.511932,345.912964 463.010590,346.438293 446.550720,345.833954 
	C432.271698,345.309662 421.550659,337.822906 415.247711,325.097870 
	C408.660095,311.798096 409.966064,298.671173 418.679810,286.172516 
z"/>
<path fill="#FE4F60" opacity="1.000000" stroke="none" 
	d="
M416.297485,403.088867 
	C419.440125,404.154266 422.642181,405.039307 425.199249,406.840210 
	C431.520935,411.292450 437.596985,416.101013 443.676300,420.887573 
	C448.464325,424.657410 453.038361,428.699341 457.833588,432.459595 
	C468.333221,440.693115 478.916321,448.820160 489.449860,457.010559 
	C489.961945,457.408783 490.326721,457.996521 490.906067,458.811096 
	C474.626221,459.036499 457.989990,460.573242 441.823181,458.481628 
	C416.611237,455.219696 403.970001,426.582458 416.297485,403.088867 
z"/>
<path fill="#FF6B78" opacity="1.000000" stroke="none" 
	d="
M672.538574,436.818176 
	C669.461670,435.454773 666.422180,434.119385 663.836975,432.178833 
	C651.053772,422.583191 638.244324,413.011475 625.741699,403.057495 
	C618.561584,397.341064 611.947632,390.913422 605.036499,384.470825 
	C616.800476,384.106079 628.630920,383.578522 640.408142,384.148254 
	C666.516663,385.411255 682.489014,411.566711 672.538574,436.818176 
z"/>
<path fill="#FF7B86" opacity="1.000000" stroke="none" 
	d="
M673.351074,320.738647 
	C670.327759,319.072937 667.437622,317.235718 664.743896,315.145294 
	C648.184265,302.294281 631.645752,289.415497 615.175049,276.450897 
	C613.545654,275.168365 612.421021,273.244537 611.032715,271.263977 
	C623.449829,271.277618 636.236938,269.958191 648.267578,272.386627 
	C669.313599,276.634766 681.150085,300.694794 673.351074,320.738647 
z"/>
</svg>