<svg version="1.1" id="Layer_1" xmlns="http://www.w3.org/2000/svg" xmlns:xlink="http://www.w3.org/1999/xlink" x="0px" y="0px"
	 width="100%" viewBox="0 0 984 674" enable-background="new 0 0 984 674" xml:space="preserve">
<path fill="#FFFFFF" opacity="1.000000" stroke="none" 
	d="
M602.000000,675.000000 
	C401.333405,675.000000 201.166779,675.000000 1.000134,675.000000 
	C1.000090,450.333466 1.000090,225.666916 1.000045,1.000285 
	C328.999786,1.000190 656.999573,1.000190 984.999512,1.000095 
	C984.999634,225.666382 984.999634,450.332764 984.999817,674.999573 
	C857.500000,675.000000 730.000000,675.000000 602.000000,675.000000 
M756.643494,583.679077 
	C766.024475,559.399414 750.223999,534.590332 726.344788,532.193176 
	C715.334167,531.087830 704.121216,531.998413 692.073608,531.836609 
	C680.382385,531.889343 668.691223,531.942017 656.073608,531.836365 
	C636.715820,531.888489 617.358032,531.940613 597.074097,531.832520 
	C575.382812,531.885925 553.691467,531.939331 531.075073,531.825745 
	C515.383362,531.883118 499.691681,531.940491 483.075897,531.824341 
	C461.050659,531.879700 439.025452,531.935059 416.076599,531.813904 
	C404.051086,531.873657 392.025543,531.933411 379.077301,531.811279 
	C363.051575,531.872375 347.025848,531.933472 330.077240,531.814026 
	C308.384827,531.875488 286.692413,531.936890 264.077972,531.812744 
	C243.051987,531.874817 222.025986,531.936829 200.081635,531.809326 
	C197.087814,531.828308 194.090393,531.758728 191.100784,531.880859 
	C174.226868,532.569824 159.747925,544.566528 156.079590,560.843689 
	C152.324966,577.503723 159.687164,594.461975 174.652100,602.268372 
	C179.109680,604.593689 184.314682,606.736938 189.200607,606.789429 
	C223.463120,607.157898 257.731750,606.956970 292.921326,607.117676 
	C313.613525,607.057800 334.305756,606.997925 355.920746,607.118225 
	C377.946289,607.059326 399.971832,607.000488 422.920532,607.121094 
	C439.279907,607.061523 455.639252,607.002014 472.922607,607.116089 
	C484.281158,607.058838 495.639709,607.001587 507.922180,607.117920 
	C530.613831,607.057617 553.305481,606.997314 576.921326,607.110901 
	C592.613098,607.054932 608.304932,606.998962 624.921326,607.113831 
	C646.279724,607.057312 667.638062,607.000732 689.921692,607.112305 
	C701.013733,607.101807 712.152039,607.692078 723.179321,606.841980 
	C729.209045,606.377197 735.050964,603.476196 741.599365,601.486084 
	C748.358093,597.340515 752.556885,591.045471 756.643494,583.679077 
M779.654236,355.573639 
	C783.171875,344.737305 786.689453,333.901001 790.678772,322.486847 
	C795.752197,302.634521 797.915039,282.482086 797.024475,261.080505 
	C796.285339,252.722900 795.546265,244.365295 794.885864,235.195404 
	C793.031311,227.101089 791.176758,219.006775 789.232544,210.110306 
	C784.838440,198.067398 780.444275,186.024490 775.965027,173.262482 
	C762.756165,145.208862 744.460510,120.995018 721.161072,100.539253 
	C691.032959,74.088249 656.418762,56.756634 616.190491,48.996925 
	C603.459839,47.705193 590.729126,46.413460 577.069641,45.004135 
	C568.712891,45.364170 560.356201,45.724209 551.142334,46.012897 
	C540.636963,47.918007 530.131592,49.823116 518.852539,51.788437 
	C504.858337,56.832718 490.864105,61.876999 476.169342,67.026329 
	C463.075897,75.239983 449.982483,83.453629 436.248871,91.941399 
	C430.662415,96.657944 424.792511,101.083084 419.564575,106.168213 
	C413.647400,111.923790 408.306152,118.271477 402.068481,124.622810 
	C393.662109,137.065872 385.255737,149.508926 376.322357,162.381241 
	C371.221039,173.937958 366.119720,185.494690 360.268829,196.983429 
	C333.498810,186.089874 305.587921,183.232208 276.211395,185.344757 
	C270.139069,186.309174 264.066772,187.273575 257.240631,188.267654 
	C249.795670,190.420258 242.350708,192.572861 234.149170,194.828812 
	C223.757980,199.866074 213.366806,204.903320 202.296432,210.094391 
	C192.486694,217.714310 182.676971,225.334244 172.264740,233.219788 
	C164.461716,242.461304 156.658707,251.702820 148.293503,261.303192 
	C142.215851,272.869446 136.138199,284.435730 129.633362,296.594360 
	C121.435471,317.272430 117.277161,338.677155 117.306541,360.886047 
	C142.927643,360.886047 167.800125,360.886047 192.463165,360.886047 
	C193.204620,354.356445 193.896942,348.259583 194.885925,341.508820 
	C197.429977,328.810944 202.382294,317.072998 209.601074,305.660004 
	C216.083939,296.558228 222.349655,287.258575 232.673721,280.857330 
	C243.360229,272.745026 255.017380,266.564117 268.859894,263.103851 
	C283.736206,259.311523 298.726410,259.094604 314.475403,261.946564 
	C325.942139,264.417633 336.695190,268.637695 346.773376,274.688568 
	C361.968018,283.811340 373.263855,296.695190 382.938751,312.039703 
	C391.002563,327.339050 395.434570,343.629272 395.574249,361.033203 
	C414.179840,361.033203 432.091034,361.033203 450.926178,361.207428 
	C457.575562,361.207428 464.224976,361.207428 470.847198,361.207428 
	C470.847198,358.594910 470.847198,356.799164 470.973755,354.106018 
	C470.270355,347.405396 469.566956,340.704742 468.940491,333.198303 
	C468.284119,329.772949 467.728333,326.324677 466.955383,322.925842 
	C460.887939,296.246338 449.846619,271.971039 431.815399,250.338242 
	C427.281647,246.395126 426.686035,241.738098 428.631592,236.173843 
	C432.001770,226.535355 434.996124,216.765457 438.667603,206.608749 
	C444.446503,193.659668 452.283051,182.023804 461.864685,170.811783 
	C472.017120,159.726257 483.257080,149.923141 496.651184,141.715805 
	C511.627136,132.520233 527.915344,126.692787 545.818970,122.938843 
	C556.712952,122.229126 567.632446,120.701035 578.493713,121.039810 
	C589.358459,121.378700 600.164978,123.583931 611.648926,125.333702 
	C641.232422,133.639328 666.307373,149.071442 686.122803,172.697617 
	C690.583008,178.015503 694.644775,183.667526 699.001282,189.850677 
	C702.347839,196.116867 706.064575,202.216522 708.972412,208.680084 
	C718.159729,229.101685 721.918152,250.687653 721.828430,273.820862 
	C719.847168,286.202698 717.865906,298.584564 715.408081,311.493347 
	C710.196106,329.508301 701.234497,345.635437 689.217407,361.227753 
	C692.020142,361.227753 693.502380,361.228485 694.984558,361.227661 
	C720.787292,361.213379 746.590759,361.098999 772.392029,361.286224 
	C776.526672,361.316223 778.616455,360.026215 779.654236,355.573639 
M834.552551,462.357666 
	C837.294678,442.129913 825.958313,423.854889 806.623352,419.765137 
	C797.391968,417.812561 787.541626,418.786255 777.057861,418.246429 
	C758.362915,418.314087 739.667969,418.381744 720.060974,418.251434 
	C704.028320,418.322876 687.995728,418.394318 671.052246,418.269073 
	C658.946716,418.240570 646.841125,418.163910 634.735779,418.195557 
	C619.155701,418.236298 603.575989,418.363922 587.078125,418.253998 
	C571.375427,418.323853 555.672729,418.393677 539.057861,418.267120 
	C528.941833,418.241760 518.825745,418.171509 508.709900,418.201111 
	C491.470642,418.251526 474.231628,418.364746 456.074432,418.258026 
	C437.048035,418.325500 418.021667,418.392944 398.077423,418.264069 
	C378.710846,418.328949 359.344269,418.393829 339.064148,418.262512 
	C316.367615,418.326599 293.671051,418.390717 270.060638,418.261993 
	C245.039474,418.327423 220.018295,418.392853 194.078949,418.263092 
	C172.719086,418.328339 151.359207,418.393585 129.085541,418.262695 
	C125.613289,418.247070 122.136673,418.111542 118.669579,418.237671 
	C106.821434,418.668762 96.247795,421.975281 88.136398,432.220551 
	C78.864639,443.921875 76.913483,456.926025 82.536606,470.566833 
	C88.013031,483.851746 98.244194,492.351410 112.744926,493.167908 
	C130.118179,494.146088 147.576477,493.613647 165.922165,493.900055 
	C183.613297,493.845184 201.304428,493.790283 219.919815,493.901550 
	C241.611191,493.846954 263.302582,493.792328 285.918427,493.903931 
	C311.011108,493.841949 336.103821,493.779999 361.954681,493.886902 
	C384.632874,493.837616 407.311096,493.788330 430.915466,493.902527 
	C450.274536,493.847992 469.633575,493.793457 489.917480,493.902924 
	C508.941956,493.848663 527.966431,493.794403 547.915955,493.904266 
	C574.938843,493.847168 601.961731,493.790070 629.911133,493.898468 
	C646.271729,493.845245 662.632385,493.792053 679.918274,493.899384 
	C706.668762,493.811462 733.419250,493.723541 760.920471,493.826233 
	C773.042603,493.857758 785.168152,494.060333 797.284973,493.822205 
	C801.196777,493.745300 805.085754,492.509949 809.691467,491.744324 
	C822.982910,486.553894 831.045166,476.926575 834.552551,462.357666 
z"/>
<path fill="#FF6372" opacity="1.000000" stroke="none" 
	d="
M432.042419,250.982666 
	C449.846619,271.971039 460.887939,296.246338 466.955383,322.925842 
	C467.728333,326.324677 468.284119,329.772949 468.562500,333.557465 
	C459.772736,327.758453 451.179810,321.830597 442.990875,315.389191 
	C430.110199,305.257324 417.667847,294.565887 404.735138,284.503113 
	C388.925171,272.201599 372.786957,260.322540 356.822571,248.218689 
	C353.269836,245.525085 349.822021,242.690247 346.374695,239.861038 
	C336.436249,231.704590 326.662476,223.340134 316.560181,215.392776 
	C306.420227,207.415802 295.947296,199.862885 285.653809,192.079788 
	C282.708496,189.852783 279.879669,187.471741 276.997437,185.161316 
	C305.587921,183.232208 333.498810,186.089874 360.796753,197.314728 
	C365.627106,200.949127 369.941895,204.236298 374.229828,207.558136 
	C390.382538,220.071716 406.493744,232.639328 422.704163,245.077698 
	C425.614014,247.310471 428.919556,249.027496 432.042419,250.982666 
z"/>
<path fill="#FF949B" opacity="1.000000" stroke="none" 
	d="
M519.626221,51.728222 
	C530.131592,49.823116 540.636963,47.918007 551.612061,46.388100 
	C559.642639,53.135372 567.050781,59.700619 574.805115,65.827766 
	C583.368469,72.594200 592.370667,78.803871 600.964111,85.533859 
	C615.039673,96.557060 628.874023,107.888054 642.934692,118.930603 
	C653.482849,127.214638 664.302185,135.153214 674.864014,143.420212 
	C687.365295,153.205200 699.665161,163.247437 712.158936,173.042191 
	C719.312561,178.650452 726.766235,183.875854 733.926392,189.476151 
	C743.442017,196.918716 752.774170,204.595505 762.240967,212.101196 
	C768.727783,217.244293 775.231995,222.372192 781.877686,227.305817 
	C786.044434,230.399139 790.487854,233.119827 794.807129,236.007706 
	C795.546265,244.365295 796.285339,252.722900 796.628113,261.501556 
	C791.685425,258.645538 787.035400,255.501862 782.614685,252.063309 
	C773.734009,245.155685 765.040344,238.007355 756.153870,231.107361 
	C747.142517,224.110382 737.908386,217.399567 728.925537,210.367035 
	C720.066162,203.431183 711.435608,196.203186 702.584900,189.255905 
	C701.808228,188.646255 700.142700,189.168961 698.890015,189.165726 
	C694.644775,183.667526 690.583008,178.015503 686.122803,172.697617 
	C666.307373,149.071442 641.232422,133.639328 611.287231,124.807266 
	C609.821411,123.120888 608.847046,121.792519 607.593140,120.827217 
	C595.955750,111.867790 584.160034,103.110710 572.624084,94.023430 
	C554.869507,80.037483 537.283691,65.837425 519.626221,51.728222 
z"/>
<path fill="#FF6372" opacity="1.000000" stroke="none" 
	d="
M760.169739,493.635590 
	C733.419250,493.723541 706.668762,493.811462 679.448914,493.466431 
	C678.691223,492.280487 678.625366,491.242523 678.080994,490.817413 
	C670.391663,484.812592 662.644714,478.881226 654.896667,472.951813 
	C645.823730,466.008484 636.656616,459.185547 627.674316,452.127136 
	C615.575195,442.619476 603.578613,432.979706 591.636475,423.275513 
	C590.119080,422.042450 589.195007,420.079132 587.996094,418.454102 
	C603.575989,418.363922 619.155701,418.236298 634.735779,418.195557 
	C646.841125,418.163910 658.946716,418.240570 671.516724,418.716003 
	C673.022705,420.932953 673.676147,423.181274 675.170227,424.393707 
	C683.475159,431.133057 691.963379,437.647888 700.427795,444.189178 
	C716.492920,456.604187 732.813293,468.705750 748.512756,481.565979 
	C752.723206,485.015015 759.335022,486.733978 760.169739,493.635590 
z"/>
<path fill="#FF5666" opacity="1.000000" stroke="none" 
	d="
M628.984619,493.732971 
	C601.961731,493.790070 574.938843,493.847168 547.447754,493.472015 
	C545.725403,491.395874 544.746155,489.402771 543.172913,488.164154 
	C532.147888,479.484222 520.972473,470.995697 509.898560,462.377350 
	C495.174805,450.918427 480.423676,439.491943 465.860840,427.831024 
	C462.534210,425.167267 459.929474,421.601959 456.992493,418.451569 
	C474.231628,418.364746 491.470642,418.251526 508.709900,418.201111 
	C518.825745,418.171509 528.941833,418.241760 539.521606,418.718750 
	C540.334351,420.235657 540.351318,421.716339 541.083801,422.301880 
	C548.305176,428.074219 555.628174,433.720306 562.956177,439.358276 
	C572.772400,446.910645 582.631287,454.407623 592.448120,461.959259 
	C601.350952,468.807770 610.397583,475.486694 619.025879,482.666840 
	C622.800903,485.808289 625.692078,490.011810 628.984619,493.732971 
z"/>
<path fill="#F8373A" opacity="1.000000" stroke="none" 
	d="
M291.998444,606.938110 
	C257.731750,606.956970 223.463120,607.157898 189.200607,606.789429 
	C184.314682,606.736938 179.109680,604.593689 174.652100,602.268372 
	C159.687164,594.461975 152.324966,577.503723 156.079590,560.843689 
	C159.747925,544.566528 174.226868,532.569824 191.100784,531.880859 
	C194.090393,531.758728 197.087814,531.828308 200.577209,532.249878 
	C207.420135,538.146301 213.647736,543.749634 220.142426,549.024170 
	C230.360077,557.322205 240.784714,565.364685 251.069794,573.580383 
	C258.496582,579.512939 265.750305,585.664917 273.249084,591.503418 
	C278.562866,595.640747 284.206238,599.352661 289.584503,603.410889 
	C290.662537,604.224304 291.207611,605.744019 291.998444,606.938110 
z"/>
<path fill="#FB3E4D" opacity="1.000000" stroke="none" 
	d="
M361.196503,493.718018 
	C336.103821,493.779999 311.011108,493.841949 285.454834,493.458740 
	C283.142670,490.906921 281.566986,488.453217 279.401062,486.750214 
	C265.915710,476.146973 252.314713,465.690430 238.719711,455.227264 
	C226.339874,445.699371 213.825165,436.343079 201.589645,426.634216 
	C198.914185,424.511230 197.170135,421.214447 194.997131,418.458252 
	C220.018295,418.392853 245.039474,418.327423 270.530640,418.695709 
	C271.774719,420.352966 272.298920,421.882721 273.362885,422.751099 
	C281.041351,429.017670 288.775238,435.219604 296.596802,441.306763 
	C305.072632,447.903015 313.734253,454.261292 322.183807,460.890411 
	C331.909302,468.520477 341.561096,476.248718 351.099609,484.110626 
	C354.675507,487.057983 357.842865,490.501007 361.196503,493.718018 
z"/>
<path fill="#FF8E96" opacity="1.000000" stroke="none" 
	d="
M698.945679,189.508209 
	C700.142700,189.168961 701.808228,188.646255 702.584900,189.255905 
	C711.435608,196.203186 720.066162,203.431183 728.925537,210.367035 
	C737.908386,217.399567 747.142517,224.110382 756.153870,231.107361 
	C765.040344,238.007355 773.734009,245.155685 782.614685,252.063309 
	C787.035400,255.501862 791.685425,258.645538 796.573364,261.963074 
	C797.915039,282.482086 795.752197,302.634521 790.058594,322.752441 
	C788.513123,322.711578 787.409790,322.631866 786.688599,322.065613 
	C767.552185,307.041260 748.484741,291.928833 729.310425,276.953339 
	C727.145325,275.262360 724.414856,274.295319 721.946533,272.992584 
	C721.918152,250.687653 718.159729,229.101685 708.972412,208.680084 
	C706.064575,202.216522 702.347839,196.116867 698.945679,189.508209 
z"/>
<path fill="#FC4554" opacity="1.000000" stroke="none" 
	d="
M361.575592,493.802460 
	C357.842865,490.501007 354.675507,487.057983 351.099609,484.110626 
	C341.561096,476.248718 331.909302,468.520477 322.183807,460.890411 
	C313.734253,454.261292 305.072632,447.903015 296.596802,441.306763 
	C288.775238,435.219604 281.041351,429.017670 273.362885,422.751099 
	C272.298920,421.882721 271.774719,420.352966 270.987549,418.792114 
	C293.671051,418.390717 316.367615,418.326599 339.534882,418.698059 
	C340.335297,419.869202 340.464966,420.854156 341.024628,421.302979 
	C349.157135,427.824554 357.283264,434.357239 365.536957,440.723907 
	C382.060181,453.469360 398.677155,466.093201 415.218018,478.815857 
	C419.420074,482.047974 423.606567,485.324493 427.535126,488.874023 
	C428.792175,490.009827 429.195404,492.090637 429.989288,493.739075 
	C407.311096,493.788330 384.632874,493.837616 361.575592,493.802460 
z"/>
<path fill="#FC4554" opacity="1.000000" stroke="none" 
	d="
M417.000214,531.990417 
	C439.025452,531.935059 461.050659,531.879700 483.587311,532.251282 
	C487.437103,535.323608 490.785400,537.956604 494.111816,540.617004 
	C501.175323,546.266235 508.197266,551.967957 515.292725,557.576721 
	C522.523621,563.292603 529.820923,568.924622 537.091614,574.590210 
	C545.415222,581.076233 553.860352,587.413757 562.022156,594.097229 
	C566.908569,598.098633 571.353699,602.638916 575.997131,606.937012 
	C553.305481,606.997314 530.613831,607.057617 507.454285,606.672485 
	C502.026489,601.504456 497.355194,596.423584 492.040222,592.141663 
	C483.695099,585.418640 474.831818,579.343445 466.339233,572.797729 
	C451.817871,561.605286 437.362000,550.325867 423.011444,538.915894 
	C420.659241,537.045654 418.986816,534.320435 417.000214,531.990417 
z"/>
<path fill="#FA3A46" opacity="1.000000" stroke="none" 
	d="
M194.538040,418.360657 
	C197.170135,421.214447 198.914185,424.511230 201.589645,426.634216 
	C213.825165,436.343079 226.339874,445.699371 238.719711,455.227264 
	C252.314713,465.690430 265.915710,476.146973 279.401062,486.750214 
	C281.566986,488.453217 283.142670,490.906921 284.992584,493.375671 
	C263.302582,493.792328 241.611191,493.846954 219.456512,493.452118 
	C218.422256,491.721130 218.200256,490.000092 217.225967,489.226532 
	C208.153000,482.022919 198.950974,474.981873 189.785873,467.894257 
	C181.848129,461.755768 173.869751,455.668884 165.984863,449.463226 
	C160.017319,444.766510 154.208939,439.867859 148.255219,435.153168 
	C143.074539,431.050598 137.704117,427.183197 132.611267,422.977295 
	C131.354141,421.939117 130.849747,419.989502 129.999344,418.458862 
	C151.359207,418.393585 172.719086,418.328339 194.538040,418.360657 
z"/>
<path fill="#FA3A46" opacity="1.000000" stroke="none" 
	d="
M421.997375,606.941650 
	C399.971832,607.000488 377.946289,607.059326 355.454834,606.661072 
	C349.776276,601.365356 344.786987,596.253784 339.292572,591.759705 
	C332.898743,586.530029 325.941772,581.994812 319.443481,576.885620 
	C305.797943,566.157166 292.231384,555.325745 278.762512,544.376526 
	C273.980804,540.489380 269.576538,536.137878 265.000000,531.998352 
	C286.692413,531.936890 308.384827,531.875488 330.573181,532.251099 
	C332.092438,533.957642 332.919586,535.478027 334.170746,536.455811 
	C342.494537,542.960938 350.966095,549.277100 359.280243,555.794250 
	C371.116455,565.072266 382.849243,574.482239 394.644684,583.812439 
	C401.898865,589.550537 409.247009,595.171814 416.423462,601.004883 
	C418.510834,602.701538 420.151794,604.947510 421.997375,606.941650 
z"/>
<path fill="#FE4F60" opacity="1.000000" stroke="none" 
	d="
M688.996460,606.944153 
	C667.638062,607.000732 646.279724,607.057312 624.421509,606.682617 
	C622.955139,605.174255 622.127747,603.914856 620.997498,603.052246 
	C616.671387,599.750549 612.144653,596.706909 607.880615,593.329895 
	C595.987183,583.910278 584.286621,574.245117 572.320984,564.919189 
	C561.785034,556.707520 550.900024,548.943298 540.373413,540.720032 
	C537.228821,538.263489 534.772095,534.926392 532.000183,531.992737 
	C553.691467,531.939331 575.382812,531.885925 597.571045,532.258545 
	C599.543884,534.444336 600.774048,536.513062 602.535156,537.914368 
	C615.082336,547.898010 627.684143,557.815063 640.373596,567.617310 
	C653.961060,578.113159 667.725159,588.381042 681.266785,598.935059 
	C684.164062,601.193176 686.436279,604.253418 688.996460,606.944153 
z"/>
<path fill="#FF9BA0" opacity="1.000000" stroke="none" 
	d="
M577.998474,45.121735 
	C590.729126,46.413460 603.459839,47.705193 616.635864,49.410599 
	C617.874023,50.869297 618.493286,52.131794 619.487183,52.924797 
	C627.122009,59.016304 634.862976,64.974701 642.507629,71.054024 
	C657.790100,83.207176 672.946716,95.520126 688.318176,107.559204 
	C700.432312,117.047066 712.874878,126.114983 725.018494,135.566040 
	C739.522522,146.854248 753.823120,158.403885 768.316895,169.705505 
	C770.611145,171.494476 773.458496,172.574036 776.050171,173.981598 
	C780.444275,186.024490 784.838440,198.067398 788.899414,210.514862 
	C787.962891,210.670563 787.268188,210.540283 786.769531,210.155731 
	C769.213745,196.617493 751.575745,183.182999 734.169189,169.455093 
	C720.908508,158.996841 708.077393,147.994064 694.818542,137.533447 
	C674.064941,121.159836 653.137939,105.005478 632.234558,88.822594 
	C615.221069,75.651138 598.113159,62.601612 581.121704,49.401951 
	C579.781189,48.360611 579.025757,46.566177 577.998474,45.121735 
z"/>
<path fill="#FF979D" opacity="1.000000" stroke="none" 
	d="
M577.534058,45.062939 
	C579.025757,46.566177 579.781189,48.360611 581.121704,49.401951 
	C598.113159,62.601612 615.221069,75.651138 632.234558,88.822594 
	C653.137939,105.005478 674.064941,121.159836 694.818542,137.533447 
	C708.077393,147.994064 720.908508,158.996841 734.169189,169.455093 
	C751.575745,183.182999 769.213745,196.617493 786.769531,210.155731 
	C787.268188,210.540283 787.962891,210.670563 788.944214,210.915924 
	C791.176758,219.006775 793.031311,227.101089 794.846497,235.601562 
	C790.487854,233.119827 786.044434,230.399139 781.877686,227.305817 
	C775.231995,222.372192 768.727783,217.244293 762.240967,212.101196 
	C752.774170,204.595505 743.442017,196.918716 733.926392,189.476151 
	C726.766235,183.875854 719.312561,178.650452 712.158936,173.042191 
	C699.665161,163.247437 687.365295,153.205200 674.864014,143.420212 
	C664.302185,135.153214 653.482849,127.214638 642.934692,118.930603 
	C628.874023,107.888054 615.039673,96.557060 600.964111,85.533859 
	C592.370667,78.803871 583.368469,72.594200 574.805115,65.827766 
	C567.050781,59.700619 559.642639,53.135372 552.040649,46.423775 
	C560.356201,45.724209 568.712891,45.364170 577.534058,45.062939 
z"/>
<path fill="#F9373F" opacity="1.000000" stroke="none" 
	d="
M264.539001,531.905518 
	C269.576538,536.137878 273.980804,540.489380 278.762512,544.376526 
	C292.231384,555.325745 305.797943,566.157166 319.443481,576.885620 
	C325.941772,581.994812 332.898743,586.530029 339.292572,591.759705 
	C344.786987,596.253784 349.776276,601.365356 354.993469,606.570984 
	C334.305756,606.997925 313.613525,607.057800 292.459900,607.027893 
	C291.207611,605.744019 290.662537,604.224304 289.584503,603.410889 
	C284.206238,599.352661 278.562866,595.640747 273.249084,591.503418 
	C265.750305,585.664917 258.496582,579.512939 251.069794,573.580383 
	C240.784714,565.364685 230.360077,557.322205 220.142426,549.024170 
	C213.647736,543.749634 207.420135,538.146301 201.036377,532.344604 
	C222.025986,531.936829 243.051987,531.874817 264.539001,531.905518 
z"/>
<path fill="#FF5B6B" opacity="1.000000" stroke="none" 
	d="
M382.766602,311.369751 
	C373.263855,296.695190 361.968018,283.811340 346.773376,274.688568 
	C336.695190,268.637695 325.942139,264.417633 314.187805,261.397949 
	C313.090912,259.544617 312.559113,257.891937 311.428436,256.990326 
	C302.390381,249.783508 293.235870,242.722839 284.122986,235.609756 
	C269.154785,223.926315 254.149765,212.289124 239.278458,200.483551 
	C237.449692,199.031784 236.345627,196.667114 234.905746,194.725464 
	C242.350708,192.572861 249.795670,190.420258 257.625793,188.607269 
	C259.970306,190.764893 261.829651,192.707184 263.906464,194.379395 
	C272.922394,201.638931 281.969269,208.861023 291.066345,216.018600 
	C302.371979,224.913895 313.762115,233.701767 325.072327,242.591293 
	C340.025970,254.344406 354.865784,266.243469 369.888672,277.907013 
	C383.060852,288.133667 396.521484,297.989471 409.667450,308.249023 
	C426.084015,321.061035 442.256226,334.185883 458.655518,347.020355 
	C462.467285,350.003540 466.770233,352.359070 470.847198,355.003418 
	C470.847198,356.799164 470.847198,358.594910 470.847198,361.207428 
	C464.224976,361.207428 457.575562,361.207428 450.427185,360.767517 
	C449.725952,359.879181 449.646973,359.272278 449.303589,359.005188 
	C437.441376,349.777924 425.552582,340.584808 413.671051,331.382324 
	C405.058533,324.711761 396.515472,317.947540 387.759247,311.471466 
	C386.667297,310.663818 384.458099,311.366760 382.766602,311.369751 
z"/>
<path fill="#FE4F60" opacity="1.000000" stroke="none" 
	d="
M456.533447,418.354797 
	C459.929474,421.601959 462.534210,425.167267 465.860840,427.831024 
	C480.423676,439.491943 495.174805,450.918427 509.898560,462.377350 
	C520.972473,470.995697 532.147888,479.484222 543.172913,488.164154 
	C544.746155,489.402771 545.725403,491.395874 546.985229,493.389954 
	C527.966431,493.794403 508.941956,493.848663 489.448608,493.468262 
	C488.080627,491.737366 487.436279,490.106506 486.242371,489.197540 
	C476.281586,481.614044 466.112793,474.301514 456.212189,466.641724 
	C439.641510,453.821381 423.121704,440.929688 406.828979,427.760620 
	C403.762177,425.281830 398.579132,424.064087 398.995270,418.460419 
	C418.021667,418.392944 437.048035,418.325500 456.533447,418.354797 
z"/>
<path fill="#FF5666" opacity="1.000000" stroke="none" 
	d="
M689.459106,607.028198 
	C686.436279,604.253418 684.164062,601.193176 681.266785,598.935059 
	C667.725159,588.381042 653.961060,578.113159 640.373596,567.617310 
	C627.684143,557.815063 615.082336,547.898010 602.535156,537.914368 
	C600.774048,536.513062 599.543884,534.444336 598.034119,532.338684 
	C617.358032,531.940613 636.715820,531.888489 656.571106,532.262329 
	C658.730957,534.468384 660.185181,536.518677 662.089294,537.984680 
	C674.370300,547.439941 686.781067,556.726501 699.087402,566.149170 
	C710.077576,574.564148 721.111877,582.930420 731.862610,591.644043 
	C735.331726,594.455750 737.963013,598.301270 740.977539,601.673889 
	C735.050964,603.476196 729.209045,606.377197 723.179321,606.841980 
	C712.152039,607.692078 701.013733,607.101807 689.459106,607.028198 
z"/>
<path fill="#FD495A" opacity="1.000000" stroke="none" 
	d="
M398.536346,418.362244 
	C398.579132,424.064087 403.762177,425.281830 406.828979,427.760620 
	C423.121704,440.929688 439.641510,453.821381 456.212189,466.641724 
	C466.112793,474.301514 476.281586,481.614044 486.242371,489.197540 
	C487.436279,490.106506 488.080627,491.737366 488.986206,493.386261 
	C469.633575,493.793457 450.274536,493.847992 430.452393,493.820801 
	C429.195404,492.090637 428.792175,490.009827 427.535126,488.874023 
	C423.606567,485.324493 419.420074,482.047974 415.218018,478.815857 
	C398.677155,466.093201 382.060181,453.469360 365.536957,440.723907 
	C357.283264,434.357239 349.157135,427.824554 341.024628,421.302979 
	C340.464966,420.854156 340.335297,419.869202 339.991638,418.796143 
	C359.344269,418.393829 378.710846,418.328949 398.536346,418.362244 
z"/>
<path fill="#FF5E6D" opacity="1.000000" stroke="none" 
	d="
M470.910461,354.554718 
	C466.770233,352.359070 462.467285,350.003540 458.655518,347.020355 
	C442.256226,334.185883 426.084015,321.061035 409.667450,308.249023 
	C396.521484,297.989471 383.060852,288.133667 369.888672,277.907013 
	C354.865784,266.243469 340.025970,254.344406 325.072327,242.591293 
	C313.762115,233.701767 302.371979,224.913895 291.066345,216.018600 
	C281.969269,208.861023 272.922394,201.638931 263.906464,194.379395 
	C261.829651,192.707184 259.970306,190.764893 258.002686,188.592438 
	C264.066772,187.273575 270.139069,186.309174 276.604431,185.253036 
	C279.879669,187.471741 282.708496,189.852783 285.653809,192.079788 
	C295.947296,199.862885 306.420227,207.415802 316.560181,215.392776 
	C326.662476,223.340134 336.436249,231.704590 346.374695,239.861038 
	C349.822021,242.690247 353.269836,245.525085 356.822571,248.218689 
	C372.786957,260.322540 388.925171,272.201599 404.735138,284.503113 
	C417.667847,294.565887 430.110199,305.257324 442.990875,315.389191 
	C451.179810,321.830597 459.772736,327.758453 468.524017,333.960388 
	C469.566956,340.704742 470.270355,347.405396 470.910461,354.554718 
z"/>
<path fill="#FF8E96" opacity="1.000000" stroke="none" 
	d="
M519.239380,51.758327 
	C537.283691,65.837425 554.869507,80.037483 572.624084,94.023430 
	C584.160034,103.110710 595.955750,111.867790 607.593140,120.827217 
	C608.847046,121.792519 609.821411,123.120888 610.961243,124.625946 
	C600.164978,123.583931 589.358459,121.378700 578.493713,121.039810 
	C567.632446,120.701035 556.712952,122.229126 545.402649,122.553169 
	C543.811462,120.443527 542.949158,118.343636 541.407043,117.061333 
	C535.072571,111.794022 528.577087,106.716049 522.056641,101.677383 
	C507.020477,90.058250 491.935242,78.502655 476.869904,66.921280 
	C490.864105,61.876999 504.858337,56.832718 519.239380,51.758327 
z"/>
<path fill="#F9373F" opacity="1.000000" stroke="none" 
	d="
M129.542450,418.360779 
	C130.849747,419.989502 131.354141,421.939117 132.611267,422.977295 
	C137.704117,427.183197 143.074539,431.050598 148.255219,435.153168 
	C154.208939,439.867859 160.017319,444.766510 165.984863,449.463226 
	C173.869751,455.668884 181.848129,461.755768 189.785873,467.894257 
	C198.950974,474.981873 208.153000,482.022919 217.225967,489.226532 
	C218.200256,490.000092 218.422256,491.721130 218.994385,493.369049 
	C201.304428,493.790283 183.613297,493.845184 165.458939,493.452545 
	C164.139771,491.313721 163.699982,489.117554 162.360245,488.013123 
	C153.741318,480.908112 144.968277,473.987213 136.162491,467.112579 
	C126.700745,459.725891 117.222542,452.355957 107.607231,445.171814 
	C101.443176,440.566315 95.018135,436.310120 88.710083,431.897339 
	C96.247795,421.975281 106.821434,418.668762 118.669579,418.237671 
	C122.136673,418.111542 125.613289,418.247070 129.542450,418.360779 
z"/>
<path fill="#FF858E" opacity="1.000000" stroke="none" 
	d="
M476.519623,66.973801 
	C491.935242,78.502655 507.020477,90.058250 522.056641,101.677383 
	C528.577087,106.716049 535.072571,111.794022 541.407043,117.061333 
	C542.949158,118.343636 543.811462,120.443527 544.987976,122.525307 
	C527.915344,126.692787 511.627136,132.520233 496.281799,141.460190 
	C490.819458,136.589722 485.962830,131.676315 480.585846,127.420227 
	C468.200592,117.616699 455.508362,108.201683 443.074341,98.458450 
	C440.697937,96.596291 438.935028,93.951172 436.889069,91.667282 
	C449.982483,83.453629 463.075897,75.239983 476.519623,66.973801 
z"/>
<path fill="#FF6D7A" opacity="1.000000" stroke="none" 
	d="
M760.545105,493.730896 
	C759.335022,486.733978 752.723206,485.015015 748.512756,481.565979 
	C732.813293,468.705750 716.492920,456.604187 700.427795,444.189178 
	C691.963379,437.647888 683.475159,431.133057 675.170227,424.393707 
	C673.676147,423.181274 673.022705,420.932953 671.972107,418.814331 
	C687.995728,418.394318 704.028320,418.322876 720.532227,418.682404 
	C722.476929,421.041168 723.648926,423.338684 725.478271,424.829926 
	C731.871338,430.041443 738.445923,435.034912 745.036682,439.998138 
	C753.337219,446.248871 761.795410,452.291656 770.049377,458.602386 
	C778.831238,465.316803 787.601868,472.062286 796.086975,479.142181 
	C800.697998,482.989532 804.705505,487.560150 808.985168,491.804565 
	C805.085754,492.509949 801.196777,493.745300 797.284973,493.822205 
	C785.168152,494.060333 773.042603,493.857758 760.545105,493.730896 
z"/>
<path fill="#FB3E4D" opacity="1.000000" stroke="none" 
	d="
M422.458954,607.031372 
	C420.151794,604.947510 418.510834,602.701538 416.423462,601.004883 
	C409.247009,595.171814 401.898865,589.550537 394.644684,583.812439 
	C382.849243,574.482239 371.116455,565.072266 359.280243,555.794250 
	C350.966095,549.277100 342.494537,542.960938 334.170746,536.455811 
	C332.919586,535.478027 332.092438,533.957642 331.034637,532.341370 
	C347.025848,531.933472 363.051575,531.872375 379.573914,532.250488 
	C381.020813,533.780029 381.824646,535.057678 382.943604,535.932251 
	C397.103302,546.999512 411.302155,558.016846 425.503754,569.030396 
	C438.664490,579.236816 451.890961,589.359558 464.967438,599.672607 
	C467.590698,601.741455 469.669037,604.501282 471.998627,606.942505 
	C455.639252,607.002014 439.279907,607.061523 422.458954,607.031372 
z"/>
<path fill="#FF5E6D" opacity="1.000000" stroke="none" 
	d="
M629.447876,493.815735 
	C625.692078,490.011810 622.800903,485.808289 619.025879,482.666840 
	C610.397583,475.486694 601.350952,468.807770 592.448120,461.959259 
	C582.631287,454.407623 572.772400,446.910645 562.956177,439.358276 
	C555.628174,433.720306 548.305176,428.074219 541.083801,422.301880 
	C540.351318,421.716339 540.334351,420.235657 539.977661,418.816956 
	C555.672729,418.393677 571.375427,418.323853 587.537109,418.354065 
	C589.195007,420.079132 590.119080,422.042450 591.636475,423.275513 
	C603.578613,432.979706 615.575195,442.619476 627.674316,452.127136 
	C636.656616,459.185547 645.823730,466.008484 654.896667,472.951813 
	C662.644714,478.881226 670.391663,484.812592 678.080994,490.817413 
	C678.625366,491.242523 678.691223,492.280487 678.986267,493.386169 
	C662.632385,493.792053 646.271729,493.845245 629.447876,493.815735 
z"/>
<path fill="#FFA0A4" opacity="1.000000" stroke="none" 
	d="
M776.007568,173.622040 
	C773.458496,172.574036 770.611145,171.494476 768.316895,169.705505 
	C753.823120,158.403885 739.522522,146.854248 725.018494,135.566040 
	C712.874878,126.114983 700.432312,117.047066 688.318176,107.559204 
	C672.946716,95.520126 657.790100,83.207176 642.507629,71.054024 
	C634.862976,64.974701 627.122009,59.016304 619.487183,52.924797 
	C618.493286,52.131794 617.874023,50.869297 617.038086,49.494850 
	C656.418762,56.756634 691.032959,74.088249 721.161072,100.539253 
	C744.460510,120.995018 762.756165,145.208862 776.007568,173.622040 
z"/>
<path fill="#FF737F" opacity="1.000000" stroke="none" 
	d="
M809.338318,491.774414 
	C804.705505,487.560150 800.697998,482.989532 796.086975,479.142181 
	C787.601868,472.062286 778.831238,465.316803 770.049377,458.602386 
	C761.795410,452.291656 753.337219,446.248871 745.036682,439.998138 
	C738.445923,435.034912 731.871338,430.041443 725.478271,424.829926 
	C723.648926,423.338684 722.476929,421.041168 720.988281,418.781372 
	C739.667969,418.381744 758.362915,418.314087 777.578979,418.649109 
	C779.528381,420.653625 780.756104,422.511078 782.418030,423.815216 
	C792.023071,431.352753 801.691528,438.811157 811.416138,446.194153 
	C818.906189,451.880707 826.510376,457.416840 834.063843,463.019836 
	C831.045166,476.926575 822.982910,486.553894 809.338318,491.774414 
z"/>
<path fill="#FD495A" opacity="1.000000" stroke="none" 
	d="
M531.537598,531.909241 
	C534.772095,534.926392 537.228821,538.263489 540.373413,540.720032 
	C550.900024,548.943298 561.785034,556.707520 572.320984,564.919189 
	C584.286621,574.245117 595.987183,583.910278 607.880615,593.329895 
	C612.144653,596.706909 616.671387,599.750549 620.997498,603.052246 
	C622.127747,603.914856 622.955139,605.174255 623.959167,606.597229 
	C608.304932,606.998962 592.613098,607.054932 576.459229,607.023926 
	C571.353699,602.638916 566.908569,598.098633 562.022156,594.097229 
	C553.860352,587.413757 545.415222,581.076233 537.091614,574.590210 
	C529.820923,568.924622 522.523621,563.292603 515.292725,557.576721 
	C508.197266,551.967957 501.175323,546.266235 494.111816,540.617004 
	C490.785400,537.956604 487.437103,535.323608 484.049377,532.338013 
	C499.691681,531.940491 515.383362,531.883118 531.537598,531.909241 
z"/>
<path fill="#FF7D88" opacity="1.000000" stroke="none" 
	d="
M436.568970,91.804344 
	C438.935028,93.951172 440.697937,96.596291 443.074341,98.458450 
	C455.508362,108.201683 468.200592,117.616699 480.585846,127.420227 
	C485.962830,131.676315 490.819458,136.589722 495.949310,141.540314 
	C483.257080,149.923141 472.017120,159.726257 461.270996,170.793732 
	C459.433319,169.039169 458.498566,166.913605 456.890320,165.635468 
	C450.832703,160.821182 444.525940,156.321976 438.367462,151.632614 
	C426.463409,142.568192 414.596649,133.454788 402.714447,124.361694 
	C408.306152,118.271477 413.647400,111.923790 419.564575,106.168213 
	C424.792511,101.083084 430.662415,96.657944 436.568970,91.804344 
z"/>
<path fill="#FF737F" opacity="1.000000" stroke="none" 
	d="
M402.391479,124.492249 
	C414.596649,133.454788 426.463409,142.568192 438.367462,151.632614 
	C444.525940,156.321976 450.832703,160.821182 456.890320,165.635468 
	C458.498566,166.913605 459.433319,169.039169 460.989685,170.959137 
	C452.283051,182.023804 444.446503,193.659668 438.043396,206.785614 
	C434.974762,205.322144 432.425140,203.817612 430.102966,202.019348 
	C415.629883,190.811264 401.245911,179.487854 386.738220,168.325073 
	C383.641022,165.941986 380.155823,164.063141 376.849396,161.951981 
	C385.255737,149.508926 393.662109,137.065872 402.391479,124.492249 
z"/>
<path fill="#FC414F" opacity="1.000000" stroke="none" 
	d="
M194.589264,342.162720 
	C193.896942,348.259583 193.204620,354.356445 192.463165,360.886047 
	C167.800125,360.886047 142.927643,360.886047 117.306541,360.886047 
	C117.277161,338.677155 121.435471,317.272430 130.234589,296.298248 
	C133.278061,296.913177 136.045364,297.365570 138.100983,298.822205 
	C144.019562,303.016205 149.641724,307.627502 155.396759,312.053497 
	C168.455704,322.096710 181.524490,332.127106 194.589264,342.162720 
z"/>
<path fill="#FF6D7A" opacity="1.000000" stroke="none" 
	d="
M376.585876,162.166611 
	C380.155823,164.063141 383.641022,165.941986 386.738220,168.325073 
	C401.245911,179.487854 415.629883,190.811264 430.102966,202.019348 
	C432.425140,203.817612 434.974762,205.322144 437.783661,207.006577 
	C434.996124,216.765457 432.001770,226.535355 428.631592,236.173843 
	C426.686035,241.738098 427.281647,246.395126 431.928894,250.660461 
	C428.919556,249.027496 425.614014,247.310471 422.704163,245.077698 
	C406.493744,232.639328 390.382538,220.071716 374.229828,207.558136 
	C369.941895,204.236298 365.627106,200.949127 361.171509,197.348724 
	C366.119720,185.494690 371.221039,173.937958 376.585876,162.166611 
z"/>
<path fill="#FC4554" opacity="1.000000" stroke="none" 
	d="
M194.737610,341.835754 
	C181.524490,332.127106 168.455704,322.096710 155.396759,312.053497 
	C149.641724,307.627502 144.019562,303.016205 138.100983,298.822205 
	C136.045364,297.365570 133.278061,296.913177 130.448166,296.002075 
	C136.138199,284.435730 142.215851,272.869446 148.959747,261.144104 
	C152.242691,262.315887 155.129578,263.291016 157.430237,265.038086 
	C168.624207,273.538422 179.711365,282.182098 190.734360,290.903870 
	C196.936356,295.811127 202.940811,300.968018 209.034241,306.012482 
	C202.382294,317.072998 197.429977,328.810944 194.737610,341.835754 
z"/>
<path fill="#FE4F60" opacity="1.000000" stroke="none" 
	d="
M268.033325,263.086945 
	C255.017380,266.564117 243.360229,272.745026 232.308365,280.609924 
	C229.864807,278.044342 228.073624,275.359741 225.660202,273.469635 
	C213.210602,263.719757 200.602844,254.171814 188.047516,244.556976 
	C182.991013,240.684708 177.927536,236.821518 172.867249,232.954178 
	C182.676971,225.334244 192.486694,217.714310 202.842285,210.293060 
	C204.539917,211.112747 205.811386,211.581284 206.825623,212.377487 
	C224.126938,225.959503 241.464111,239.497757 258.616882,253.265503 
	C262.123993,256.080475 264.913208,259.789856 268.033325,263.086945 
z"/>
<path fill="#FF5666" opacity="1.000000" stroke="none" 
	d="
M268.446594,263.095398 
	C264.913208,259.789856 262.123993,256.080475 258.616882,253.265503 
	C241.464111,239.497757 224.126938,225.959503 206.825623,212.377487 
	C205.811386,211.581284 204.539917,211.112747 203.181885,210.216156 
	C213.366806,204.903320 223.757980,199.866074 234.527466,194.777145 
	C236.345627,196.667114 237.449692,199.031784 239.278458,200.483551 
	C254.149765,212.289124 269.154785,223.926315 284.122986,235.609756 
	C293.235870,242.722839 302.390381,249.783508 311.428436,256.990326 
	C312.559113,257.891937 313.090912,259.544617 313.852905,261.260803 
	C298.726410,259.094604 283.736206,259.311523 268.446594,263.095398 
z"/>
<path fill="#F8373A" opacity="1.000000" stroke="none" 
	d="
M88.423241,432.058929 
	C95.018135,436.310120 101.443176,440.566315 107.607231,445.171814 
	C117.222542,452.355957 126.700745,459.725891 136.162491,467.112579 
	C144.968277,473.987213 153.741318,480.908112 162.360245,488.013123 
	C163.699982,489.117554 164.139771,491.313721 164.996826,493.370239 
	C147.576477,493.613647 130.118179,494.146088 112.744926,493.167908 
	C98.244194,492.351410 88.013031,483.851746 82.536606,470.566833 
	C76.913483,456.926025 78.864639,443.921875 88.423241,432.058929 
z"/>
<path fill="#FC414F" opacity="1.000000" stroke="none" 
	d="
M472.460632,607.029297 
	C469.669037,604.501282 467.590698,601.741455 464.967438,599.672607 
	C451.890961,589.359558 438.664490,579.236816 425.503754,569.030396 
	C411.302155,558.016846 397.103302,546.999512 382.943604,535.932251 
	C381.824646,535.057678 381.020813,533.780029 380.035278,532.341431 
	C392.025543,531.933411 404.051086,531.873657 416.538391,531.902161 
	C418.986816,534.320435 420.659241,537.045654 423.011444,538.915894 
	C437.362000,550.325867 451.817871,561.605286 466.339233,572.797729 
	C474.831818,579.343445 483.695099,585.418640 492.040222,592.141663 
	C497.355194,596.423584 502.026489,601.504456 506.992310,606.585693 
	C495.639709,607.001587 484.281158,607.058838 472.460632,607.029297 
z"/>
<path fill="#FF858E" opacity="1.000000" stroke="none" 
	d="
M721.887451,273.406738 
	C724.414856,274.295319 727.145325,275.262360 729.310425,276.953339 
	C748.484741,291.928833 767.552185,307.041260 786.688599,322.065613 
	C787.409790,322.631866 788.513123,322.711578 789.822693,323.041382 
	C786.689453,333.901001 783.171875,344.737305 779.029785,355.765961 
	C776.853394,355.054108 775.183716,354.303284 773.769836,353.218964 
	C768.018921,348.808380 762.354004,344.285858 756.643311,339.822571 
	C747.032227,332.310913 737.531067,324.650024 727.729797,317.394958 
	C724.154297,314.748322 719.854187,313.080688 715.884644,310.966400 
	C717.865906,298.584564 719.847168,286.202698 721.887451,273.406738 
z"/>
<path fill="#FD495A" opacity="1.000000" stroke="none" 
	d="
M172.565994,233.086975 
	C177.927536,236.821518 182.991013,240.684708 188.047516,244.556976 
	C200.602844,254.171814 213.210602,263.719757 225.660202,273.469635 
	C228.073624,275.359741 229.864807,278.044342 231.981171,280.711823 
	C222.349655,287.258575 216.083939,296.558228 209.317657,305.836243 
	C202.940811,300.968018 196.936356,295.811127 190.734360,290.903870 
	C179.711365,282.182098 168.624207,273.538422 157.430237,265.038086 
	C155.129578,263.291016 152.242691,262.315887 149.240845,260.964661 
	C156.658707,251.702820 164.461716,242.461304 172.565994,233.086975 
z"/>
<path fill="#FF7D88" opacity="1.000000" stroke="none" 
	d="
M715.646362,311.229858 
	C719.854187,313.080688 724.154297,314.748322 727.729797,317.394958 
	C737.531067,324.650024 747.032227,332.310913 756.643311,339.822571 
	C762.354004,344.285858 768.018921,348.808380 773.769836,353.218964 
	C775.183716,354.303284 776.853394,355.054108 778.769409,356.001282 
	C778.616455,360.026215 776.526672,361.316223 772.392029,361.286224 
	C746.590759,361.098999 720.787292,361.213379 694.984558,361.227661 
	C693.502380,361.228485 692.020142,361.227753 689.217407,361.227753 
	C701.234497,345.635437 710.196106,329.508301 715.646362,311.229858 
z"/>
<path fill="#FF5B6B" opacity="1.000000" stroke="none" 
	d="
M741.288452,601.579956 
	C737.963013,598.301270 735.331726,594.455750 731.862610,591.644043 
	C721.111877,582.930420 710.077576,574.564148 699.087402,566.149170 
	C686.781067,556.726501 674.370300,547.439941 662.089294,537.984680 
	C660.185181,536.518677 658.730957,534.468384 657.034302,532.341553 
	C668.691223,531.942017 680.382385,531.889343 692.572449,532.265259 
	C694.173401,533.859680 695.176575,535.142822 696.395447,536.169922 
	C700.658813,539.762634 704.941162,543.337097 709.317993,546.789673 
	C717.490601,553.236389 725.796570,559.515015 733.930603,566.009460 
	C741.402832,571.975464 748.721924,578.133484 756.108459,584.206909 
	C752.556885,591.045471 748.358093,597.340515 741.288452,601.579956 
z"/>
<path fill="#FF5E6D" opacity="1.000000" stroke="none" 
	d="
M756.375977,583.942993 
	C748.721924,578.133484 741.402832,571.975464 733.930603,566.009460 
	C725.796570,559.515015 717.490601,553.236389 709.317993,546.789673 
	C704.941162,543.337097 700.658813,539.762634 696.395447,536.169922 
	C695.176575,535.142822 694.173401,533.859680 693.035645,532.344482 
	C704.121216,531.998413 715.334167,531.087830 726.344788,532.193176 
	C750.223999,534.590332 766.024475,559.399414 756.375977,583.942993 
z"/>
<path fill="#FF5666" opacity="1.000000" stroke="none" 
	d="
M382.852661,311.704712 
	C384.458099,311.366760 386.667297,310.663818 387.759247,311.471466 
	C396.515472,317.947540 405.058533,324.711761 413.671051,331.382324 
	C425.552582,340.584808 437.441376,349.777924 449.303589,359.005188 
	C449.646973,359.272278 449.725952,359.879181 449.965240,360.680420 
	C432.091034,361.033203 414.179840,361.033203 395.574249,361.033203 
	C395.434570,343.629272 391.002563,327.339050 382.852661,311.704712 
z"/>
<path fill="#FF7D88" opacity="1.000000" stroke="none" 
	d="
M834.308228,462.688751 
	C826.510376,457.416840 818.906189,451.880707 811.416138,446.194153 
	C801.691528,438.811157 792.023071,431.352753 782.418030,423.815216 
	C780.756104,422.511078 779.528381,420.653625 778.035889,418.743103 
	C787.541626,418.786255 797.391968,417.812561 806.623352,419.765137 
	C825.958313,423.854889 837.294678,442.129913 834.308228,462.688751 
z"/>
</svg>