<svg version="1.1" id="Layer_1" xmlns="http://www.w3.org/2000/svg" xmlns:xlink="http://www.w3.org/1999/xlink" x="0px" y="0px"
	 width="100%" viewBox="0 0 784 732" enable-background="new 0 0 784 732" xml:space="preserve">
<path fill="#FFFFFF" opacity="1.000000" stroke="none" 
	d="
M446.000000,733.000000 
	C297.333344,733.000000 149.166672,733.000000 1.000000,733.000000 
	C1.000000,489.000000 1.000000,245.000000 1.000000,1.000000 
	C262.333344,1.000000 523.666687,1.000000 785.000000,1.000000 
	C785.000000,245.000000 785.000000,489.000000 785.000000,733.000000 
	C672.166687,733.000000 559.333313,733.000000 446.000000,733.000000 
M108.873428,148.560196 
	C104.800308,157.329361 100.727180,166.098526 96.213310,175.439331 
	C94.210403,184.294907 92.207489,193.150497 90.014587,202.849182 
	C90.000595,211.899292 89.986610,220.949387 89.869965,230.866150 
	C90.791878,245.568405 94.852844,259.500427 100.927856,272.786896 
	C125.449074,326.416443 181.556290,356.884644 241.105469,348.609863 
	C249.733139,346.307495 258.360809,344.005096 267.675201,341.592987 
	C273.612823,338.801422 279.550446,336.009827 286.206085,333.051636 
	C288.807892,330.938385 290.631927,331.757538 292.827362,334.093506 
	C303.543335,345.495697 314.457214,356.711884 325.553131,368.576355 
	C329.961792,373.079193 334.370453,377.582031 339.043060,382.679108 
	C339.987701,383.564087 340.932343,384.449036 342.153687,385.920898 
	C376.469635,422.084290 410.785583,458.247681 445.022339,494.327606 
	C443.980255,496.768372 443.073975,498.891113 441.758698,501.602631 
	C435.321045,515.358459 430.579407,529.586121 429.339722,545.637817 
	C429.529785,555.252197 428.903809,564.965271 430.053101,574.463562 
	C434.679291,612.696045 453.153259,643.254211 484.308258,665.439087 
	C521.569458,691.972107 562.419800,696.987671 606.400696,682.296814 
	C617.259888,676.422668 628.119080,670.548462 639.582764,664.456848 
	C647.830627,656.354675 656.078491,648.252563 664.883423,639.802246 
	C673.058960,629.577087 680.065125,618.687500 684.566772,605.572937 
	C687.287170,594.051941 690.007507,582.530884 692.935669,570.090698 
	C694.475830,551.564575 692.368530,533.493652 686.129639,515.166138 
	C678.658752,491.853027 664.850647,472.750580 646.383179,457.086578 
	C625.564575,439.428375 601.555603,428.834930 573.349792,426.388245 
	C553.329834,424.704376 533.872986,427.247925 514.286865,434.225494 
	C509.165741,436.465942 504.044617,438.706421 498.765991,441.015808 
	C485.391144,426.985077 472.121704,412.983582 458.751984,399.078522 
	C453.221100,393.326172 447.368561,387.882568 441.854279,382.115021 
	C434.872437,374.812500 428.086243,367.322937 420.929810,359.309570 
	C419.335144,357.740326 417.740479,356.171112 416.011841,354.235901 
	C416.011841,354.235901 415.692291,354.012756 415.447479,353.429779 
	C391.875610,328.659058 368.358643,303.835571 344.663513,279.183319 
	C341.650696,276.048828 340.272827,273.568695 342.690948,269.375214 
	C344.478790,266.274780 345.210571,262.565369 346.832214,258.547974 
	C350.531769,246.644089 353.346649,234.592239 353.105652,221.081772 
	C352.782532,214.521576 352.891449,207.902573 352.008575,201.418594 
	C351.207764,195.537094 349.326721,189.802689 348.156097,183.200974 
	C347.783417,181.424637 347.560669,179.600815 347.015625,177.879044 
	C338.347382,150.495728 322.137054,128.455887 299.151184,111.461433 
	C276.873688,94.990669 251.865891,86.196068 223.070923,85.931831 
	C209.677689,85.588120 196.552521,87.165817 183.024033,91.576927 
	C173.676804,95.700050 164.329590,99.823174 154.293732,104.066460 
	C145.821396,110.697685 137.349060,117.328903 128.279251,124.236870 
	C121.964180,132.163391 115.649101,140.089890 108.873428,148.560196 
M617.985901,273.937103 
	C617.968384,286.736298 617.654053,299.545288 618.077881,312.329865 
	C618.249939,317.519653 619.329712,322.927856 621.209167,327.765594 
	C626.672485,341.828308 641.159790,350.455017 657.418823,350.061066 
	C671.770447,349.713348 685.354858,340.198517 690.636169,326.632050 
	C691.482239,322.792572 692.980957,318.965912 693.056885,315.111267 
	C693.326599,301.410248 693.111389,287.699707 693.194763,273.061646 
	C693.158691,258.038086 693.122681,243.014526 693.180359,227.058960 
	C693.176270,216.600327 693.442139,206.132065 693.069946,195.686539 
	C692.835632,189.108978 691.645752,182.565460 690.933167,175.216553 
	C679.439575,121.058296 629.189697,83.179443 575.065796,85.934380 
	C553.710144,85.963387 532.354431,85.992401 510.065674,85.924446 
	C494.855682,85.928154 479.644562,85.838539 464.436646,86.018684 
	C461.585876,86.052460 458.747864,87.164909 455.147552,87.883965 
	C446.900635,89.945671 440.507172,94.698318 435.835114,101.672745 
	C427.707825,113.805214 426.299469,126.791618 432.686310,139.949982 
	C438.970795,152.897583 449.662445,160.680923 464.192444,160.927872 
	C491.452759,161.391174 518.727539,161.005402 546.927368,161.097977 
	C557.217957,161.106613 567.509338,161.033401 577.798889,161.140884 
	C599.345215,161.365936 614.413330,173.771103 617.507935,194.658493 
	C618.640564,202.303802 617.957397,210.218109 617.990356,218.939972 
	C618.029053,236.962418 618.067688,254.984848 617.985901,273.937103 
M92.356461,448.305695 
	C91.278770,452.621368 89.385857,456.916016 89.273796,461.256622 
	C88.914726,475.164886 89.214928,489.090149 89.105049,503.933014 
	C89.156754,518.957092 89.208450,533.981140 89.101929,549.929504 
	C89.743439,565.871582 88.849243,582.055481 91.314247,597.710449 
	C98.724937,644.774963 139.478348,684.297180 186.684555,688.698975 
	C213.926010,691.239075 241.548691,689.690796 269.920715,690.174011 
	C284.733978,690.183960 299.550476,690.371216 314.358521,690.097961 
	C318.916565,690.013855 323.451447,688.671936 328.717590,687.919006 
	C331.782532,686.266479 335.030182,684.879211 337.880829,682.915527 
	C350.363434,674.317078 356.116058,657.263306 351.841309,642.111694 
	C347.699738,627.432190 334.070496,615.420410 319.381989,615.142517 
	C293.929382,614.660889 268.460632,615.031433 242.075211,614.870667 
	C229.444733,614.855835 216.812317,614.692688 204.184235,614.859070 
	C182.554413,615.143921 163.507462,598.095093 164.757965,574.945435 
	C165.061722,569.322205 164.657318,563.660706 164.778519,557.096741 
	C164.711823,538.404236 164.645126,519.711731 164.779953,500.099121 
	C164.792511,487.937164 164.980209,475.771454 164.719971,463.615356 
	C164.632263,459.518250 163.886642,455.289642 162.617569,451.389313 
	C157.797668,436.576111 143.787857,426.333740 128.379990,425.939392 
	C112.535400,425.533875 98.160156,434.392090 92.356461,448.305695 
z"/>
<path fill="#FF5D6D" opacity="1.000000" stroke="none" 
	d="
M692.727905,571.009888 
	C690.007507,582.530884 687.287170,594.051941 684.115417,605.547729 
	C665.379517,591.122437 647.122498,576.687134 628.785767,562.353760 
	C625.382507,559.693542 621.658447,557.443604 617.982544,554.603149 
	C613.601379,523.836426 595.759033,505.763824 565.892334,501.139282 
	C564.527466,498.797424 563.495117,496.417450 561.707703,494.969482 
	C556.180725,490.492188 550.267151,486.495453 544.680542,482.087952 
	C521.597778,463.877319 498.609680,445.546570 475.518402,427.346741 
	C469.557983,422.648895 463.283264,418.351807 457.266388,413.723175 
	C441.134064,401.312897 425.029358,388.866058 408.981567,376.346771 
	C400.377289,369.634308 391.876038,362.788055 383.397705,355.916565 
	C377.097443,350.810364 371.066864,345.360229 364.635559,340.429352 
	C353.358002,331.782898 341.708954,323.617950 330.497375,314.889252 
	C311.059326,299.755920 291.912689,284.248138 272.462677,269.130432 
	C268.257843,265.862152 263.286011,263.580658 258.837189,260.547180 
	C263.302338,254.746185 267.597809,249.242599 272.083069,244.038559 
	C278.461578,248.982803 284.696625,253.567230 290.829102,258.285034 
	C302.623291,267.358490 314.404572,276.449951 326.107819,285.640106 
	C339.740814,296.345642 353.268036,307.185730 366.871552,317.928955 
	C380.236267,328.483673 393.582550,339.063599 407.075500,349.452484 
	C409.613525,351.406647 412.803284,352.514435 415.692291,354.012756 
	C415.692291,354.012756 416.011841,354.235901 416.040558,354.827332 
	C416.128723,358.813110 417.996277,360.137421 421.215668,359.914062 
	C428.086243,367.322937 434.872437,374.812500 441.854279,382.115021 
	C447.368561,387.882568 453.221100,393.326172 458.751984,399.078522 
	C472.121704,412.983582 485.391144,426.985077 498.765991,441.015808 
	C504.044617,438.706421 509.165741,436.465942 514.705078,434.523193 
	C529.297241,445.602814 543.559387,456.271301 557.620850,467.198120 
	C572.247437,478.564087 586.593567,490.291046 601.224548,501.651276 
	C613.234619,510.976501 625.624207,519.814819 637.589783,529.195190 
	C653.216614,541.445801 668.540222,554.082886 684.126221,566.386475 
	C686.642212,568.372559 689.843445,569.490601 692.727905,571.009888 
z"/>
<path fill="#F8373A" opacity="1.000000" stroke="none" 
	d="
M268.999786,689.982727 
	C241.548691,689.690796 213.926010,691.239075 186.684555,688.698975 
	C139.478348,684.297180 98.724937,644.774963 91.314247,597.710449 
	C88.849243,582.055481 89.743439,565.871582 89.536255,549.473694 
	C91.587593,549.789490 93.410439,550.300842 94.780525,551.384644 
	C98.025299,553.951477 100.929329,556.951965 104.194939,559.489075 
	C114.878990,567.789917 125.653572,575.974426 136.411240,584.180176 
	C147.301575,592.487183 158.217590,600.760498 169.112473,609.061523 
	C171.720673,611.048767 174.311111,613.060791 176.871857,615.108643 
	C181.402145,618.731628 185.928436,622.360474 190.404816,626.049500 
	C192.277802,627.593079 193.908081,629.443420 195.839310,630.901855 
	C204.421616,637.382996 213.231079,643.573730 221.648849,650.259216 
	C228.240662,655.494568 234.129501,661.622803 240.779251,666.775452 
	C249.430603,673.479065 258.569275,679.551086 267.369232,686.069092 
	C268.344147,686.791260 268.476593,688.650757 268.999786,689.982727 
z"/>
<path fill="#FD4757" opacity="1.000000" stroke="none" 
	d="
M605.717773,682.390076 
	C562.419800,696.987671 521.569458,691.972107 484.308258,665.439087 
	C453.153259,643.254211 434.679291,612.696045 430.053101,574.463562 
	C428.903809,564.965271 429.529785,555.252197 429.901489,545.319702 
	C437.799927,550.325867 445.268188,555.479431 452.444641,561.011414 
	C465.642334,571.184937 478.610565,581.655762 491.784393,591.860657 
	C502.105377,599.855652 512.708496,607.488464 522.978577,615.546753 
	C538.722900,627.900391 554.479675,640.251709 569.868713,653.040161 
	C581.748413,662.912292 595.782776,670.156677 605.717773,682.390076 
z"/>
<path fill="#F9373E" opacity="1.000000" stroke="none" 
	d="
M269.460266,690.078369 
	C268.476593,688.650757 268.344147,686.791260 267.369232,686.069092 
	C258.569275,679.551086 249.430603,673.479065 240.779251,666.775452 
	C234.129501,661.622803 228.240662,655.494568 221.648849,650.259216 
	C213.231079,643.573730 204.421616,637.382996 195.839310,630.901855 
	C193.908081,629.443420 192.277802,627.593079 190.404816,626.049500 
	C185.928436,622.360474 181.402145,618.731628 176.871857,615.108643 
	C174.311111,613.060791 171.720673,611.048767 169.112473,609.061523 
	C158.217590,600.760498 147.301575,592.487183 136.411240,584.180176 
	C125.653572,575.974426 114.878990,567.789917 104.194939,559.489075 
	C100.929329,556.951965 98.025299,553.951477 94.780525,551.384644 
	C93.410439,550.300842 91.587593,549.789490 89.615356,549.011597 
	C89.208450,533.981140 89.156754,518.957092 89.549446,503.470337 
	C91.878944,504.132965 93.829041,505.165222 95.624252,506.419189 
	C96.664642,507.145905 97.355164,508.363251 98.375565,509.130493 
	C105.191902,514.255615 112.171989,519.169800 118.870605,524.442627 
	C126.103500,530.135986 132.971024,536.294128 140.214157,541.973755 
	C146.795074,547.134094 153.626694,551.980042 160.449905,556.820679 
	C161.553513,557.603638 163.188919,557.637024 164.578522,558.016846 
	C164.657318,563.660706 165.061722,569.322205 164.757965,574.945435 
	C163.507462,598.095093 182.554413,615.143921 204.184235,614.859070 
	C216.812317,614.692688 229.444733,614.855835 242.541702,615.320312 
	C243.929123,617.270203 244.535812,619.155273 245.823257,620.206604 
	C252.857681,625.951416 260.028595,631.531067 267.212219,637.090576 
	C274.530884,642.754639 281.967957,648.266235 289.263611,653.959290 
	C298.713562,661.333435 308.039276,668.866821 317.490601,676.239197 
	C321.700378,679.523071 327.119690,681.647461 327.996918,687.906006 
	C323.451447,688.671936 318.916565,690.013855 314.358521,690.097961 
	C299.550476,690.371216 284.733978,690.183960 269.460266,690.078369 
z"/>
<path fill="#FF8E96" opacity="1.000000" stroke="none" 
	d="
M693.086609,227.990967 
	C693.122681,243.014526 693.158691,258.038086 692.774536,273.497772 
	C689.953064,272.503113 687.354187,271.321350 685.183716,269.599609 
	C674.228638,260.909607 663.450562,251.996323 652.480835,243.325165 
	C644.468140,236.991409 636.295715,230.856567 628.110535,224.745514 
	C624.892212,222.342697 621.445312,220.245865 618.102539,218.009705 
	C617.957397,210.218109 618.640564,202.303802 617.507935,194.658493 
	C614.413330,173.771103 599.345215,161.365936 577.798889,161.140884 
	C567.509338,161.033401 557.217957,161.106613 546.427490,160.691925 
	C544.255981,158.509293 542.773376,156.493805 540.880859,154.996399 
	C531.312500,147.425598 521.636719,139.990402 511.999939,132.506027 
	C499.345337,122.677864 486.632233,112.923599 474.063354,102.986992 
	C467.872223,98.092430 461.948608,92.859428 455.903961,87.779587 
	C458.747864,87.164909 461.585876,86.052460 464.436646,86.018684 
	C479.644562,85.838539 494.855682,85.928154 510.570618,86.317398 
	C511.680573,87.453827 512.174622,88.336533 512.906982,88.920166 
	C526.741150,99.944504 540.569214,110.977013 554.471191,121.915565 
	C564.735962,129.992218 575.099487,137.943527 585.428528,145.938416 
	C597.194580,155.045609 609.025940,164.069489 620.724609,173.262299 
	C629.040833,179.797119 637.124207,186.627640 645.419678,193.189468 
	C656.420837,201.891510 667.421448,210.601608 678.640686,219.017059 
	C683.158081,222.405548 688.253967,225.022751 693.086609,227.990967 
z"/>
<path fill="#FF6170" opacity="1.000000" stroke="none" 
	d="
M692.831787,570.550293 
	C689.843445,569.490601 686.642212,568.372559 684.126221,566.386475 
	C668.540222,554.082886 653.216614,541.445801 637.589783,529.195190 
	C625.624207,519.814819 613.234619,510.976501 601.224548,501.651276 
	C586.593567,490.291046 572.247437,478.564087 557.620850,467.198120 
	C543.559387,456.271301 529.297241,445.602814 515.060669,434.490906 
	C533.872986,427.247925 553.329834,424.704376 573.716919,426.946106 
	C575.696960,429.323517 577.096558,431.408936 578.965637,432.909332 
	C583.343140,436.423370 588.032349,439.547180 592.439209,443.026733 
	C602.142822,450.688507 611.712646,458.519684 621.404846,466.196136 
	C637.611755,479.032349 653.821411,491.866333 670.138855,504.561249 
	C675.306030,508.581268 680.820496,512.154846 686.176025,515.932678 
	C692.368530,533.493652 694.475830,551.564575 692.831787,570.550293 
z"/>
<path fill="#FF959C" opacity="1.000000" stroke="none" 
	d="
M693.133484,227.524963 
	C688.253967,225.022751 683.158081,222.405548 678.640686,219.017059 
	C667.421448,210.601608 656.420837,201.891510 645.419678,193.189468 
	C637.124207,186.627640 629.040833,179.797119 620.724609,173.262299 
	C609.025940,164.069489 597.194580,155.045609 585.428528,145.938416 
	C575.099487,137.943527 564.735962,129.992218 554.471191,121.915565 
	C540.569214,110.977013 526.741150,99.944504 512.906982,88.920166 
	C512.174622,88.336533 511.680573,87.453827 511.037170,86.365883 
	C532.354431,85.992401 553.710144,85.963387 575.569092,86.326439 
	C577.391846,88.151039 578.537292,89.811020 580.060669,90.977234 
	C587.153687,96.407181 594.449707,101.574387 601.490662,107.069275 
	C615.838806,118.266747 630.065796,129.619278 644.349915,140.898926 
	C657.215332,151.058319 670.051575,161.255432 682.995850,171.313507 
	C685.393433,173.176468 688.243408,174.457199 690.884583,176.006653 
	C691.645752,182.565460 692.835632,189.108978 693.069946,195.686539 
	C693.442139,206.132065 693.176270,216.600327 693.133484,227.524963 
z"/>
<path fill="#FE4C5C" opacity="1.000000" stroke="none" 
	d="
M606.059204,682.343445 
	C595.782776,670.156677 581.748413,662.912292 569.868713,653.040161 
	C554.479675,640.251709 538.722900,627.900391 522.978577,615.546753 
	C512.708496,607.488464 502.105377,599.855652 491.784393,591.860657 
	C478.610565,581.655762 465.642334,571.184937 452.444641,561.011414 
	C445.268188,555.479431 437.799927,550.325867 430.089600,544.947144 
	C430.579407,529.586121 435.321045,515.358459 442.303833,501.347931 
	C445.961456,503.238617 449.192688,505.231995 452.165649,507.555817 
	C464.653534,517.317078 476.960968,527.312195 489.554596,536.933594 
	C494.479767,540.696289 499.984100,543.700928 505.219788,547.493652 
	C505.055115,549.758972 504.847321,551.578735 504.742737,553.404419 
	C503.440552,576.133972 512.342468,593.784302 531.424194,606.122437 
	C545.514038,615.232910 560.926453,616.337219 576.987366,613.136169 
	C577.587830,614.278137 578.002686,615.242981 578.728271,615.810669 
	C586.926331,622.224548 595.206726,628.533386 603.396057,634.958252 
	C613.025574,642.512939 622.638184,650.091187 632.143860,657.800110 
	C634.639221,659.823730 636.711609,662.368774 638.978271,664.674316 
	C628.119080,670.548462 617.259888,676.422668 606.059204,682.343445 
z"/>
<path fill="#FF6876" opacity="1.000000" stroke="none" 
	d="
M154.982361,103.946304 
	C164.329590,99.823174 173.676804,95.700050 183.568237,91.846146 
	C196.433777,101.600967 208.837006,110.982651 221.050156,120.605583 
	C230.538986,128.082001 239.661880,136.024353 249.182770,143.458206 
	C259.475861,151.494995 270.141693,159.053360 280.466125,167.051254 
	C296.029510,179.107590 311.461731,191.333984 326.899567,203.551407 
	C332.739716,208.173248 338.312347,213.141937 344.265106,217.608444 
	C346.819336,219.524918 350.031616,220.564407 352.944885,222.002365 
	C353.346649,234.592239 350.531769,246.644089 346.240601,258.783142 
	C337.561584,252.745972 329.475403,246.472061 321.386475,240.201752 
	C311.448120,232.497787 301.608246,224.661285 291.522095,217.155869 
	C286.964417,213.764374 281.914703,211.034149 276.951080,207.643585 
	C272.717102,189.838547 263.612244,175.875076 247.179657,168.079559 
	C239.976471,164.662415 231.760788,163.379608 223.974335,160.772461 
	C223.072327,159.240494 222.409027,157.798660 221.298416,156.926315 
	C202.059341,141.814758 182.741562,126.803352 163.507889,111.684975 
	C160.498047,109.319130 157.815979,106.536308 154.982361,103.946304 
z"/>
<path fill="#FE4C5C" opacity="1.000000" stroke="none" 
	d="
M240.247528,348.660858 
	C181.556290,356.884644 125.449074,326.416443 100.927856,272.786896 
	C94.852844,259.500427 90.791878,245.568405 90.289879,230.436981 
	C91.984077,230.682816 93.398651,231.180969 94.509407,232.062119 
	C100.737076,237.002380 106.801590,242.151230 113.088821,247.012909 
	C127.859970,258.434875 142.768860,269.678711 157.538757,281.102264 
	C168.525818,289.600067 179.377899,298.272308 190.298019,306.856750 
	C204.222916,317.803345 218.231339,328.645996 232.027603,339.752258 
	C235.140671,342.258331 237.526779,345.667419 240.247528,348.660858 
z"/>
<path fill="#FF6D7A" opacity="1.000000" stroke="none" 
	d="
M353.025269,221.542068 
	C350.031616,220.564407 346.819336,219.524918 344.265106,217.608444 
	C338.312347,213.141937 332.739716,208.173248 326.899567,203.551407 
	C311.461731,191.333984 296.029510,179.107590 280.466125,167.051254 
	C270.141693,159.053360 259.475861,151.494995 249.182770,143.458206 
	C239.661880,136.024353 230.538986,128.082001 221.050156,120.605583 
	C208.837006,110.982651 196.433777,101.600967 183.955933,91.762978 
	C196.552521,87.165817 209.677689,85.588120 223.541626,86.361740 
	C224.486710,87.596504 224.786392,88.612099 225.462982,89.173073 
	C231.184052,93.916473 236.923447,98.640755 242.752716,103.250145 
	C259.736267,116.679619 276.768494,130.047577 293.773163,143.450363 
	C308.321411,154.917038 322.797760,166.476318 337.447144,177.812088 
	C340.629944,180.274948 344.414551,181.960083 347.921936,184.003433 
	C349.326721,189.802689 351.207764,195.537094 352.008575,201.418594 
	C352.891449,207.902573 352.782532,214.521576 353.025269,221.542068 
z"/>
<path fill="#FF5464" opacity="1.000000" stroke="none" 
	d="
M505.224670,547.050781 
	C499.984100,543.700928 494.479767,540.696289 489.554596,536.933594 
	C476.960968,527.312195 464.653534,517.317078 452.165649,507.555817 
	C449.192688,505.231995 445.961456,503.238617 442.508331,501.053528 
	C443.073975,498.891113 443.980255,496.768372 445.022339,494.327606 
	C410.785583,458.247681 376.469635,422.084290 342.044067,385.218384 
	C340.882690,383.705536 339.830902,382.895203 338.779114,382.084869 
	C334.370453,377.582031 329.961792,373.079193 325.778320,368.296051 
	C328.338562,369.216400 330.919373,370.096985 332.968445,371.670135 
	C345.413849,381.224701 357.764496,390.903534 370.095428,400.606140 
	C382.835815,410.630890 395.463806,420.798981 408.241119,430.776123 
	C419.706757,439.729126 431.386841,448.407959 442.830170,457.388916 
	C457.013367,468.520111 471.003082,479.897583 485.164673,491.056610 
	C496.722107,500.163666 508.409210,509.106079 519.897949,518.424805 
	C512.492004,526.926758 508.102203,536.600830 505.224670,547.050781 
z"/>
<path fill="#FF5061" opacity="1.000000" stroke="none" 
	d="
M240.676498,348.635376 
	C237.526779,345.667419 235.140671,342.258331 232.027603,339.752258 
	C218.231339,328.645996 204.222916,317.803345 190.298019,306.856750 
	C179.377899,298.272308 168.525818,289.600067 157.538757,281.102264 
	C142.768860,269.678711 127.859970,258.434875 113.088821,247.012909 
	C106.801590,242.151230 100.737076,237.002380 94.509407,232.062119 
	C93.398651,231.180969 91.984077,230.682816 90.341209,230.003662 
	C89.986610,220.949387 90.000595,211.899292 90.464462,202.432434 
	C92.900421,203.137207 95.065033,204.029617 96.844620,205.416183 
	C112.338913,217.488708 127.748924,229.669312 143.215042,241.778122 
	C154.909576,250.934036 166.670334,260.005341 178.362976,269.163635 
	C188.382004,277.011047 198.300797,284.986877 208.348846,292.796631 
	C216.576172,299.191254 224.977844,305.361420 233.213257,311.745850 
	C243.659561,319.844238 254.081421,327.978119 264.334900,336.316711 
	C265.746155,337.464355 266.129333,339.876190 266.988495,341.702728 
	C258.360809,344.005096 249.733139,346.307495 240.676498,348.635376 
z"/>
<path fill="#FF858E" opacity="1.000000" stroke="none" 
	d="
M455.525757,87.831772 
	C461.948608,92.859428 467.872223,98.092430 474.063354,102.986992 
	C486.632233,112.923599 499.345337,122.677864 511.999939,132.506027 
	C521.636719,139.990402 531.312500,147.425598 540.880859,154.996399 
	C542.773376,156.493805 544.255981,158.509293 545.961975,160.629318 
	C518.727539,161.005402 491.452759,161.391174 464.192444,160.927872 
	C449.662445,160.680923 438.970795,152.897583 432.686310,139.949982 
	C426.299469,126.791618 427.707825,113.805214 435.835114,101.672745 
	C440.507172,94.698318 446.900635,89.945671 455.525757,87.831772 
z"/>
<path fill="#FF5666" opacity="1.000000" stroke="none" 
	d="
M520.038818,518.121521 
	C508.409210,509.106079 496.722107,500.163666 485.164673,491.056610 
	C471.003082,479.897583 457.013367,468.520111 442.830170,457.388916 
	C431.386841,448.407959 419.706757,439.729126 408.241119,430.776123 
	C395.463806,420.798981 382.835815,410.630890 370.095428,400.606140 
	C357.764496,390.903534 345.413849,381.224701 332.968445,371.670135 
	C330.919373,370.096985 328.338562,369.216400 325.652283,368.004822 
	C314.457214,356.711884 303.543335,345.495697 292.827362,334.093506 
	C290.631927,331.757538 288.807892,330.938385 285.515900,332.965088 
	C274.266205,323.942841 263.882477,314.788300 253.102753,306.126617 
	C239.570755,295.253479 225.714294,284.784119 212.437576,274.093628 
	C218.240356,274.321594 223.603439,274.596466 229.117096,275.192688 
	C234.763550,279.433746 240.420380,283.148346 245.725693,287.310974 
	C262.912659,300.795990 279.873962,314.569519 297.106598,327.995239 
	C313.039246,340.408234 329.278290,352.427307 345.248077,364.793335 
	C354.401642,371.881378 363.226837,379.391907 372.312103,386.570221 
	C380.610748,393.127045 389.128876,399.406036 397.426697,405.963898 
	C408.212372,414.487946 418.742249,423.339966 429.627014,431.733368 
	C442.193909,441.423920 455.143646,450.617920 467.715271,460.302551 
	C483.056305,472.120575 498.284058,484.092346 513.337158,496.273926 
	C518.917419,500.789673 523.864136,506.088348 528.895874,511.307068 
	C525.807617,513.763245 522.923218,515.942383 520.038818,518.121521 
z"/>
<path fill="#FF5464" opacity="1.000000" stroke="none" 
	d="
M211.997864,274.140503 
	C225.714294,284.784119 239.570755,295.253479 253.102753,306.126617 
	C263.882477,314.788300 274.266205,323.942841 285.156921,333.048401 
	C279.550446,336.009827 273.612823,338.801422 267.331848,341.647858 
	C266.129333,339.876190 265.746155,337.464355 264.334900,336.316711 
	C254.081421,327.978119 243.659561,319.844238 233.213257,311.745850 
	C224.977844,305.361420 216.576172,299.191254 208.348846,292.796631 
	C198.300797,284.986877 188.382004,277.011047 178.362976,269.163635 
	C166.670334,260.005341 154.909576,250.934036 143.215042,241.778122 
	C127.748924,229.669312 112.338913,217.488708 96.844620,205.416183 
	C95.065033,204.029617 92.900421,203.137207 90.559456,202.010864 
	C92.207489,193.150497 94.210403,184.294907 96.810204,175.213684 
	C104.061951,179.873657 110.823273,184.621780 117.348740,189.674484 
	C129.646286,199.196487 141.768677,208.944534 154.051025,218.486450 
	C157.532455,221.191116 161.315689,223.507309 165.088943,226.369614 
	C167.067566,235.439667 170.035965,243.627350 175.315079,250.949402 
	C184.462585,263.636871 197.057175,270.702820 211.997864,274.140503 
z"/>
<path fill="#FA3A44" opacity="1.000000" stroke="none" 
	d="
M328.357239,687.912476 
	C327.119690,681.647461 321.700378,679.523071 317.490601,676.239197 
	C308.039276,668.866821 298.713562,661.333435 289.263611,653.959290 
	C281.967957,648.266235 274.530884,642.754639 267.212219,637.090576 
	C260.028595,631.531067 252.857681,625.951416 245.823257,620.206604 
	C244.535812,619.155273 243.929123,617.270203 243.003418,615.407349 
	C268.460632,615.031433 293.929382,614.660889 319.381989,615.142517 
	C334.070496,615.420410 347.699738,627.432190 351.841309,642.111694 
	C356.116058,657.263306 350.363434,674.317078 337.880829,682.915527 
	C335.030182,684.879211 331.782532,686.266479 328.357239,687.912476 
z"/>
<path fill="#FA3A44" opacity="1.000000" stroke="none" 
	d="
M164.678528,557.556824 
	C163.188919,557.637024 161.553513,557.603638 160.449905,556.820679 
	C153.626694,551.980042 146.795074,547.134094 140.214157,541.973755 
	C132.971024,536.294128 126.103500,530.135986 118.870605,524.442627 
	C112.171989,519.169800 105.191902,514.255615 98.375565,509.130493 
	C97.355164,508.363251 96.664642,507.145905 95.624252,506.419189 
	C93.829041,505.165222 91.878944,504.132965 89.627274,503.008240 
	C89.214928,489.090149 88.914726,475.164886 89.273796,461.256622 
	C89.385857,456.916016 91.278770,452.621368 92.826172,448.348633 
	C97.200577,451.392609 101.109604,454.388062 105.009201,457.395721 
	C119.474159,468.552460 133.842545,479.837738 148.450012,490.804596 
	C153.523026,494.613251 159.185287,497.637024 164.578430,501.019257 
	C164.645126,519.711731 164.711823,538.404236 164.678528,557.556824 
z"/>
<path fill="#FF858E" opacity="1.000000" stroke="none" 
	d="
M618.046448,218.474838 
	C621.445312,220.245865 624.892212,222.342697 628.110535,224.745514 
	C636.295715,230.856567 644.468140,236.991409 652.480835,243.325165 
	C663.450562,251.996323 674.228638,260.909607 685.183716,269.599609 
	C687.354187,271.321350 689.953064,272.503113 692.717102,273.963318 
	C693.111389,287.699707 693.326599,301.410248 693.056885,315.111267 
	C692.980957,318.965912 691.482239,322.792572 690.178101,326.608246 
	C677.739807,317.481262 665.679504,308.480927 653.803223,299.243958 
	C643.356384,291.118683 633.151184,282.683014 622.734924,274.517548 
	C621.534912,273.576813 619.665466,273.490021 618.106323,273.007294 
	C618.067688,254.984848 618.029053,236.962418 618.046448,218.474838 
z"/>
<path fill="#FF6170" opacity="1.000000" stroke="none" 
	d="
M277.088226,208.003906 
	C281.914703,211.034149 286.964417,213.764374 291.522095,217.155869 
	C301.608246,224.661285 311.448120,232.497787 321.386475,240.201752 
	C329.475403,246.472061 337.561584,252.745972 346.030884,259.072784 
	C345.210571,262.565369 344.478790,266.274780 342.690948,269.375214 
	C340.272827,273.568695 341.650696,276.048828 344.663513,279.183319 
	C368.358643,303.835571 391.875610,328.659058 415.569885,353.721252 
	C412.803284,352.514435 409.613525,351.406647 407.075500,349.452484 
	C393.582550,339.063599 380.236267,328.483673 366.871552,317.928955 
	C353.268036,307.185730 339.740814,296.345642 326.107819,285.640106 
	C314.404572,276.449951 302.623291,267.358490 290.829102,258.285034 
	C284.696625,253.567230 278.461578,248.982803 272.127380,243.683838 
	C277.059082,231.846405 278.886292,220.189407 277.088226,208.003906 
z"/>
<path fill="#FF727F" opacity="1.000000" stroke="none" 
	d="
M348.039032,183.602203 
	C344.414551,181.960083 340.629944,180.274948 337.447144,177.812088 
	C322.797760,166.476318 308.321411,154.917038 293.773163,143.450363 
	C276.768494,130.047577 259.736267,116.679619 242.752716,103.250145 
	C236.923447,98.640755 231.184052,93.916473 225.462982,89.173073 
	C224.786392,88.612099 224.486710,87.596504 224.004211,86.436737 
	C251.865891,86.196068 276.873688,94.990669 299.151184,111.461433 
	C322.137054,128.455887 338.347382,150.495728 347.015625,177.879044 
	C347.560669,179.600815 347.783417,181.424637 348.039032,183.602203 
z"/>
<path fill="#FF7D88" opacity="1.000000" stroke="none" 
	d="
M618.046143,273.472198 
	C619.665466,273.490021 621.534912,273.576813 622.734924,274.517548 
	C633.151184,282.683014 643.356384,291.118683 653.803223,299.243958 
	C665.679504,308.480927 677.739807,317.481262 689.914429,326.874390 
	C685.354858,340.198517 671.770447,349.713348 657.418823,350.061066 
	C641.159790,350.455017 626.672485,341.828308 621.209167,327.765594 
	C619.329712,322.927856 618.249939,317.519653 618.077881,312.329865 
	C617.654053,299.545288 617.968384,286.736298 618.046143,273.472198 
z"/>
<path fill="#FB3E4B" opacity="1.000000" stroke="none" 
	d="
M164.679199,500.559204 
	C159.185287,497.637024 153.523026,494.613251 148.450012,490.804596 
	C133.842545,479.837738 119.474159,468.552460 105.009201,457.395721 
	C101.109604,454.388062 97.200577,451.392609 93.096230,448.098145 
	C98.160156,434.392090 112.535400,425.533875 128.379990,425.939392 
	C143.787857,426.333740 157.797668,436.576111 162.617569,451.389313 
	C163.886642,455.289642 164.632263,459.518250 164.719971,463.615356 
	C164.980209,475.771454 164.792511,487.937164 164.679199,500.559204 
z"/>
<path fill="#FF5666" opacity="1.000000" stroke="none" 
	d="
M618.082458,555.004272 
	C621.658447,557.443604 625.382507,559.693542 628.785767,562.353760 
	C647.122498,576.687134 665.379517,591.122437 683.855103,605.800781 
	C680.065125,618.687500 673.058960,629.577087 664.293762,639.800659 
	C659.704712,636.150818 655.883972,632.279846 651.669495,628.899780 
	C642.295288,621.381653 632.798157,614.010925 623.205505,606.773071 
	C617.334595,602.343384 611.193726,598.271484 605.275940,593.722900 
	C614.506958,582.225220 618.102600,569.212830 618.082458,555.004272 
z"/>
<path fill="#FF9AA0" opacity="1.000000" stroke="none" 
	d="
M690.908875,175.611603 
	C688.243408,174.457199 685.393433,173.176468 682.995850,171.313507 
	C670.051575,161.255432 657.215332,151.058319 644.349915,140.898926 
	C630.065796,129.619278 615.838806,118.266747 601.490662,107.069275 
	C594.449707,101.574387 587.153687,96.407181 580.060669,90.977234 
	C578.537292,89.811020 577.391846,88.151039 576.035706,86.373909 
	C629.189697,83.179443 679.439575,121.058296 690.908875,175.611603 
z"/>
<path fill="#FF5061" opacity="1.000000" stroke="none" 
	d="
M605.174133,594.038818 
	C611.193726,598.271484 617.334595,602.343384 623.205505,606.773071 
	C632.798157,614.010925 642.295288,621.381653 651.669495,628.899780 
	C655.883972,632.279846 659.704712,636.150818 664.015259,639.974731 
	C656.078491,648.252563 647.830627,656.354675 639.280518,664.565552 
	C636.711609,662.368774 634.639221,659.823730 632.143860,657.800110 
	C622.638184,650.091187 613.025574,642.512939 603.396057,634.958252 
	C595.206726,628.533386 586.926331,622.224548 578.728271,615.810669 
	C578.002686,615.242981 577.587830,614.278137 577.249817,612.903076 
	C588.460632,608.880188 597.676086,602.761658 605.174133,594.038818 
z"/>
<path fill="#FF6170" opacity="1.000000" stroke="none" 
	d="
M154.638046,104.006378 
	C157.815979,106.536308 160.498047,109.319130 163.507889,111.684975 
	C182.741562,126.803352 202.059341,141.814758 221.298416,156.926315 
	C222.409027,157.798660 223.072327,159.240494 223.540283,160.815201 
	C218.379059,161.734802 213.365173,161.482895 208.921951,162.954285 
	C201.741669,165.332062 194.936752,168.843384 187.975296,171.515717 
	C187.276718,169.900223 186.857254,168.310501 185.828415,167.445892 
	C180.518463,162.983612 175.100693,158.645142 169.630203,154.379318 
	C159.741425,146.668152 149.831894,138.981995 139.839142,131.406616 
	C136.323639,128.741547 132.538651,126.431999 128.876709,123.960129 
	C137.349060,117.328903 145.821396,110.697685 154.638046,104.006378 
z"/>
<path fill="#FF5969" opacity="1.000000" stroke="none" 
	d="
M164.960526,226.001663 
	C161.315689,223.507309 157.532455,221.191116 154.051025,218.486450 
	C141.768677,208.944534 129.646286,199.196487 117.348740,189.674484 
	C110.823273,184.621780 104.061951,179.873657 97.030579,174.927887 
	C100.727180,166.098526 104.800308,157.329361 109.450645,148.292755 
	C111.516647,148.692322 113.205696,149.098663 114.464157,150.065491 
	C133.048798,164.343201 151.576233,178.695358 170.066742,193.402725 
	C165.202225,204.026764 164.278580,214.888275 164.960526,226.001663 
z"/>
<path fill="#FF5D6D" opacity="1.000000" stroke="none" 
	d="
M170.117249,193.029861 
	C151.576233,178.695358 133.048798,164.343201 114.464157,150.065491 
	C113.205696,149.098663 111.516647,148.692322 109.680946,148.020859 
	C115.649101,140.089890 121.964180,132.163391 128.577972,124.098495 
	C132.538651,126.431999 136.323639,128.741547 139.839142,131.406616 
	C149.831894,138.981995 159.741425,146.668152 169.630203,154.379318 
	C175.100693,158.645142 180.518463,162.983612 185.828415,167.445892 
	C186.857254,168.310501 187.276718,169.900223 187.760483,171.786377 
	C185.509521,173.980270 183.056702,175.214798 181.522568,177.170105 
	C177.506622,182.288651 173.891907,187.722000 170.117249,193.029861 
z"/>
<path fill="#FF6876" opacity="1.000000" stroke="none" 
	d="
M686.152832,515.549438 
	C680.820496,512.154846 675.306030,508.581268 670.138855,504.561249 
	C653.821411,491.866333 637.611755,479.032349 621.404846,466.196136 
	C611.712646,458.519684 602.142822,450.688507 592.439209,443.026733 
	C588.032349,439.547180 583.343140,436.423370 578.965637,432.909332 
	C577.096558,431.408936 575.696960,429.323517 574.083984,427.139557 
	C601.555603,428.834930 625.564575,439.428375 646.383179,457.086578 
	C664.850647,472.750580 678.658752,491.853027 686.152832,515.549438 
z"/>
<path fill="#FF6170" opacity="1.000000" stroke="none" 
	d="
M421.072754,359.611816 
	C417.996277,360.137421 416.128723,358.813110 416.107544,355.010345 
	C417.740479,356.171112 419.335144,357.740326 421.072754,359.611816 
z"/>
<path fill="#FF5666" opacity="1.000000" stroke="none" 
	d="
M338.911072,382.381989 
	C339.830902,382.895203 340.882690,383.705536 341.905731,384.924927 
	C340.932343,384.449036 339.987701,383.564087 338.911072,382.381989 
z"/>
<path fill="#FF5969" opacity="1.000000" stroke="none" 
	d="
M529.099731,511.029999 
	C523.864136,506.088348 518.917419,500.789673 513.337158,496.273926 
	C498.284058,484.092346 483.056305,472.120575 467.715271,460.302551 
	C455.143646,450.617920 442.193909,441.423920 429.627014,431.733368 
	C418.742249,423.339966 408.212372,414.487946 397.426697,405.963898 
	C389.128876,399.406036 380.610748,393.127045 372.312103,386.570221 
	C363.226837,379.391907 354.401642,371.881378 345.248077,364.793335 
	C329.278290,352.427307 313.039246,340.408234 297.106598,327.995239 
	C279.873962,314.569519 262.912659,300.795990 245.725693,287.310974 
	C240.420380,283.148346 234.763550,279.433746 229.326675,274.875000 
	C240.377533,272.464447 249.831650,267.330505 258.667480,260.844604 
	C263.286011,263.580658 268.257843,265.862152 272.462677,269.130432 
	C291.912689,284.248138 311.059326,299.755920 330.497375,314.889252 
	C341.708954,323.617950 353.358002,331.782898 364.635559,340.429352 
	C371.066864,345.360229 377.097443,350.810364 383.397705,355.916565 
	C391.876038,362.788055 400.377289,369.634308 408.981567,376.346771 
	C425.029358,388.866058 441.134064,401.312897 457.266388,413.723175 
	C463.283264,418.351807 469.557983,422.648895 475.518402,427.346741 
	C498.609680,445.546570 521.597778,463.877319 544.680542,482.087952 
	C550.267151,486.495453 556.180725,490.492188 561.707703,494.969482 
	C563.495117,496.417450 564.527466,498.797424 565.452820,501.137268 
	C551.966431,500.662476 540.131653,504.330383 529.099731,511.029999 
z"/>
<path fill="#FFFFFF" opacity="1.000000" stroke="none" 
	d="
M528.895874,511.307068 
	C540.131653,504.330383 551.966431,500.662476 565.439941,501.525421 
	C595.759033,505.763824 613.601379,523.836426 617.982544,554.603149 
	C618.102600,569.212830 614.506958,582.225220 605.275940,593.722900 
	C597.676086,602.761658 588.460632,608.880188 577.208496,612.541504 
	C560.926453,616.337219 545.514038,615.232910 531.424194,606.122437 
	C512.342468,593.784302 503.440552,576.133972 504.742737,553.404419 
	C504.847321,551.578735 505.055115,549.758972 505.219788,547.493652 
	C508.102203,536.600830 512.492004,526.926758 519.897949,518.424805 
	C522.923218,515.942383 525.807617,513.763245 528.895874,511.307068 
z"/>
<path fill="#FFFFFF" opacity="1.000000" stroke="none" 
	d="
M258.837189,260.547180 
	C249.831650,267.330505 240.377533,272.464447 229.176086,274.553650 
	C223.603439,274.596466 218.240356,274.321594 212.437576,274.093628 
	C197.057175,270.702820 184.462585,263.636871 175.315079,250.949402 
	C170.035965,243.627350 167.067566,235.439667 165.088943,226.369614 
	C164.278580,214.888275 165.202225,204.026764 170.066742,193.402725 
	C173.891907,187.722000 177.506622,182.288651 181.522568,177.170105 
	C183.056702,175.214798 185.509521,173.980270 187.758499,172.146637 
	C194.936752,168.843384 201.741669,165.332062 208.921951,162.954285 
	C213.365173,161.482895 218.379059,161.734802 223.570816,161.170380 
	C231.760788,163.379608 239.976471,164.662415 247.179657,168.079559 
	C263.612244,175.875076 272.717102,189.838547 276.951080,207.643570 
	C278.886292,220.189407 277.059082,231.846405 271.937592,243.384308 
	C267.597809,249.242599 263.302338,254.746185 258.837189,260.547180 
z"/>
</svg>