<svg version="1.1" id="Layer_1" xmlns="http://www.w3.org/2000/svg" xmlns:xlink="http://www.w3.org/1999/xlink" x="0px" y="0px"
	 width="100%" viewBox="0 0 916 748" enable-background="new 0 0 916 748" xml:space="preserve">
<path fill="#FFFFFF" opacity="1.000000" stroke="none" 
	d="
M1.000000,258.000000 
	C1.000000,172.012817 1.000000,86.525642 1.000000,1.019233 
	C306.274719,1.019233 611.549438,1.019233 916.912109,1.019233 
	C916.912109,250.237305 916.912109,499.474640 916.912109,748.855957 
	C611.666687,748.855957 306.333374,748.855957 1.000000,748.855957 
	C1.000000,585.450317 1.000000,421.975159 1.000000,258.000000 
M156.524536,101.400017 
	C152.303787,109.243462 148.083054,117.086906 143.349258,125.420830 
	C136.481781,142.323318 134.289001,159.924347 135.286285,178.942734 
	C135.354645,195.294861 135.423004,211.647003 135.284546,228.915466 
	C136.150146,240.956787 137.015762,252.998108 137.851868,265.840271 
	C141.646423,285.819946 150.965820,303.089294 164.023132,318.091583 
	C160.961838,322.340698 158.257156,326.094818 155.047821,330.256378 
	C145.944275,343.124847 140.222778,357.389618 137.147079,373.565613 
	C136.595856,389.051880 136.044647,404.538116 135.290070,420.935974 
	C135.268265,436.751038 134.796448,452.582977 135.388901,468.375000 
	C135.760406,478.277832 136.787720,488.352509 139.145844,497.950836 
	C150.219315,543.023376 189.894989,578.822266 236.192245,581.645569 
	C275.001373,584.012146 314.046906,582.501587 353.912659,582.879395 
	C376.271423,582.822571 398.630188,582.765747 421.913910,582.879089 
	C444.607513,582.822205 467.301117,582.765259 490.918121,582.878662 
	C517.275208,582.822388 543.632324,582.766113 570.913147,582.882446 
	C600.605225,582.825134 630.297241,582.767822 660.913147,582.882141 
	C674.564392,582.890564 688.218994,583.090149 701.866089,582.856506 
	C717.109924,582.595581 731.973450,580.145569 746.656494,573.612793 
	C765.179199,565.719482 780.145325,553.365784 792.745300,536.941345 
	C801.409058,525.921387 807.376465,513.581360 811.122009,499.277313 
	C815.963684,484.146820 815.306824,468.561798 815.091125,452.072998 
	C815.044495,441.049164 814.997864,430.025330 815.090393,418.072540 
	C815.101562,413.915955 815.312927,409.748322 815.084961,405.604889 
	C814.486755,394.731110 813.696899,383.867889 813.033752,372.184601 
	C809.564636,353.251556 801.300415,336.595734 789.220032,321.712189 
	C788.168457,320.416595 787.759521,318.599548 787.640076,316.709106 
	C788.897766,315.170502 790.182129,313.652832 791.408936,312.089905 
	C801.689880,298.991913 808.746948,284.383026 812.530212,267.429352 
	C816.317139,252.109711 814.914185,236.520294 815.064636,220.073822 
	C815.026489,205.716385 814.988403,191.358948 815.061096,176.069275 
	C816.317627,148.120667 809.908508,122.362953 792.846191,99.792236 
	C772.385376,72.725784 745.109070,57.122375 711.386292,54.366772 
	C693.700439,52.921604 675.800720,54.093800 657.065491,53.980392 
	C631.375244,54.012703 605.685059,54.045010 579.063049,53.971859 
	C559.374023,54.010994 539.684998,54.050129 519.065063,53.973137 
	C501.042236,54.014111 483.019440,54.055084 464.066467,53.975231 
	C443.043701,54.013668 422.020935,54.052101 400.068024,53.963715 
	C389.044495,54.008125 378.020935,54.052532 366.068054,53.967747 
	C346.378052,54.008911 326.688019,54.050076 306.068665,53.958225 
	C295.377808,54.005676 284.686981,54.053131 273.067841,53.964249 
	C262.970367,53.978146 252.840454,53.501015 242.785995,54.165684 
	C235.131760,54.671680 227.573349,56.627434 219.182114,57.933914 
	C205.037094,61.524357 192.129654,67.623550 180.141388,77.064102 
	C170.924301,83.576019 163.372787,91.690887 156.524536,101.400017 
M591.076538,620.794922 
	C573.051270,620.852844 555.026062,620.910767 536.077087,620.790833 
	C516.051697,620.851135 496.026337,620.911377 475.078064,620.789368 
	C449.052338,620.849792 423.026611,620.910156 396.078461,620.785461 
	C386.621063,620.768494 377.163544,620.716248 367.706268,620.741760 
	C347.471191,620.796448 327.236176,620.891296 306.079529,620.780029 
	C294.961517,620.764038 283.843445,620.711548 272.725555,620.740295 
	C253.483688,620.789917 234.241989,620.889954 214.079620,620.774170 
	C199.264343,620.822937 184.435410,620.487976 169.637100,621.014160 
	C149.530106,621.729004 132.893234,641.991577 135.479004,661.914185 
	C138.162964,682.593262 153.207703,696.002502 174.159515,696.095154 
	C199.631012,696.207886 225.103439,696.149109 250.575394,696.115295 
	C269.716003,696.089905 288.856506,695.986938 308.920929,696.093140 
	C338.279419,696.034729 367.637939,695.976318 397.920166,696.092773 
	C427.945526,696.034912 457.970917,695.977112 488.920410,696.092957 
	C514.279358,696.034729 539.638367,695.976501 565.921753,696.089111 
	C586.946655,696.032532 607.971619,695.975952 629.921448,696.088196 
	C647.613342,696.032104 665.305176,695.976074 683.922302,696.085205 
	C703.613708,696.028625 723.305115,695.972107 743.921875,696.080383 
	C755.570496,696.072205 767.220642,696.179077 778.867126,696.018250 
	C787.652893,695.896912 795.400818,692.822693 802.599976,686.698547 
	C804.667786,684.315979 807.043518,682.134155 808.750610,679.516357 
	C816.546082,667.562683 817.509766,654.838806 811.421814,642.032410 
	C805.668518,629.929810 795.737366,621.923767 782.377014,621.259949 
	C762.296570,620.262268 742.130737,620.984436 721.075012,620.813049 
	C698.050171,620.866577 675.025391,620.920044 651.076111,620.800842 
	C631.384277,620.857361 611.692383,620.913879 591.076538,620.794922 
z"/>
<path fill="#FA3B48" opacity="1.000000" stroke="none" 
	d="
M352.987762,582.707703 
	C314.046906,582.501587 275.001373,584.012146 236.192245,581.645569 
	C189.894989,578.822266 150.219315,543.023376 139.145844,497.950836 
	C136.787720,488.352509 135.760406,478.277832 135.388901,468.375000 
	C134.796448,452.582977 135.268265,436.751038 135.726410,420.484985 
	C142.650574,424.731384 149.212448,429.330658 155.604813,434.154541 
	C161.657318,438.721893 167.504349,443.560425 173.492706,448.214172 
	C179.468979,452.858582 185.444702,457.508209 191.537659,461.996704 
	C198.002441,466.759064 204.604843,471.334534 211.345963,476.327637 
	C213.106781,492.021820 229.996872,507.984863 247.039902,507.161469 
	C252.341293,506.905365 257.674622,507.310272 263.001953,507.761292 
	C264.017456,509.739410 264.670898,511.821625 266.086884,512.927002 
	C277.944336,522.183533 290.030304,531.147888 301.864136,540.433838 
	C309.002686,546.035400 315.683136,552.219788 322.806488,557.841919 
	C332.272400,565.312866 341.989685,572.464844 351.528412,579.845032 
	C352.294495,580.437805 352.514191,581.736877 352.987762,582.707703 
z"/>
<path fill="#FE5061" opacity="1.000000" stroke="none" 
	d="
M135.491364,227.999130 
	C135.423004,211.647003 135.354645,195.294861 135.736145,178.481323 
	C137.389832,178.451859 138.803650,178.611908 139.766586,179.355698 
	C160.855240,195.645111 181.859207,212.044403 202.992874,228.274887 
	C205.226578,229.990341 208.165894,230.787018 210.846558,232.472931 
	C211.095474,238.400497 210.593079,243.991608 211.578140,249.307037 
	C215.169342,268.685303 230.276642,280.451416 251.165970,280.670471 
	C262.778839,280.792267 274.392639,280.826630 286.033813,281.253540 
	C287.160583,283.024078 288.046814,284.697449 289.393616,285.816589 
	C297.138947,292.252808 304.916199,298.655792 312.828339,304.884949 
	C325.649384,314.978882 338.572723,324.943024 351.475861,334.932281 
	C355.250946,337.854889 359.270905,340.483215 362.879059,343.593903 
	C367.410919,347.500977 371.634766,351.765381 375.527954,355.944885 
	C350.041748,355.968750 325.019135,355.923309 299.956848,355.539612 
	C298.644470,353.698822 297.583344,351.924103 296.062012,350.741394 
	C289.819611,345.888519 283.433990,341.219971 277.107178,336.475525 
	C272.885437,333.309631 268.600189,330.222656 264.472717,326.937866 
	C254.915543,319.331970 245.498306,311.549652 235.911316,303.982056 
	C223.178726,293.931396 210.349991,284.002289 197.541504,274.048065 
	C184.353638,263.799011 171.129120,253.597122 157.948639,243.338608 
	C155.510574,241.441055 153.428192,238.987137 150.792068,237.464417 
	C145.591141,234.460205 142.384384,228.220428 135.491364,227.999130 
z"/>
<path fill="#FF939A" opacity="1.000000" stroke="none" 
	d="
M814.950256,177.001511 
	C814.988403,191.358948 815.026489,205.716385 814.642944,220.533508 
	C813.195923,220.539062 812.026611,220.270187 811.167542,219.602219 
	C802.324402,212.726318 793.516174,205.805145 784.728455,198.858383 
	C774.395325,190.689926 764.209534,182.328796 753.718384,174.369415 
	C749.470032,171.146301 744.583801,168.763794 739.921143,165.602341 
	C738.832825,161.021332 738.373413,156.594330 736.691895,152.694290 
	C729.507019,136.030182 715.842896,129.459274 698.479431,129.192825 
	C688.989685,129.047195 679.496948,129.092697 669.972900,128.703827 
	C667.004089,125.258018 664.404114,121.727676 661.072205,119.139496 
	C648.346191,109.254059 635.315063,99.762474 622.530884,89.950500 
	C610.347046,80.599251 598.258118,71.119972 586.296082,61.487568 
	C583.815247,59.489922 582.075867,56.571423 579.994812,54.077316 
	C605.685059,54.045010 631.375244,54.012703 657.572021,54.372932 
	C658.903748,55.763336 659.577393,56.957726 660.577271,57.729183 
	C672.882629,67.223267 685.337341,76.526276 697.551819,86.135017 
	C714.530090,99.491234 731.249512,113.176628 748.243774,126.512100 
	C763.713318,138.651123 779.363586,150.561249 795.011902,162.470291 
	C801.554749,167.449707 808.298096,172.165726 814.950256,177.001511 
z"/>
<path fill="#F8373A" opacity="1.000000" stroke="none" 
	d="
M307.997040,695.918579 
	C288.856506,695.986938 269.716003,696.089905 250.575394,696.115295 
	C225.103439,696.149109 199.631012,696.207886 174.159515,696.095154 
	C153.207703,696.002502 138.162964,682.593262 135.479004,661.914185 
	C132.893234,641.991577 149.530106,621.729004 169.637100,621.014160 
	C184.435410,620.487976 199.264343,620.822937 214.575714,621.222656 
	C216.221436,622.786377 217.275681,624.025513 218.536163,624.997009 
	C226.886612,631.432922 235.343460,637.732239 243.640671,644.235474 
	C249.597626,648.904419 255.227783,653.994934 261.242310,658.584717 
	C269.475891,664.867859 278.027954,670.733582 286.263397,677.014404 
	C291.066559,680.677551 295.547882,684.767395 300.116791,688.731201 
	C302.801392,691.060303 305.374023,693.518494 307.997040,695.918579 
z"/>
<path fill="#FF5868" opacity="1.000000" stroke="none" 
	d="
M745.979126,573.729736 
	C731.973450,580.145569 717.109924,582.595581 701.866089,582.856506 
	C688.218994,583.090149 674.564392,582.890564 660.445190,582.450134 
	C658.144043,579.765198 656.652771,577.074829 654.421753,575.330811 
	C640.781921,564.668518 626.892883,554.325195 613.245361,543.672546 
	C599.563965,532.993408 586.045959,522.104126 572.530029,511.215424 
	C571.396729,510.302429 570.823303,508.694458 570.449280,507.307800 
	C583.855530,507.189911 596.802307,507.134216 609.748901,507.166443 
	C629.495361,507.215576 649.241760,507.325531 668.989441,507.768066 
	C669.421326,509.330475 669.494751,510.959290 670.340088,511.670105 
	C676.154114,516.559082 682.053101,521.355408 688.073059,525.989014 
	C695.127625,531.418945 702.392212,536.575623 709.456970,541.992615 
	C718.098083,548.618347 726.795471,555.189880 735.130432,562.187561 
	C739.146240,565.559021 742.387268,569.853333 745.979126,573.729736 
z"/>
<path fill="#FF989D" opacity="1.000000" stroke="none" 
	d="
M815.005676,176.535400 
	C808.298096,172.165726 801.554749,167.449707 795.011902,162.470291 
	C779.363586,150.561249 763.713318,138.651123 748.243774,126.512100 
	C731.249512,113.176628 714.530090,99.491234 697.551819,86.135017 
	C685.337341,76.526276 672.882629,67.223267 660.577271,57.729183 
	C659.577393,56.957726 658.903748,55.763336 658.038086,54.424740 
	C675.800720,54.093800 693.700439,52.921604 711.386292,54.366772 
	C745.109070,57.122375 772.385376,72.725784 792.846191,99.792236 
	C809.908508,122.362953 816.317627,148.120667 815.005676,176.535400 
z"/>
<path fill="#FA3B48" opacity="1.000000" stroke="none" 
	d="
M487.996277,695.919250 
	C457.970917,695.977112 427.945526,696.034912 397.418488,695.663574 
	C390.722107,690.027710 385.141754,684.275085 378.182373,679.751160 
	C367.354858,672.712524 357.589722,664.026306 347.464844,655.925293 
	C341.704346,651.316223 336.241913,646.330933 330.427338,641.794373 
	C325.104919,637.641785 319.260559,634.138245 314.094025,629.813660 
	C311.252808,627.435486 309.335175,623.953857 307.001160,620.969727 
	C327.236176,620.891296 347.471191,620.796448 367.706268,620.741760 
	C377.163544,620.716248 386.621063,620.768494 396.572815,621.226929 
	C397.830902,622.723450 398.410797,624.004761 399.387177,624.798279 
	C407.963470,631.768188 416.544250,638.735779 425.251984,645.539917 
	C438.041077,655.533203 450.969696,665.347778 463.772644,675.323486 
	C471.179688,681.094971 478.478912,687.006042 485.764709,692.930481 
	C486.700134,693.691101 487.261566,694.911743 487.996277,695.919250 
z"/>
<path fill="#FE5061" opacity="1.000000" stroke="none" 
	d="
M569.989746,507.409363 
	C570.823303,508.694458 571.396729,510.302429 572.530029,511.215424 
	C586.045959,522.104126 599.563965,532.993408 613.245361,543.672546 
	C626.892883,554.325195 640.781921,564.668518 654.421753,575.330811 
	C656.652771,577.074829 658.144043,579.765198 659.983276,582.364380 
	C630.297241,582.767822 600.605225,582.825134 570.444214,582.444763 
	C569.209839,580.795959 568.699097,579.265991 567.641174,578.421265 
	C549.421570,563.874512 531.151184,549.391174 512.855530,534.940002 
	C503.116455,527.247375 493.261505,519.700439 483.587860,511.927216 
	C482.326599,510.913696 481.837006,508.939941 481.449402,507.309418 
	C511.269135,507.275055 540.629456,507.342224 569.989746,507.409363 
z"/>
<path fill="#F93840" opacity="1.000000" stroke="none" 
	d="
M306.540344,620.874878 
	C309.335175,623.953857 311.252808,627.435486 314.094025,629.813660 
	C319.260559,634.138245 325.104919,637.641785 330.427338,641.794373 
	C336.241913,646.330933 341.704346,651.316223 347.464844,655.925293 
	C357.589722,664.026306 367.354858,672.712524 378.182373,679.751160 
	C385.141754,684.275085 390.722107,690.027710 396.956604,695.576111 
	C367.637939,695.976318 338.279419,696.034729 308.458984,696.005859 
	C305.374023,693.518494 302.801392,691.060303 300.116791,688.731201 
	C295.547882,684.767395 291.066559,680.677551 286.263397,677.014404 
	C278.027954,670.733582 269.475891,664.867859 261.242310,658.584717 
	C255.227783,653.994934 249.597626,648.904419 243.640671,644.235474 
	C235.343460,637.732239 226.886612,631.432922 218.536163,624.997009 
	C217.275681,624.025513 216.221436,622.786377 215.036011,621.319946 
	C234.241989,620.889954 253.483688,620.789917 272.725555,620.740295 
	C283.843445,620.711548 294.961517,620.764038 306.540344,620.874878 
z"/>
<path fill="#FF7A85" opacity="1.000000" stroke="none" 
	d="
M812.983459,373.000458 
	C813.696899,383.867889 814.486755,394.731110 815.084961,405.604889 
	C815.312927,409.748322 815.101562,413.915955 814.672119,418.499756 
	C810.090515,416.043243 805.768921,413.360931 801.793396,410.238159 
	C789.644714,400.695496 777.673767,390.926727 765.543518,381.360321 
	C759.200989,376.358429 752.594910,371.691193 746.240356,366.703949 
	C736.489136,359.050934 726.940308,351.138702 717.144836,343.543732 
	C704.494507,333.735352 691.647766,324.180756 678.957581,314.423187 
	C668.866211,306.663788 658.781616,298.888458 648.904846,290.860779 
	C645.292664,287.924866 642.287720,284.241791 639.470398,280.835571 
	C658.958252,280.816895 677.981445,280.862244 697.033386,281.259705 
	C698.709412,283.408691 700.134644,285.496063 702.041443,286.953278 
	C711.589661,294.250031 721.367004,301.248901 730.863647,308.610779 
	C739.463562,315.277496 747.781555,322.306824 756.267090,329.122406 
	C768.505859,338.952637 780.706299,348.833191 793.076416,358.495972 
	C799.543030,363.547241 806.337219,368.179138 812.983459,373.000458 
z"/>
<path fill="#FD4959" opacity="1.000000" stroke="none" 
	d="
M480.989960,507.410950 
	C481.837006,508.939941 482.326599,510.913696 483.587860,511.927216 
	C493.261505,519.700439 503.116455,527.247375 512.855530,534.940002 
	C531.151184,549.391174 549.421570,563.874512 567.641174,578.421265 
	C568.699097,579.265991 569.209839,580.795959 569.982300,582.358521 
	C543.632324,582.766113 517.275208,582.822388 490.448364,582.440247 
	C488.948212,580.176453 488.335266,577.827209 486.815338,576.616211 
	C480.148926,571.304626 473.226105,566.314209 466.384674,561.222900 
	C459.115845,555.813477 451.751312,550.528748 444.575531,544.998962 
	C430.984283,534.525269 417.446411,523.980042 404.030243,513.284119 
	C402.253571,511.867615 401.318604,509.395416 400.453369,507.312622 
	C427.605255,507.279022 454.297607,507.344971 480.989960,507.410950 
z"/>
<path fill="#FC404E" opacity="1.000000" stroke="none" 
	d="
M488.458344,696.006104 
	C487.261566,694.911743 486.700134,693.691101 485.764709,692.930481 
	C478.478912,687.006042 471.179688,681.094971 463.772644,675.323486 
	C450.969696,665.347778 438.041077,655.533203 425.251984,645.539917 
	C416.544250,638.735779 407.963470,631.768188 399.387177,624.798279 
	C398.410797,624.004761 397.830902,622.723450 397.034027,621.319458 
	C423.026611,620.910156 449.052338,620.849792 475.543335,621.251465 
	C477.062775,623.313293 477.797821,625.313538 479.222321,626.448669 
	C489.396454,634.556152 499.696472,642.506165 509.987823,650.465759 
	C514.547607,653.992371 519.164978,657.445190 523.783569,660.894836 
	C529.085632,664.854919 534.486877,668.685425 539.720276,672.733459 
	C546.762512,678.180664 553.800903,683.645996 560.586121,689.403687 
	C562.512207,691.038208 563.551392,693.717896 564.997314,695.918274 
	C539.638367,695.976501 514.279358,696.034729 488.458344,696.006104 
z"/>
<path fill="#FF7481" opacity="1.000000" stroke="none" 
	d="
M639.005737,280.899536 
	C642.287720,284.241791 645.292664,287.924866 648.904846,290.860779 
	C658.781616,298.888458 668.866211,306.663788 678.957581,314.423187 
	C691.647766,324.180756 704.494507,333.735352 717.144836,343.543732 
	C726.940308,351.138702 736.489136,359.050934 746.240356,366.703949 
	C752.594910,371.691193 759.200989,376.358429 765.543518,381.360321 
	C777.673767,390.926727 789.644714,400.695496 801.793396,410.238159 
	C805.768921,413.360931 810.090515,416.043243 814.602539,418.964233 
	C814.997864,430.025330 815.044495,441.049164 814.670349,452.499725 
	C812.944946,452.222168 811.514465,451.681244 810.354919,450.788605 
	C797.374695,440.796326 784.432922,430.754150 771.487732,420.716400 
	C762.480652,413.732330 753.515930,406.692841 744.446106,399.791321 
	C743.216797,398.855835 741.485046,398.580505 739.914734,397.559509 
	C739.571106,378.052277 731.283691,364.258881 715.079712,358.839447 
	C707.861633,356.425354 699.717102,356.781189 691.950928,355.536926 
	C683.327271,348.301208 674.805603,341.332214 666.147522,334.536987 
	C657.432739,327.697235 648.563904,321.054169 639.796265,314.281311 
	C629.593262,306.399658 619.324341,298.597473 609.301086,290.492371 
	C605.865479,287.714294 603.084595,284.126495 600.468872,280.837646 
	C613.624023,280.810974 626.314880,280.855255 639.005737,280.899536 
z"/>
<path fill="#FC404E" opacity="1.000000" stroke="none" 
	d="
M353.450195,582.793579 
	C352.514191,581.736877 352.294495,580.437805 351.528412,579.845032 
	C341.989685,572.464844 332.272400,565.312866 322.806488,557.841919 
	C315.683136,552.219788 309.002686,546.035400 301.864136,540.433838 
	C290.030304,531.147888 277.944336,522.183533 266.086884,512.927002 
	C264.670898,511.821625 264.017456,509.739410 263.461487,507.661591 
	C286.939636,507.278992 309.966858,507.344757 333.003052,507.762146 
	C334.065338,514.321167 339.472992,516.197876 343.763916,519.450378 
	C355.914703,528.660767 367.664093,538.398376 379.677399,547.793091 
	C392.521515,557.837341 405.530304,567.671509 418.333466,577.767029 
	C419.680176,578.828918 420.125458,581.034119 420.988953,582.708862 
	C398.630188,582.765747 376.271423,582.822571 353.450195,582.793579 
z"/>
<path fill="#FE4C5D" opacity="1.000000" stroke="none" 
	d="
M135.387939,228.457306 
	C142.384384,228.220428 145.591141,234.460205 150.792068,237.464417 
	C153.428192,238.987137 155.510574,241.441055 157.948639,243.338608 
	C171.129120,253.597122 184.353638,263.799011 197.541504,274.048065 
	C210.349991,284.002289 223.178726,293.931396 235.911316,303.982056 
	C245.498306,311.549652 254.915543,319.331970 264.472717,326.937866 
	C268.600189,330.222656 272.885437,333.309631 277.107178,336.475525 
	C283.433990,341.219971 289.819611,345.888519 296.062012,350.741394 
	C297.583344,351.924103 298.644470,353.698822 299.493225,355.612061 
	C284.045166,355.973846 269.021057,355.924957 253.955643,355.535736 
	C249.581589,351.449554 245.381165,347.535950 240.888382,343.993073 
	C231.719742,336.763000 222.380569,329.749542 213.136154,322.615082 
	C203.364197,315.073486 193.576248,307.551483 183.876816,299.917328 
	C173.238052,291.543823 162.773712,282.946930 152.067581,274.661621 
	C147.557648,271.171478 142.622971,268.230194 137.881363,265.039429 
	C137.015762,252.998108 136.150146,240.956787 135.387939,228.457306 
z"/>
<path fill="#FD4454" opacity="1.000000" stroke="none" 
	d="
M421.451416,582.793945 
	C420.125458,581.034119 419.680176,578.828918 418.333466,577.767029 
	C405.530304,567.671509 392.521515,557.837341 379.677399,547.793091 
	C367.664093,538.398376 355.914703,528.660767 343.763916,519.450378 
	C339.472992,516.197876 334.065338,514.321167 333.462708,507.663330 
	C355.940186,507.279297 377.966980,507.345703 399.993805,507.412140 
	C401.318604,509.395416 402.253571,511.867615 404.030243,513.284119 
	C417.446411,523.980042 430.984283,534.525269 444.575531,544.998962 
	C451.751312,550.528748 459.115845,555.813477 466.384674,561.222900 
	C473.226105,566.314209 480.148926,571.304626 486.815338,576.616211 
	C488.335266,577.827209 488.948212,580.176453 489.986633,582.355103 
	C467.301117,582.765259 444.607513,582.822205 421.451416,582.793945 
z"/>
<path fill="#FE5061" opacity="1.000000" stroke="none" 
	d="
M652.000549,620.973511 
	C675.025391,620.920044 698.050171,620.866577 721.571167,621.242676 
	C728.403076,627.127563 734.603699,632.750366 741.110291,637.993469 
	C748.434631,643.895508 756.113159,649.355957 763.495117,655.188904 
	C772.890625,662.612976 782.173279,670.181091 791.442078,677.763428 
	C795.038696,680.705750 798.464478,683.856873 801.968140,686.912842 
	C795.400818,692.822693 787.652893,695.896912 778.867126,696.018250 
	C767.220642,696.179077 755.570496,696.072205 743.422119,695.658813 
	C741.025208,693.196045 739.348083,690.879211 737.194031,689.159790 
	C725.433411,679.771362 713.552368,670.533813 701.718689,661.236877 
	C693.161865,654.514221 684.639648,647.747437 676.054382,641.061401 
	C669.665588,636.086060 663.140259,631.284424 656.807434,626.240112 
	C654.971558,624.777832 653.590210,622.744934 652.000549,620.973511 
z"/>
<path fill="#FF6170" opacity="1.000000" stroke="none" 
	d="
M746.317810,573.671265 
	C742.387268,569.853333 739.146240,565.559021 735.130432,562.187561 
	C726.795471,555.189880 718.098083,548.618347 709.456970,541.992615 
	C702.392212,536.575623 695.127625,531.418945 688.073059,525.989014 
	C682.053101,521.355408 676.154114,516.559082 670.340088,511.670105 
	C669.494751,510.959290 669.421326,509.330475 669.448853,507.665283 
	C678.733398,507.185150 687.582031,506.757477 696.381226,507.236908 
	C712.098694,508.093231 724.679626,502.716644 734.165405,490.205414 
	C741.759216,496.018005 749.220642,501.475769 756.557922,507.095581 
	C763.881470,512.704895 771.221313,518.308960 778.285889,524.234985 
	C783.150269,528.315369 787.557739,532.940613 792.169373,537.322327 
	C780.145325,553.365784 765.179199,565.719482 746.317810,573.671265 
z"/>
<path fill="#FF7E88" opacity="1.000000" stroke="none" 
	d="
M400.998169,54.090538 
	C422.020935,54.052101 443.043701,54.013668 464.573853,54.373978 
	C468.157806,57.453098 471.154449,60.232265 474.325012,62.796398 
	C486.767914,72.859276 499.148163,83.005241 511.774292,92.834396 
	C525.832947,103.778671 540.158630,114.379494 554.275208,125.250412 
	C555.247009,125.998764 555.444824,127.752174 555.536377,129.094330 
	C534.047607,129.116760 513.025024,129.083023 491.969910,128.700165 
	C486.102661,123.312714 480.429260,118.071259 474.398102,113.280128 
	C463.270264,104.440193 451.908997,95.894684 440.689301,87.169556 
	C430.918945,79.571579 421.121368,72.003708 411.517334,64.199196 
	C407.756348,61.142918 404.489868,57.478161 400.998169,54.090538 
z"/>
<path fill="#FD4454" opacity="1.000000" stroke="none" 
	d="
M565.459534,696.003662 
	C563.551392,693.717896 562.512207,691.038208 560.586121,689.403687 
	C553.800903,683.645996 546.762512,678.180664 539.720276,672.733459 
	C534.486877,668.685425 529.085632,664.854919 523.783569,660.894836 
	C519.164978,657.445190 514.547607,653.992371 509.987823,650.465759 
	C499.696472,642.506165 489.396454,634.556152 479.222321,626.448669 
	C477.797821,625.313538 477.062775,623.313293 476.004761,621.342529 
	C496.026337,620.911377 516.051697,620.851135 536.572144,621.228760 
	C538.085571,622.939758 538.913696,624.449524 540.154236,625.446045 
	C546.659302,630.671875 553.244080,635.799622 559.846924,640.902283 
	C573.847107,651.721497 587.856445,662.529175 601.900940,673.290771 
	C608.317993,678.207886 614.942810,682.860840 621.242676,687.920776 
	C624.115417,690.228271 626.429199,693.231689 628.996521,695.919434 
	C607.971619,695.975952 586.946655,696.032532 565.459534,696.003662 
z"/>
<path fill="#FE4C5D" opacity="1.000000" stroke="none" 
	d="
M651.538330,620.887207 
	C653.590210,622.744934 654.971558,624.777832 656.807434,626.240112 
	C663.140259,631.284424 669.665588,636.086060 676.054382,641.061401 
	C684.639648,647.747437 693.161865,654.514221 701.718689,661.236877 
	C713.552368,670.533813 725.433411,679.771362 737.194031,689.159790 
	C739.348083,690.879211 741.025208,693.196045 742.959473,695.576355 
	C723.305115,695.972107 703.613708,696.028625 683.422119,695.661804 
	C681.592041,693.814026 680.403076,692.216980 678.906982,690.996277 
	C673.391174,686.496094 667.791626,682.097778 662.190674,677.703003 
	C650.866089,668.817200 639.573792,659.888916 628.166504,651.110229 
	C617.983337,643.273499 607.582031,635.718506 597.467468,627.795898 
	C595.233643,626.046143 593.801697,623.272583 592.000549,620.970337 
	C611.692383,620.913879 631.384277,620.857361 651.538330,620.887207 
z"/>
<path fill="#FF7481" opacity="1.000000" stroke="none" 
	d="
M306.998016,54.091240 
	C326.688019,54.050076 346.378052,54.008911 366.572571,54.371227 
	C370.141113,57.440697 373.103241,60.235725 376.287384,62.749535 
	C387.925903,71.937820 399.630768,81.042160 411.325043,90.159584 
	C423.823395,99.903877 436.402740,109.545883 448.805450,119.410179 
	C452.451263,122.309814 455.616638,125.813522 458.536713,129.103348 
	C438.381622,129.127487 418.692017,129.088684 398.968018,128.696335 
	C398.271942,127.419601 397.785889,126.264587 396.921112,125.609520 
	C389.292511,119.830856 381.473907,114.297295 373.950165,108.387398 
	C363.344238,100.056488 353.019043,91.368523 342.429077,83.016792 
	C333.349579,75.856262 323.995453,69.043938 314.915192,61.884380 
	C312.024811,59.605385 309.623260,56.706486 306.998016,54.091240 
z"/>
<path fill="#FF848D" opacity="1.000000" stroke="none" 
	d="
M812.027344,268.009155 
	C808.746948,284.383026 801.689880,298.991913 791.408936,312.089905 
	C790.182129,313.652832 788.897766,315.170502 787.034729,316.717407 
	C779.625916,311.322998 772.865173,305.865387 766.009766,300.529388 
	C753.255554,290.602081 740.446289,280.745575 727.842712,270.565704 
	C736.826904,260.835175 740.480408,249.652679 739.920410,236.806732 
	C739.589722,229.220337 739.954712,221.603592 740.374512,214.005096 
	C741.773376,214.456375 742.943970,214.718994 743.814026,215.378235 
	C752.363281,221.855927 760.884766,228.370789 769.370911,234.930969 
	C783.606262,245.935562 797.810181,256.980927 812.027344,268.009155 
z"/>
<path fill="#FF8B93" opacity="1.000000" stroke="none" 
	d="
M579.528931,54.024590 
	C582.075867,56.571423 583.815247,59.489922 586.296082,61.487568 
	C598.258118,71.119972 610.347046,80.599251 622.530884,89.950500 
	C635.315063,99.762474 648.346191,109.254059 661.072205,119.139496 
	C664.404114,121.727676 667.004089,125.258018 669.505371,128.747742 
	C650.048157,129.107162 631.025879,129.074493 611.998108,128.670181 
	C611.363403,127.220543 610.970398,125.848152 610.061401,125.118645 
	C607.101135,122.742783 603.870117,120.705666 600.892029,118.350166 
	C593.239868,112.297699 585.703369,106.099030 578.053955,100.043030 
	C569.617065,93.363525 561.135559,86.739403 552.618530,80.162354 
	C544.514343,73.904121 536.288818,67.802170 528.222107,61.496635 
	C525.321960,59.229706 522.729065,56.569828 519.995972,54.089268 
	C539.684998,54.050129 559.374023,54.010994 579.528931,54.024590 
z"/>
<path fill="#FF5868" opacity="1.000000" stroke="none" 
	d="
M210.777832,232.009949 
	C208.165894,230.787018 205.226578,229.990341 202.992874,228.274887 
	C181.859207,212.044403 160.855240,195.645111 139.766586,179.355698 
	C138.803650,178.611908 137.389832,178.451859 135.836761,178.026031 
	C134.289001,159.924347 136.481781,142.323318 143.933014,125.318199 
	C147.199875,126.841743 150.071548,128.224670 152.534973,130.134247 
	C166.703217,141.117020 180.702637,152.318405 194.917725,163.239456 
	C199.975754,167.125381 205.477768,170.433395 210.847748,174.468811 
	C210.871521,193.958267 210.824677,212.984116 210.777832,232.009949 
z"/>
<path fill="#FF848D" opacity="1.000000" stroke="none" 
	d="
M519.530518,54.031204 
	C522.729065,56.569828 525.321960,59.229706 528.222107,61.496635 
	C536.288818,67.802170 544.514343,73.904121 552.618530,80.162354 
	C561.135559,86.739403 569.617065,93.363525 578.053955,100.043030 
	C585.703369,106.099030 593.239868,112.297699 600.892029,118.350166 
	C603.870117,120.705666 607.101135,122.742783 610.061401,125.118645 
	C610.970398,125.848152 611.363403,127.220543 611.531311,128.721268 
	C592.714172,129.108719 574.358398,129.073441 556.002625,129.038177 
	C555.444824,127.752174 555.247009,125.998764 554.275208,125.250412 
	C540.158630,114.379494 525.832947,103.778671 511.774292,92.834396 
	C499.148163,83.005241 486.767914,72.859276 474.325012,62.796398 
	C471.154449,60.232265 468.157806,57.453098 465.038940,54.434395 
	C483.019440,54.055084 501.042236,54.014111 519.530518,54.031204 
z"/>
<path fill="#FF6B79" opacity="1.000000" stroke="none" 
	d="
M219.972305,57.938187 
	C227.573349,56.627434 235.131760,54.671680 242.785995,54.165684 
	C252.840454,53.501015 262.970367,53.978146 273.538025,54.392258 
	C275.446991,56.750957 276.557983,59.093208 278.379211,60.543755 
	C288.207855,68.371834 298.255402,75.924194 308.146606,83.674797 
	C323.089417,95.383789 338.009552,107.122734 352.840210,118.972984 
	C356.747803,122.095276 360.291229,125.673340 363.537140,129.111298 
	C344.715698,129.136261 326.358948,129.092026 307.969788,128.699585 
	C305.850525,126.029472 304.041168,123.355583 301.625305,121.450974 
	C294.094757,115.514091 286.234863,109.995659 278.687714,104.078903 
	C268.310577,95.943558 258.163849,87.514717 247.804291,79.356544 
	C238.607864,72.114372 229.255707,65.069923 219.972305,57.938187 
z"/>
<path fill="#FD4959" opacity="1.000000" stroke="none" 
	d="
M591.538574,620.882690 
	C593.801697,623.272583 595.233643,626.046143 597.467468,627.795898 
	C607.582031,635.718506 617.983337,643.273499 628.166504,651.110229 
	C639.573792,659.888916 650.866089,668.817200 662.190674,677.703003 
	C667.791626,682.097778 673.391174,686.496094 678.906982,690.996277 
	C680.403076,692.216980 681.592041,693.814026 682.959473,695.579224 
	C665.305176,695.976074 647.613342,696.032104 629.458984,696.003784 
	C626.429199,693.231689 624.115417,690.228271 621.242676,687.920776 
	C614.942810,682.860840 608.317993,678.207886 601.900940,673.290771 
	C587.856445,662.529175 573.847107,651.721497 559.846924,640.902283 
	C553.244080,635.799622 546.659302,630.671875 540.154236,625.446045 
	C538.913696,624.449524 538.085571,622.939758 537.033936,621.317749 
	C555.026062,620.910767 573.051270,620.852844 591.538574,620.882690 
z"/>
<path fill="#FD4959" opacity="1.000000" stroke="none" 
	d="
M137.866608,265.439850 
	C142.622971,268.230194 147.557648,271.171478 152.067581,274.661621 
	C162.773712,282.946930 173.238052,291.543823 183.876816,299.917328 
	C193.576248,307.551483 203.364197,315.073486 213.136154,322.615082 
	C222.380569,329.749542 231.719742,336.763000 240.888382,343.993073 
	C245.381165,347.535950 249.581589,351.449554 253.505554,355.608704 
	C248.016434,356.588867 242.907318,356.971924 237.861832,357.761536 
	C227.802338,359.335754 222.033737,366.767944 215.896881,373.930450 
	C212.297943,371.282928 208.986313,368.813721 205.749390,366.250183 
	C192.785309,355.983063 179.951263,345.547028 166.819824,335.499298 
	C163.541992,332.991180 159.333328,331.699615 155.552490,329.848938 
	C158.257156,326.094818 160.961838,322.340698 164.023132,318.091583 
	C150.965820,303.089294 141.646423,285.819946 137.866608,265.439850 
z"/>
<path fill="#FF6675" opacity="1.000000" stroke="none" 
	d="
M219.577209,57.936050 
	C229.255707,65.069923 238.607864,72.114372 247.804291,79.356544 
	C258.163849,87.514717 268.310577,95.943558 278.687714,104.078903 
	C286.234863,109.995659 294.094757,115.514091 301.625305,121.450974 
	C304.041168,123.355583 305.850525,126.029472 307.505310,128.770874 
	C286.746643,129.238022 266.420044,129.285690 246.046692,128.965637 
	C244.965668,127.382881 244.092026,125.968102 242.870544,124.985855 
	C235.948181,119.419418 228.987900,113.897766 221.955643,108.470879 
	C208.259811,97.901581 194.507767,87.405128 180.778992,76.878510 
	C192.129654,67.623550 205.037094,61.524357 219.577209,57.936050 
z"/>
<path fill="#FD4454" opacity="1.000000" stroke="none" 
	d="
M155.300156,330.052673 
	C159.333328,331.699615 163.541992,332.991180 166.819824,335.499298 
	C179.951263,345.547028 192.785309,355.983063 205.749390,366.250183 
	C208.986313,368.813721 212.297943,371.282928 215.805389,374.285828 
	C212.484360,381.305695 210.794388,388.228363 210.906937,395.717743 
	C211.063629,406.144012 210.842316,416.575958 210.426453,426.997559 
	C208.992523,426.598602 207.718948,426.454346 206.867905,425.778259 
	C199.019455,419.543396 191.227951,413.236389 183.451309,406.911713 
	C172.438522,397.955048 161.590973,388.786926 150.378647,380.088348 
	C146.524261,377.098114 141.787292,375.245514 137.453537,372.873199 
	C140.222778,357.389618 145.944275,343.124847 155.300156,330.052673 
z"/>
<path fill="#FC404E" opacity="1.000000" stroke="none" 
	d="
M137.300308,373.219421 
	C141.787292,375.245514 146.524261,377.098114 150.378647,380.088348 
	C161.590973,388.786926 172.438522,397.955048 183.451309,406.911713 
	C191.227951,413.236389 199.019455,419.543396 206.867905,425.778259 
	C207.718948,426.454346 208.992523,426.598602 210.498444,427.460968 
	C211.000244,443.952087 211.073685,459.971863 211.147125,475.991608 
	C204.604843,471.334534 198.002441,466.759064 191.537659,461.996704 
	C185.444702,457.508209 179.468979,452.858582 173.492706,448.214172 
	C167.504349,443.560425 161.657318,438.721893 155.604813,434.154541 
	C149.212448,429.330658 142.650574,424.731384 135.828094,420.029175 
	C136.044647,404.538116 136.595856,389.051880 137.300308,373.219421 
z"/>
<path fill="#FF707D" opacity="1.000000" stroke="none" 
	d="
M739.985962,397.999481 
	C741.485046,398.580505 743.216797,398.855835 744.446106,399.791321 
	C753.515930,406.692841 762.480652,413.732330 771.487732,420.716400 
	C784.432922,430.754150 797.374695,440.796326 810.354919,450.788605 
	C811.514465,451.681244 812.944946,452.222168 814.598511,452.963898 
	C815.306824,468.561798 815.963684,484.146820 810.641052,499.598572 
	C808.392944,498.446411 806.679749,496.902069 804.850220,495.510651 
	C786.980774,481.920105 769.134949,468.297516 751.171082,454.832611 
	C747.691650,452.224548 743.729553,450.260406 739.911011,447.535980 
	C739.883301,430.714966 739.934631,414.357239 739.985962,397.999481 
z"/>
<path fill="#FF8B93" opacity="1.000000" stroke="none" 
	d="
M812.278809,267.719238 
	C797.810181,256.980927 783.606262,245.935562 769.370911,234.930969 
	C760.884766,228.370789 752.363281,221.855927 743.814026,215.378235 
	C742.943970,214.718994 741.773376,214.456375 740.312500,213.539642 
	C739.917725,197.379333 739.952820,181.689056 739.987854,165.998779 
	C744.583801,168.763794 749.470032,171.146301 753.718384,174.369415 
	C764.209534,182.328796 774.395325,190.689926 784.728455,198.858383 
	C793.516174,205.805145 802.324402,212.726318 811.167542,219.602219 
	C812.026611,220.270187 813.195923,220.539062 814.582275,220.999252 
	C814.914185,236.520294 816.317139,252.109711 812.278809,267.719238 
z"/>
<path fill="#FF7E88" opacity="1.000000" stroke="none" 
	d="
M727.659912,270.859589 
	C740.446289,280.745575 753.255554,290.602081 766.009766,300.529388 
	C772.865173,305.865387 779.625916,311.322998 786.740723,316.875214 
	C787.759521,318.599548 788.168457,320.416595 789.220032,321.712189 
	C801.300415,336.595734 809.564636,353.251556 813.008606,372.592529 
	C806.337219,368.179138 799.543030,363.547241 793.076416,358.495972 
	C780.706299,348.833191 768.505859,338.952637 756.267090,329.122406 
	C747.781555,322.306824 739.463562,315.277496 730.863647,308.610779 
	C721.367004,301.248901 711.589661,294.250031 702.041443,286.953278 
	C700.134644,285.496063 698.709412,283.408691 697.464111,281.199066 
	C708.951355,280.940796 718.976257,277.913055 727.659912,270.859589 
z"/>
<path fill="#FF5868" opacity="1.000000" stroke="none" 
	d="
M802.284058,686.805664 
	C798.464478,683.856873 795.038696,680.705750 791.442078,677.763428 
	C782.173279,670.181091 772.890625,662.612976 763.495117,655.188904 
	C756.113159,649.355957 748.434631,643.895508 741.110291,637.993469 
	C734.603699,632.750366 728.403076,627.127563 722.034302,621.323853 
	C742.130737,620.984436 762.296570,620.262268 782.377014,621.259949 
	C795.737366,621.923767 805.668518,629.929810 811.421814,642.032410 
	C817.509766,654.838806 816.546082,667.562683 808.750610,679.516357 
	C807.043518,682.134155 804.667786,684.315979 802.284058,686.805664 
z"/>
<path fill="#FF6675" opacity="1.000000" stroke="none" 
	d="
M739.990051,447.999237 
	C743.729553,450.260406 747.691650,452.224548 751.171082,454.832611 
	C769.134949,468.297516 786.980774,481.920105 804.850220,495.510651 
	C806.679749,496.902069 808.392944,498.446411 810.493042,499.964233 
	C807.376465,513.581360 801.409058,525.921387 792.457336,537.131836 
	C787.557739,532.940613 783.150269,528.315369 778.285889,524.234985 
	C771.221313,518.308960 763.881470,512.704895 756.557922,507.095581 
	C749.220642,501.475769 741.759216,496.018005 734.249268,489.863953 
	C735.846558,484.263824 738.461670,479.393250 739.042786,474.290985 
	C740.032104,465.603790 739.742310,456.770905 739.990051,447.999237 
z"/>
<path fill="#FF6170" opacity="1.000000" stroke="none" 
	d="
M180.460190,76.971306 
	C194.507767,87.405128 208.259811,97.901581 221.955643,108.470879 
	C228.987900,113.897766 235.948181,119.419418 242.870544,124.985855 
	C244.092026,125.968102 244.965668,127.382881 245.706360,129.139771 
	C232.787979,130.577530 223.606827,137.194122 216.083878,146.998459 
	C209.825119,141.908539 203.956665,136.890869 197.976578,132.009979 
	C190.446899,125.864326 182.935638,119.686668 175.208771,113.795174 
	C169.335434,109.316948 163.137924,105.263870 157.084656,101.021629 
	C163.372787,91.690887 170.924301,83.576019 180.460190,76.971306 
z"/>
<path fill="#FF707D" opacity="1.000000" stroke="none" 
	d="
M364.001862,129.042114 
	C360.291229,125.673340 356.747803,122.095276 352.840210,118.972984 
	C338.009552,107.122734 323.089417,95.383789 308.146606,83.674797 
	C298.255402,75.924194 288.207855,68.371834 278.379211,60.543755 
	C276.557983,59.093208 275.446991,56.750957 274.002136,54.460426 
	C284.686981,54.053131 295.377808,54.005676 306.533325,54.024734 
	C309.623260,56.706486 312.024811,59.605385 314.915192,61.884380 
	C323.995453,69.043938 333.349579,75.856262 342.429077,83.016792 
	C353.019043,91.368523 363.344238,100.056488 373.950165,108.387398 
	C381.473907,114.297295 389.292511,119.830856 396.921112,125.609520 
	C397.785889,126.264587 398.271942,127.419601 398.502808,128.761932 
	C386.715271,129.134750 375.358582,129.088440 364.001862,129.042114 
z"/>
<path fill="#FF7A85" opacity="1.000000" stroke="none" 
	d="
M459.002197,129.040390 
	C455.616638,125.813522 452.451263,122.309814 448.805450,119.410179 
	C436.402740,109.545883 423.823395,99.903877 411.325043,90.159584 
	C399.630768,81.042160 387.925903,71.937820 376.287384,62.749535 
	C373.103241,60.235725 370.141113,57.440697 367.037231,54.435825 
	C378.020935,54.052532 389.044495,54.008125 400.533081,54.027122 
	C404.489868,57.478161 407.756348,61.142918 411.517334,64.199196 
	C421.121368,72.003708 430.918945,79.571579 440.689301,87.169556 
	C451.908997,95.894684 463.270264,104.440193 474.398102,113.280128 
	C480.429260,118.071259 486.102661,123.312714 491.504028,128.759491 
	C480.381134,129.125427 469.691681,129.082901 459.002197,129.040390 
z"/>
<path fill="#FF5C6C" opacity="1.000000" stroke="none" 
	d="
M156.804596,101.210823 
	C163.137924,105.263870 169.335434,109.316948 175.208771,113.795174 
	C182.935638,119.686668 190.446899,125.864326 197.976578,132.009979 
	C203.956665,136.890869 209.825119,141.908539 215.943695,147.340759 
	C215.080154,150.164291 213.465591,152.421570 213.059418,154.878601 
	C212.013290,161.206955 211.502060,167.623749 210.777100,174.005203 
	C205.477768,170.433395 199.975754,167.125381 194.917725,163.239456 
	C180.702637,152.318405 166.703217,141.117020 152.534973,130.134247 
	C150.071548,128.224670 147.199875,126.841743 144.189545,125.072960 
	C148.083054,117.086906 152.303787,109.243462 156.804596,101.210823 
z"/>
<path fill="#FFFFFF" opacity="1.000000" stroke="none" 
	d="
M739.911011,447.535980 
	C739.742310,456.770905 740.032104,465.603790 739.042786,474.290985 
	C738.461670,479.393250 735.846558,484.263824 734.062439,489.580139 
	C724.679626,502.716644 712.098694,508.093231 696.381226,507.236908 
	C687.582031,506.757477 678.733398,507.185150 669.447632,507.306885 
	C649.241760,507.325531 629.495361,507.215576 609.748901,507.166443 
	C596.802307,507.134216 583.855530,507.189911 570.449280,507.307800 
	C540.629456,507.342224 511.269135,507.275055 481.449402,507.309387 
	C454.297607,507.344971 427.605255,507.279022 400.453369,507.312622 
	C377.966980,507.345703 355.940186,507.279297 333.453735,507.311707 
	C309.966858,507.344757 286.939636,507.278992 263.452881,507.312927 
	C257.674622,507.310272 252.341293,506.905365 247.039902,507.161469 
	C229.996872,507.984863 213.106781,492.021820 211.345978,476.327637 
	C211.073685,459.971863 211.000244,443.952087 210.854797,427.468933 
	C210.842316,416.575958 211.063629,406.144012 210.906937,395.717743 
	C210.794388,388.228363 212.484360,381.305695 216.127075,374.420715 
	C222.033737,366.767944 227.802338,359.335754 237.861832,357.761536 
	C242.907318,356.971924 248.016434,356.588867 253.546875,355.949036 
	C269.021057,355.924957 284.045166,355.973846 299.532898,355.950317 
	C325.019135,355.923309 350.041748,355.968750 375.991638,356.023193 
	C401.277954,355.978607 425.636963,355.925018 450.459778,355.946960 
	C463.280334,355.973969 475.637146,355.925415 488.457825,355.951416 
	C501.612366,355.978943 514.303040,355.931946 527.457764,355.957886 
	C552.279053,355.979431 576.636230,355.928040 601.457764,355.949493 
	C615.945496,355.974884 629.968933,355.927368 644.456787,355.950714 
	C660.611938,355.974304 676.302490,355.927063 691.993103,355.879822 
	C699.717102,356.781189 707.861633,356.425354 715.079712,358.839447 
	C731.283691,364.258881 739.571106,378.052277 739.914734,397.559509 
	C739.934631,414.357239 739.883301,430.714966 739.911011,447.535980 
M432.758301,449.629547 
	C437.494873,440.707458 438.602997,431.267792 435.853912,421.635193 
	C431.888855,407.742065 422.664001,398.611420 408.680969,395.190002 
	C395.017273,391.846710 382.718262,395.030670 372.108887,405.759766 
	C364.015747,414.254730 360.985199,424.424744 361.949646,435.989502 
	C363.239716,451.458557 375.975677,465.530151 391.881592,468.759552 
	C408.458923,472.125336 424.746643,463.168915 432.758301,449.629547 
M263.082367,402.062531 
	C244.886963,417.143127 243.757874,442.710602 260.559784,459.184601 
	C279.464691,477.720551 313.411011,469.828094 321.594086,444.583588 
	C321.907654,443.641327 322.261292,442.710297 322.528778,441.755096 
	C326.794983,426.518616 320.414795,408.700470 307.753021,400.460724 
	C293.667023,391.294189 276.125610,391.862244 263.082367,402.062531 
z"/>
<path fill="#FFFEFE" opacity="1.000000" stroke="none" 
	d="
M210.847733,174.468811 
	C211.502060,167.623749 212.013290,161.206955 213.059418,154.878601 
	C213.465591,152.421570 215.080154,150.164291 216.284424,147.473724 
	C223.606827,137.194122 232.787979,130.577530 245.753113,129.507477 
	C266.420044,129.285690 286.746643,129.238022 307.537720,129.119080 
	C326.358948,129.092026 344.715698,129.136261 363.537140,129.111298 
	C375.358582,129.088440 386.715271,129.134750 398.537201,129.115479 
	C418.692017,129.088684 438.381622,129.127487 458.536713,129.103333 
	C469.691681,129.082901 480.381134,129.125427 491.536499,129.108612 
	C513.025024,129.083023 534.047607,129.116760 555.536377,129.094330 
	C574.358398,129.073441 592.714172,129.108719 611.536743,129.092911 
	C631.025879,129.074493 650.048157,129.107162 669.538025,129.095917 
	C679.496948,129.092697 688.989685,129.047195 698.479431,129.192825 
	C715.842896,129.459274 729.507019,136.030182 736.691895,152.694290 
	C738.373413,156.594330 738.832825,161.021332 739.921143,165.602341 
	C739.952820,181.689056 739.917725,197.379333 739.944763,213.535065 
	C739.954712,221.603592 739.589722,229.220337 739.920410,236.806732 
	C740.480408,249.652679 736.826904,260.835175 727.842712,270.565704 
	C718.976257,277.913055 708.951355,280.940796 697.435425,280.846924 
	C677.981445,280.862244 658.958252,280.816895 639.470398,280.835571 
	C626.314880,280.855255 613.624023,280.810974 600.003418,280.773010 
	C583.716614,280.821564 568.359680,280.863800 552.537720,280.838501 
	C538.382690,280.816559 524.692627,280.862122 510.537994,280.835510 
	C485.050262,280.806427 460.027100,280.849579 434.539490,280.819824 
	C421.718292,280.798553 409.361481,280.850220 396.540771,280.824219 
	C384.051758,280.800476 372.026642,280.854431 359.538452,280.825836 
	C334.718964,280.795654 310.362488,280.848022 286.006042,280.900391 
	C274.392639,280.826630 262.778839,280.792267 251.165970,280.670471 
	C230.276642,280.451416 215.169342,268.685303 211.578140,249.307037 
	C210.593079,243.991608 211.095474,238.400497 210.846558,232.472931 
	C210.824677,212.984116 210.871521,193.958267 210.847733,174.468811 
M431.651184,224.730270 
	C438.283966,213.495270 439.046997,201.823242 434.061646,189.817825 
	C423.770264,165.034592 387.888702,159.332214 371.111267,180.216309 
	C363.582336,188.471680 361.104431,198.298462 361.951599,209.221802 
	C363.112671,224.193344 375.599457,238.490952 390.768158,241.725281 
	C407.379791,245.267288 422.817963,238.500412 431.651184,224.730270 
M259.091858,179.161942 
	C248.327087,191.056870 245.762451,204.704376 251.742279,219.400772 
	C257.775574,234.228546 269.621124,242.078690 285.427246,242.591599 
	C299.723846,243.055511 311.174866,237.033035 318.908447,223.706833 
	C323.583405,215.208481 325.342163,206.187103 322.916260,196.726227 
	C319.253876,182.443176 310.769287,172.207321 296.131226,168.625488 
	C282.325684,165.247360 269.745636,168.027588 259.091858,179.161942 
z"/>
<path fill="#FF5868" opacity="1.000000" stroke="none" 
	d="
M286.033813,281.253540 
	C310.362488,280.848022 334.718964,280.795654 359.570374,281.179810 
	C362.677246,284.061523 365.141846,286.691101 367.928680,288.917358 
	C376.297180,295.602509 384.858246,302.046906 393.217590,308.743225 
	C401.424866,315.317719 409.332947,322.271240 417.634918,328.720459 
	C427.248840,336.188843 437.212982,343.205719 446.858612,350.634796 
	C448.358856,351.790314 448.972412,354.097046 449.996002,355.871460 
	C425.636963,355.925018 401.277954,355.978607 376.455231,355.953857 
	C371.634766,351.765381 367.410919,347.500977 362.879059,343.593903 
	C359.270905,340.483215 355.250946,337.854889 351.475861,334.932281 
	C338.572723,324.943024 325.649384,314.978882 312.828339,304.884949 
	C304.916199,298.655792 297.138947,292.252808 289.393616,285.816589 
	C288.046814,284.697449 287.160583,283.024078 286.033813,281.253540 
z"/>
<path fill="#FF707D" opacity="1.000000" stroke="none" 
	d="
M553.002686,280.906067 
	C568.359680,280.863800 583.716614,280.821564 599.539124,280.843994 
	C603.084595,284.126495 605.865479,287.714294 609.301086,290.492371 
	C619.324341,298.597473 629.593262,306.399658 639.796265,314.281311 
	C648.563904,321.054169 657.432739,327.697235 666.147522,334.536987 
	C674.805603,341.332214 683.327271,348.301208 691.950928,355.536926 
	C676.302490,355.927063 660.611938,355.974304 644.402344,355.622070 
	C632.015503,345.734985 620.206848,336.172180 608.265381,326.778168 
	C592.022827,314.000580 575.619568,301.426361 559.439026,288.571442 
	C556.879272,286.537781 555.127869,283.486755 553.002686,280.906067 
z"/>
<path fill="#FF6675" opacity="1.000000" stroke="none" 
	d="
M435.003906,280.892731 
	C460.027100,280.849579 485.050262,280.806427 510.570251,281.190674 
	C520.050049,289.248322 528.942139,296.989502 538.053101,304.463745 
	C542.884338,308.427063 548.189697,311.807068 553.112061,315.665955 
	C559.475037,320.654144 565.613647,325.927673 571.949585,330.951263 
	C580.224365,337.512024 588.660339,343.871033 596.877808,350.501587 
	C598.584290,351.878510 599.638550,354.063843 600.993347,355.876617 
	C576.636230,355.928040 552.279053,355.979431 527.419067,355.619507 
	C526.597046,354.637695 526.412476,353.898163 525.939148,353.521149 
	C509.538605,340.457336 493.201416,327.311462 476.658203,314.430267 
	C463.519501,304.199982 450.104828,294.324493 436.883545,284.198944 
	C435.956635,283.489075 435.616760,282.012665 435.003906,280.892731 
z"/>
<path fill="#FF6B79" opacity="1.000000" stroke="none" 
	d="
M601.457764,355.949493 
	C599.638550,354.063843 598.584290,351.878510 596.877808,350.501587 
	C588.660339,343.871033 580.224365,337.512024 571.949585,330.951263 
	C565.613647,325.927673 559.475037,320.654144 553.112061,315.665955 
	C548.189697,311.807068 542.884338,308.427063 538.053101,304.463745 
	C528.942139,296.989502 520.050049,289.248322 511.034790,281.262909 
	C524.692627,280.862122 538.382690,280.816559 552.537720,280.838501 
	C555.127869,283.486755 556.879272,286.537781 559.439026,288.571442 
	C575.619568,301.426361 592.022827,314.000580 608.265381,326.778168 
	C620.206848,336.172180 632.015503,345.734985 643.937866,355.551239 
	C629.968933,355.927368 615.945496,355.974884 601.457764,355.949493 
z"/>
<path fill="#FD4454" opacity="1.000000" stroke="none" 
	d="
M321.065399,445.117126 
	C313.411011,469.828094 279.464691,477.720551 260.559784,459.184601 
	C243.757874,442.710602 244.886963,417.143127 263.778625,402.033081 
	C268.336792,404.483276 272.419006,406.680542 276.022247,409.491730 
	C291.114838,421.266632 306.063812,433.225586 321.065399,445.117126 
z"/>
<path fill="#FF6170" opacity="1.000000" stroke="none" 
	d="
M434.539490,280.819824 
	C435.616760,282.012665 435.956635,283.489075 436.883545,284.198944 
	C450.104828,294.324493 463.519501,304.199982 476.658203,314.430267 
	C493.201416,327.311462 509.538605,340.457336 525.939148,353.521149 
	C526.412476,353.898163 526.597046,354.637695 526.954956,355.546570 
	C514.303040,355.931946 501.612366,355.978943 488.416809,355.613831 
	C482.331390,350.641052 476.840881,345.964417 471.150391,341.545258 
	C461.240204,333.849121 451.146027,326.389862 441.239746,318.688812 
	C427.685333,308.151764 414.180695,297.548279 400.805237,286.786255 
	C399.078217,285.396698 398.249512,282.890717 397.004700,280.901855 
	C409.361481,280.850220 421.718292,280.798553 434.539490,280.819824 
z"/>
<path fill="#FF5C6C" opacity="1.000000" stroke="none" 
	d="
M396.540771,280.824219 
	C398.249512,282.890717 399.078217,285.396698 400.805237,286.786255 
	C414.180695,297.548279 427.685333,308.151764 441.239746,318.688812 
	C451.146027,326.389862 461.240204,333.849121 471.150391,341.545258 
	C476.840881,345.964417 482.331390,350.641052 487.952942,355.539307 
	C475.637146,355.925415 463.280334,355.973969 450.459778,355.946991 
	C448.972412,354.097046 448.358856,351.790314 446.858612,350.634796 
	C437.212982,343.205719 427.248840,336.188843 417.634918,328.720459 
	C409.332947,322.271240 401.424866,315.317719 393.217590,308.743225 
	C384.858246,302.046906 376.297180,295.602509 367.928680,288.917358 
	C365.141846,286.691101 362.677246,284.061523 360.033447,281.262329 
	C372.026642,280.854431 384.051758,280.800476 396.540771,280.824219 
z"/>
<path fill="#FE4C5D" opacity="1.000000" stroke="none" 
	d="
M432.215210,450.059021 
	C424.746643,463.168915 408.458923,472.125336 391.881592,468.759552 
	C375.975677,465.530151 363.239716,451.458557 361.949646,435.989502 
	C360.985199,424.424744 364.015747,414.254730 372.568787,405.908081 
	C377.338226,409.363953 381.693329,412.614105 385.947937,415.990875 
	C395.204681,423.337799 404.247284,430.966461 413.696411,438.054688 
	C419.567322,442.458771 426.022369,446.084137 432.215210,450.059021 
z"/>
<path fill="#FE5061" opacity="1.000000" stroke="none" 
	d="
M432.486755,449.844299 
	C426.022369,446.084137 419.567322,442.458771 413.696411,438.054688 
	C404.247284,430.966461 395.204681,423.337799 385.947937,415.990875 
	C381.693329,412.614105 377.338226,409.363953 372.855042,405.711182 
	C382.718262,395.030670 395.017273,391.846710 408.680969,395.190002 
	C422.664001,398.611420 431.888855,407.742065 435.853912,421.635193 
	C438.602997,431.267792 437.494873,440.707458 432.486755,449.844299 
z"/>
<path fill="#FD4959" opacity="1.000000" stroke="none" 
	d="
M321.329742,444.850342 
	C306.063812,433.225586 291.114838,421.266632 276.022247,409.491730 
	C272.419006,406.680542 268.336792,404.483276 264.096222,401.945190 
	C276.125610,391.862244 293.667023,391.294189 307.753021,400.460724 
	C320.414795,408.700470 326.794983,426.518616 322.528778,441.755096 
	C322.261292,442.710297 321.907654,443.641327 321.329742,444.850342 
z"/>
<path fill="#FF5C6C" opacity="1.000000" stroke="none" 
	d="
M318.406860,224.159729 
	C311.174866,237.033035 299.723846,243.055511 285.427246,242.591599 
	C269.621124,242.078690 257.775574,234.228546 251.742279,219.400772 
	C245.762451,204.704376 248.327087,191.056870 259.722839,179.143402 
	C269.885864,185.902618 279.661682,192.367004 288.884277,199.542465 
	C298.991364,207.406052 308.587860,215.925873 318.406860,224.159729 
z"/>
<path fill="#FF6675" opacity="1.000000" stroke="none" 
	d="
M431.085175,225.156204 
	C422.817963,238.500412 407.379791,245.267288 390.768158,241.725281 
	C375.599457,238.490952 363.112671,224.193344 361.951599,209.221802 
	C361.104431,198.298462 363.582336,188.471680 371.770020,180.102478 
	C373.888580,180.741898 375.503601,181.293549 376.784393,182.279419 
	C390.117920,192.542831 403.432098,202.832169 416.674530,213.212738 
	C421.582825,217.060272 426.287598,221.167450 431.085175,225.156204 
z"/>
<path fill="#FF6B79" opacity="1.000000" stroke="none" 
	d="
M431.368164,224.943237 
	C426.287598,221.167450 421.582825,217.060272 416.674530,213.212738 
	C403.432098,202.832169 390.117920,192.542831 376.784393,182.279419 
	C375.503601,181.293549 373.888580,180.741898 372.047607,179.926758 
	C387.888702,159.332214 423.770264,165.034592 434.061646,189.817825 
	C439.046997,201.823242 438.283966,213.495270 431.368164,224.943237 
z"/>
<path fill="#FF6170" opacity="1.000000" stroke="none" 
	d="
M318.657654,223.933273 
	C308.587860,215.925873 298.991364,207.406052 288.884277,199.542465 
	C279.661682,192.367004 269.885864,185.902618 260.003448,178.970917 
	C269.745636,168.027588 282.325684,165.247360 296.131226,168.625488 
	C310.769287,172.207321 319.253876,182.443176 322.916260,196.726227 
	C325.342163,206.187103 323.583405,215.208481 318.657654,223.933273 
z"/>
</svg>