<svg version="1.1" id="Layer_1" xmlns="http://www.w3.org/2000/svg" xmlns:xlink="http://www.w3.org/1999/xlink" x="0px" y="0px"
	 width="100%" viewBox="0 0 944 840" enable-background="new 0 0 944 840" xml:space="preserve">
<path fill="#FFFFFF" opacity="1.000000" stroke="none" 
	d="
M945.000000,314.000000 
	C945.000000,490.000000 945.000000,665.500000 945.000000,841.000000 
	C630.333313,841.000000 315.666656,841.000000 1.000000,841.000000 
	C1.000000,561.000000 1.000000,281.000000 1.000000,1.000000 
	C315.666656,1.000000 630.333313,1.000000 945.000000,1.000000 
	C945.000000,105.166664 945.000000,209.333328 945.000000,314.000000 
M370.674561,435.762299 
	C378.351074,418.598572 373.973022,399.468475 360.001801,389.127167 
	C345.340759,378.275269 325.925842,378.700043 312.012451,390.502502 
	C301.954163,400.204010 297.760742,411.931366 300.029968,425.785156 
	C302.825714,442.853546 315.195496,454.051788 333.877655,456.593628 
	C347.028168,458.382812 364.484497,448.580536 370.674561,435.762299 
M311.306580,542.230042 
	C300.681549,553.330200 296.801788,566.287720 301.087128,581.206909 
	C305.662048,597.134460 318.983795,607.222534 335.793060,607.916565 
	C351.010223,608.544922 366.156128,598.770447 371.734375,584.563293 
	C372.293457,582.829956 372.936676,581.118652 373.398499,579.359741 
	C377.549652,563.549316 370.590363,546.455139 356.619537,538.066711 
	C342.038666,529.312012 323.804382,530.904846 311.306580,542.230042 
M790.147217,488.070740 
	C790.101135,475.047058 790.055054,462.023376 790.142700,448.070007 
	C790.098083,431.713135 790.053406,415.356262 790.135742,398.068939 
	C790.093323,381.045776 790.050903,364.022583 790.126343,346.068054 
	C790.086792,329.378571 790.047241,312.689117 790.117432,295.067383 
	C790.083191,277.710968 790.048950,260.354584 790.114624,242.065216 
	C790.087524,222.955322 790.083984,203.845306 789.997559,184.735687 
	C789.988770,182.796265 789.480835,180.859116 789.176086,178.054184 
	C784.724365,142.122742 766.182983,115.122955 736.218567,95.734253 
	C713.626587,81.115990 688.257996,77.871590 661.059631,79.088257 
	C638.367004,79.131172 615.674438,79.174088 592.054260,79.091957 
	C575.701477,79.136589 559.348694,79.181221 542.067383,79.089340 
	C527.709534,79.133850 513.351685,79.178352 498.065521,79.087891 
	C486.705017,79.137184 475.344482,79.186470 463.057800,79.103355 
	C441.033142,79.148201 419.008453,79.193047 396.057861,79.104149 
	C368.035736,79.145332 340.013641,79.186516 311.063843,79.090675 
	C297.038635,79.139954 283.013458,79.189232 268.068634,79.100327 
	C261.290802,79.397072 254.466797,79.295998 247.745132,80.076515 
	C235.218094,81.531151 222.989365,84.292000 211.212952,90.928726 
	C195.319046,98.762894 181.835388,109.481384 171.019226,124.503525 
	C154.465149,146.238968 147.221863,170.844086 148.194168,198.950485 
	C148.249298,226.971863 148.304428,254.993240 148.193085,283.936554 
	C148.248474,310.960602 148.303864,337.984619 148.189392,365.930817 
	C148.246613,392.295197 148.303818,418.659546 148.193161,445.943359 
	C148.176651,454.072815 148.128922,462.202362 148.149658,470.331696 
	C148.205505,492.225159 148.290527,514.118530 148.194794,536.933655 
	C148.194794,573.160583 148.194794,609.387573 148.194794,645.397888 
	C173.896027,645.397888 198.785431,645.397888 223.686615,645.397888 
	C223.686615,627.311401 223.686615,609.661743 223.867661,591.089661 
	C223.809113,560.733093 223.750549,530.376526 223.871231,499.095184 
	C223.810745,472.733215 223.750259,446.371277 223.866455,419.086639 
	C223.808334,392.062561 223.750214,365.038513 223.870453,337.091461 
	C223.811844,309.068359 223.753235,281.045227 223.874725,252.097107 
	C223.885239,233.160873 224.090088,214.221878 223.822235,195.289581 
	C223.693176,186.168823 225.723221,177.885330 231.154526,169.916672 
	C239.257294,159.478073 249.889221,154.491898 263.126007,154.646240 
	C271.749268,154.746780 280.377991,154.378036 289.878632,154.551102 
	C309.275635,154.599609 328.672668,154.673492 348.069672,154.673981 
	C351.696259,154.674072 355.322845,154.380157 359.840485,154.571991 
	C373.561279,154.463623 387.282043,154.355270 401.879181,154.574356 
	C429.590118,154.611725 457.301086,154.652069 485.012024,154.668091 
	C485.655334,154.668457 486.298737,154.395004 487.835114,154.602814 
	C504.417969,154.649719 521.000854,154.738159 537.583679,154.719925 
	C543.037292,154.713913 548.490662,154.431732 554.841614,154.628128 
	C566.228333,154.521866 577.615051,154.415619 589.885864,154.616348 
	C604.259033,154.516830 618.632263,154.417297 633.890625,154.619797 
	C650.254883,154.686554 666.619202,154.753311 683.726501,155.024536 
	C685.769470,155.645248 687.851746,156.160202 689.848999,156.903671 
	C703.954956,162.154694 711.427063,172.907715 714.803223,187.999039 
	C714.885559,205.667358 714.967896,223.335693 714.945374,241.935944 
	C714.980530,258.291870 715.015686,274.647797 714.941284,291.935272 
	C714.978271,309.291473 715.015259,326.647705 714.935120,344.934692 
	C714.974670,361.290863 715.014282,377.647003 714.928955,394.933197 
	C714.971069,407.956360 715.013123,420.979553 714.925537,434.932251 
	C714.968994,448.289459 715.012390,461.646667 714.922485,475.932800 
	C714.968506,493.290070 715.014526,510.647369 714.923401,528.933105 
	C714.968628,543.622314 715.013855,558.311523 714.911438,573.928223 
	C714.911438,597.712952 714.911438,621.497681 714.911438,645.575745 
	C740.114502,645.575745 764.846375,645.575745 790.006042,645.575745 
	C790.006042,639.546326 790.006042,633.773193 790.161804,627.073120 
	C790.108948,612.382080 790.056152,597.691040 790.162170,582.073486 
	C790.110962,565.382324 790.059753,548.691101 790.154480,531.071716 
	C790.105469,517.047729 790.056396,503.023712 790.147217,488.070740 
M840.744446,741.777283 
	C855.808716,720.155823 842.432983,687.620911 816.150818,684.436768 
	C800.630676,682.556519 784.713196,683.955383 768.050781,683.720215 
	C749.368103,683.772644 730.685364,683.825073 711.077148,683.706665 
	C693.054077,683.763245 675.030945,683.819824 656.081970,683.703491 
	C649.778259,683.686951 643.474548,683.642395 637.170898,683.658875 
	C614.782776,683.717468 592.394592,683.796814 569.081726,683.690674 
	C551.055359,683.751587 533.028931,683.812500 514.080444,683.681396 
	C492.722076,683.744690 471.363739,683.808044 449.083069,683.678589 
	C425.723145,683.742432 402.363251,683.806213 378.082825,683.668579 
	C369.623535,683.650635 361.164093,683.595825 352.704956,683.622314 
	C333.804108,683.681458 314.903381,683.781189 295.082886,683.661072 
	C286.956787,683.643188 278.830536,683.587036 270.704590,683.615173 
	C252.471069,683.678345 234.237717,683.783264 215.085144,683.662048 
	C185.442459,683.722595 155.786835,683.267334 126.161278,684.010742 
	C103.441208,684.580811 87.023537,707.809509 92.553352,729.964111 
	C97.011375,747.824707 111.516052,759.005615 130.629639,759.031738 
	C175.098160,759.092468 219.566833,759.061096 264.035431,759.036316 
	C278.354645,759.028320 292.673828,758.924194 307.919342,759.025391 
	C334.277924,758.972839 360.636536,758.920288 387.921326,759.025696 
	C414.612701,758.972351 441.304047,758.919006 468.922058,759.022095 
	C492.612579,758.969971 516.303101,758.917786 540.920410,759.023010 
	C562.945251,758.969971 584.970093,758.916931 607.922119,759.017090 
	C625.945618,758.966919 643.969055,758.916748 662.919434,759.022278 
	C691.277161,758.969727 719.634827,758.917114 748.920166,759.017944 
	C766.612244,758.966675 784.304260,758.915405 802.914429,759.012634 
	C818.184448,759.651611 831.629944,756.292908 840.744446,741.777283 
M636.587158,281.507477 
	C645.795166,257.679901 629.109497,232.567184 606.337097,230.758499 
	C594.945496,229.853745 583.442505,230.352173 571.062195,230.087875 
	C548.372070,230.129623 525.681885,230.171371 502.063660,230.080490 
	C491.038666,230.130554 480.013672,230.180618 468.074432,230.094452 
	C461.462677,230.397491 454.849030,230.987671 448.239563,230.943924 
	C434.411591,230.852448 424.590332,237.235947 417.270233,249.354660 
	C404.208923,272.583984 418.338898,301.255341 443.229584,304.664215 
	C457.586853,306.630524 472.392181,305.325562 487.903656,305.726776 
	C496.024017,305.756653 504.144653,305.841034 512.264709,305.804840 
	C528.166199,305.733948 544.067444,305.595856 560.884583,305.731964 
	C571.587646,305.657166 582.290649,305.582367 593.884094,305.737366 
	C613.184937,307.154327 627.398682,299.525696 636.587158,281.507477 
M588.042786,532.349426 
	C566.152283,532.313721 544.261780,532.249695 522.371277,532.259705 
	C515.916870,532.262695 509.462555,532.474792 502.099945,532.335999 
	C488.721069,532.426880 475.342224,532.517700 461.073853,532.354797 
	C456.094849,532.512024 451.091675,532.409973 446.141144,532.872253 
	C426.767242,534.681274 411.827667,551.465149 412.262054,570.717590 
	C412.709900,590.568604 428.442902,607.594604 448.159546,607.861267 
	C482.429932,608.324829 516.712769,607.867371 551.918457,607.946289 
	C565.575317,607.874512 579.232178,607.802795 593.689697,607.907410 
	C596.343384,607.923889 599.001282,608.045471 601.650146,607.940186 
	C622.000671,607.131348 638.042847,592.050171 639.038147,572.110474 
	C639.771240,559.376587 634.929565,548.974487 625.318726,540.907104 
	C614.702087,531.995361 601.978271,531.390381 588.042786,532.349426 
M528.909729,456.852936 
	C552.526917,456.863770 576.145020,456.981110 599.760559,456.790283 
	C604.173096,456.754608 608.575684,455.483826 613.687561,454.722961 
	C620.610657,452.298676 626.474426,448.312805 630.927551,442.480988 
	C639.705200,430.985687 641.754822,418.249481 636.280396,404.900452 
	C630.914185,391.815369 621.078003,382.695618 606.723267,382.140991 
	C579.839050,381.102264 552.897888,381.538849 525.060913,381.193787 
	C500.778442,381.167633 476.495239,381.040009 452.214111,381.208191 
	C447.802826,381.238739 443.399902,382.479340 438.277191,383.167664 
	C434.747009,384.991364 430.984161,386.474548 427.728027,388.699371 
	C415.500580,397.053894 409.712860,413.688690 413.614136,428.438629 
	C417.669250,443.770142 430.184326,455.590912 445.244293,456.018188 
	C472.809448,456.800232 500.404938,456.513000 528.909729,456.852936 
M373.081329,257.590332 
	C368.093719,241.342606 355.468201,231.372986 338.324677,230.145035 
	C323.692963,229.097000 309.102386,238.100540 302.880890,252.016663 
	C296.287018,266.765656 299.452850,284.170807 310.754364,295.303223 
	C322.067535,306.447113 340.854553,308.805939 355.108337,300.872253 
	C370.305328,292.413544 377.394562,275.840240 373.081329,257.590332 
z"/>
<path fill="#F8363A" opacity="1.000000" stroke="none" 
	d="
M306.993011,758.864014 
	C292.673828,758.924194 278.354645,759.028320 264.035431,759.036316 
	C219.566833,759.061096 175.098160,759.092468 130.629639,759.031738 
	C111.516052,759.005615 97.011375,747.824707 92.553352,729.964111 
	C87.023537,707.809509 103.441208,684.580811 126.161278,684.010742 
	C155.786835,683.267334 185.442459,683.722595 215.574127,684.122803 
	C216.365356,685.158142 216.525436,685.911499 216.990540,686.281128 
	C231.436005,697.761414 245.882248,709.241028 260.395172,720.635742 
	C266.885040,725.731079 273.558624,730.591980 280.073242,735.656433 
	C285.597382,739.950867 291.117950,744.261963 296.440338,748.799927 
	C300.133392,751.948792 303.487457,755.495239 306.993011,758.864014 
z"/>
<path fill="#FF9DA2" opacity="1.000000" stroke="none" 
	d="
M592.981812,79.216995 
	C615.674438,79.174088 638.367004,79.131172 661.533630,79.497963 
	C663.047546,81.292511 663.847229,82.987106 665.167297,84.010681 
	C672.366150,89.592751 679.783752,94.893845 686.955872,100.509010 
	C699.468689,110.305344 711.835876,120.287216 724.303406,130.141647 
	C740.544617,142.978760 756.737610,155.879700 773.138794,168.509735 
	C778.178101,172.390381 783.832031,175.472931 789.204590,178.920929 
	C789.480835,180.859116 789.988770,182.796265 789.997559,184.735687 
	C790.083984,203.845306 790.087524,222.955322 789.696289,242.528046 
	C785.486572,240.459747 781.541077,238.129669 777.931946,235.361084 
	C765.429993,225.770981 753.024048,216.055191 740.628174,206.327774 
	C736.777771,203.306229 733.203003,199.923416 729.272644,197.016205 
	C724.558350,193.529205 719.598694,190.374039 714.745239,187.075180 
	C711.427063,172.907715 703.954956,162.154694 689.848999,156.903671 
	C687.851746,156.160202 685.769470,155.645248 683.359009,154.553925 
	C682.445740,152.789001 682.264771,151.036789 681.300110,150.267944 
	C662.327881,135.147186 643.309937,120.082817 624.199951,105.136505 
	C615.356262,98.219673 606.235046,91.657829 597.386841,84.746552 
	C595.580688,83.335808 594.433044,81.082108 592.981812,79.216995 
z"/>
<path fill="#FC404F" opacity="1.000000" stroke="none" 
	d="
M223.691986,500.019989 
	C223.750549,530.376526 223.809113,560.733093 223.431290,591.544800 
	C221.990555,591.492554 220.865814,591.137451 220.000641,590.453796 
	C212.147537,584.248596 204.376678,577.939026 196.510666,571.750366 
	C182.278015,560.552734 168.023987,549.381653 153.694031,538.309326 
	C152.210999,537.163452 150.154419,536.759888 148.363983,536.011902 
	C148.290527,514.118530 148.205505,492.225159 148.149658,470.331696 
	C148.128922,462.202362 148.176651,454.072815 148.637390,445.481262 
	C150.404007,445.549316 151.965652,445.790924 153.009796,446.656677 
	C159.558395,452.086273 165.814789,457.881165 172.510696,463.116699 
	C179.838791,468.846558 187.661682,473.940765 195.040451,479.609375 
	C202.495468,485.336670 209.585159,491.539032 217.029083,497.281555 
	C218.862869,498.696259 221.450760,499.133453 223.691986,500.019989 
z"/>
<path fill="#FF6775" opacity="1.000000" stroke="none" 
	d="
M438.993134,383.161316 
	C443.399902,382.479340 447.802826,381.238739 452.214111,381.208191 
	C476.495239,381.040009 500.778442,381.167633 525.576904,381.593811 
	C534.025269,388.644501 541.909424,395.353760 549.902222,401.930908 
	C559.715820,410.006409 569.609009,417.985504 579.491211,425.977295 
	C583.208435,428.983368 586.927063,431.994415 590.758362,434.851105 
	C597.373535,439.783386 604.178162,444.468658 610.660522,449.566315 
	C611.983826,450.606903 612.236572,453.008728 612.982849,454.783081 
	C608.575684,455.483826 604.173096,456.754608 599.760559,456.790283 
	C576.145020,456.981110 552.526917,456.863770 528.442505,456.419617 
	C526.278748,453.830170 524.926941,451.232941 522.827515,449.592346 
	C512.314697,441.377014 501.579193,433.447388 490.973724,425.349548 
	C480.613403,417.438965 470.305725,409.459290 459.994293,401.484894 
	C454.650818,397.352509 449.263916,393.268555 444.072693,388.951080 
	C442.123047,387.329529 440.671692,385.108826 438.993134,383.161316 
z"/>
<path fill="#FE4F60" opacity="1.000000" stroke="none" 
	d="
M550.990356,607.796021 
	C516.712769,607.867371 482.429932,608.324829 448.159546,607.861267 
	C428.442902,607.594604 412.709900,590.568604 412.262054,570.717590 
	C411.827667,551.465149 426.767242,534.681274 446.141144,532.872253 
	C451.091675,532.409973 456.094849,532.512024 461.541077,532.807373 
	C463.003510,534.703125 463.721985,536.499023 465.038910,537.532043 
	C473.498749,544.167908 482.137787,550.574768 490.625549,557.175720 
	C501.601624,565.711853 512.485779,574.366150 523.420105,582.956055 
	C530.838440,588.783813 538.402649,594.436096 545.627808,600.493408 
	C547.875916,602.378174 549.228027,605.331726 550.990356,607.796021 
z"/>
<path fill="#FF5969" opacity="1.000000" stroke="none" 
	d="
M223.694626,253.022110 
	C223.753235,281.045227 223.811844,309.068359 223.435684,337.545410 
	C221.878479,337.376923 220.652313,336.888367 219.649658,336.111359 
	C209.753372,328.442352 199.914688,320.699005 190.018570,313.029785 
	C180.666718,305.782318 171.360809,298.469391 161.842789,291.445282 
	C157.590408,288.307129 152.868423,285.805267 148.359558,283.014618 
	C148.304428,254.993240 148.249298,226.971863 148.636383,198.485901 
	C151.264191,199.066574 153.690033,199.789825 155.595078,201.211151 
	C165.411407,208.534836 175.171371,215.939346 184.799133,223.508820 
	C192.560242,229.610672 199.976364,236.154480 207.792358,242.182175 
	C212.863602,246.093094 218.378510,249.428711 223.694626,253.022110 
z"/>
<path fill="#FF808A" opacity="1.000000" stroke="none" 
	d="
M486.942108,154.249298 
	C486.298737,154.395004 485.655334,154.668457 485.012024,154.668091 
	C457.301086,154.652069 429.590118,154.611725 401.435303,154.090622 
	C400.249268,152.220139 399.839752,150.420822 398.712372,149.511749 
	C389.472839,142.061371 380.149017,134.712845 370.756500,127.455399 
	C352.353668,113.235817 333.852448,99.143112 315.515747,84.839211 
	C313.878296,83.561874 313.144836,81.125679 311.991516,79.227699 
	C340.013641,79.186516 368.035736,79.145332 396.531128,79.520737 
	C398.410980,81.662209 399.571716,83.692741 401.268188,85.057213 
	C407.451660,90.030525 413.879730,94.698669 420.095276,99.633369 
	C432.794250,109.715408 445.344910,119.985123 458.092804,130.004333 
	C466.675659,136.750000 475.540405,143.136490 484.151031,149.847961 
	C485.441132,150.853516 486.029266,152.759720 486.942108,154.249298 
z"/>
<path fill="#FE4F60" opacity="1.000000" stroke="none" 
	d="
M747.992554,758.864502 
	C719.634827,758.917114 691.277161,758.969727 662.416504,758.606934 
	C660.934387,757.123352 660.083069,755.890686 658.955505,755.013123 
	C651.146362,748.935303 643.245728,742.974915 635.438538,736.894592 
	C617.342346,722.801086 599.226868,708.731262 581.250610,694.485962 
	C577.225586,691.296265 573.740234,687.425476 570.006470,683.868286 
	C592.394592,683.796814 614.782776,683.717468 637.170898,683.658875 
	C643.474548,683.642395 649.778259,683.686951 656.545532,684.166382 
	C658.752686,686.940002 660.092163,689.775879 662.304016,691.478027 
	C679.327148,704.577881 696.580933,717.377625 713.637268,730.434875 
	C724.736389,738.931763 735.637085,747.688538 746.577271,756.390991 
	C747.267883,756.940308 747.530701,758.027527 747.992554,758.864502 
z"/>
<path fill="#FE4F60" opacity="1.000000" stroke="none" 
	d="
M148.276321,283.475586 
	C152.868423,285.805267 157.590408,288.307129 161.842789,291.445282 
	C171.360809,298.469391 180.666718,305.782318 190.018570,313.029785 
	C199.914688,320.699005 209.753372,328.442352 219.649658,336.111359 
	C220.652313,336.888367 221.878479,337.376923 223.346497,338.006897 
	C223.750214,365.038513 223.808334,392.062561 223.423645,419.539734 
	C220.641083,418.816284 218.037842,417.978180 216.010605,416.400116 
	C209.751862,411.528198 203.790207,406.276367 197.572174,401.350037 
	C185.010162,391.397675 172.429977,381.464661 159.689590,371.743439 
	C156.219925,369.096008 152.152390,367.232147 148.359253,365.008667 
	C148.303864,337.984619 148.248474,310.960602 148.276321,283.475586 
z"/>
<path fill="#FA3944" opacity="1.000000" stroke="none" 
	d="
M148.279388,536.472778 
	C150.154419,536.759888 152.210999,537.163452 153.694031,538.309326 
	C168.023987,549.381653 182.278015,560.552734 196.510666,571.750366 
	C204.376678,577.939026 212.147537,584.248596 220.000641,590.453796 
	C220.865814,591.137451 221.990555,591.492554 223.340759,592.006042 
	C223.686615,609.661743 223.686615,627.311401 223.686615,645.397888 
	C198.785431,645.397888 173.896027,645.397888 148.194794,645.397888 
	C148.194794,609.387573 148.194794,573.160583 148.279388,536.472778 
z"/>
<path fill="#FB3D4A" opacity="1.000000" stroke="none" 
	d="
M467.995422,758.865723 
	C441.304047,758.919006 414.612701,758.972351 387.419342,758.610474 
	C377.095245,749.721680 367.527008,740.928284 357.376556,732.868103 
	C348.021973,725.439880 337.933746,718.943359 328.373505,711.763733 
	C321.401306,706.527710 314.652039,700.977356 308.014221,695.319763 
	C303.810059,691.736267 299.993195,687.698425 296.002625,683.864380 
	C314.903381,683.781189 333.804108,683.681458 352.704956,683.622314 
	C361.164093,683.595825 369.623535,683.650635 378.570618,684.124878 
	C380.996307,686.815125 382.640564,689.421448 384.921692,691.219971 
	C396.228455,700.134399 407.753571,708.771240 419.103516,717.631653 
	C428.981873,725.343201 438.753479,733.192383 448.525208,741.039307 
	C454.172363,745.573975 459.779419,750.162659 465.280334,754.872131 
	C466.460205,755.882263 467.104431,757.518127 467.995422,758.865723 
z"/>
<path fill="#FF6573" opacity="1.000000" stroke="none" 
	d="
M223.784668,252.559601 
	C218.378510,249.428711 212.863602,246.093094 207.792358,242.182175 
	C199.976364,236.154480 192.560242,229.610672 184.799133,223.508820 
	C175.171371,215.939346 165.411407,208.534836 155.595078,201.211151 
	C153.690033,199.789825 151.264191,199.066574 148.717865,198.026443 
	C147.221863,170.844086 154.465149,146.238968 171.461716,124.668854 
	C177.033554,128.937759 182.120163,133.096222 187.302292,137.132019 
	C195.048630,143.164764 202.849350,149.127991 210.651031,155.089249 
	C217.306152,160.174438 223.995239,165.215118 230.669312,170.275497 
	C225.723221,177.885330 223.693176,186.168823 223.822235,195.289581 
	C224.090088,214.221878 223.885239,233.160873 223.784668,252.559601 
z"/>
<path fill="#FD4959" opacity="1.000000" stroke="none" 
	d="
M148.274323,365.469727 
	C152.152390,367.232147 156.219925,369.096008 159.689590,371.743439 
	C172.429977,381.464661 185.010162,391.397675 197.572174,401.350037 
	C203.790207,406.276367 209.751862,411.528198 216.010605,416.400116 
	C218.037842,417.978180 220.641083,418.816284 223.335312,420.001099 
	C223.750259,446.371277 223.810745,472.733215 223.781616,499.557587 
	C221.450760,499.133453 218.862869,498.696259 217.029083,497.281555 
	C209.585159,491.539032 202.495468,485.336670 195.040451,479.609375 
	C187.661682,473.940765 179.838791,468.846558 172.510696,463.116699 
	C165.814789,457.881165 159.558395,452.086273 153.009796,446.656677 
	C151.965652,445.790924 150.404007,445.549316 148.721313,445.021545 
	C148.303818,418.659546 148.246613,392.295197 148.274323,365.469727 
z"/>
<path fill="#FA3944" opacity="1.000000" stroke="none" 
	d="
M295.542755,683.762695 
	C299.993195,687.698425 303.810059,691.736267 308.014221,695.319763 
	C314.652039,700.977356 321.401306,706.527710 328.373505,711.763733 
	C337.933746,718.943359 348.021973,725.439880 357.376556,732.868103 
	C367.527008,740.928284 377.095245,749.721680 386.956238,758.531494 
	C360.636536,758.920288 334.277924,758.972839 307.456177,758.944702 
	C303.487457,755.495239 300.133392,751.948792 296.440338,748.799927 
	C291.117950,744.261963 285.597382,739.950867 280.073242,735.656433 
	C273.558624,730.591980 266.885040,725.731079 260.395172,720.635742 
	C245.882248,709.241028 231.436005,697.761414 216.990540,686.281128 
	C216.525436,685.911499 216.365356,685.158142 216.033691,684.227417 
	C234.237717,683.783264 252.471069,683.678345 270.704590,683.615173 
	C278.830536,683.587036 286.956787,683.643188 295.542755,683.762695 
z"/>
<path fill="#FF5969" opacity="1.000000" stroke="none" 
	d="
M503.008179,532.591064 
	C509.462555,532.474792 515.916870,532.262695 522.371277,532.259705 
	C544.261780,532.249695 566.152283,532.313721 588.517212,532.787964 
	C590.544006,535.090820 591.838562,537.276428 593.693054,538.764099 
	C602.140991,545.540894 610.687988,552.198364 619.314453,558.747131 
	C625.737000,563.622803 632.335815,568.266296 638.856201,573.013184 
	C638.042847,592.050171 622.000671,607.131348 601.650146,607.940186 
	C599.001282,608.045471 596.343384,607.923889 593.328491,607.387207 
	C590.936035,604.228516 589.328796,601.053772 586.795044,599.051147 
	C578.910583,592.819580 570.504822,587.247498 562.620789,581.015503 
	C553.806641,574.048279 545.537354,566.388245 536.674622,559.487305 
	C526.241150,551.363281 515.401794,543.761597 504.816742,535.828979 
	C503.912750,535.151550 503.597137,533.688904 503.008179,532.591064 
z"/>
<path fill="#FC404F" opacity="1.000000" stroke="none" 
	d="
M468.458740,758.943909 
	C467.104431,757.518127 466.460205,755.882263 465.280334,754.872131 
	C459.779419,750.162659 454.172363,745.573975 448.525208,741.039307 
	C438.753479,733.192383 428.981873,725.343201 419.103516,717.631653 
	C407.753571,708.771240 396.228455,700.134399 384.921692,691.219971 
	C382.640564,689.421448 380.996307,686.815125 379.030884,684.225586 
	C402.363251,683.806213 425.723145,683.742432 449.572296,684.138550 
	C450.996552,685.898987 451.695892,687.498962 452.905365,688.450500 
	C460.037964,694.061584 467.385254,699.401489 474.477173,705.062073 
	C484.168823,712.797852 493.583344,720.883057 503.328400,728.549255 
	C512.033569,735.397339 521.313599,741.540405 529.756714,748.683960 
	C533.361023,751.733643 539.125793,752.976990 539.993591,758.865662 
	C516.303101,758.917786 492.612579,758.969971 468.458740,758.943909 
z"/>
<path fill="#FF8790" opacity="1.000000" stroke="none" 
	d="
M487.388611,154.426056 
	C486.029266,152.759720 485.441132,150.853516 484.151031,149.847961 
	C475.540405,143.136490 466.675659,136.750000 458.092804,130.004333 
	C445.344910,119.985123 432.794250,109.715408 420.095276,99.633369 
	C413.879730,94.698669 407.451660,90.030525 401.268188,85.057213 
	C399.571716,83.692741 398.410980,81.662209 396.994080,79.587616 
	C419.008453,79.193047 441.033142,79.148201 463.531433,79.519440 
	C467.095154,83.002998 469.944061,86.371155 473.321686,89.080132 
	C482.491272,96.434418 491.889740,103.503082 501.188599,110.696457 
	C515.052002,121.420845 529.009949,132.027206 542.704956,142.962692 
	C546.831421,146.257751 550.218384,150.478928 553.944153,154.275848 
	C548.490662,154.431732 543.037292,154.713913 537.583679,154.719925 
	C521.000854,154.738159 504.417969,154.649719 487.388611,154.426056 
z"/>
<path fill="#FF7581" opacity="1.000000" stroke="none" 
	d="
M559.968750,305.485565 
	C544.067444,305.595856 528.166199,305.733948 512.264709,305.804840 
	C504.144653,305.841034 496.024017,305.756653 487.447327,305.263855 
	C486.014130,303.215057 485.366699,301.217682 483.997620,300.121704 
	C480.145630,297.038055 475.877563,294.478027 471.985291,291.440308 
	C453.883331,277.312683 435.852966,263.093353 417.796997,248.906845 
	C424.590332,237.235947 434.411591,230.852448 448.239563,230.943924 
	C454.849030,230.987671 461.462677,230.397491 468.541077,230.514252 
	C469.842529,232.049988 470.483612,233.413086 471.542603,234.243057 
	C480.637604,241.371689 489.825317,248.381882 498.952454,255.469772 
	C516.360962,268.988831 533.812683,282.453857 551.087097,296.142456 
	C554.421692,298.784790 557.027039,302.347443 559.968750,305.485565 
z"/>
<path fill="#FF7581" opacity="1.000000" stroke="none" 
	d="
M211.918686,90.769684 
	C222.989365,84.292000 235.218094,81.531151 247.745132,80.076515 
	C254.466797,79.295998 261.290802,79.397072 268.537292,79.516991 
	C271.408020,82.803680 273.416565,86.165909 276.281799,88.456642 
	C287.366180,97.318558 298.720215,105.843323 309.980164,114.485451 
	C324.958344,125.981377 339.976013,137.426407 354.877380,149.021011 
	C356.563080,150.332626 357.607574,152.468353 358.949432,154.221939 
	C355.322845,154.380157 351.696259,154.674072 348.069672,154.673981 
	C328.672668,154.673492 309.275635,154.599609 289.421692,154.080414 
	C287.948456,152.391556 287.104675,150.955475 285.887054,149.991653 
	C279.416229,144.869507 272.833710,139.888748 266.323181,134.816345 
	C251.873947,123.558891 237.390396,112.344208 223.042389,100.958931 
	C219.113342,97.841202 215.614792,94.180962 211.918686,90.769684 
z"/>
<path fill="#FD4555" opacity="1.000000" stroke="none" 
	d="
M540.457031,758.944336 
	C539.125793,752.976990 533.361023,751.733643 529.756714,748.683960 
	C521.313599,741.540405 512.033569,735.397339 503.328400,728.549255 
	C493.583344,720.883057 484.168823,712.797852 474.477173,705.062073 
	C467.385254,699.401489 460.037964,694.061584 452.905365,688.450500 
	C451.695892,687.498962 450.996552,685.898987 450.033447,684.234985 
	C471.363739,683.808044 492.722076,683.744690 514.569275,684.132629 
	C517.476868,687.259033 519.562378,690.365784 522.371460,692.535645 
	C535.401794,702.600830 548.686096,712.336365 561.776184,722.325378 
	C573.699646,731.424255 585.543823,740.629517 597.306458,749.935181 
	C600.740906,752.652344 603.776489,755.873657 606.994934,758.863892 
	C584.970093,758.916931 562.945251,758.969971 540.457031,758.944336 
z"/>
<path fill="#FF5E6E" opacity="1.000000" stroke="none" 
	d="
M438.635162,383.164490 
	C440.671692,385.108826 442.123047,387.329529 444.072693,388.951080 
	C449.263916,393.268555 454.650818,397.352509 459.994293,401.484894 
	C470.305725,409.459290 480.613403,417.438965 490.973724,425.349548 
	C501.579193,433.447388 512.314697,441.377014 522.827515,449.592346 
	C524.926941,451.232941 526.278748,453.830170 527.981506,456.328979 
	C500.404938,456.513000 472.809448,456.800232 445.244293,456.018188 
	C430.184326,455.590912 417.669250,443.770142 413.614136,428.438629 
	C409.712860,413.688690 415.500580,397.053894 427.728027,388.699371 
	C430.984161,386.474548 434.747009,384.991364 438.635162,383.164490 
z"/>
<path fill="#FF808A" opacity="1.000000" stroke="none" 
	d="
M502.991760,230.213104 
	C525.681885,230.171371 548.372070,230.129623 571.575134,230.492767 
	C573.221558,232.483368 574.049866,234.484085 575.542236,235.581833 
	C581.499512,239.963745 587.879639,243.787094 593.708008,248.324707 
	C607.941589,259.405975 621.955261,270.769684 636.057495,282.019653 
	C627.398682,299.525696 613.184937,307.154327 593.437256,305.276794 
	C592.020874,303.228699 591.392578,301.206421 590.021606,300.130127 
	C584.578796,295.857117 578.791931,292.023193 573.337036,287.764648 
	C559.292175,276.799988 545.374268,265.672943 531.370422,254.655579 
	C522.431030,247.622559 513.397400,240.708771 504.504669,233.617798 
	C503.643158,232.930862 503.479401,231.368881 502.991760,230.213104 
z"/>
<path fill="#FF6F7C" opacity="1.000000" stroke="none" 
	d="
M613.335205,454.753021 
	C612.236572,453.008728 611.983826,450.606903 610.660522,449.566315 
	C604.178162,444.468658 597.373535,439.783386 590.758362,434.851105 
	C586.927063,431.994415 583.208435,428.983368 579.491211,425.977295 
	C569.609009,417.985504 559.715820,410.006409 549.902222,401.930908 
	C541.909424,395.353760 534.025269,388.644501 526.036682,381.677765 
	C552.897888,381.538849 579.839050,381.102264 606.723267,382.140991 
	C621.078003,382.695618 630.914185,391.815369 636.280396,404.900452 
	C641.754822,418.249481 639.705200,430.985687 630.927551,442.480988 
	C626.474426,448.312805 620.610657,452.298676 613.335205,454.753021 
z"/>
<path fill="#FF6775" opacity="1.000000" stroke="none" 
	d="
M373.181885,257.987488 
	C377.394562,275.840240 370.305328,292.413544 355.108337,300.872253 
	C340.854553,308.805939 322.067535,306.447113 310.754364,295.303223 
	C299.452850,284.170807 296.287018,266.765656 302.880890,252.016663 
	C309.102386,238.100540 323.692963,229.097000 338.324677,230.145035 
	C355.468201,231.372986 368.093719,241.342606 373.181885,257.987488 
z"/>
<path fill="#FF6F7C" opacity="1.000000" stroke="none" 
	d="
M211.565826,90.849205 
	C215.614792,94.180962 219.113342,97.841202 223.042389,100.958931 
	C237.390396,112.344208 251.873947,123.558891 266.323181,134.816345 
	C272.833710,139.888748 279.416229,144.869507 285.887054,149.991653 
	C287.104675,150.955475 287.948456,152.391556 288.984497,153.914612 
	C280.377991,154.378036 271.749268,154.746780 263.126007,154.646240 
	C249.889221,154.491898 239.257294,159.478073 230.911926,170.096085 
	C223.995239,165.215118 217.306152,160.174438 210.651031,155.089249 
	C202.849350,149.127991 195.048630,143.164764 187.302292,137.132019 
	C182.120163,133.096222 177.033554,128.937759 171.738281,124.444077 
	C181.835388,109.481384 195.319046,98.762894 211.565826,90.849205 
z"/>
<path fill="#FF5566" opacity="1.000000" stroke="none" 
	d="
M748.456360,758.941223 
	C747.530701,758.027527 747.267883,756.940308 746.577271,756.390991 
	C735.637085,747.688538 724.736389,738.931763 713.637268,730.434875 
	C696.580933,717.377625 679.327148,704.577881 662.304016,691.478027 
	C660.092163,689.775879 658.752686,686.940002 657.008484,684.252808 
	C675.030945,683.819824 693.054077,683.763245 711.568604,684.149170 
	C715.241272,687.656677 718.190369,691.017456 721.647156,693.731567 
	C732.292053,702.089355 743.179932,710.136841 753.882202,718.422729 
	C766.961304,728.548584 780.043579,738.675354 792.910828,749.066223 
	C796.340271,751.835754 798.989075,755.571838 801.996338,758.864136 
	C784.304260,758.915405 766.612244,758.966675 748.456360,758.941223 
z"/>
<path fill="#FD4959" opacity="1.000000" stroke="none" 
	d="
M607.458496,758.940491 
	C603.776489,755.873657 600.740906,752.652344 597.306458,749.935181 
	C585.543823,740.629517 573.699646,731.424255 561.776184,722.325378 
	C548.686096,712.336365 535.401794,702.600830 522.371460,692.535645 
	C519.562378,690.365784 517.476868,687.259033 515.030334,684.228638 
	C533.028931,683.812500 551.055359,683.751587 569.544067,683.779480 
	C573.740234,687.425476 577.225586,691.296265 581.250610,694.485962 
	C599.226868,708.731262 617.342346,722.801086 635.438538,736.894592 
	C643.245728,742.974915 651.146362,748.935303 658.955505,755.013123 
	C660.083069,755.890686 660.934387,757.123352 661.953003,758.529114 
	C643.969055,758.916748 625.945618,758.966919 607.458496,758.940491 
z"/>
<path fill="#FFA2A6" opacity="1.000000" stroke="none" 
	d="
M789.190308,178.487549 
	C783.832031,175.472931 778.178101,172.390381 773.138794,168.509735 
	C756.737610,155.879700 740.544617,142.978760 724.303406,130.141647 
	C711.835876,120.287216 699.468689,110.305344 686.955872,100.509010 
	C679.783752,94.893845 672.366150,89.592751 665.167297,84.010681 
	C663.847229,82.987106 663.047546,81.292511 661.997986,79.556671 
	C688.257996,77.871590 713.626587,81.115990 736.218567,95.734253 
	C766.182983,115.122955 784.724365,142.122742 789.190308,178.487549 
z"/>
<path fill="#FF949B" opacity="1.000000" stroke="none" 
	d="
M714.774231,187.537109 
	C719.598694,190.374039 724.558350,193.529205 729.272644,197.016205 
	C733.203003,199.923416 736.777771,203.306229 740.628174,206.327774 
	C753.024048,216.055191 765.429993,225.770981 777.931946,235.361084 
	C781.541077,238.129669 785.486572,240.459747 789.646240,242.994507 
	C790.048950,260.354584 790.083191,277.710968 789.708008,295.499207 
	C787.988403,295.236267 786.545532,294.713593 785.388428,293.820587 
	C771.891357,283.403839 758.425720,272.946228 744.978638,262.465027 
	C740.560303,259.021210 736.362122,255.277878 731.806641,252.031647 
	C726.364990,248.153915 720.647949,244.662659 715.050171,241.004013 
	C714.967896,223.335693 714.885559,205.667358 714.774231,187.537109 
z"/>
<path fill="#FF8790" opacity="1.000000" stroke="none" 
	d="
M790.008423,346.999420 
	C790.050903,364.022583 790.093323,381.045776 789.700684,398.529724 
	C787.039673,397.689575 784.633057,396.619873 782.619995,395.046539 
	C775.089294,389.160675 767.736633,383.047424 760.223938,377.138000 
	C752.074524,370.727753 743.827271,364.441650 735.610840,358.116821 
	C729.990845,353.790649 724.386475,349.442078 718.684570,345.226013 
	C717.707031,344.503204 716.274536,344.395660 715.052246,344.003906 
	C715.015259,326.647705 714.978271,309.291473 715.358093,291.472778 
	C716.551636,291.245331 717.487976,291.277863 718.081238,291.745636 
	C728.053589,299.608978 737.955872,307.561188 747.929321,315.423187 
	C759.716187,324.714630 771.525635,333.978210 783.403320,343.152771 
	C785.402649,344.697083 787.796753,345.730164 790.008423,346.999420 
z"/>
<path fill="#FF5969" opacity="1.000000" stroke="none" 
	d="
M802.455383,758.938354 
	C798.989075,755.571838 796.340271,751.835754 792.910828,749.066223 
	C780.043579,738.675354 766.961304,728.548584 753.882202,718.422729 
	C743.179932,710.136841 732.292053,702.089355 721.647156,693.731567 
	C718.190369,691.017456 715.241272,687.656677 712.031372,684.234619 
	C730.685364,683.825073 749.368103,683.772644 768.548950,684.155151 
	C771.712708,687.241638 774.186462,690.127014 777.079834,692.501099 
	C785.900940,699.739563 794.833801,706.844727 803.815796,713.883484 
	C815.866455,723.326965 828.003723,732.659912 840.103760,742.040283 
	C831.629944,756.292908 818.184448,759.651611 802.455383,758.938354 
z"/>
<path fill="#FF6F7C" opacity="1.000000" stroke="none" 
	d="
M790.008545,531.999939 
	C790.059753,548.691101 790.110962,565.382324 789.711914,582.532410 
	C788.084106,582.467712 786.756165,582.143616 785.753479,581.387939 
	C779.458740,576.643860 773.207275,571.840820 766.995972,566.987610 
	C753.748352,556.636536 740.594788,546.163757 727.267517,535.916565 
	C723.435852,532.970581 719.142273,530.625305 715.060547,528.004639 
	C715.014526,510.647369 714.968506,493.290070 715.332703,475.504517 
	C725.392822,482.454620 735.068420,489.799713 744.686096,497.219818 
	C756.542786,506.367310 768.338257,515.594177 780.189331,524.748962 
	C783.408508,527.235779 786.732605,529.586670 790.008545,531.999939 
z"/>
<path fill="#FF949B" opacity="1.000000" stroke="none" 
	d="
M592.518066,79.154480 
	C594.433044,81.082108 595.580688,83.335808 597.386841,84.746552 
	C606.235046,91.657829 615.356262,98.219673 624.199951,105.136505 
	C643.309937,120.082817 662.327881,135.147186 681.300110,150.267944 
	C682.264771,151.036789 682.445740,152.789001 682.987549,154.451706 
	C666.619202,154.753311 650.254883,154.686554 633.430664,154.163925 
	C632.517456,152.854889 632.273193,151.737411 631.579285,151.188644 
	C622.773926,144.225754 613.889709,137.362762 605.054199,130.437759 
	C595.454895,122.914070 585.924194,115.302315 576.291016,107.822449 
	C568.476624,101.754868 560.384277,96.032631 552.754761,89.745117 
	C549.096619,86.730408 546.224182,82.762222 542.995911,79.225845 
	C559.348694,79.181221 575.701477,79.136589 592.518066,79.154480 
z"/>
<path fill="#FF8E95" opacity="1.000000" stroke="none" 
	d="
M790.067383,346.533752 
	C787.796753,345.730164 785.402649,344.697083 783.403320,343.152771 
	C771.525635,333.978210 759.716187,324.714630 747.929321,315.423187 
	C737.955872,307.561188 728.053589,299.608978 718.081238,291.745636 
	C717.487976,291.277863 716.551636,291.245331 715.412842,291.007019 
	C715.015686,274.647797 714.980530,258.291870 714.997803,241.469971 
	C720.647949,244.662659 726.364990,248.153915 731.806641,252.031647 
	C736.362122,255.277878 740.560303,259.021210 744.978638,262.465027 
	C758.425720,272.946228 771.891357,283.403839 785.388428,293.820587 
	C786.545532,294.713593 787.988403,295.236267 789.653076,295.965332 
	C790.047241,312.689117 790.086792,329.378571 790.067383,346.533752 
z"/>
<path fill="#FF808A" opacity="1.000000" stroke="none" 
	d="
M714.993652,344.469299 
	C716.274536,344.395660 717.707031,344.503204 718.684570,345.226013 
	C724.386475,349.442078 729.990845,353.790649 735.610840,358.116821 
	C743.827271,364.441650 752.074524,370.727753 760.223938,377.138000 
	C767.736633,383.047424 775.089294,389.160675 782.619995,395.046539 
	C784.633057,396.619873 787.039673,397.689575 789.637207,398.994934 
	C790.053406,415.356262 790.098083,431.713135 789.720642,448.500305 
	C787.854004,448.143768 786.278015,447.528870 784.986511,446.541748 
	C777.637207,440.924500 770.331177,435.249695 763.056824,429.535461 
	C750.903809,419.988892 738.866882,410.291901 726.601990,400.892029 
	C723.068298,398.183807 718.920288,396.277252 715.053894,394.003174 
	C715.014282,377.647003 714.974670,361.290863 714.993652,344.469299 
z"/>
<path fill="#FF6573" opacity="1.000000" stroke="none" 
	d="
M790.006042,628.000000 
	C790.006042,633.773193 790.006042,639.546326 790.006042,645.575745 
	C764.846375,645.575745 740.114502,645.575745 714.911438,645.575745 
	C714.911438,621.497681 714.911438,597.712952 715.348389,573.468994 
	C716.814453,573.467346 717.998840,573.731445 718.848633,574.412903 
	C726.214111,580.319031 733.392090,586.465576 740.870300,592.223083 
	C754.648987,602.831421 768.563416,613.264709 782.498962,623.666809 
	C784.798340,625.383118 787.493713,626.568970 790.006042,628.000000 
z"/>
<path fill="#FF6775" opacity="1.000000" stroke="none" 
	d="
M790.083923,627.536560 
	C787.493713,626.568970 784.798340,625.383118 782.498962,623.666809 
	C768.563416,613.264709 754.648987,602.831421 740.870300,592.223083 
	C733.392090,586.465576 726.214111,580.319031 718.848633,574.412903 
	C717.998840,573.731445 716.814453,573.467346 715.422180,573.005249 
	C715.013855,558.311523 714.968628,543.622314 714.991943,528.468872 
	C719.142273,530.625305 723.435852,532.970581 727.267517,535.916565 
	C740.594788,546.163757 753.748352,556.636536 766.995972,566.987610 
	C773.207275,571.840820 779.458740,576.643860 785.753479,581.387939 
	C786.756165,582.143616 788.084106,582.467712 789.632507,582.995667 
	C790.056152,597.691040 790.108948,612.382080 790.083923,627.536560 
z"/>
<path fill="#FF9299" opacity="1.000000" stroke="none" 
	d="
M542.531616,79.157593 
	C546.224182,82.762222 549.096619,86.730408 552.754761,89.745117 
	C560.384277,96.032631 568.476624,101.754868 576.291016,107.822449 
	C585.924194,115.302315 595.454895,122.914070 605.054199,130.437759 
	C613.889709,137.362762 622.773926,144.225754 631.579285,151.188644 
	C632.273193,151.737411 632.517456,152.854889 632.988037,154.012909 
	C618.632263,154.417297 604.259033,154.516830 589.427612,154.158737 
	C588.164734,152.495499 587.589661,151.009430 586.516907,150.131378 
	C581.034729,145.644302 575.468201,141.256775 569.849304,136.940933 
	C558.074341,127.896591 546.153137,119.040054 534.470398,109.878914 
	C523.307556,101.125412 512.341980,92.118668 501.379333,83.114113 
	C500.268341,82.201546 499.774231,80.537941 498.993866,79.222855 
	C513.351685,79.178352 527.709534,79.133850 542.531616,79.157593 
z"/>
<path fill="#FF7A85" opacity="1.000000" stroke="none" 
	d="
M359.394958,154.396973 
	C357.607574,152.468353 356.563080,150.332626 354.877380,149.021011 
	C339.976013,137.426407 324.958344,125.981377 309.980164,114.485451 
	C298.720215,105.843323 287.366180,97.318558 276.281799,88.456642 
	C273.416565,86.165909 271.408020,82.803680 268.997101,79.586082 
	C283.013458,79.189232 297.038635,79.139954 311.527679,79.159187 
	C313.144836,81.125679 313.878296,83.561874 315.515747,84.839211 
	C333.852448,99.143112 352.353668,113.235817 370.756500,127.455399 
	C380.149017,134.712845 389.472839,142.061371 398.712372,149.511749 
	C399.839752,150.420822 400.249268,152.220139 400.997131,153.926910 
	C387.282043,154.355270 373.561279,154.463623 359.394958,154.396973 
z"/>
<path fill="#FF5566" opacity="1.000000" stroke="none" 
	d="
M502.554077,532.463501 
	C503.597137,533.688904 503.912750,535.151550 504.816742,535.828979 
	C515.401794,543.761597 526.241150,551.363281 536.674622,559.487305 
	C545.537354,566.388245 553.806641,574.048279 562.620789,581.015503 
	C570.504822,587.247498 578.910583,592.819580 586.795044,599.051147 
	C589.328796,601.053772 590.936035,604.228516 592.928101,607.299072 
	C579.232178,607.802795 565.575317,607.874512 551.454407,607.871094 
	C549.228027,605.331726 547.875916,602.378174 545.627808,600.493408 
	C538.402649,594.436096 530.838440,588.783813 523.420105,582.956055 
	C512.485779,574.366150 501.601624,565.711853 490.625549,557.175720 
	C482.137787,550.574768 473.498749,544.167908 465.038910,537.532043 
	C463.721985,536.499023 463.003510,534.703125 461.985840,532.934265 
	C475.342224,532.517700 488.721069,532.426880 502.554077,532.463501 
z"/>
<path fill="#FF7581" opacity="1.000000" stroke="none" 
	d="
M790.081543,531.535828 
	C786.732605,529.586670 783.408508,527.235779 780.189331,524.748962 
	C768.338257,515.594177 756.542786,506.367310 744.686096,497.219818 
	C735.068420,489.799713 725.392822,482.454620 715.399353,475.040039 
	C715.012390,461.646667 714.968994,448.289459 715.368835,434.467072 
	C717.291321,434.586639 719.005920,434.868439 720.211548,435.805267 
	C728.007080,441.862823 735.688293,448.067596 743.413635,454.215729 
	C752.070984,461.105560 760.705078,468.025177 769.407654,474.857513 
	C774.998291,479.246613 780.658569,483.549866 786.377136,487.770264 
	C787.356384,488.492950 788.785889,488.605408 790.007324,488.999725 
	C790.056396,503.023712 790.105469,517.047729 790.081543,531.535828 
z"/>
<path fill="#FF7A85" opacity="1.000000" stroke="none" 
	d="
M790.077271,488.535217 
	C788.785889,488.605408 787.356384,488.492950 786.377136,487.770264 
	C780.658569,483.549866 774.998291,479.246613 769.407654,474.857513 
	C760.705078,468.025177 752.070984,461.105560 743.413635,454.215729 
	C735.688293,448.067596 728.007080,441.862823 720.211548,435.805267 
	C719.005920,434.868439 717.291321,434.586639 715.433716,434.002319 
	C715.013123,420.979553 714.971069,407.956360 714.991455,394.468201 
	C718.920288,396.277252 723.068298,398.183807 726.601990,400.892029 
	C738.866882,410.291901 750.903809,419.988892 763.056824,429.535461 
	C770.331177,435.249695 777.637207,440.924500 784.986511,446.541748 
	C786.278015,447.528870 787.854004,448.143768 789.653809,448.965149 
	C790.055054,462.023376 790.101135,475.047058 790.077271,488.535217 
z"/>
<path fill="#FD4555" opacity="1.000000" stroke="none" 
	d="
M371.212891,585.058350 
	C366.156128,598.770447 351.010223,608.544922 335.793060,607.916565 
	C318.983795,607.222534 305.662048,597.134460 301.087128,581.206909 
	C296.801788,566.287720 300.681549,553.330200 311.973602,542.141418 
	C316.720032,544.832092 320.976746,547.386108 324.845886,550.432434 
	C336.939026,559.953735 348.806305,569.763000 360.944641,579.225220 
	C364.016479,581.619812 367.771698,583.137634 371.212891,585.058350 
z"/>
<path fill="#FF5566" opacity="1.000000" stroke="none" 
	d="
M370.123047,436.240692 
	C364.484497,448.580536 347.028168,458.382812 333.877655,456.593628 
	C315.195496,454.051788 302.825714,442.853546 300.029968,425.785156 
	C297.760742,411.931366 301.954163,400.204010 312.471039,390.717865 
	C314.770966,392.285309 316.632263,393.611145 318.450439,394.993652 
	C332.253876,405.489197 346.113861,415.912231 359.803436,426.554382 
	C363.512054,429.437408 366.697479,432.993530 370.123047,436.240692 
z"/>
<path fill="#FF8E95" opacity="1.000000" stroke="none" 
	d="
M498.529694,79.155380 
	C499.774231,80.537941 500.268341,82.201546 501.379333,83.114113 
	C512.341980,92.118668 523.307556,101.125412 534.470398,109.878914 
	C546.153137,119.040054 558.074341,127.896591 569.849304,136.940933 
	C575.468201,141.256775 581.034729,145.644302 586.516907,150.131378 
	C587.589661,151.009430 588.164734,152.495499 588.985596,154.005249 
	C577.615051,154.415619 566.228333,154.521866 554.392883,154.451996 
	C550.218384,150.478928 546.831421,146.257751 542.704956,142.962692 
	C529.009949,132.027206 515.052002,121.420845 501.188599,110.696457 
	C491.889740,103.503082 482.491272,96.434418 473.321686,89.080132 
	C469.944061,86.371155 467.095154,83.002998 463.994537,79.585640 
	C475.344482,79.186470 486.705017,79.137184 498.529694,79.155380 
z"/>
<path fill="#FF7A85" opacity="1.000000" stroke="none" 
	d="
M502.527710,230.146790 
	C503.479401,231.368881 503.643158,232.930862 504.504669,233.617798 
	C513.397400,240.708771 522.431030,247.622559 531.370422,254.655579 
	C545.374268,265.672943 559.292175,276.799988 573.337036,287.764648 
	C578.791931,292.023193 584.578796,295.857117 590.021606,300.130127 
	C591.392578,301.206421 592.020874,303.228699 592.992065,305.161896 
	C582.290649,305.582367 571.587646,305.657166 560.426636,305.608765 
	C557.027039,302.347443 554.421692,298.784790 551.087097,296.142456 
	C533.812683,282.453857 516.360962,268.988831 498.952454,255.469772 
	C489.825317,248.381882 480.637604,241.371689 471.542603,234.243057 
	C470.483612,233.413086 469.842529,232.049988 468.998199,230.582367 
	C480.013672,230.180618 491.038666,230.130554 502.527710,230.146790 
z"/>
<path fill="#FF5E6E" opacity="1.000000" stroke="none" 
	d="
M840.424072,741.908813 
	C828.003723,732.659912 815.866455,723.326965 803.815796,713.883484 
	C794.833801,706.844727 785.900940,699.739563 777.079834,692.501099 
	C774.186462,690.127014 771.712708,687.241638 769.010742,684.234802 
	C784.713196,683.955383 800.630676,682.556519 816.150818,684.436768 
	C842.432983,687.620911 855.808716,720.155823 840.424072,741.908813 
z"/>
<path fill="#FF6F7C" opacity="1.000000" stroke="none" 
	d="
M417.533630,249.130753 
	C435.852966,263.093353 453.883331,277.312683 471.985291,291.440308 
	C475.877563,294.478027 480.145630,297.038055 483.997620,300.121704 
	C485.366699,301.217682 486.014130,303.215057 486.993408,305.146973 
	C472.392181,305.325562 457.586853,306.630524 443.229584,304.664215 
	C418.338898,301.255341 404.208923,272.583984 417.533630,249.130753 
z"/>
<path fill="#FF5969" opacity="1.000000" stroke="none" 
	d="
M370.398804,436.001495 
	C366.697479,432.993530 363.512054,429.437408 359.803436,426.554382 
	C346.113861,415.912231 332.253876,405.489197 318.450439,394.993652 
	C316.632263,393.611145 314.770966,392.285309 312.781616,390.548401 
	C325.925842,378.700043 345.340759,378.275269 360.001801,389.127167 
	C373.973022,399.468475 378.351074,418.598572 370.398804,436.001495 
z"/>
<path fill="#FD4959" opacity="1.000000" stroke="none" 
	d="
M371.473633,584.810791 
	C367.771698,583.137634 364.016479,581.619812 360.944641,579.225220 
	C348.806305,569.763000 336.939026,559.953735 324.845886,550.432434 
	C320.976746,547.386108 316.720032,544.832092 312.282593,542.011963 
	C323.804382,530.904846 342.038666,529.312012 356.619537,538.066711 
	C370.590363,546.455139 377.549652,563.549316 373.398499,579.359741 
	C372.936676,581.118652 372.293457,582.829956 371.473633,584.810791 
z"/>
<path fill="#FF8790" opacity="1.000000" stroke="none" 
	d="
M636.322327,281.763550 
	C621.955261,270.769684 607.941589,259.405975 593.708008,248.324707 
	C587.879639,243.787094 581.499512,239.963745 575.542236,235.581833 
	C574.049866,234.484085 573.221558,232.483368 572.038940,230.556824 
	C583.442505,230.352173 594.945496,229.853745 606.337097,230.758499 
	C629.109497,232.567184 645.795166,257.679901 636.322327,281.763550 
z"/>
<path fill="#FF6775" opacity="1.000000" stroke="none" 
	d="
M638.947144,572.561829 
	C632.335815,568.266296 625.737000,563.622803 619.314453,558.747131 
	C610.687988,552.198364 602.140991,545.540894 593.693054,538.764099 
	C591.838562,537.276428 590.544006,535.090820 588.966431,532.904785 
	C601.978271,531.390381 614.702087,531.995361 625.318726,540.907104 
	C634.929565,548.974487 639.771240,559.376587 638.947144,572.561829 
z"/>
</svg>