<svg version="1.1" id="Layer_1" xmlns="http://www.w3.org/2000/svg" xmlns:xlink="http://www.w3.org/1999/xlink" x="0px" y="0px"
	 width="100%" viewBox="0 0 1054 820" enable-background="new 0 0 1054 820" xml:space="preserve">
<path fill="#FFFFFF" opacity="1.000000" stroke="none" 
	d="
M1.000000,301.000000 
	C1.000000,200.679977 1.000000,100.859955 1.000000,1.019967 
	C352.273193,1.019967 703.546387,1.019967 1054.909790,1.019967 
	C1054.909790,274.236694 1054.909790,547.473450 1054.909790,820.855103 
	C703.666687,820.855103 352.333374,820.855103 1.000000,820.855103 
	C1.000000,647.786926 1.000000,474.643463 1.000000,301.000000 
M292.334320,59.227722 
	C291.576843,60.704311 290.750275,62.149918 290.072266,63.662136 
	C280.091705,85.923119 294.422333,113.755928 317.717865,115.803650 
	C332.713654,117.121803 347.889709,116.388893 363.900330,116.786423 
	C378.930298,116.723259 393.960266,116.660095 409.907013,116.798615 
	C426.270172,116.731758 442.633301,116.664909 459.912994,116.796341 
	C478.271240,116.730759 496.629486,116.665169 515.904785,116.801102 
	C541.262512,116.736740 566.620239,116.672379 592.896362,116.809868 
	C599.695557,116.839165 606.494812,116.912537 613.293884,116.889565 
	C634.185547,116.818977 655.077026,116.711487 676.892822,116.826035 
	C685.014221,116.848778 693.151123,117.201782 701.253540,116.820877 
	C715.227112,116.163956 727.012634,111.234749 734.696899,97.814621 
	C735.998962,94.777412 737.622437,91.834991 738.550598,88.687508 
	C744.286743,69.235031 732.203064,45.978374 709.762085,42.402184 
	C696.444763,40.279934 682.577515,41.608555 668.042419,41.214108 
	C654.607849,41.182129 641.173096,41.099350 627.738708,41.132210 
	C613.814819,41.166267 599.891296,41.312397 585.053833,41.223698 
	C568.964417,41.189766 552.874939,41.108479 536.785583,41.137794 
	C525.183411,41.158936 513.581482,41.327312 501.063141,41.227646 
	C491.447327,41.198383 481.831360,41.117962 472.215759,41.151451 
	C456.473572,41.206268 440.731689,41.335175 424.072449,41.228210 
	C405.714539,41.298351 387.356598,41.368492 368.081024,41.229786 
	C356.988556,41.200504 345.895233,41.079292 334.804016,41.183910 
	C329.866577,41.230473 324.933472,41.732006 319.179810,41.946739 
	C307.670715,43.279854 298.944946,48.947521 292.334320,59.227722 
M281.844635,234.046036 
	C291.082306,232.948975 300.293915,231.398849 309.564026,230.864807 
	C322.349609,230.128250 335.179382,230.158600 348.918640,230.007065 
	C368.275757,229.961426 387.632904,229.915787 407.919159,230.012070 
	C439.608734,229.962204 471.298309,229.912338 503.918121,230.004669 
	C520.608582,229.960403 537.299072,229.916153 554.920044,230.003937 
	C574.277649,229.958450 593.635315,229.912964 613.923340,229.995941 
	C635.611572,229.950211 657.299866,229.904480 679.919739,229.992294 
	C696.275391,230.610352 712.631104,231.228409 729.848816,231.969757 
	C742.047363,234.409943 754.348267,236.436432 766.412109,239.421143 
	C776.073730,241.811493 785.123108,241.467743 794.705627,236.936707 
	C801.334045,234.218460 805.515137,228.963684 809.346130,223.199982 
	C818.954773,208.743622 817.042664,190.063782 805.140381,177.368744 
	C797.588135,169.313385 787.781860,166.607330 777.788147,164.007782 
	C753.869141,157.786011 729.480774,154.953583 704.821960,154.265213 
	C701.547119,154.173782 698.256714,154.641556 694.040955,154.792435 
	C675.364563,154.822998 656.688110,154.853561 637.075317,154.801559 
	C620.385681,154.831863 603.695984,154.862167 586.072510,154.788788 
	C564.381775,154.817200 542.691101,154.845612 520.067993,154.767929 
	C500.714020,154.799362 481.360077,154.830795 461.072968,154.752899 
	C444.718689,154.792343 428.364410,154.831787 411.077728,154.747040 
	C399.128418,154.731049 387.178894,154.666840 375.229797,154.709946 
	C355.485840,154.781174 335.742065,154.921646 315.079529,154.910828 
	C306.884644,155.585709 298.660339,156.016632 290.502686,157.000198 
	C281.302124,158.109528 272.161560,159.716171 262.205566,161.064987 
	C255.124252,162.724686 247.956604,164.087692 240.982819,166.116974 
	C231.639099,168.835876 223.039703,172.926727 217.412399,182.386780 
	C216.676086,183.686707 215.858978,184.947983 215.215973,186.292526 
	C208.787170,199.735199 209.517731,212.830994 218.091583,224.991791 
	C226.420837,236.805634 238.328674,242.442047 252.617218,240.682297 
	C262.207306,239.501190 271.547455,236.291000 281.844635,234.046036 
M890.986145,596.080139 
	C890.939392,576.390015 890.892639,556.699890 890.982727,536.080139 
	C890.934631,513.722656 890.886536,491.365204 890.972168,468.078064 
	C890.682190,459.039642 890.392151,450.001190 890.161499,440.066010 
	C888.209961,429.347137 886.258484,418.628296 884.232666,407.109711 
	C874.736755,370.589752 855.258362,340.150818 827.211243,315.263275 
	C802.511047,293.345551 774.072876,278.265320 741.370239,272.315582 
	C729.388306,270.135651 717.127686,269.487701 704.065186,268.010162 
	C692.709534,268.043854 681.353821,268.077545 669.068054,267.988953 
	C649.377319,268.027679 629.686646,268.066406 609.065796,267.982452 
	C585.041931,268.023163 561.018066,268.063873 536.064453,267.980682 
	C515.374390,268.025360 494.684326,268.070007 473.065491,267.985138 
	C447.708527,268.028351 422.351532,268.071564 396.066132,267.980560 
	C373.709442,268.025208 351.352783,268.069855 328.069183,267.975189 
	C313.710297,269.386719 299.351410,270.798248 284.223572,272.196014 
	C283.094360,272.471558 281.968323,272.760864 280.835510,273.020660 
	C261.248718,277.511902 242.860992,284.893402 225.251007,295.971497 
	C210.710419,305.274353 197.078796,315.664886 185.242493,329.208954 
	C182.520798,332.321686 179.656723,335.322327 177.101776,338.566406 
	C165.283798,353.571991 155.131332,369.550659 148.357758,388.271271 
	C137.905945,414.895264 134.203537,442.537628 135.680481,471.913116 
	C135.745941,496.606781 135.811401,521.300476 135.670380,546.913940 
	C135.738266,566.594238 135.806168,586.274536 135.582504,606.642944 
	C135.276459,626.264587 137.747498,645.570068 144.121719,664.100342 
	C168.782501,735.790955 218.264648,779.585083 292.815125,794.021973 
	C319.922150,799.271240 347.567352,796.656311 375.920227,796.906982 
	C396.945404,796.854370 417.970581,796.801758 439.920471,796.912598 
	C474.824249,796.917297 509.727997,796.942017 544.631775,796.917908 
	C561.082397,796.906494 577.533020,796.801208 594.909363,796.908813 
	C625.935364,796.854492 656.961365,796.800232 688.913452,796.910461 
	C699.359741,796.609375 709.838318,796.722839 720.244873,795.911987 
	C736.663391,794.632629 752.604431,790.881287 768.739929,784.938232 
	C786.389465,777.849854 803.085876,769.090393 818.501770,756.746643 
	C824.065796,751.621643 829.520996,746.372009 835.216675,741.397827 
	C846.687439,731.380127 855.169495,719.029053 863.712952,705.854614 
	C873.046631,690.645508 880.135254,674.490051 884.725647,656.508911 
	C890.285217,637.037903 891.107422,617.079651 890.986145,596.080139 
z"/>
<path fill="#F8373A" opacity="1.000000" stroke="none" 
	d="
M374.994598,796.745239 
	C347.567352,796.656311 319.922150,799.271240 292.815125,794.021973 
	C218.264648,779.585083 168.782501,735.790955 144.121719,664.100342 
	C137.747498,645.570068 135.276459,626.264587 136.099030,606.344482 
	C138.990494,607.442688 141.548126,608.605347 143.701248,610.286194 
	C147.820190,613.501648 151.671814,617.056824 155.702057,620.389099 
	C161.763107,625.400513 167.895386,630.325623 173.972244,635.317993 
	C178.058884,638.675293 181.979172,642.248352 186.195709,645.430969 
	C191.515259,649.446167 197.186951,652.998352 202.463562,657.065735 
	C205.908554,659.721130 208.694687,663.243408 212.183594,665.826843 
	C216.869461,669.296387 222.201492,671.909668 226.795502,675.482788 
	C232.611664,680.006531 237.939362,685.155457 243.562531,689.934875 
	C244.048248,690.347656 245.167252,690.015381 246.301392,690.153503 
	C251.756470,694.474854 256.902252,698.671875 262.087402,703.238159 
	C263.152832,704.045532 264.178802,704.483643 265.520569,704.974304 
	C267.261261,705.907715 268.686127,706.788513 270.104004,708.044312 
	C272.883209,711.264587 275.444489,714.383484 278.502502,716.898254 
	C284.802368,722.079102 291.324860,726.993958 297.836487,731.911255 
	C303.472015,736.166931 309.324036,740.140503 314.887573,744.485535 
	C320.567261,748.921448 325.878571,753.832397 331.598724,758.211975 
	C336.971649,762.325745 342.909454,765.718262 348.165527,769.964294 
	C356.104156,776.377319 363.783783,783.128357 371.302612,790.030823 
	C373.085449,791.667480 373.792603,794.475830 374.994598,796.745239 
z"/>
<path fill="#FA3A45" opacity="1.000000" stroke="none" 
	d="
M593.983643,796.738403 
	C577.533020,796.801208 561.082397,796.906494 544.631775,796.917908 
	C509.727997,796.942017 474.824249,796.917297 439.451660,796.479004 
	C434.042480,791.392822 429.411743,786.344543 424.088989,782.180847 
	C416.183899,775.997009 407.655273,770.616272 399.644073,764.560364 
	C392.974518,759.518616 386.725128,753.925110 380.185242,748.706787 
	C372.725037,742.754150 364.857391,737.272278 357.763855,730.919189 
	C354.834229,728.295349 349.464691,727.105652 350.453857,721.357910 
	C401.447296,721.247009 451.982361,721.239563 502.517426,721.244080 
	C503.341888,721.244141 504.166321,721.390442 504.996399,721.805664 
	C505.890503,723.484863 506.526825,725.130615 507.712341,726.114929 
	C512.146240,729.796082 516.802734,733.207458 521.295776,736.819519 
	C527.464294,741.778503 533.452942,746.966492 539.712891,751.805115 
	C548.427246,758.540894 557.344421,765.013550 566.130920,771.656921 
	C572.968262,776.826416 579.932678,781.856506 586.451965,787.405334 
	C589.443359,789.951416 591.502014,793.593384 593.983643,796.738403 
z"/>
<path fill="#FF7F8A" opacity="1.000000" stroke="none" 
	d="
M890.102112,440.962769 
	C890.392151,450.001190 890.682190,459.039642 890.535583,468.540192 
	C888.870300,468.626587 887.402710,468.558380 886.454285,467.821777 
	C882.414429,464.684143 878.596375,461.261963 874.573486,458.101349 
	C861.074585,447.495941 847.488037,437.001953 834.004761,426.376862 
	C826.726379,420.641449 819.709229,414.568390 812.327759,408.972839 
	C809.532715,406.854065 806.044678,405.649384 802.608032,403.824341 
	C786.451355,375.918274 764.046326,356.136139 732.693298,348.088531 
	C722.070129,345.361816 710.917175,344.698914 699.975220,342.742035 
	C698.956970,341.088196 698.171936,339.541443 696.946716,338.525360 
	C692.233826,334.616760 687.383301,330.873810 682.578064,327.076721 
	C669.845581,317.015533 657.148071,306.909607 644.362000,296.916992 
	C636.013916,290.392700 627.416016,284.183197 619.173157,277.531433 
	C615.784912,274.797211 613.035767,271.271057 609.995911,268.105133 
	C629.686646,268.066406 649.377319,268.027679 669.574219,268.387543 
	C676.167969,274.065674 682.033447,279.631287 688.389587,284.564728 
	C701.326660,294.606049 714.629517,304.175537 727.589417,314.188110 
	C738.053955,322.272766 748.168152,330.809265 758.561462,338.988068 
	C771.704163,349.330322 784.953735,359.537262 798.192993,369.756165 
	C806.691101,376.315552 815.339294,382.682709 823.770447,389.326141 
	C843.808838,405.115448 863.745117,421.034149 883.763611,436.848755 
	C885.731628,438.403442 887.982544,439.599976 890.102112,440.962769 
z"/>
<path fill="#FF717E" opacity="1.000000" stroke="none" 
	d="
M315.998230,155.032944 
	C335.742065,154.921646 355.485840,154.781174 375.229797,154.709946 
	C387.178894,154.666840 399.128418,154.731049 411.569885,155.168030 
	C413.061798,156.872955 413.851929,158.423813 415.093933,159.399307 
	C426.775604,168.574295 438.542633,177.640518 450.268433,186.759476 
	C459.278748,193.766602 468.266937,200.802231 477.261810,207.829254 
	C484.812958,213.728439 492.405396,219.576630 499.865509,225.588928 
	C501.192444,226.658356 501.961334,228.420288 502.987885,229.862473 
	C471.298309,229.912338 439.608734,229.962204 407.414062,229.601257 
	C400.830292,223.920364 394.962250,218.380508 388.629395,213.436035 
	C375.249634,202.989563 361.542267,192.963242 348.133362,182.553238 
	C339.122284,175.557480 330.347412,168.253677 321.570129,160.963348 
	C319.499451,159.243439 317.844452,157.023087 315.998230,155.032944 
z"/>
<path fill="#FC4150" opacity="1.000000" stroke="none" 
	d="
M594.446533,796.823608 
	C591.502014,793.593384 589.443359,789.951416 586.451965,787.405334 
	C579.932678,781.856506 572.968262,776.826416 566.130920,771.656921 
	C557.344421,765.013550 548.427246,758.540894 539.712891,751.805115 
	C533.452942,746.966492 527.464294,741.778503 521.295776,736.819519 
	C516.802734,733.207458 512.146240,729.796082 507.712341,726.114929 
	C506.526825,725.130615 505.890503,723.484863 505.454315,721.697266 
	C517.358032,721.235962 528.809570,721.180908 540.260864,721.213135 
	C559.838196,721.268311 579.415466,721.378235 599.000610,721.805298 
	C602.154785,725.175781 605.058716,728.518494 608.490601,731.180603 
	C621.157532,741.006531 634.070923,750.514465 646.753479,760.320618 
	C657.852295,768.902222 668.981750,777.471313 679.629578,786.592407 
	C682.839172,789.341736 688.501953,790.710876 687.987366,796.745972 
	C656.961365,796.800232 625.935364,796.854492 594.446533,796.823608 
z"/>
<path fill="#FD4858" opacity="1.000000" stroke="none" 
	d="
M688.450439,796.828186 
	C688.501953,790.710876 682.839172,789.341736 679.629578,786.592407 
	C668.981750,777.471313 657.852295,768.902222 646.753479,760.320618 
	C634.070923,750.514465 621.157532,741.006531 608.490601,731.180603 
	C605.058716,728.518494 602.154785,725.175781 599.458862,721.698730 
	C612.024292,721.234619 624.139648,721.175842 636.254700,721.209473 
	C655.167847,721.261963 674.080933,721.377136 693.002075,721.807495 
	C693.969604,723.413086 694.712341,724.961365 695.928528,725.888184 
	C699.866150,728.888794 704.105896,731.497864 707.996948,734.553589 
	C718.113403,742.498291 728.059204,750.660095 738.162292,758.622131 
	C746.967957,765.561646 755.975037,772.247925 764.696228,779.289978 
	C766.282898,780.571106 766.921326,783.026733 767.997437,784.940186 
	C752.604431,790.881287 736.663391,794.632629 720.244873,795.911987 
	C709.838318,796.722839 699.359741,796.609375 688.450439,796.828186 
z"/>
<path fill="#FB3F4D" opacity="1.000000" stroke="none" 
	d="
M135.876999,470.991089 
	C134.203537,442.537628 137.905945,414.895264 148.798737,388.318115 
	C152.316437,390.295532 155.601852,391.963806 158.426743,394.210938 
	C164.420303,398.978668 170.049362,404.205780 176.058167,408.952972 
	C183.296021,414.671112 190.622894,420.303192 198.201065,425.554199 
	C202.983795,428.868286 206.161911,434.785919 212.958801,435.415833 
	C212.344193,443.602234 211.250931,451.369812 211.147308,459.150543 
	C210.846130,481.765930 210.941498,504.386597 210.515564,526.997681 
	C207.620834,525.521973 204.860931,524.342285 202.602814,522.535522 
	C192.758453,514.658630 183.093292,506.558167 173.293716,498.624542 
	C168.685226,494.893555 163.938873,491.331360 159.218445,487.740723 
	C156.665466,485.798798 154.047195,483.941742 151.437820,482.075104 
	C146.258408,478.369934 141.064758,474.684601 135.876999,470.991089 
z"/>
<path fill="#FF9399" opacity="1.000000" stroke="none" 
	d="
M675.968628,116.618355 
	C655.077026,116.711487 634.185547,116.818977 613.293884,116.889565 
	C606.494812,116.912537 599.695557,116.839165 592.433105,116.374573 
	C588.941895,112.798958 586.233765,109.249092 582.829651,106.590256 
	C569.181702,95.930206 555.258545,85.623367 541.552734,75.036278 
	C530.455261,66.463989 519.450500,57.766960 508.571960,48.919552 
	C506.027252,46.849964 504.158936,43.948662 501.979431,41.430016 
	C513.581482,41.327312 525.183411,41.158936 536.785583,41.137794 
	C552.874939,41.108479 568.964417,41.189766 585.527771,41.646252 
	C588.157349,44.462772 590.018738,47.234474 592.520813,49.183750 
	C602.146057,56.682392 612.047607,63.825413 621.710022,71.277580 
	C631.123169,78.537514 640.354919,86.032303 649.694275,93.388474 
	C657.477112,99.518669 665.365417,105.517654 673.045837,111.772720 
	C674.422424,112.893860 675.014343,114.978554 675.968628,116.618355 
z"/>
<path fill="#FF8992" opacity="1.000000" stroke="none" 
	d="
M704.994202,268.140869 
	C717.127686,269.487701 729.388306,270.135651 741.370239,272.315582 
	C774.072876,278.265320 802.511047,293.345551 827.211243,315.263275 
	C855.258362,340.150818 874.736755,370.589752 883.875366,407.533295 
	C882.338318,407.463440 880.986755,407.193909 880.005737,406.441406 
	C871.599060,399.993500 863.278564,393.433289 854.895020,386.954926 
	C842.711609,377.540161 830.395630,368.293884 818.320068,358.743286 
	C801.068420,345.098785 784.113464,331.077301 766.790405,317.525482 
	C748.928101,303.551819 730.730652,290.007233 712.797607,276.122772 
	C709.883423,273.866455 707.579956,270.821381 704.994202,268.140869 
z"/>
<path fill="#FF8992" opacity="1.000000" stroke="none" 
	d="
M501.521301,41.328831 
	C504.158936,43.948662 506.027252,46.849964 508.571960,48.919552 
	C519.450500,57.766960 530.455261,66.463989 541.552734,75.036278 
	C555.258545,85.623367 569.181702,95.930206 582.829651,106.590256 
	C586.233765,109.249092 588.941895,112.798958 591.973938,116.273651 
	C566.620239,116.672379 541.262512,116.736740 515.439819,116.366119 
	C509.989685,111.290108 505.302948,106.268425 499.961914,102.081459 
	C485.548767,90.782654 470.819000,79.888725 456.289459,68.736969 
	C447.254364,61.802341 438.276031,54.787457 429.457153,47.582279 
	C427.559784,46.032093 426.457947,43.508198 424.989655,41.432831 
	C440.731689,41.335175 456.473572,41.206268 472.215759,41.151451 
	C481.831360,41.117962 491.447327,41.198383 501.521301,41.328831 
z"/>
<path fill="#FF9A9F" opacity="1.000000" stroke="none" 
	d="
M676.430725,116.722198 
	C675.014343,114.978554 674.422424,112.893860 673.045837,111.772720 
	C665.365417,105.517654 657.477112,99.518669 649.694275,93.388474 
	C640.354919,86.032303 631.123169,78.537514 621.710022,71.277580 
	C612.047607,63.825413 602.146057,56.682392 592.520813,49.183750 
	C590.018738,47.234474 588.157349,44.462772 585.984619,41.739159 
	C599.891296,41.312397 613.814819,41.166267 627.738708,41.132210 
	C641.173096,41.099350 654.607849,41.182129 668.522644,41.625519 
	C669.402344,42.711067 669.652100,43.571411 670.223877,44.031422 
	C678.818848,50.945892 687.439087,57.829338 696.087952,64.676384 
	C707.200867,73.474113 718.436890,82.120316 729.395081,91.106003 
	C731.501831,92.833565 732.570190,95.827538 734.117615,98.237274 
	C727.012634,111.234749 715.227112,116.163956 701.253540,116.820877 
	C693.151123,117.201782 685.014221,116.848778 676.430725,116.722198 
z"/>
<path fill="#FF6977" opacity="1.000000" stroke="none" 
	d="
M396.994568,268.114807 
	C422.351532,268.071564 447.708527,268.028351 473.571167,268.386139 
	C475.979370,270.822449 477.662048,273.135559 479.822296,274.845184 
	C489.407562,282.430756 499.174500,289.786255 508.792145,297.331512 
	C523.877380,309.166290 538.940552,321.030334 553.910889,333.009674 
	C557.804138,336.125000 561.318481,339.713867 564.541260,343.151123 
	C538.719299,343.173950 513.362976,343.130859 487.972015,342.734100 
	C484.092010,338.893646 480.434845,335.167816 476.366577,331.964020 
	C463.280334,321.658508 450.077454,311.499878 436.851776,301.373108 
	C426.519196,293.461517 415.958649,285.841766 405.769226,277.752502 
	C402.410706,275.086182 399.895416,271.357635 396.994568,268.114807 
z"/>
<path fill="#FA3A45" opacity="1.000000" stroke="none" 
	d="
M135.778748,471.452087 
	C141.064758,474.684601 146.258408,478.369934 151.437820,482.075104 
	C154.047195,483.941742 156.665466,485.798798 159.218445,487.740723 
	C163.938873,491.331360 168.685226,494.893555 173.293716,498.624542 
	C183.093292,506.558167 192.758453,514.658630 202.602814,522.535522 
	C204.860931,524.342285 207.620834,525.521973 210.589722,527.460938 
	C210.980042,552.955566 210.930450,577.979370 210.542404,602.961914 
	C209.155777,602.133606 208.064011,601.398010 207.066544,600.551270 
	C200.917313,595.331055 194.885590,589.967407 188.627441,584.882019 
	C182.265640,579.712463 175.689621,574.806396 169.202103,569.791809 
	C168.289520,569.086426 167.357300,568.405090 166.416046,567.738220 
	C161.664536,564.371521 156.897644,561.026489 152.154160,557.648499 
	C146.718536,553.777588 141.301819,549.880066 135.876862,545.994141 
	C135.811401,521.300476 135.745941,496.606781 135.778748,471.452087 
z"/>
<path fill="#FF838D" opacity="1.000000" stroke="none" 
	d="
M704.529663,268.075500 
	C707.579956,270.821381 709.883423,273.866455 712.797607,276.122772 
	C730.730652,290.007233 748.928101,303.551819 766.790405,317.525482 
	C784.113464,331.077301 801.068420,345.098785 818.320068,358.743286 
	C830.395630,368.293884 842.711609,377.540161 854.895020,386.954926 
	C863.278564,393.433289 871.599060,399.993500 880.005737,406.441406 
	C880.986755,407.193909 882.338318,407.463440 883.912476,407.933167 
	C886.258484,418.628296 888.209961,429.347137 890.131836,440.514404 
	C887.982544,439.599976 885.731628,438.403442 883.763611,436.848755 
	C863.745117,421.034149 843.808838,405.115448 823.770447,389.326141 
	C815.339294,382.682709 806.691101,376.315552 798.192993,369.756165 
	C784.953735,359.537262 771.704163,349.330322 758.561462,338.988068 
	C748.168152,330.809265 738.053955,322.272766 727.589417,314.188110 
	C714.629517,304.175537 701.326660,294.606049 688.389587,284.564728 
	C682.033447,279.631287 676.167969,274.065674 670.039307,268.448700 
	C681.353821,268.077545 692.709534,268.043854 704.529663,268.075500 
z"/>
<path fill="#FF5666" opacity="1.000000" stroke="none" 
	d="
M225.929642,295.787872 
	C242.860992,284.893402 261.248718,277.511902 280.835510,273.020660 
	C281.968323,272.760864 283.094360,272.471558 284.654297,272.533875 
	C285.651367,273.673767 286.068634,274.663269 286.806335,275.249725 
	C298.426025,284.487427 310.059143,293.708832 321.752045,302.853577 
	C326.429047,306.511353 331.323761,309.890533 336.004852,313.543274 
	C345.245453,320.753967 354.477356,327.979828 363.556946,335.390381 
	C366.303558,337.632141 368.536774,340.502869 370.541443,343.164917 
	C366.922729,343.259644 363.767456,343.254517 360.612732,343.293579 
	C336.617554,343.590515 312.440338,341.557373 288.951843,348.531281 
	C288.593842,347.624176 288.410736,346.878845 287.935486,346.511383 
	C282.467346,342.283356 276.919250,338.158508 271.461121,333.917816 
	C257.802246,323.305389 244.127441,312.711823 230.598511,301.935608 
	C228.647659,300.381714 227.466812,297.861115 225.929642,295.787872 
z"/>
<path fill="#FD4858" opacity="1.000000" stroke="none" 
	d="
M212.932220,435.003021 
	C206.161911,434.785919 202.983795,428.868286 198.201065,425.554199 
	C190.622894,420.303192 183.296021,414.671112 176.058167,408.952972 
	C170.049362,404.205780 164.420303,398.978668 158.426743,394.210938 
	C155.601852,391.963806 152.316437,390.295532 149.055862,388.059631 
	C155.131332,369.550659 165.283798,353.571991 177.101776,338.566406 
	C179.656723,335.322327 182.520798,332.321686 185.868195,329.205811 
	C192.313293,333.454376 198.169281,337.657135 203.942276,341.970947 
	C210.287842,346.712616 216.555710,351.558258 222.859848,356.355408 
	C230.608109,362.251526 238.358948,368.144196 245.963013,374.345337 
	C233.545761,388.119720 222.724960,402.504272 217.236099,420.217682 
	C215.717010,425.119934 214.362335,430.073181 212.932220,435.003021 
z"/>
<path fill="#FF7985" opacity="1.000000" stroke="none" 
	d="
M609.530884,268.043793 
	C613.035767,271.271057 615.784912,274.797211 619.173157,277.531433 
	C627.416016,284.183197 636.013916,290.392700 644.362000,296.916992 
	C657.148071,306.909607 669.845581,317.015533 682.578064,327.076721 
	C687.383301,330.873810 692.233826,334.616760 696.946716,338.525360 
	C698.171936,339.541443 698.956970,341.088196 699.508545,342.796661 
	C675.718140,343.166168 652.363342,343.130219 628.976929,342.743042 
	C626.584961,339.904480 624.510742,337.039490 621.813538,334.997101 
	C611.695312,327.335358 601.206299,320.158813 591.167725,312.397583 
	C576.288147,300.893555 561.632629,289.097534 546.976379,277.308228 
	C543.457825,274.477997 540.311646,271.184814 536.994202,268.104553 
	C561.018066,268.063873 585.041931,268.023163 609.530884,268.043793 
z"/>
<path fill="#FF7985" opacity="1.000000" stroke="none" 
	d="
M802.872559,404.028015 
	C806.044678,405.649384 809.532715,406.854065 812.327759,408.972839 
	C819.709229,414.568390 826.726379,420.641449 834.004761,426.376862 
	C847.488037,437.001953 861.074585,447.495941 874.573486,458.101349 
	C878.596375,461.261963 882.414429,464.684143 886.454285,467.821777 
	C887.402710,468.558380 888.870300,468.626587 890.468750,469.005005 
	C890.886536,491.365204 890.934631,513.722656 890.552368,536.535522 
	C887.405823,535.482605 884.458008,534.276794 882.017944,532.408142 
	C875.331177,527.287354 868.896790,521.838684 862.290833,516.610413 
	C852.720459,509.035858 843.200500,501.389679 833.437744,494.069092 
	C827.684387,489.754913 821.503601,486.010803 815.420410,481.550140 
	C815.297180,478.271301 815.293945,475.452087 815.235229,472.634033 
	C815.028137,462.694672 815.328125,452.709229 814.455566,442.827850 
	C813.251404,429.192047 808.537964,416.425598 802.872559,404.028015 
z"/>
<path fill="#FF5666" opacity="1.000000" stroke="none" 
	d="
M863.145691,706.256470 
	C855.169495,719.029053 846.687439,731.380127 835.216675,741.397827 
	C829.520996,746.372009 824.065796,751.621643 817.884827,756.694336 
	C815.388306,755.032410 813.559143,753.359009 811.620667,751.823730 
	C801.664368,743.938538 791.974976,735.671143 781.616882,728.351807 
	C772.440857,721.867737 764.961304,712.919922 754.213623,708.733154 
	C776.145752,697.199829 791.940308,680.032654 804.130737,658.964417 
	C804.955750,659.188660 805.498413,659.263916 805.870667,659.556091 
	C820.193787,670.799255 834.570435,681.976074 848.773499,693.369263 
	C853.785217,697.389465 858.367432,701.945190 863.145691,706.256470 
z"/>
<path fill="#FF6271" opacity="1.000000" stroke="none" 
	d="
M396.530334,268.047668 
	C399.895416,271.357635 402.410706,275.086182 405.769226,277.752502 
	C415.958649,285.841766 426.519196,293.461517 436.851776,301.373108 
	C450.077454,311.499878 463.280334,321.658508 476.366577,331.964020 
	C480.434845,335.167816 484.092010,338.893646 487.507080,342.804993 
	C464.385925,343.183807 441.695038,343.138092 418.972076,342.739319 
	C418.149750,341.364014 417.527985,340.127808 416.543335,339.352509 
	C406.418579,331.380035 396.216980,323.505280 386.071838,315.558563 
	C367.845001,301.281464 349.616852,287.005646 331.485199,272.608429 
	C330.246826,271.625153 329.807190,269.635895 328.996094,268.114502 
	C351.352783,268.069855 373.709442,268.025208 396.530334,268.047668 
z"/>
<path fill="#F9373E" opacity="1.000000" stroke="none" 
	d="
M135.773621,546.454041 
	C141.301819,549.880066 146.718536,553.777588 152.154160,557.648499 
	C156.897644,561.026489 161.664536,564.371521 166.416046,567.738220 
	C167.357300,568.405090 168.289520,569.086426 169.202103,569.791809 
	C175.689621,574.806396 182.265640,579.712463 188.627441,584.882019 
	C194.885590,589.967407 200.917313,595.331055 207.066544,600.551270 
	C208.064011,601.398010 209.155777,602.133606 210.618866,603.424683 
	C210.631226,617.173279 212.518738,630.004578 216.543411,642.706787 
	C222.364059,661.077148 232.993011,676.238037 245.992081,690.029175 
	C245.167252,690.015381 244.048248,690.347656 243.562531,689.934875 
	C237.939362,685.155457 232.611664,680.006531 226.795502,675.482788 
	C222.201492,671.909668 216.869461,669.296387 212.183594,665.826843 
	C208.694687,663.243408 205.908554,659.721130 202.463562,657.065735 
	C197.186951,652.998352 191.515259,649.446167 186.195709,645.430969 
	C181.979172,642.248352 178.058884,638.675293 173.972244,635.317993 
	C167.895386,630.325623 161.763107,625.400513 155.702057,620.389099 
	C151.671814,617.056824 147.820190,613.501648 143.701248,610.286194 
	C141.548126,608.605347 138.990494,607.442688 136.244812,606.000427 
	C135.806168,586.274536 135.738266,566.594238 135.773621,546.454041 
z"/>
<path fill="#FF838D" opacity="1.000000" stroke="none" 
	d="
M678.988098,229.858765 
	C657.299866,229.904480 635.611572,229.950211 613.416992,229.595184 
	C612.427307,228.549530 612.057190,227.759308 611.443665,227.281662 
	C603.217773,220.877579 594.943848,214.535202 586.709412,208.142090 
	C568.801270,194.238586 550.840759,180.400940 533.059082,166.337402 
	C528.727112,162.911270 525.003601,158.715759 521.000366,154.874008 
	C542.691101,154.845612 564.381775,154.817200 586.567383,155.198822 
	C588.347717,157.059448 589.443115,158.754822 590.947937,159.922638 
	C605.419067,171.152863 619.985840,182.259827 634.471497,193.471481 
	C646.718079,202.950150 658.943970,212.457245 671.063599,222.096909 
	C673.942017,224.386337 676.358887,227.255981 678.988098,229.858765 
z"/>
<path fill="#F9373E" opacity="1.000000" stroke="none" 
	d="
M349.995483,721.462524 
	C349.464691,727.105652 354.834229,728.295349 357.763855,730.919189 
	C364.857391,737.272278 372.725037,742.754150 380.185242,748.706787 
	C386.725128,753.925110 392.974518,759.518616 399.644073,764.560364 
	C407.655273,770.616272 416.183899,775.997009 424.088989,782.180847 
	C429.411743,786.344543 434.042480,791.392822 438.989288,796.397217 
	C417.970581,796.801758 396.945404,796.854370 375.457397,796.826111 
	C373.792603,794.475830 373.085449,791.667480 371.302612,790.030823 
	C363.783783,783.128357 356.104156,776.377319 348.165527,769.964294 
	C342.909454,765.718262 336.971649,762.325745 331.598724,758.211975 
	C325.878571,753.832397 320.567261,748.921448 314.887573,744.485535 
	C309.324036,740.140503 303.472015,736.166931 297.836487,731.911255 
	C291.324860,726.993958 284.802368,722.079102 278.502502,716.898254 
	C275.444489,714.383484 272.883209,711.264587 270.457794,708.134705 
	C274.119904,709.408569 277.278809,711.496460 280.748322,712.429993 
	C293.016174,715.730835 305.249939,719.658142 317.767273,721.378357 
	C328.314636,722.828003 339.238342,721.539185 349.995483,721.462524 
z"/>
<path fill="#FF717E" opacity="1.000000" stroke="none" 
	d="
M536.529297,268.042603 
	C540.311646,271.184814 543.457825,274.477997 546.976379,277.308228 
	C561.632629,289.097534 576.288147,300.893555 591.167725,312.397583 
	C601.206299,320.158813 611.695312,327.335358 621.813538,334.997101 
	C624.510742,337.039490 626.584961,339.904480 628.510437,342.801880 
	C607.052673,343.169678 586.029785,343.127441 565.006836,343.085205 
	C561.318481,339.713867 557.804138,336.125000 553.910889,333.009674 
	C538.940552,321.030334 523.877380,309.166290 508.792145,297.331512 
	C499.174500,289.786255 489.407562,282.430756 479.822296,274.845184 
	C477.662048,273.135559 475.979370,270.822449 474.035583,268.450928 
	C494.684326,268.070007 515.374390,268.025360 536.529297,268.042603 
z"/>
<path fill="#FF6977" opacity="1.000000" stroke="none" 
	d="
M890.845825,597.009888 
	C891.107422,617.079651 890.285217,637.037903 884.125488,656.747559 
	C876.015076,651.322632 868.432983,645.751343 861.011780,639.973328 
	C850.465332,631.762085 840.170105,623.222168 829.493347,615.187073 
	C825.209473,611.963135 820.197937,609.706116 815.432434,606.547546 
	C815.403748,584.727173 815.460266,563.368286 815.855530,542.020264 
	C820.658264,545.049683 825.307495,547.830078 829.549988,551.132996 
	C840.450500,559.619385 851.124390,568.396362 861.978516,576.943298 
	C869.750977,583.063660 877.619080,589.066528 885.565552,594.958496 
	C887.028442,596.043213 889.070862,596.346130 890.845825,597.009888 
z"/>
<path fill="#FF9399" opacity="1.000000" stroke="none" 
	d="
M638.011719,154.884125 
	C656.688110,154.853561 675.364563,154.822998 694.544678,155.181854 
	C695.566223,156.396317 695.910339,157.438995 696.628906,158.012482 
	C703.331543,163.361710 710.058350,168.682587 716.855042,173.911758 
	C731.867859,185.462265 746.978149,196.886719 761.945740,208.495270 
	C771.729980,216.083710 781.397034,223.828018 790.951721,231.702545 
	C792.423096,232.915192 793.006104,235.205719 794.000000,236.997742 
	C785.123108,241.467743 776.073730,241.811493 766.412109,239.421143 
	C754.348267,236.436432 742.047363,234.409943 729.421875,231.536285 
	C727.597839,229.041885 726.384338,226.817184 724.741638,224.975342 
	C723.568420,223.659958 721.745178,222.949783 720.338562,221.812927 
	C711.491760,214.662598 702.813416,207.296860 693.827515,200.327148 
	C678.671143,188.571579 663.234375,177.176666 648.127563,165.358994 
	C644.341248,162.397064 641.361938,158.403519 638.011719,154.884125 
z"/>
<path fill="#FF9A9F" opacity="1.000000" stroke="none" 
	d="
M794.352783,236.967224 
	C793.006104,235.205719 792.423096,232.915192 790.951721,231.702545 
	C781.397034,223.828018 771.729980,216.083710 761.945740,208.495270 
	C746.978149,196.886719 731.867859,185.462265 716.855042,173.911758 
	C710.058350,168.682587 703.331543,163.361710 696.628906,158.012482 
	C695.910339,157.438995 695.566223,156.396317 695.010986,155.210815 
	C698.256714,154.641556 701.547119,154.173782 704.821960,154.265213 
	C729.480774,154.953583 753.869141,157.786011 777.788147,164.007782 
	C787.781860,166.607330 797.588135,169.313385 805.140381,177.368744 
	C817.042664,190.063782 818.954773,208.743622 809.346130,223.199982 
	C805.515137,228.963684 801.334045,234.218460 794.352783,236.967224 
z"/>
<path fill="#FF717E" opacity="1.000000" stroke="none" 
	d="
M890.916016,596.545044 
	C889.070862,596.346130 887.028442,596.043213 885.565552,594.958496 
	C877.619080,589.066528 869.750977,583.063660 861.978516,576.943298 
	C851.124390,568.396362 840.450500,559.619385 829.549988,551.132996 
	C825.307495,547.830078 820.658264,545.049683 815.766602,541.559326 
	C815.397522,521.395142 815.456299,501.702728 815.515015,482.010315 
	C821.503601,486.010803 827.684387,489.754913 833.437744,494.069092 
	C843.200500,501.389679 852.720459,509.035858 862.290833,516.610413 
	C868.896790,521.838684 875.331177,527.287354 882.017944,532.408142 
	C884.458008,534.276794 887.405823,535.482605 890.484009,537.000305 
	C890.892639,556.699890 890.939392,576.390015 890.916016,596.545044 
z"/>
<path fill="#FE4D5D" opacity="1.000000" stroke="none" 
	d="
M753.999634,708.997803 
	C764.961304,712.919922 772.440857,721.867737 781.616882,728.351807 
	C791.974976,735.671143 801.664368,743.938538 811.620667,751.823730 
	C813.559143,753.359009 815.388306,755.032410 817.555603,756.786743 
	C803.085876,769.090393 786.389465,777.849854 768.368652,784.939209 
	C766.921326,783.026733 766.282898,780.571106 764.696228,779.289978 
	C755.975037,772.247925 746.967957,765.561646 738.162292,758.622131 
	C728.059204,750.660095 718.113403,742.498291 707.996948,734.553589 
	C704.105896,731.497864 699.866150,728.888794 695.928528,725.888184 
	C694.712341,724.961365 693.969604,723.413086 693.460327,721.701904 
	C700.855286,721.021301 707.830078,721.116943 714.738403,720.485413 
	C728.538635,719.223816 741.511292,714.876709 753.999634,708.997803 
z"/>
<path fill="#FF7F8A" opacity="1.000000" stroke="none" 
	d="
M520.534180,154.820969 
	C525.003601,158.715759 528.727112,162.911270 533.059082,166.337402 
	C550.840759,180.400940 568.801270,194.238586 586.709412,208.142090 
	C594.943848,214.535202 603.217773,220.877579 611.443665,227.281662 
	C612.057190,227.759308 612.427307,228.549530 612.951782,229.530945 
	C593.635315,229.912964 574.277649,229.958450 554.401672,229.611740 
	C546.526001,223.114792 539.321899,216.812729 531.774597,210.952637 
	C521.106201,202.669144 510.070038,194.859222 499.404938,186.571640 
	C489.918335,179.199875 480.663971,171.524277 471.430176,163.834946 
	C468.104431,161.065475 465.137024,157.865662 462.006104,154.862228 
	C481.360077,154.830795 500.714020,154.799362 520.534180,154.820969 
z"/>
<path fill="#FF6977" opacity="1.000000" stroke="none" 
	d="
M315.538879,154.971893 
	C317.844452,157.023087 319.499451,159.243439 321.570129,160.963348 
	C330.347412,168.253677 339.122284,175.557480 348.133362,182.553238 
	C361.542267,192.963242 375.249634,202.989563 388.629395,213.436035 
	C394.962250,218.380508 400.830292,223.920364 406.949463,229.530304 
	C387.632904,229.915787 368.275757,229.961426 348.414490,229.594299 
	C346.777802,228.046341 345.759216,226.759842 344.491272,225.804276 
	C340.679626,222.931747 336.683746,220.300201 332.915283,217.374359 
	C318.828247,206.437149 304.826569,195.389984 290.745972,184.444382 
	C282.544006,178.068527 274.207123,171.865479 266.047882,165.436218 
	C264.718445,164.388672 263.997253,162.569199 262.994904,161.106522 
	C272.161560,159.716171 281.302124,158.109528 290.502686,157.000198 
	C298.660339,156.016632 306.884644,155.585709 315.538879,154.971893 
z"/>
<path fill="#FF6271" opacity="1.000000" stroke="none" 
	d="
M262.600220,161.085754 
	C263.997253,162.569199 264.718445,164.388672 266.047882,165.436218 
	C274.207123,171.865479 282.544006,178.068527 290.745972,184.444382 
	C304.826569,195.389984 318.828247,206.437149 332.915283,217.374359 
	C336.683746,220.300201 340.679626,222.931747 344.491272,225.804276 
	C345.759216,226.759842 346.777802,228.046341 347.950317,229.520996 
	C335.179382,230.158600 322.349609,230.128250 309.564026,230.864807 
	C300.293915,231.398849 291.082306,232.948975 281.417450,233.648315 
	C279.755707,231.390289 278.886261,229.072906 277.225372,227.746323 
	C268.574341,220.836441 259.668304,214.247055 250.955673,207.412704 
	C243.273819,201.386871 235.780426,195.120819 228.100647,189.092255 
	C224.864532,186.551910 221.363419,184.349121 217.982758,181.992889 
	C223.039703,172.926727 231.639099,168.835876 240.982819,166.116974 
	C247.956604,164.087692 255.124252,162.724686 262.600220,161.085754 
z"/>
<path fill="#FF838D" opacity="1.000000" stroke="none" 
	d="
M424.531067,41.330521 
	C426.457947,43.508198 427.559784,46.032093 429.457153,47.582279 
	C438.276031,54.787457 447.254364,61.802341 456.289459,68.736969 
	C470.819000,79.888725 485.548767,90.782654 499.961914,102.081459 
	C505.302948,106.268425 509.989685,111.290108 514.981262,116.265350 
	C496.629486,116.665169 478.271240,116.730759 459.445801,116.360535 
	C458.453613,114.933601 458.167786,113.647728 457.366272,112.997528 
	C450.311829,107.274811 443.245331,101.560913 436.029083,96.045006 
	C423.203308,86.241356 410.191833,76.679756 397.409698,66.820274 
	C388.781799,60.165138 380.357269,53.240864 371.986511,46.263348 
	C370.607880,45.114197 369.975800,43.069466 368.998688,41.438629 
	C387.356598,41.368492 405.714539,41.298351 424.531067,41.330521 
z"/>
<path fill="#FF6271" opacity="1.000000" stroke="none" 
	d="
M815.517639,607.009033 
	C820.197937,609.706116 825.209473,611.963135 829.493347,615.187073 
	C840.170105,623.222168 850.465332,631.762085 861.011780,639.973328 
	C868.432983,645.751343 876.015076,651.322632 883.896301,657.037354 
	C880.135254,674.490051 873.046631,690.645508 863.429321,706.055542 
	C858.367432,701.945190 853.785217,697.389465 848.773499,693.369263 
	C834.570435,681.976074 820.193787,670.799255 805.870667,659.556091 
	C805.498413,659.263916 804.955750,659.188660 804.198730,658.599121 
	C811.422913,641.954529 815.599976,624.965027 815.517639,607.009033 
z"/>
<path fill="#FF8992" opacity="1.000000" stroke="none" 
	d="
M637.543518,154.842834 
	C641.361938,158.403519 644.341248,162.397064 648.127563,165.358994 
	C663.234375,177.176666 678.671143,188.571579 693.827515,200.327148 
	C702.813416,207.296860 711.491760,214.662598 720.338562,221.812927 
	C721.745178,222.949783 723.568420,223.659958 724.741638,224.975342 
	C726.384338,226.817184 727.597839,229.041885 728.990845,231.474640 
	C712.631104,231.228409 696.275391,230.610352 679.453918,229.925522 
	C676.358887,227.255981 673.942017,224.386337 671.063599,222.096909 
	C658.943970,212.457245 646.718079,202.950150 634.471497,193.471481 
	C619.985840,182.259827 605.419067,171.152863 590.947937,159.922638 
	C589.443115,158.754822 588.347717,157.059448 587.034302,155.250641 
	C603.695984,154.862167 620.385681,154.831863 637.543518,154.842834 
z"/>
<path fill="#FF7985" opacity="1.000000" stroke="none" 
	d="
M461.539551,154.807556 
	C465.137024,157.865662 468.104431,161.065475 471.430176,163.834946 
	C480.663971,171.524277 489.918335,179.199875 499.404938,186.571640 
	C510.070038,194.859222 521.106201,202.669144 531.774597,210.952637 
	C539.321899,216.812729 546.526001,223.114792 553.936401,229.545715 
	C537.299072,229.916153 520.608582,229.960403 503.453003,229.933563 
	C501.961334,228.420288 501.192444,226.658356 499.865509,225.588928 
	C492.405396,219.576630 484.812958,213.728439 477.261810,207.829254 
	C468.266937,200.802231 459.278748,193.766602 450.268433,186.759476 
	C438.542633,177.640518 426.775604,168.574295 415.093933,159.399307 
	C413.851929,158.423813 413.061798,156.872955 412.036072,155.230133 
	C428.364410,154.831787 444.718689,154.792343 461.539551,154.807556 
z"/>
<path fill="#FE4D5D" opacity="1.000000" stroke="none" 
	d="
M246.108673,374.038330 
	C238.358948,368.144196 230.608109,362.251526 222.859848,356.355408 
	C216.555710,351.558258 210.287842,346.712616 203.942276,341.970947 
	C198.169281,337.657135 192.313293,333.454376 186.164230,329.057434 
	C197.078796,315.664886 210.710419,305.274353 225.590332,295.879700 
	C227.466812,297.861115 228.647659,300.381714 230.598511,301.935608 
	C244.127441,312.711823 257.802246,323.305389 271.461121,333.917816 
	C276.919250,338.158508 282.467346,342.283356 287.935486,346.511383 
	C288.410736,346.878845 288.593842,347.624176 288.584686,348.628235 
	C278.936371,353.846893 269.449677,358.340088 260.360718,363.529816 
	C255.269760,366.436707 250.837646,370.497467 246.108673,374.038330 
z"/>
<path fill="#FF7F8A" opacity="1.000000" stroke="none" 
	d="
M368.539856,41.334206 
	C369.975800,43.069466 370.607880,45.114197 371.986511,46.263348 
	C380.357269,53.240864 388.781799,60.165138 397.409698,66.820274 
	C410.191833,76.679756 423.203308,86.241356 436.029083,96.045006 
	C443.245331,101.560913 450.311829,107.274811 457.366272,112.997528 
	C458.167786,113.647728 458.453613,114.933601 458.987518,116.261398 
	C442.633301,116.664909 426.270172,116.731758 409.440552,116.361191 
	C408.663818,115.181892 408.563934,114.176910 408.012787,113.736237 
	C389.795135,99.169716 371.553619,84.632782 353.272186,70.146271 
	C342.898987,61.926369 332.422974,53.835983 322.078125,45.580868 
	C321.077057,44.782017 320.677277,43.229645 319.998352,42.027046 
	C324.933472,41.732006 329.866577,41.230473 334.804016,41.183910 
	C345.895233,41.079292 356.988556,41.200504 368.539856,41.334206 
z"/>
<path fill="#FF5D6C" opacity="1.000000" stroke="none" 
	d="
M328.532654,268.044861 
	C329.807190,269.635895 330.246826,271.625153 331.485199,272.608429 
	C349.616852,287.005646 367.845001,301.281464 386.071838,315.558563 
	C396.216980,323.505280 406.418579,331.380035 416.543335,339.352509 
	C417.527985,340.127808 418.149750,341.364014 418.508057,342.815857 
	C402.385803,343.192139 386.695496,343.138824 371.005157,343.085480 
	C368.536774,340.502869 366.303558,337.632141 363.556946,335.390381 
	C354.477356,327.979828 345.245453,320.753967 336.004852,313.543274 
	C331.323761,309.890533 326.429047,306.511353 321.752045,302.853577 
	C310.059143,293.708832 298.426025,284.487427 286.806335,275.249725 
	C286.068634,274.663269 285.651367,273.673767 285.038788,272.540741 
	C299.351410,270.798248 313.710297,269.386719 328.532654,268.044861 
z"/>
<path fill="#FF7985" opacity="1.000000" stroke="none" 
	d="
M319.589081,41.986897 
	C320.677277,43.229645 321.077057,44.782017 322.078125,45.580868 
	C332.422974,53.835983 342.898987,61.926369 353.272186,70.146271 
	C371.553619,84.632782 389.795135,99.169716 408.012787,113.736237 
	C408.563934,114.176910 408.663818,115.181892 408.982178,116.260345 
	C393.960266,116.660095 378.930298,116.723259 363.434937,116.344299 
	C362.311188,114.804459 361.897644,113.395699 360.957672,112.655769 
	C347.172668,101.804939 333.320343,91.039581 319.476868,80.263123 
	C316.349792,77.828857 313.138855,75.499275 310.065826,72.999451 
	C304.310333,68.317589 298.627472,63.546474 292.914398,58.812489 
	C298.944946,48.947521 307.670715,43.279854 319.589081,41.986897 
z"/>
<path fill="#FF5D6C" opacity="1.000000" stroke="none" 
	d="
M217.697571,182.189819 
	C221.363419,184.349121 224.864532,186.551910 228.100647,189.092255 
	C235.780426,195.120819 243.273819,201.386871 250.955673,207.412704 
	C259.668304,214.247055 268.574341,220.836441 277.225372,227.746323 
	C278.886261,229.072906 279.755707,231.390289 280.994873,233.619629 
	C271.547455,236.291000 262.207306,239.501190 252.617218,240.682297 
	C238.328674,242.442047 226.420837,236.805634 218.091583,224.991791 
	C209.517731,212.830994 208.787170,199.735199 215.215973,186.292526 
	C215.858978,184.947983 216.676086,183.686707 217.697571,182.189819 
z"/>
<path fill="#FF717E" opacity="1.000000" stroke="none" 
	d="
M292.624359,59.020103 
	C298.627472,63.546474 304.310333,68.317589 310.065826,72.999451 
	C313.138855,75.499275 316.349792,77.828857 319.476868,80.263123 
	C333.320343,91.039581 347.172668,101.804939 360.957672,112.655769 
	C361.897644,113.395699 362.311188,114.804459 362.977264,116.238724 
	C347.889709,116.388893 332.713654,117.121803 317.717865,115.803650 
	C294.422333,113.755928 280.091705,85.923119 290.072266,63.662136 
	C290.750275,62.149918 291.576843,60.704311 292.624359,59.020103 
z"/>
<path fill="#FFA4A8" opacity="1.000000" stroke="none" 
	d="
M734.407227,98.025955 
	C732.570190,95.827538 731.501831,92.833565 729.395081,91.106003 
	C718.436890,82.120316 707.200867,73.474113 696.087952,64.676384 
	C687.439087,57.829338 678.818848,50.945892 670.223877,44.031422 
	C669.652100,43.571411 669.402344,42.711067 668.980225,41.711254 
	C682.577515,41.608555 696.444763,40.279934 709.762085,42.402184 
	C732.203064,45.978374 744.286743,69.235031 738.550598,88.687508 
	C737.622437,91.834991 735.998962,94.777412 734.407227,98.025955 
z"/>
<path fill="#FFFFFF" opacity="1.000000" stroke="none" 
	d="
M370.541443,343.164917 
	C386.695496,343.138824 402.385803,343.192139 418.540161,343.168915 
	C441.695038,343.138092 464.385925,343.183807 487.541687,343.158630 
	C513.362976,343.130859 538.719299,343.173950 564.541260,343.151123 
	C586.029785,343.127441 607.052673,343.169678 628.542114,343.153076 
	C652.363342,343.130219 675.718140,343.166168 699.539673,343.147491 
	C710.917175,344.698914 722.070129,345.361816 732.693298,348.088531 
	C764.046326,356.136139 786.451355,375.918274 802.608032,403.824341 
	C808.537964,416.425598 813.251404,429.192047 814.455566,442.827850 
	C815.328125,452.709229 815.028137,462.694672 815.235229,472.634033 
	C815.293945,475.452087 815.297180,478.271301 815.420410,481.550140 
	C815.456299,501.702728 815.397522,521.395142 815.427734,541.548462 
	C815.460266,563.368286 815.403748,584.727173 815.432434,606.547485 
	C815.599976,624.965027 811.422913,641.954529 803.836914,658.551270 
	C791.940308,680.032654 776.145752,697.199829 754.213623,708.733154 
	C741.511292,714.876709 728.538635,719.223816 714.738403,720.485413 
	C707.830078,721.116943 700.855286,721.021301 693.452271,721.360107 
	C674.080933,721.377136 655.167847,721.261963 636.254700,721.209473 
	C624.139648,721.175842 612.024292,721.234619 599.450928,721.358521 
	C579.415466,721.378235 559.838196,721.268311 540.260864,721.213135 
	C528.809570,721.180908 517.358032,721.235962 505.448669,721.360107 
	C504.166321,721.390442 503.341888,721.244141 502.517426,721.244080 
	C451.982361,721.239563 401.447296,721.247009 350.453857,721.357910 
	C339.238342,721.539185 328.314636,722.828003 317.767273,721.378357 
	C305.249939,719.658142 293.016174,715.730835 280.748322,712.429993 
	C277.278809,711.496460 274.119904,709.408569 270.464783,707.759766 
	C268.686127,706.788513 267.261261,705.907715 265.346710,704.702271 
	C263.920685,703.874695 262.984344,703.371765 262.048035,702.868896 
	C256.902252,698.671875 251.756470,694.474854 246.301392,690.153564 
	C232.993011,676.238037 222.364059,661.077148 216.543411,642.706787 
	C212.518738,630.004578 210.631226,617.173279 210.957336,603.466064 
	C210.930450,577.979370 210.980042,552.955566 210.955475,527.468445 
	C210.941498,504.386597 210.846130,481.765930 211.147308,459.150543 
	C211.250931,451.369812 212.344193,443.602234 212.958801,435.415833 
	C214.362335,430.073181 215.717010,425.119934 217.236099,420.217682 
	C222.724960,402.504272 233.545761,388.119720 245.963013,374.345337 
	C250.837646,370.497467 255.269760,366.436707 260.360718,363.529816 
	C269.449677,358.340088 278.936371,353.846893 288.623901,348.965515 
	C312.440338,341.557373 336.617554,343.590515 360.612732,343.293579 
	C363.767456,343.254517 366.922729,343.259644 370.541443,343.164917 
M416.762787,591.920410 
	C416.743469,607.388550 416.593933,622.857910 416.733032,638.324646 
	C416.990448,666.948730 447.000885,684.990662 472.158478,671.411682 
	C481.116852,666.576416 489.395721,660.482361 498.662781,654.830139 
	C512.532288,645.927612 526.401794,637.025146 540.940491,627.992737 
	C559.289490,616.281372 577.638489,604.570068 596.653320,592.723755 
	C604.595581,587.583740 612.728699,582.711548 620.425842,577.227539 
	C627.966370,571.855103 633.803040,564.872253 637.671631,555.587891 
	C648.810120,529.254639 640.889832,500.450134 617.263123,485.252136 
	C569.576477,454.577393 521.604736,424.344208 473.640625,394.103363 
	C460.648407,385.911957 442.853333,387.382782 431.063019,397.058044 
	C428.158905,400.211823 424.613190,402.981750 422.458130,406.583710 
	C411.128510,425.519989 416.372467,447.045654 435.224518,459.109344 
	C464.920013,478.111877 494.743530,496.914276 524.514099,515.799438 
	C533.051025,521.214905 541.592102,526.623718 550.470764,532.250732 
	C544.878418,536.018433 539.809326,539.433655 534.078369,543.004517 
	C520.341675,551.657043 506.604980,560.309509 492.108124,569.440796 
	C492.108124,564.234497 492.254028,559.962402 492.068726,555.704773 
	C491.867004,551.070007 491.929871,546.314026 490.878418,541.845947 
	C487.301910,526.648254 473.460236,515.250122 458.759430,513.804260 
	C439.254822,511.885803 424.346436,524.127686 419.615509,536.597229 
	C419.038605,538.293274 418.001343,539.977234 417.956207,541.687317 
	C417.522552,558.121155 417.256165,574.559509 416.762787,591.920410 
z"/>
<path fill="#F9373E" opacity="1.000000" stroke="none" 
	d="
M262.087433,703.238159 
	C262.984344,703.371765 263.920685,703.874695 265.030884,704.649658 
	C264.178802,704.483643 263.152832,704.045532 262.087433,703.238159 
z"/>
<path fill="#FF5666" opacity="1.000000" stroke="none" 
	d="
M637.136230,556.048401 
	C633.803040,564.872253 627.966370,571.855103 620.425842,577.227539 
	C612.728699,582.711548 604.595581,587.583740 596.316528,592.433105 
	C594.606262,590.405273 593.495911,588.343506 591.817200,586.982788 
	C579.660400,577.128723 567.466797,567.316101 555.122192,557.699219 
	C548.494385,552.535828 541.544678,547.785583 534.740234,542.848877 
	C539.809326,539.433655 544.878418,536.018433 550.470764,532.250732 
	C541.592102,526.623718 533.051025,521.214905 524.514099,515.799438 
	C494.743530,496.914276 464.920013,478.111877 435.224518,459.109344 
	C416.372467,447.045654 411.128510,425.519989 422.458130,406.583710 
	C424.613190,402.981750 428.158905,400.211823 431.764343,397.028870 
	C434.143494,397.680695 436.081818,398.025787 437.459290,399.094116 
	C453.004791,411.150421 468.493927,423.280029 483.936859,435.467743 
	C495.228271,444.379028 506.363220,453.489410 517.694580,462.349030 
	C524.207825,467.441528 531.095459,472.055817 537.597595,477.161713 
	C548.139404,485.439697 558.401428,494.074799 568.972717,502.313965 
	C577.831665,509.218536 587.136780,515.554565 595.935059,522.532349 
	C609.805054,533.532532 623.415771,544.859619 637.136230,556.048401 
z"/>
<path fill="#FF5D6C" opacity="1.000000" stroke="none" 
	d="
M637.403931,555.818115 
	C623.415771,544.859619 609.805054,533.532532 595.935059,522.532349 
	C587.136780,515.554565 577.831665,509.218536 568.972717,502.313965 
	C558.401428,494.074799 548.139404,485.439697 537.597595,477.161713 
	C531.095459,472.055817 524.207825,467.441528 517.694580,462.349030 
	C506.363220,453.489410 495.228271,444.379028 483.936859,435.467743 
	C468.493927,423.280029 453.004791,411.150421 437.459290,399.094116 
	C436.081818,398.025787 434.143494,397.680695 432.080566,396.937073 
	C442.853333,387.382782 460.648407,385.911957 473.640625,394.103363 
	C521.604736,424.344208 569.576477,454.577393 617.263123,485.252136 
	C640.889832,500.450134 648.810120,529.254639 637.403931,555.818115 
z"/>
<path fill="#FE4D5D" opacity="1.000000" stroke="none" 
	d="
M534.409302,542.926758 
	C541.544678,547.785583 548.494385,552.535828 555.122192,557.699219 
	C567.466797,567.316101 579.660400,577.128723 591.817200,586.982788 
	C593.495911,588.343506 594.606262,590.405273 595.983643,592.500610 
	C577.638489,604.570068 559.289490,616.281372 540.280457,627.914062 
	C531.189819,621.158691 522.735168,614.512085 514.333984,607.798584 
	C500.402069,596.665527 486.546936,585.435974 472.580322,574.346680 
	C458.976654,563.545654 445.363434,552.752014 431.550629,542.222473 
	C428.134003,539.618042 423.927704,538.049622 420.084381,536.004944 
	C424.346436,524.127686 439.254822,511.885803 458.759430,513.804260 
	C473.460236,515.250122 487.301910,526.648254 490.878418,541.845947 
	C491.929871,546.314026 491.867004,551.070007 492.068726,555.704773 
	C492.254028,559.962402 492.108124,564.234497 492.108124,569.440796 
	C506.604980,560.309509 520.341675,551.657043 534.409302,542.926758 
z"/>
<path fill="#FD4858" opacity="1.000000" stroke="none" 
	d="
M419.849945,536.301086 
	C423.927704,538.049622 428.134003,539.618042 431.550629,542.222473 
	C445.363434,552.752014 458.976654,563.545654 472.580322,574.346680 
	C486.546936,585.435974 500.402069,596.665527 514.333984,607.798584 
	C522.735168,614.512085 531.189819,621.158691 539.945862,627.979004 
	C526.401794,637.025146 512.532288,645.927612 498.186951,654.587891 
	C496.431305,652.875488 495.332855,651.181152 493.840607,649.973328 
	C486.913239,644.366089 479.882416,638.886536 472.877869,633.374939 
	C464.226379,626.567444 455.552612,619.788269 446.910950,612.968384 
	C441.247192,608.498657 435.733704,603.829712 429.944244,599.531067 
	C425.788818,596.445557 421.288422,593.824646 416.941895,590.996521 
	C417.256165,574.559509 417.522552,558.121155 417.956207,541.687317 
	C418.001343,539.977234 419.038605,538.293274 419.849945,536.301086 
z"/>
<path fill="#FC4150" opacity="1.000000" stroke="none" 
	d="
M416.852356,591.458496 
	C421.288422,593.824646 425.788818,596.445557 429.944244,599.531067 
	C435.733704,603.829712 441.247192,608.498657 446.910950,612.968384 
	C455.552612,619.788269 464.226379,626.567444 472.877869,633.374939 
	C479.882416,638.886536 486.913239,644.366089 493.840607,649.973328 
	C495.332855,651.181152 496.431305,652.875488 497.847961,654.654297 
	C489.395721,660.482361 481.116852,666.576416 472.158478,671.411682 
	C447.000885,684.990662 416.990448,666.948730 416.733032,638.324646 
	C416.593933,622.857910 416.743469,607.388550 416.852356,591.458496 
z"/>
</svg>